<svg xmlns="http://www.w3.org/2000/svg" width="17.457" height="18.488" viewBox="0 0 17.457 18.488">
  <g id="Bag" transform="translate(0.499 0.5)">
    <path id="Path_33955" d="M12.021,13.358H4.426C1.636,13.358-.5,12.35.1,8.294L.812,2.8C1.186.774,2.477,0,3.61,0h9.26c1.149,0,2.365.833,2.8,2.8l.708,5.5C16.892,11.892,14.811,13.358,12.021,13.358Z" transform="translate(0 4.131)" fill="none" stroke="#3b3b3b" stroke-linecap="round" stroke-linejoin="round" stroke-miterlimit="10" stroke-width="1"/>
    <path id="Path_33956" d="M7.878,3.931A3.931,3.931,0,0,0,3.947,0h0A3.931,3.931,0,0,0,0,3.931H0" transform="translate(4.268 0)" fill="none" stroke="#3b3b3b" stroke-linecap="round" stroke-linejoin="round" stroke-miterlimit="10" stroke-width="1"/>
    <path id="Line_192" d="M.476.458H.435" transform="translate(10.437 7.57)" fill="none" stroke="#3b3b3b" stroke-linecap="round" stroke-linejoin="round" stroke-miterlimit="10" stroke-width="1"/>
    <path id="Line_193" d="M.476.458H.435" transform="translate(5.132 7.57)" fill="none" stroke="#3b3b3b" stroke-linecap="round" stroke-linejoin="round" stroke-miterlimit="10" stroke-width="1"/>
  </g>
</svg>
