<svg xmlns="http://www.w3.org/2000/svg" width="15.192" height="18.23" viewBox="0 0 15.192 18.23">
  <g id="bell_1_" data-name="bell (1)" transform="translate(-2)">
    <g id="Group_68817" data-name="Group 68817" transform="translate(8.077 0)">
      <path id="Path_59545" data-name="Path 59545" d="M12.659,3.175a.38.38,0,0,1-.38-.38V1.519a.76.76,0,0,0-1.519,0V2.8a.38.38,0,0,1-.76,0V1.519a1.519,1.519,0,1,1,3.038,0V2.8A.379.379,0,0,1,12.659,3.175Z" transform="translate(-10 0)" fill="#d4801e"/>
    </g>
    <g id="Group_68818" data-name="Group 68818" transform="translate(6.937 15.192)">
      <path id="Path_59546" data-name="Path 59546" d="M11.159,23.038A2.662,2.662,0,0,1,8.5,20.38a.38.38,0,1,1,.76,0,1.9,1.9,0,0,0,3.8,0,.38.38,0,1,1,.76,0A2.662,2.662,0,0,1,11.159,23.038Z" transform="translate(-8.5 -20)" fill="#d4801e"/>
    </g>
    <g id="Group_68819" data-name="Group 68819" transform="translate(2 2.279)">
      <path id="Path_59547" data-name="Path 59547" d="M16.053,16.673H3.139A1.139,1.139,0,0,1,2.4,14.667a5.281,5.281,0,0,0,1.88-4.043V8.317a5.317,5.317,0,0,1,10.634,0v2.308a5.275,5.275,0,0,0,1.874,4.037,1.14,1.14,0,0,1-.735,2.011ZM9.6,3.76A4.562,4.562,0,0,0,5.038,8.317v2.308A6.035,6.035,0,0,1,2.9,15.242a.38.38,0,0,0,.244.671H16.053a.38.38,0,0,0,.247-.668,6.039,6.039,0,0,1-2.146-4.62V8.317A4.562,4.562,0,0,0,9.6,3.76Z" transform="translate(-2 -3)" fill="#d4801e"/>
    </g>
  </g>
</svg>
