<svg xmlns="http://www.w3.org/2000/svg" width="30.022" height="33.935" viewBox="0 0 30.022 33.935">
  <g id="Group_68441" data-name="Group 68441" transform="translate(0)">
    <g id="Group_43" data-name="Group 43" transform="translate(3.087 0.866)">
      <g id="Group_33" data-name="Group 33" transform="translate(6.551)">
        <path id="Path_41" data-name="Path 41" d="M758.939,129.379a2.965,2.965,0,1,1-2.372,3.457A2.965,2.965,0,0,1,758.939,129.379Zm.773,4.151a1.257,1.257,0,1,0-1.466-1.006A1.257,1.257,0,0,0,759.711,133.53Z" transform="translate(-756.516 -129.329)" fill="#fcd329"/>
        <path id="Path_42" data-name="Path 42" d="M756.516,161.389a10.139,10.139,0,0,1,1.654-.747,1.258,1.258,0,1,0,2.345-.464,10.179,10.179,0,0,1,1.818.067v0a2.964,2.964,0,0,1-5.818,1.14Z" transform="translate(-756.453 -157.826)" fill="#fcd329" style="mix-blend-mode: multiply;isolation: isolate"/>
        <path id="Path_43" data-name="Path 43" d="M756.516,161.389a10.139,10.139,0,0,1,1.654-.747,1.258,1.258,0,1,0,2.345-.464,10.179,10.179,0,0,1,1.818.067v0a2.964,2.964,0,0,1-5.818,1.14Z" transform="translate(-756.453 -157.826)" fill="#fcd329" style="mix-blend-mode: multiply;isolation: isolate"/>
        <g id="Group_32" data-name="Group 32" transform="translate(1.809 0.169)" opacity="0.7">
          <g id="Group_31" data-name="Group 31" transform="translate(1.203 0.108)" style="mix-blend-mode: screen;isolation: isolate">
            <path id="Path_44" data-name="Path 44" d="M765.552,133.158c-.026.247.519.463,1.082.813s.978.793,1.11.732-.038-.781-.723-1.321S765.565,132.915,765.552,133.158Z" transform="translate(-765.551 -132.972)" fill="#fcd329"/>
          </g>
          <path id="Path_45" data-name="Path 45" d="M797.352,131.933c.028.149.279.227.561.175s.488-.216.46-.365-.279-.227-.561-.175S797.325,131.784,797.352,131.933Z" transform="translate(-797.35 -131.552)" fill="#fcd329" style="mix-blend-mode: screen;isolation: isolate"/>
        </g>
      </g>
      <g id="Group_35" data-name="Group 35" transform="translate(7.337 19.997)">
        <circle id="Ellipse_10" data-name="Ellipse 10" cx="4.622" cy="4.622" r="4.622" transform="translate(6.536 13.072) rotate(-135)" fill="#fcd329"/>
        <path id="Path_46" data-name="Path 46" d="M745.148,419.117a4.623,4.623,0,0,1,7.192,4.532l-8.868.953v0q-.038-.1-.073-.2v0q-.033-.1-.062-.2c0-.017-.009-.035-.014-.052-.015-.053-.029-.105-.042-.159-.017-.073-.033-.147-.047-.222A4.622,4.622,0,0,1,745.148,419.117Z" transform="translate(-741.24 -416.382)" fill="#fcd329" style="mix-blend-mode: multiply;isolation: isolate"/>
        <path id="Path_47" data-name="Path 47" d="M745.148,419.117a4.623,4.623,0,0,1,7.192,4.532l-8.868.953v0q-.038-.1-.073-.2v0q-.033-.1-.062-.2c0-.017-.009-.035-.014-.052-.015-.053-.029-.105-.042-.159-.017-.073-.033-.147-.047-.222A4.622,4.622,0,0,1,745.148,419.117Z" transform="translate(-741.24 -416.382)" fill="#fcd329" opacity="0.5" style="mix-blend-mode: multiply;isolation: isolate"/>
        <path id="Path_48" data-name="Path 48" d="M749.3,435.243a4.621,4.621,0,0,0,7.461,5.119,4.621,4.621,0,1,1-7.461-5.119Z" transform="translate(-745.965 -432.044)" fill="#fcd329" opacity="0.5" style="mix-blend-mode: multiply;isolation: isolate"/>
        <g id="Group_34" data-name="Group 34" transform="translate(7.356 7.355)" opacity="0.7">
          <ellipse id="Ellipse_11" data-name="Ellipse 11" cx="0.668" cy="1.079" rx="0.668" ry="1.079" transform="translate(1.29 2.016) rotate(-110.823)" fill="#fcd329" style="mix-blend-mode: screen;isolation: isolate"/>
          <path id="Path_49" data-name="Path 49" d="M783.063,512.227c.049.129.258.169.467.089s.339-.248.29-.377-.258-.168-.467-.089S783.015,512.1,783.063,512.227Z" transform="translate(-783.053 -510.16)" fill="#fcd329" style="mix-blend-mode: screen;isolation: isolate"/>
        </g>
      </g>
      <g id="Group_42" data-name="Group 42" transform="translate(0 2.807)">
        <path id="Path_50" data-name="Path 50" d="M566.933,187.027c2.263-3,1.44-7.024,1.236-10.5-.52-8.837,7.342-10.036,7.342-10.036s7.767-1.71,10.461,6.722c1.061,3.319,1.74,7.369,4.932,9.354.893.555,1.723,1.1,1.9,2.221a2.932,2.932,0,0,1-1.951,3.055,5.8,5.8,0,0,1-1.294.387l-9.669,1.8-9.669,1.8a5.8,5.8,0,0,1-1.346.1,2.932,2.932,0,0,1-2.919-2.148A3.307,3.307,0,0,1,566.933,187.027Z" transform="translate(-565.903 -166.347)" fill="#fcd329"/>
        <path id="Path_51" data-name="Path 51" d="M626.946,329.27a9.336,9.336,0,0,0,1.959,2.944l-22.039,4.1a9.338,9.338,0,0,0,.769-3.452Z" transform="translate(-605.076 -316.917)" fill="#fcd329" opacity="0.5" style="mix-blend-mode: multiply;isolation: isolate"/>
        <path id="Path_52" data-name="Path 52" d="M631.464,329l-21.693,4.038a9.9,9.9,0,0,0,.654-3.431l19.194-3.573A9.9,9.9,0,0,0,631.464,329Z" transform="translate(-607.854 -313.93)" fill="#f7a231"/>
        <path id="Path_53" data-name="Path 53" d="M631.97,330.011q.012-.2.019-.4l19.194-3.573q.078.185.162.367Z" transform="translate(-629.419 -313.93)" fill="#f7a231" opacity="0.2" style="mix-blend-mode: screen;isolation: isolate"/>
        <path id="Path_54" data-name="Path 54" d="M802.234,192.916a2,2,0,0,0,.782,0l-3.7.689a5.353,5.353,0,0,1-1.294.1,2.886,2.886,0,0,1-2.822-2.166,3.337,3.337,0,0,1,.919-2.746c2.155-2.98,1.335-7,1.113-10.479-.526-8.253,6.035-9.788,6.895-9.953l.039-.007c-.51.1-4.437,1.138-3.52,9.325.386,3.444,1.179,7.474.069,10.259a4.219,4.219,0,0,0-.366,2.643A2.755,2.755,0,0,0,802.234,192.916Z" transform="translate(-794.609 -168.196)" fill="#fcd329" opacity="0.5" style="mix-blend-mode: multiply;isolation: isolate"/>
        <g id="Group_36" data-name="Group 36" transform="translate(9.656 0.048)" opacity="0.3" style="mix-blend-mode: screen;isolation: isolate">
          <path id="Path_55" data-name="Path 55" d="M608.894,186.5a4.364,4.364,0,0,0-1.252-2.342c-1.959-2.214-2.671-6.258-3.538-9.613-2.065-7.987-5.913-7.566-6.39-7.481.59-.112,6.436-1.007,8.807,7.031.983,3.333,1.676,7.381,4.375,9.457a3.508,3.508,0,0,1,1.643,2.269,2.762,2.762,0,0,1-1.512,2.973,3.934,3.934,0,0,1-1.056.342l-2.626.489a1.824,1.824,0,0,0,.7-.276A2.785,2.785,0,0,0,608.894,186.5Z" transform="translate(-597.715 -166.984)" fill="#fcd329"/>
        </g>
        <path id="Path_56" data-name="Path 56" d="M595.563,430.15a3.509,3.509,0,0,1-1.689,1.492,5.8,5.8,0,0,1-1.294.387l-9.669,1.8-9.669,1.8a5.8,5.8,0,0,1-1.346.1,3.509,3.509,0,0,1-2.113-.784Z" transform="translate(-568.922 -410.147)" fill="#fcd329" opacity="0.5" style="mix-blend-mode: multiply;isolation: isolate"/>
        <g id="Group_39" data-name="Group 39" transform="translate(12.264 17.029)" opacity="0.8">
          <g id="Group_37" data-name="Group 37" transform="translate(4.525)" opacity="0.7" style="mix-blend-mode: screen;isolation: isolate">
            <path id="Path_57" data-name="Path 57" d="M585.143,392.688c.023.334,2.054.456,4.492,0s4.29-1.3,4.192-1.615-2.05-.025-4.416.411S585.117,392.348,585.143,392.688Z" transform="translate(-585.143 -390.934)" fill="#fcd329"/>
          </g>
          <g id="Group_38" data-name="Group 38" transform="translate(0 1.743)" opacity="0.7" style="mix-blend-mode: screen;isolation: isolate">
            <path id="Path_58" data-name="Path 58" d="M717.406,414.773c-.015.335.769.636,1.723.457s1.578-.739,1.443-1.046-.861-.3-1.667-.158S717.419,414.432,717.406,414.773Z" transform="translate(-717.406 -413.928)" fill="#fcd329"/>
          </g>
        </g>
        <g id="Group_41" data-name="Group 41" transform="translate(10.925 0.605)">
          <g id="Group_40" data-name="Group 40" transform="translate(2.718 0.896)" opacity="0.7" style="mix-blend-mode: screen;isolation: isolate">
            <path id="Path_59" data-name="Path 59" d="M672.453,186.468c-.211.647,1.125,1.537,2.433,2.8,1.355,1.234,2.166,2.684,2.556,2.6.383-.052.344-2.114-1.183-3.953S672.627,185.824,672.453,186.468Z" transform="translate(-672.431 -186.143)" fill="#fcd329"/>
          </g>
          <ellipse id="Ellipse_12" data-name="Ellipse 12" cx="0.602" cy="1.139" rx="0.602" ry="1.139" transform="translate(0.22 1.6) rotate(-100.544)" fill="#fcd329" opacity="0.7" style="mix-blend-mode: screen;isolation: isolate"/>
        </g>
      </g>
    </g>
    <g id="Group_46" data-name="Group 46" transform="translate(18.984)">
      <g id="Group_44" data-name="Group 44" transform="translate(0 2.553)">
        <path id="Path_60" data-name="Path 60" d="M649.221,156.2a.5.5,0,0,0,.429-.753,9.486,9.486,0,0,0-4.3-3.818.5.5,0,0,0-.4.913,8.48,8.48,0,0,1,3.842,3.413A.5.5,0,0,0,649.221,156.2Z" transform="translate(-644.652 -151.584)" fill="#999"/>
      </g>
      <g id="Group_45" data-name="Group 45" transform="translate(0.363)">
        <path id="Path_61" data-name="Path 61" d="M619.313,124.257a.374.374,0,0,0,.333-.545,11.809,11.809,0,0,0-6.6-5.778.374.374,0,0,0-.25.705,11.064,11.064,0,0,1,6.182,5.413A.374.374,0,0,0,619.313,124.257Z" transform="translate(-612.548 -117.913)" fill="#999"/>
      </g>
    </g>
    <g id="Group_49" data-name="Group 49" transform="translate(0 2.767)">
      <g id="Group_47" data-name="Group 47" transform="translate(2.522 2.326)">
        <path id="Path_62" data-name="Path 62" d="M881.086,190.8a.5.5,0,0,1-.652-.57,9.487,9.487,0,0,1,2.8-5.018.5.5,0,0,1,.68.73,8.48,8.48,0,0,0-2.506,4.486A.5.5,0,0,1,881.086,190.8Z" transform="translate(-880.423 -185.08)" fill="#999"/>
      </g>
      <g id="Group_48" data-name="Group 48">
        <path id="Path_63" data-name="Path 63" d="M897.144,162.52a.374.374,0,0,1-.493-.405,11.809,11.809,0,0,1,4.333-7.625.374.374,0,0,1,.468.584,11.063,11.063,0,0,0-4.059,7.144A.374.374,0,0,1,897.144,162.52Z" transform="translate(-896.647 -154.407)" fill="#999"/>
      </g>
    </g>
  </g>
</svg>
