<svg xmlns="http://www.w3.org/2000/svg" width="24" height="24" viewBox="0 0 24 24">
  <g id="Group_68866" data-name="Group 68866" transform="translate(1421 -7279)">
    <rect id="Rectangle_8681" data-name="Rectangle 8681" width="24" height="24" transform="translate(-1421 7279)" fill="none"/>
    <g id="notification-bing" transform="translate(-1418 7282)">
      <path id="Vector" d="M6.62,0A5.044,5.044,0,0,0,1.676,5.141V6.762a4.131,4.131,0,0,1-.468,1.76L.265,10.159a1.668,1.668,0,0,0,.891,2.509,16.7,16.7,0,0,0,10.935,0,1.738,1.738,0,0,0,.891-2.509l-.943-1.637a4.161,4.161,0,0,1-.468-1.76V5.141A5.074,5.074,0,0,0,6.62,0Z" transform="translate(2.395 1.544)" fill="none" stroke="#3b3b3b" stroke-linecap="round" stroke-width="1.3"/>
      <path id="Vector-2" data-name="Vector" d="M5.141,0A2.58,2.58,0,0,1,2.571,2.571,2.575,2.575,0,0,1,.757,1.814,2.575,2.575,0,0,1,0,0" transform="translate(6.429 14.516)" fill="none" stroke="#3b3b3b" stroke-width="1.3"/>
      <path id="Vector-3" data-name="Vector" d="M0,0H18V18H0Z" fill="none" opacity="0"/>
    </g>
  </g>
</svg>
