<svg xmlns="http://www.w3.org/2000/svg" width="270.301" height="231.482" viewBox="0 0 270.301 231.482">
  <g id="_Group_" data-name="&lt;Group&gt;" transform="translate(0 0)">
    <path id="_Path_" data-name="&lt;Path&gt;" d="M195.175,211.343l90.91-44.708V68.66L188.11,104.586v102.36A4.9,4.9,0,0,0,195.175,211.343Z" transform="translate(-150.937 -31.514)" fill="#eda462"/>
    <path id="_Path_2" data-name="&lt;Path&gt;" d="M286.075,292.765,190.84,245.93a4.9,4.9,0,0,1-2.74-4.4V134.35l97.975,35.926Z" transform="translate(-150.932 -61.283)" fill="#dd9b5e"/>
    <path id="_Path_3" data-name="&lt;Path&gt;" d="M458.19,211.343l-90.91-44.708V68.66l97.975,35.926v102.36A4.9,4.9,0,0,1,458.19,211.343Z" transform="translate(-232.132 -31.514)" fill="#e59351"/>
    <path id="_Path_4" data-name="&lt;Path&gt;" d="M404.42.73,367.28,37.876,465.255,73.8l37.179-37.5Z" transform="translate(-232.132 -0.73)" fill="#f6c482"/>
    <path id="_Path_5" data-name="&lt;Path&gt;" d="M120.13,36.306,157.3,73.8l97.975-35.926L218.143.73Z" transform="translate(-120.13 -0.73)" fill="#f6c482"/>
    <path id="_Path_6" data-name="&lt;Path&gt;" d="M367.27,292.765l95.235-46.836a4.911,4.911,0,0,0,2.74-4.4V134.35L367.27,170.276Z" transform="translate(-232.127 -61.283)" fill="#f6c482"/>
    <path id="_Path_7" data-name="&lt;Path&gt;" d="M243.339,312.97l-38.846-17.509a4.309,4.309,0,0,1-2.422-3.543V271.9c0-1.351,1.083-1.958,2.422-1.356l38.846,17.515a4.3,4.3,0,0,1,2.428,3.543v20.008C245.767,312.97,244.679,313.577,243.339,312.97Z" transform="translate(-157.263 -122.899)" fill="#cb794d"/>
    <g id="_Group_2" data-name="&lt;Group&gt;" transform="translate(147.588 182.286)">
      <path id="_Compound_Path_" data-name="&lt;Compound Path&gt;" d="M410.443,341.529c0,5.906-4.572,12.457-10.209,14.639s-10.2-.837-10.2-6.742,4.566-12.451,10.2-14.633S410.443,335.629,410.443,341.529Z" transform="translate(-390.03 -334.082)" fill="#cb794d"/>
      <path id="_Compound_Path_2" data-name="&lt;Compound Path&gt;" d="M392.185,348.887c0-5.523,4-11.609,9.132-14.157a11.343,11.343,0,0,0-1.083.355c-5.638,2.182-10.2,8.733-10.2,14.633s4.566,8.919,10.2,6.742c.366-.142.727-.306,1.083-.481C396.187,357.4,392.185,354.4,392.185,348.887Z" transform="translate(-390.03 -334.376)" fill="#b76441"/>
      <path id="_Compound_Path_3" data-name="&lt;Compound Path&gt;" d="M396.847,362.485l4.473-1.733a1.336,1.336,0,0,0,.809-1.159.549.549,0,0,0-.809-.536l-4.473,1.733c-.011,0-.027.005-.038-.011a.04.04,0,0,1,0-.049l1.176-2.625c.569.29,1.438-.552,1.329-1.28l-.224-1.465c-.033-.569-.6-.722-1.1-.312l-1.465,1.165a1.2,1.2,0,0,0-.459,1.28.511.511,0,0,0,.525.3L395.4,360.44C394.769,361.845,395.568,362.977,396.847,362.485Z" transform="translate(-392.363 -343.478)" fill="#b76441"/>
      <path id="_Compound_Path_4" data-name="&lt;Compound Path&gt;" d="M416.223,352.14l-2.176-3.177c-.224-.323-.716-.273-1.1.109a1.091,1.091,0,0,0-.306,1.274l2.182,3.177c.005.005.011.022,0,.049s-.033.038-.044.038l-2.45.951a.686.686,0,0,0-.159-.645c-.279-.257-.787-.12-1.137.306-.066.077-1.181,1.438-1.241,1.509-.388.487-.4,1.132.011,1.318l1.23.547c.35.159.859-.1,1.137-.574a1.082,1.082,0,0,0,.159-.766l2.45-.946C416.053,354.814,416.857,353.064,416.223,352.14Z" transform="translate(-398.85 -340.729)" fill="#b76441"/>
      <path id="_Compound_Path_5" data-name="&lt;Compound Path&gt;" d="M408.894,340.788a1.208,1.208,0,0,0-.651.448l-1.307-1.9c-.634-.935-2.258-.306-2.9,1.121l-2.308,5.157c-.224.492-.087.957.3,1.034a1.129,1.129,0,0,0,1.1-.744l2.313-5.157a.063.063,0,0,1,.038-.038c.027-.011.038,0,.044.005l1.312,1.925a1.382,1.382,0,0,0-.52.7c-.164.5.038.913.459.924l1.46.038a1.277,1.277,0,0,0,1.11-1.17l.224-1.64C409.643,341,409.337,340.689,408.894,340.788Z" transform="translate(-395.283 -336.261)" fill="#b76441"/>
    </g>
    <g id="_Group_3" data-name="&lt;Group&gt;" transform="translate(172.83 172.096)">
      <path id="_Compound_Path_6" data-name="&lt;Compound Path&gt;" d="M452.857,336.259l-15.683,7.585a1.8,1.8,0,0,0-.984,1.455c0,.541.443.766.984.5l15.683-7.59a1.775,1.775,0,0,0,.973-1.444C453.831,336.221,453.4,336,452.857,336.259Z" transform="translate(-436.19 -324.83)" fill="#cb794d"/>
      <path id="_Compound_Path_7" data-name="&lt;Compound Path&gt;" d="M437.177,330.553a1.855,1.855,0,0,0,.694-.623l1.263-1.876v6.453c0,.547.437.766.979.5a1.8,1.8,0,0,0,.984-1.455V327.1l1.269.651a.774.774,0,0,0,.695-.049,1.811,1.811,0,0,0,.684-.618c.388-.569.388-1.187,0-1.383l-2.937-1.515a.562.562,0,0,0-.323-.06,1.259,1.259,0,0,0-.744.361,2.276,2.276,0,0,0-.323.366l-2.936,4.364c-.383.569-.383,1.181,0,1.383A.791.791,0,0,0,437.177,330.553Z" transform="translate(-436.192 -319.38)" fill="#cb794d"/>
      <path id="_Compound_Path_8" data-name="&lt;Compound Path&gt;" d="M455.1,321.875a1.8,1.8,0,0,0,.694-.618l1.263-1.876v6.453c0,.541.443.766.984.5a1.8,1.8,0,0,0,.979-1.454v-6.453l1.269.651a.773.773,0,0,0,.695-.049,1.824,1.824,0,0,0,.689-.618c.383-.569.383-1.187,0-1.383l-2.936-1.52a.681.681,0,0,0-.323-.06,1.325,1.325,0,0,0-.749.361,2.04,2.04,0,0,0-.317.372l-2.942,4.364c-.383.563-.383,1.181,0,1.378A.774.774,0,0,0,455.1,321.875Z" transform="translate(-444.313 -315.449)" fill="#cb794d"/>
    </g>
    <g id="_Group_4" data-name="&lt;Group&gt;" transform="translate(20.774 32.049)">
      <path id="_Path_8" data-name="&lt;Path&gt;" d="M158.12,59.34,255.078,95l17.411,41.28-97.953-35.916Z" transform="translate(-158.12 -59.34)" fill="#df9f61"/>
    </g>
    <path id="_Path_9" data-name="&lt;Path&gt;" d="M481.648,59.36l-.41,1.017-15.995,39.995-96.9,35.549-1.034.377h-.016L384.7,95.008Z" transform="translate(-232.137 -27.3)" fill="#df9f61"/>
    <g id="_Group_5" data-name="&lt;Group&gt;" transform="translate(116.977 67.396)">
      <path id="_Path_10" data-name="&lt;Path&gt;" d="M351.423,165.287l.558-.23.771-.328L335.559,123.98l-.755.312-.755.328,17.127,40.585Z" transform="translate(-334.05 -123.98)" fill="#cb794d"/>
    </g>
    <g id="_Group_6" data-name="&lt;Group&gt;" transform="translate(20.495 31.278)">
      <path id="_Path_11" data-name="&lt;Path&gt;" d="M254.092,94.682,157.61,59.472l.563-1.542L255.6,94.048Z" transform="translate(-157.61 -57.93)" fill="#f6c482"/>
    </g>
    <g id="_Group_7" data-name="&lt;Group&gt;" transform="translate(134.399 31.289)">
      <path id="_Path_12" data-name="&lt;Path&gt;" d="M481.3,59.492l-.689.246L384.693,95.025l-16.979,40.257-1.034.377h-.016l-.755-.328,17.537-41.6,97.3-35.779.279.771Z" transform="translate(-365.91 -57.95)" fill="#f6c482"/>
    </g>
  </g>
</svg>
