<svg xmlns="http://www.w3.org/2000/svg" xmlns:xlink="http://www.w3.org/1999/xlink" width="9" height="9" viewBox="0 0 9 9">
  <defs>
    <clipPath id="clip-path">
      <rect id="Rectangle_291" data-name="Rectangle 291" width="9" height="9" transform="translate(-0.604 -0.208)" fill="#fff" stroke="#707070" stroke-width="1"/>
    </clipPath>
  </defs>
  <g id="Mask_Group_36" data-name="Mask Group 36" transform="translate(0.604 0.208)" clip-path="url(#clip-path)">
    <g id="heart" transform="translate(0.555 1.238)">
      <path id="Path_279" data-name="Path 279" d="M4.9,0A1.784,1.784,0,0,0,3.341.91,1.784,1.784,0,0,0,1.786,0,1.888,1.888,0,0,0,0,1.9C0,4.378,3.341,6.106,3.341,6.106S6.682,4.378,6.682,1.9A1.888,1.888,0,0,0,4.9,0Zm0,0" transform="translate(0 0)" fill="#ff6243"/>
      <path id="Path_280" data-name="Path 280" d="M.461,1.9A1.913,1.913,0,0,1,2.029.017,1.778,1.778,0,0,0,1.786,0,1.888,1.888,0,0,0,0,1.9C0,4.378,3.341,6.106,3.341,6.106s.086-.045.23-.13C2.817,5.533.461,3.981.461,1.9Zm0,0" transform="translate(0 0)" fill="#ff5023"/>
    </g>
  </g>
</svg>
