<svg xmlns="http://www.w3.org/2000/svg" width="478.595" height="362.353" viewBox="0 0 478.595 362.353">
  <g id="OBJECTS" transform="translate(-200 -515.748)">
    <g id="Group_20" data-name="Group 20" transform="translate(200 515.748)">
      <g id="Group_6" data-name="Group 6" transform="translate(0 13.153)">
        <g id="Group_1" data-name="Group 1" style="mix-blend-mode: multiply;isolation: isolate">
          <path id="Path_1" data-name="Path 1" d="M644.691,1196.931c11.178-26.674,25.24-52.474,31.25-80.763s2.5-60.656-17.652-81.4c-15.9-16.369-39.714-22.962-62.531-23.035-36.633-.117-72.359,14.995-100.807,38.074s-50.046,53.728-66.493,86.46c-6.68,13.294-13.736,28.153-27.462,33.893-11.441,4.785-24.877,1.728-35.606-4.491s-19.458-15.28-28.723-23.523c-22.664-20.163-52.6-36.509-82.273-30.21-24.391,5.179-44.025,25.762-51.066,49.682s-2.443,50.368,9.447,72.285c11.849,21.843,34.313,40.556,58.275,46.123H630.773C625.284,1252.1,633.673,1223.222,644.691,1196.931Z" transform="translate(-200 -933.583)" fill="#fceec8" style="mix-blend-mode: multiply;isolation: isolate"/>
          <path id="Path_2" data-name="Path 2" d="M637.714,697.645c9.689,5.844,18.861,13.787,24.633,23.659,5.511,9.425,4.252,21.529,10.928,30.433,3.753,5.006,9.658,8.12,15.79,9.368a44.358,44.358,0,0,0,38.1-10.747c15.534-14.278,16.273-37.683,17.328-57.341.941-17.544.343-35.4-4.714-52.229-6.611-22-21.324-41.072-43.371-49.136-31.067-11.363-76.462-.259-97.9,25.271-8.841,10.526-13.549,25.171-9.774,38.389C595.118,677.668,619.682,686.77,637.714,697.645Z" transform="translate(-516.106 -587.202)" fill="#fceec8" style="mix-blend-mode: multiply;isolation: isolate"/>
        </g>
        <g id="Group_5" data-name="Group 5" transform="translate(18.201 13.953)">
          <g id="Group_2" data-name="Group 2" transform="translate(0 211.57)">
            <path id="Path_3" data-name="Path 3" d="M298.876,1833.685l57.641,27.1,17.3-31.989,39.917,14.129-48.993-30.56-16,28.964Z" transform="translate(-298.876 -1812.367)" fill="#fceec8"/>
            <path id="Path_4" data-name="Path 4" d="M593.968,2118.773l39.056-8.928-5.04-23.059,30.266-12.1-42.226,5.181,4.752,22.337Z" transform="translate(-539.649 -2026.399)" fill="#fceec8"/>
          </g>
          <g id="Group_3" data-name="Group 3" transform="translate(103.078)">
            <path id="Path_5" data-name="Path 5" d="M1005.024,663l4.736,50.734,29.074-1.073,6.476,33.25,1.16-46.179-26.461.737Z" transform="translate(-978.119 -663)" fill="#fceec8"/>
            <path id="Path_6" data-name="Path 6" d="M858.856,1020.5l22.019,23.29,13.845-12.84,20.633,15.943-20.723-27-13.465,12.349Z" transform="translate(-858.856 -954.199)" fill="#fceec8"/>
          </g>
          <g id="Group_4" data-name="Group 4" transform="translate(263.8 112.617)">
            <path id="Path_7" data-name="Path 7" d="M1973.319,1532.063l-95.359,13.717,5.4,54.557s-73.6,17.074-71.118,17.44,95.772-3.351,95.772-3.351l-5.036-50.921Z" transform="translate(-1797.417 -1484.707)" fill="#fceec8"/>
            <path id="Path_8" data-name="Path 8" d="M1780.172,1274.8l-45.146,44.865,27.429,26.669-30.466,35.456,50.227-36.8-27.007-25.486Z" transform="translate(-1731.99 -1274.799)" fill="#fceec8"/>
            <path id="Path_9" data-name="Path 9" d="M1903.369,2150.719l-47.61-29.57-14.515,26.533-35.5-18.525,38.877,34.106,16.178-22.107Z" transform="translate(-1792.168 -1965.356)" fill="#fceec8"/>
          </g>
        </g>
      </g>
      <g id="Group_17" data-name="Group 17" transform="translate(1.906 0)">
        <g id="Group_7" data-name="Group 7" transform="translate(0.747 13.168)">
          <path id="Path_10" data-name="Path 10" d="M1729.828,1571.646a41.768,41.768,0,0,1-7.244,2.225l-.553,8.385c3.388-2.684,7.627-6.737,9.569-11.394-.456.218-.92.431-1.4.633C1730.08,1571.548,1729.953,1571.594,1729.828,1571.646Z" transform="translate(-1444.516 -1389.81)" fill="#e9bb8d"/>
          <path id="Path_11" data-name="Path 11" d="M1606.51,1365.536a13.9,13.9,0,0,0-9.472-2.711,5.965,5.965,0,0,0-.162,1.468c0,.019,0,.037,0,.057.066,2.754,2.19,3.991,4.642,4.452a12.974,12.974,0,0,1,6.423,3.268c1.385,1.3,2.7,2.865,4.669,2.783A17.143,17.143,0,0,0,1606.51,1365.536Z" transform="translate(-1342.399 -1220.022)" fill="#d15d3e"/>
          <path id="Path_12" data-name="Path 12" d="M1597.759,1349.306a13.909,13.909,0,0,1,9.473,2.711,17.136,17.136,0,0,1,6.1,9.315,3.794,3.794,0,0,0,.8-.119c2.771-.7,3.944-3.419,3.961-6.16a36.732,36.732,0,0,0-18.49-8.854A6.328,6.328,0,0,0,1597.759,1349.306Z" transform="translate(-1343.12 -1206.502)" fill="#9a442d"/>
          <path id="Path_13" data-name="Path 13" d="M1613.786,1333.418a8.949,8.949,0,0,0-6.018,2.353,36.739,36.739,0,0,1,18.49,8.854,9.091,9.091,0,0,0-1.06-4.407A13.762,13.762,0,0,0,1613.786,1333.418Z" transform="translate(-1351.287 -1196.073)" fill="#fff"/>
          <path id="Path_14" data-name="Path 14" d="M1682.807,1847.924l35.167-.605a4.451,4.451,0,0,1,4.082,2.6l.384-2.013a4.68,4.68,0,0,0-4.634-5.585l-36.462.607a10.658,10.658,0,0,0-10.33,9.2l-3.6,25.141a18.207,18.207,0,0,1,2.736-.752l2.693-19.43A10.4,10.4,0,0,1,1682.807,1847.924Z" transform="translate(-1399.953 -1611.301)" fill="#1a3139"/>
          <path id="Path_15" data-name="Path 15" d="M1730.1,1869.468l-35.167.606a10.4,10.4,0,0,0-9.963,9.16l-2.694,19.431c3.363-.663,7.844-.7,13.822.388,0,0,19.829,3.558,22.676,5.361a72.847,72.847,0,0,1,9.452-1.145l.882-4.618,2.7-14.119,2.379-12.463A4.451,4.451,0,0,0,1730.1,1869.468Z" transform="translate(-1412.081 -1633.45)" fill="#14252b"/>
          <path id="Path_16" data-name="Path 16" d="M1540.323,1527.514c-.632.11-1.266.21-1.9.291-.262.034-.525.06-.787.089-13.713,1.5-28.221-3.368-36.96-14.238a24.612,24.612,0,0,0,1.383,7.059,33.338,33.338,0,0,0,9.524,14.315,45.33,45.33,0,0,0,13.554,8.242c4.112-1.638,8.435-3.3,11.405-4.268a47.589,47.589,0,0,0,4.881-3.423l.553-8.387C1541.425,1527.31,1540.875,1527.42,1540.323,1527.514Z" transform="translate(-1263.904 -1343.134)" fill="#d59862"/>
          <path id="Path_17" data-name="Path 17" d="M331.45,958.205c11.385-11.977,3.036-37.168,3.036-37.168-4.958-15.4-17.184-21.272-24.338-23.44-3.082-.569-5.628-1.054-7.528-1.42-.917-.176-1.682-.325-2.284-.444-5.326,13.173-19.076,24.259-19.076,24.259s13.75-11.086,19.076-24.259c.2-.494.389-.99.564-1.489,10.51-14.515,21.361-28.836,32.763-42.662,7.874-9.548,16.094-18.927,24.352-28.144,7.93-8.852,16.52-17.515,26.455-24.121a60.649,60.649,0,0,1,5.234-3.138s10.341,4.136,17.883-6.619a81.756,81.756,0,0,1,.075-9.9,60.1,60.1,0,0,1-11.554,12.68,60.1,60.1,0,0,0,11.554-12.68c.157-2.358.379-4.29.55-5.557-5.965-1.283-7.9-3.941-7.9-3.941,5.212-2.265,8.177-8.735,10.278-13.624,2.817-6.556,3.968-13.708,6.914-20.178-.525.035-.855.051-.855.051-3.228,0-7.776,4.613-7.776,4.613s4.548-4.613,7.776-4.613c0,0,.331-.016.855-.051.186-.409.378-.814.579-1.217a35.968,35.968,0,0,1,1.9-3.343c-4.119.731-7.694,1.2-7.694,1.2a9.291,9.291,0,0,0-7.211,3.969c-5.882,9.093-30.74,34.741-30.74,34.741a50.906,50.906,0,0,0-10.1,3.932,15.96,15.96,0,0,0-4.4,3.442c-13.641,15.135-37.474,26.866-37.474,26.866-42.007,15.739-69.853,47.805-69.853,47.805-1.708,3.2-20.778,21.97-20.778,21.97-23.624,22.328-16.224,37.445-16.224,37.445,2.545,8.1,24.267,20.518,32.313,24.886a28.559,28.559,0,0,1,4.925,3.376c14.325,12.233,43.881,18.844,43.881,18.844,2.08.224,4.658.518,7.4.839,7.611.888,16.51,1.984,19.7,2.379A27.73,27.73,0,0,0,331.45,958.205Z" transform="translate(-214.413 -705.196)" fill="#e9bb8d"/>
          <path id="Path_18" data-name="Path 18" d="M1364.891,904.385a51.813,51.813,0,0,1-13.327-2.7,27.429,27.429,0,0,1-12.771-8.919,24.969,24.969,0,0,1-2.518-4.025c-.676-1.352-1.076-2.808-1.713-4.166a30.12,30.12,0,0,0-3.965-6.634,13,13,0,0,0-3.6-3.118,16.819,16.819,0,0,0-17.982.563,19.225,19.225,0,0,0-11.725-1.8c-15.755,3.164-17.518,23.781-17.3,36.672.089,5.271.357,10.608-.74,15.8-.382,1.805-1.379,4.152-3.158,4.969-1.969.9-3.824-.526-4.7-2.221a12.872,12.872,0,0,1-1.245-5.346,16.037,16.037,0,0,0-14.283-7.64,14.481,14.481,0,0,0-7.6,2.792,16.751,16.751,0,0,0-6.337,9.377,15.387,15.387,0,0,0,8.491,17.685,16.131,16.131,0,0,0,9.692,1.187h0a15.641,15.641,0,0,0,2.57-.711,15.641,15.641,0,0,1-2.57.711l-2.064,50.554-.107,2.619.107-2.619c-.289-.026-.693-.055-1.194-.073a71.589,71.589,0,0,0,.489,11.382,5.992,5.992,0,0,0,3.8,4.66c6.261,2.374,22.19,8.542,28.574,12.21a5,5,0,0,0,2.41.663c2.575.041,8-.034,9.719-1.32,0,0,5.661-2.4,11.792-4.84a45.322,45.322,0,0,1-13.554-8.243,33.343,33.343,0,0,1-9.525-14.314,24.613,24.613,0,0,1-1.382-7.059c8.738,10.87,23.247,15.736,36.959,14.238.262-.029.525-.055.787-.088.637-.081,1.271-.181,1.9-.29.553-.1,1.1-.2,1.649-.321a41.79,41.79,0,0,0,7.243-2.225c.125-.052.252-.1.376-.15.477-.2.94-.415,1.4-.633a30.605,30.605,0,0,0,7.944-5.428c6.157-5.838,9.438-13.89,11.4-22.8,3.19-14.451,3.991-29.286,5.228-43.993q.311-3.7.59-7.4.642-8.47,1.081-16.953C1365.458,904.424,1365.174,904.407,1364.891,904.385Zm-107.515,20.748c-2.5,1.249-5.243,3.841-5.464,9.214.222-5.373,2.966-7.964,5.464-9.214a11.263,11.263,0,0,0-4.506-1.9,11.263,11.263,0,0,1,4.506,1.9,14.6,14.6,0,0,1,5.577,7.881A14.6,14.6,0,0,0,1257.376,925.133Zm44.278-17.671c.713-3.1,4.277-4.812,7.076-5.553a15.794,15.794,0,0,1,8.86,0,4.825,4.825,0,0,1,2.258,1.339,2.222,2.222,0,0,1,.359,2.469c-.578.992-1.923,1.137-3.069,1.216a41.85,41.85,0,0,0-5.447.741q-1.7.346-3.367.832c-1.424.415-6.122,2.586-6.713.059A2.473,2.473,0,0,1,1301.654,907.462Zm3.554,10.937s6.624-6.249,12.713.711C1311.832,912.15,1305.208,918.4,1305.208,918.4Zm9.916,8.618c-.292,3.717-2.018,6.615-3.856,6.47s-3.09-3.275-2.8-6.992,2.018-6.615,3.856-6.47S1315.415,923.3,1315.124,927.016Zm-12.961,15.479c-3.107-.415-5.452-2.052-5.237-3.657s2.905-2.571,6.012-2.156,5.451,2.052,5.237,3.657S1305.269,942.909,1302.163,942.495Zm21.26,32.177a3.889,3.889,0,0,1-.8.119c-1.963.082-3.284-1.487-4.669-2.783a12.973,12.973,0,0,0-6.422-3.268c-2.452-.461-4.576-1.7-4.641-4.452,0-.019,0-.038,0-.057a5.957,5.957,0,0,1,.162-1.466,6.321,6.321,0,0,1,1.843-3.107,8.943,8.943,0,0,1,6.018-2.352,13.76,13.76,0,0,1,11.412,6.8,9.081,9.081,0,0,1,1.059,4.407C1327.368,971.252,1326.192,973.969,1323.422,974.672Zm6.51-21.72,5.737-1.217c-2.207-7.289-2.651-33.327-2.651-33.327s.444,26.038,2.651,33.327Zm10.646-44.653a2.223,2.223,0,0,1,.7-2.394,4.827,4.827,0,0,1,2.424-1.009,15.788,15.788,0,0,1,8.772,1.242c2.668,1.125,5.957,3.318,6.228,6.489a2.436,2.436,0,0,1-.111,1.1c-.939,2.419-5.286-.389-6.639-1q-1.58-.714-3.216-1.3a41.871,41.871,0,0,0-5.291-1.5C1342.324,909.694,1341.012,909.362,1340.579,908.3Zm13.14,14.558s-4.854-7.706-12.488-2.487C1348.865,915.15,1353.719,922.856,1353.719,922.856Zm-4.038,6.5c-.291,3.718-2.017,6.615-3.855,6.47s-3.092-3.274-2.8-6.992,2.017-6.614,3.855-6.47S1349.973,925.64,1349.681,929.358Zm12.487,14c-.215,1.605-2.906,2.571-6.012,2.156s-5.452-2.052-5.237-3.657,2.906-2.571,6.012-2.156S1362.382,941.749,1362.168,943.354Z" transform="translate(-1052.411 -819.96)" fill="#e9bb8d"/>
          <path id="Path_19" data-name="Path 19" d="M1684.172,2014.859c-.639-1.378-1.541-3.158-2.542-5.066-3.176-6.054-7.351-13.412-7.351-13.412-1.771-9.552-6.452-14.042-6.452-14.042-1.138-2.91-5.106-14.627-5.106-14.627.429-10.81-2.168-13.474-2.67-13.885a.833.833,0,0,0-.083-.061s-3.779-2.672-10.167-1.6c6.388-1.075,10.167,1.6,10.167,1.6a.833.833,0,0,1,.083.061,15.61,15.61,0,0,0-1.269-7.793s-2.244-3.963-3.247-5.957a6.687,6.687,0,0,1-3.014,5.577,6.687,6.687,0,0,0,3.014-5.577,11.939,11.939,0,0,0-.007-1.88c-.27-3.252-3.491-5.668-6.549-6.142-2.9-.45-7.334,1.476-10.108,2.9-.414.212-.791.412-1.119.591l-2.7,14.119a11.367,11.367,0,0,0,.978.641c2.5,1.458,6.8,2.669,12.376-.855-5.573,3.524-9.88,2.313-12.376.855a11.367,11.367,0,0,1-.978-.641l-.881,4.619c.375-.018.753-.031,1.131-.042a27.115,27.115,0,0,1,6.3.459,27.115,27.115,0,0,0-6.3-.459c-.378.011-.756.023-1.131.042a72.829,72.829,0,0,0-9.453,1.144c-2.846-1.8-22.675-5.36-22.675-5.36-5.978-1.088-10.459-1.052-13.822-.389a18.215,18.215,0,0,0-2.736.752,11.688,11.688,0,0,0-5.392,3.752c-.2.259-.383.517-.544.772a3.383,3.383,0,0,0,1.984,5.06c18,4.9,38.631,13.536,38.631,13.536s6.356,1.391,11.353.632c0,0,9.045-.812,12.081.226-3.036-1.038-12.081-.226-12.081-.226-5,.759-11.353-.632-11.353-.632s-20.63-8.638-38.631-13.536a3.383,3.383,0,0,1-1.984-5.06c.161-.255.344-.513.544-.772-5.056-2.249-8.987-1.313-11.469-.049a2.954,2.954,0,0,0-.875,4.6l2.659,2.984,9.418,10.573a7.334,7.334,0,0,0,2.025,1.593l22.9,12.2a10.231,10.231,0,0,0,3.929,1.165l12.717,1.1c6.547.712,21.063,5.408,21.063,5.408s-14.516-4.7-21.063-5.408l-12.717-1.1a10.231,10.231,0,0,1-3.929-1.165l-22.9-12.2a7.334,7.334,0,0,1-2.025-1.593l-9.418-10.573a1.789,1.789,0,0,0-.437,1.782l3.23,10.519,1.489,4.847a6.486,6.486,0,0,0,2.2,3.2l19.378,15.176a11.176,11.176,0,0,0,5.994,2.341l10.741.869c3.844,0,11.953,3.985,11.953,3.985s-8.11-3.985-11.953-3.985l-10.741-.869a11.176,11.176,0,0,1-5.994-2.341l-19.378-15.176a6.486,6.486,0,0,1-2.2-3.2l-1.489-4.847a10.794,10.794,0,0,0-2.767-.016,1.385,1.385,0,0,0-1.065,1.985l7.095,14.516a11.28,11.28,0,0,0,3.542,4.2l11.8,8.508a11.286,11.286,0,0,0,3.714,1.755l18.459,4.874s12.285,5.2,17.6,4.7a51.589,51.589,0,0,0,8.253-.742c3.617-.634,7.573-1.812,9.963-4-2.39,2.19-6.346,3.368-9.963,4a12.944,12.944,0,0,1,2.626,3.588,138.2,138.2,0,0,1,5.435,13.5h46.394l-7.851-11.939A31.864,31.864,0,0,1,1684.172,2014.859Z" transform="translate(-1318.028 -1684.462)" fill="#e9bb8d"/>
          <path id="Path_20" data-name="Path 20" d="M1241.5,618.446c-2.945,6.47-4.1,13.621-6.913,20.177-2.1,4.891-5.066,11.36-10.278,13.625,0,0,1.938,2.658,7.9,3.941a28.845,28.845,0,0,0,3.047.481,28.845,28.845,0,0,1-3.047-.481c-.17,1.267-.393,3.2-.549,5.557a81.747,81.747,0,0,0-.075,9.9,50.49,50.49,0,0,0,2.681,14.288,14.481,14.481,0,0,1,7.6-2.792,16.037,16.037,0,0,1,14.283,7.64,12.881,12.881,0,0,0,1.245,5.346c.877,1.694,2.734,3.124,4.7,2.221,1.78-.817,2.778-3.164,3.159-4.969,1.1-5.2.828-10.532.74-15.8-.216-12.891,1.547-33.508,17.3-36.672a19.225,19.225,0,0,1,11.725,1.8,16.82,16.82,0,0,1,17.982-.563,13.024,13.024,0,0,1,3.6,3.118,30.153,30.153,0,0,1,3.965,6.634c.636,1.358,1.036,2.814,1.713,4.166a24.94,24.94,0,0,0,2.518,4.025,27.427,27.427,0,0,0,12.771,8.918,51.816,51.816,0,0,0,13.327,2.7c.283.023.567.04.851.059a47.751,47.751,0,0,0,5.392.111,47.751,47.751,0,0,1-5.392-.111q-.439,8.483-1.081,16.953c26.182-36.03,11.853-59.423,6.981-65.612a8.915,8.915,0,0,1-1.281,1.387,8.915,8.915,0,0,0,1.281-1.387c2.869-3.789,3.909-10.19,3.909-10.19a22.2,22.2,0,0,1-20.968-4.287c-3.47-3.015-5.89-7.037-8.964-10.455-7.985-8.88-20.67-13.124-32.263-9.723A38.342,38.342,0,0,0,1279,603.819a31.124,31.124,0,0,0-20-1.628c-6.448,1.755-11.5,6.2-15.029,11.7a36.041,36.041,0,0,0-1.9,3.343C1241.878,617.632,1241.686,618.038,1241.5,618.446Zm80.1,12.327c-18.662-10.241-26.227,7.643-26.227,7.643S1302.934,620.532,1321.6,630.773Zm-26.761,3.276s1.526-14.288-14.091-30C1296.361,619.761,1294.835,634.049,1294.835,634.049Z" transform="translate(-1038.412 -587.285)" fill="#1a3139"/>
          <path id="Path_21" data-name="Path 21" d="M2223.657,2298.808q-1.5-4.771-3.133-9.5a2.685,2.685,0,0,1-.214.248c-8.068,8.273-25.292,11.093-30.6,11.784,1,1.907,1.9,3.687,2.543,5.065a31.546,31.546,0,0,0,2.27,4.088l7.849,11.939H2229.1a46.773,46.773,0,0,0-1.189-10.5C2226.765,2307.476,2225.037,2303.194,2223.657,2298.808Z" transform="translate(-1826.106 -1976.008)" fill="#e9bb8d"/>
          <path id="Path_22" data-name="Path 22" d="M1605.276,1137.337c-.29,3.717.962,6.847,2.8,6.991s3.564-2.753,3.856-6.47-.962-6.849-2.8-6.992S1605.568,1133.618,1605.276,1137.337Z" transform="translate(-1349.219 -1030.803)" fill="#1a3139"/>
          <path id="Path_23" data-name="Path 23" d="M1796.87,1143.585c-1.837-.144-3.563,2.753-3.855,6.47s.962,6.848,2.8,6.992,3.563-2.753,3.854-6.469S1798.708,1143.729,1796.87,1143.585Z" transform="translate(-1502.4 -1041.18)" fill="#1a3139"/>
          <path id="Path_24" data-name="Path 24" d="M1553.945,1224.613c.214-1.6-2.131-3.243-5.238-3.658s-5.8.551-6.012,2.156,2.131,3.243,5.238,3.657S1553.73,1226.219,1553.945,1224.613Z" transform="translate(-1298.18 -1104.234)" fill="#e8a28f"/>
          <path id="Path_25" data-name="Path 25" d="M1842.027,1237.336c-3.106-.415-5.8.551-6.012,2.156s2.13,3.243,5.237,3.658,5.8-.55,6.012-2.156S1845.134,1237.75,1842.027,1237.336Z" transform="translate(-1537.508 -1117.599)" fill="#e8a28f"/>
          <path id="Path_26" data-name="Path 26" d="M1574.721,1036.255q1.665-.485,3.367-.832a41.7,41.7,0,0,1,5.446-.741c1.146-.079,2.491-.224,3.069-1.217a2.222,2.222,0,0,0-.359-2.468,4.819,4.819,0,0,0-2.258-1.338,15.785,15.785,0,0,0-8.86,0c-2.8.74-6.363,2.451-7.075,5.552a2.467,2.467,0,0,0-.043,1.1C1568.6,1038.839,1573.3,1036.669,1574.721,1036.255Z" transform="translate(-1318.808 -947.71)" fill="#1a3139"/>
          <path id="Path_27" data-name="Path 27" d="M1787.51,1054.406q1.634.58,3.216,1.295c1.353.611,5.7,3.418,6.639,1a2.458,2.458,0,0,0,.111-1.1c-.27-3.17-3.56-5.363-6.228-6.489a15.786,15.786,0,0,0-8.772-1.241,4.822,4.822,0,0,0-2.423,1.008,2.223,2.223,0,0,0-.7,2.394c.434,1.063,1.745,1.4,2.868,1.635A41.686,41.686,0,0,1,1787.51,1054.406Z" transform="translate(-1491.184 -962.936)" fill="#1a3139"/>
          <circle id="Ellipse_1" data-name="Ellipse 1" cx="3.66" cy="3.66" r="3.66" transform="translate(278.128 249.152) rotate(-76.718)" fill="#f7f3e2"/>
          <path id="Path_28" data-name="Path 28" d="M1728.663,2361.035h48.413a138.415,138.415,0,0,0-5.436-13.506,12.911,12.911,0,0,0-2.625-3.588,51.547,51.547,0,0,1-8.253.743c-5.314.5-17.6-4.7-17.6-4.7l-12.748-3.367-5.088,4.96Z" transform="translate(-1447.206 -2014.612)" fill="#d15d3e"/>
          <path id="Path_29" data-name="Path 29" d="M1000.3,1676.832c-.219-.964-.526-2.366-.836-3.928-.307-6.876-1.13-15.223-1.13-15.223.949-41.176-10.721-71.015-10.721-71.015-2.277-11.67-8.966-14.231-8.966-14.231-6.4-9.678-40.56-19.5-40.56-19.5-8.334-5.592-28.027-9.772-37.663-11.561a30.643,30.643,0,0,1-7.943,5.428c-1.943,4.656-6.182,8.709-9.569,11.394a47.39,47.39,0,0,1-4.881,3.423c-2.97.972-7.294,2.631-11.405,4.269-6.132,2.443-11.792,4.839-11.792,4.839-1.715,1.286-7.144,1.361-9.719,1.321a4.989,4.989,0,0,1-2.41-.663c-6.383-3.667-22.312-9.836-28.574-12.21a5.989,5.989,0,0,1-3.8-4.66,71.592,71.592,0,0,1-.489-11.382,25.539,25.539,0,0,0-13.356,3.117,12.565,12.565,0,0,1-5.977,1.565,4.058,4.058,0,0,0-3.178,1.281s-6.926.427-10.626,2.515c0,0-5.218-1.05-9.013,1.324,0,0-19.877-2.136-29.7,0,0,0-14.089-3.554-19.07-1.42,0,0-5.6-4.064-10.439-3.41a6.5,6.5,0,0,0-2.662,1.011c-1.128.736-3.257,2.276-3.977,3.818,0,0-5.681.007-8.242,3.8,1.9.366,4.445.849,7.528,1.42a31.676,31.676,0,0,0-5.453-1.2,31.676,31.676,0,0,1,5.453,1.2c7.154,2.168,19.38,8.043,24.339,23.44,0,0,8.349,25.191-3.036,37.168a27.735,27.735,0,0,1-7.716,5.28c-3.119,1.374-6.841,2.1-10.5.625,3.66,1.48,7.382.749,10.5-.625-3.191-.4-12.091-1.49-19.7-2.38,2.783,2.286,8.593,5.81,18.1,6.029.133,0,.261.01.394.012,0,0,11.575-2.353,15.75-2.221-4.175-.132-15.75,2.221-15.75,2.221-.134,0-.262-.009-.394-.012,3.551,2.086,11.036,6.381,15.3,8.076,0,0,6.175,3.859,9.116,9.522-.488-7.136-.457-11.741-.384-13.99a16.358,16.358,0,0,1,.292-2.61c2.744-13.988-2.868-44.155-2.868-44.155s5.611,30.167,2.868,44.155a16.358,16.358,0,0,0-.292,2.61c-.073,2.249-.1,6.854.384,13.99a337.123,337.123,0,0,0,4.441,34.785s1.9,15.37,1.518,22.011l.041,10.091h69.4l3.336-19.456-33.62-32.771,21.211-3.083c-22.252-37.664-29.442-76.318-29.442-76.318s7.19,38.654,29.442,76.318l18.451-2.681c-37.107-35.007-47.893-96.407-47.893-96.407s10.786,61.4,47.893,96.407l6.8-.987,20.778-42.1,11.361,23.02a14.541,14.541,0,0,1,6.207,1.355,11.683,11.683,0,0,1,5.392-3.752l3.6-25.142a10.656,10.656,0,0,1,10.33-9.2l36.462-.608a4.679,4.679,0,0,1,4.634,5.584l-.384,2.013-2.379,12.463c.33-.179.706-.379,1.12-.591,2.774-1.422,7.206-3.348,10.108-2.9,3.057.474,6.279,2.889,6.549,6.142a11.964,11.964,0,0,1,.007,1.88c1,1.994,3.247,5.957,3.247,5.957a15.617,15.617,0,0,1,1.269,7.794c.5.411,3.1,3.075,2.669,13.885,0,0,3.969,11.717,5.107,14.627,0,0,4.68,4.491,6.451,14.042,0,0,4.175,7.358,7.351,13.413,5.312-.691,22.534-3.509,30.6-11.784a2.554,2.554,0,0,0,.213-.248A2.68,2.68,0,0,0,1000.3,1676.832ZM765.031,1554.8s-10.816,7.531-3.7,32.294C754.216,1562.33,765.031,1554.8,765.031,1554.8Zm-34.724,18.916c-9.393-18.073-19.165-21.916-19.165-21.916S720.914,1555.642,730.307,1573.715Zm-32.875-17.362s16.271-6.644,31.831,19.449C713.7,1549.709,697.432,1556.353,697.432,1556.353Zm39.042,72.992c-1.725-7.979-7.494-8.789-9.16-8.855a4.4,4.4,0,0,1-1.2-.216c-1.813-.589-2.163-1.239-2.163-1.239s.35.65,2.163,1.239a4.4,4.4,0,0,0,1.2.216C728.98,1620.555,734.749,1621.365,736.474,1629.344Zm49.051,63.345c-11.386-17.362-26.617-73.932-26.617-73.932a294.754,294.754,0,0,0-27.462-59.844,294.754,294.754,0,0,1,27.462,59.844S774.139,1675.328,785.525,1692.69Zm18.311-125.521c-6.641-9.867-25.616-14.235-25.616-14.235s18.975,4.368,25.616,14.235c0,0,15.56,27.324,24.478,31.5C819.4,1594.493,803.836,1567.169,803.836,1567.169Zm41.591,26.558a24.3,24.3,0,0,1-5.777-5.076c-12.329-14.9-33.917-21.482-33.917-21.482s21.588,6.578,33.917,21.482a24.3,24.3,0,0,0,5.777,5.076c7.225,4.55,23.05,14.761,27.352,19.549C868.477,1608.488,852.652,1598.276,845.427,1593.727Zm136.634-9.479s-10.816,38.709-19.5,47.1C971.245,1622.956,982.061,1584.247,982.061,1584.247Zm-28.89,72.864c3.415-9.487,11.006-32.258,12.524-44.022s12.523-38.519,12.523-38.519-11.005,26.755-12.523,38.519S956.586,1647.624,953.171,1657.111Zm2.562,3.131c19.744-8.137,23.231-20.776,23.59-22.328.042-.181.089-.36.139-.54,1.8-6.382,6.583-18.617,6.583-18.617s-4.785,12.235-6.583,18.617c-.05.18-.1.359-.139.54C978.964,1639.466,975.476,1652.105,955.733,1660.243Zm9.962,14.8c30.6-12.1,30.455-45.825,30.455-45.825S996.293,1662.947,965.695,1675.043Z" transform="translate(-605.396 -1365.75)" fill="#d15d3e"/>
          <path id="Path_30" data-name="Path 30" d="M1223.854,1962.236l-6.8.988q.808.763,1.633,1.51-.826-.745-1.633-1.51l-18.451,2.682a173.165,173.165,0,0,0,29.191,37.438,173.165,173.165,0,0,1-29.191-37.438l-21.212,3.082,33.621,32.771-3.337,19.455h73.915l-3.337-19.455,5.089-4.96-5.71-1.507a11.286,11.286,0,0,1-3.714-1.755l-11.8-8.507a11.285,11.285,0,0,1-3.543-4.2l-7.094-14.516a1.385,1.385,0,0,1,1.065-1.984,10.751,10.751,0,0,1,2.767.017l-3.23-10.519a1.786,1.786,0,0,1,.437-1.782l-2.659-2.984a2.954,2.954,0,0,1,.875-4.6,12.005,12.005,0,0,1,5.262-1.306l-11.36-23.02Z" transform="translate(-1000.131 -1674.79)" fill="#f6cf67"/>
        </g>
        <g id="Group_8" data-name="Group 8" transform="translate(36.554 80.608)">
          <path id="Path_31" data-name="Path 31" d="M408.938,1670.285s20.857,16.346,51.264,13.661c19.829-1.751,31.532-23.3,21.887-40.71a31.214,31.214,0,0,0-17.411-14.97s24.959.106,39.424,38.6c0,0,3.478,20.871.88,34.016l-.432,14.045a28.5,28.5,0,0,0-8.393-8.265s-11.451-5.541-14.362-7.528c0,0-13.7-1.544-19.043-6.577C462.751,1692.558,431.888,1690.541,408.938,1670.285Z" transform="translate(-408.938 -1504.087)" opacity="0.15"/>
          <path id="Path_32" data-name="Path 32" d="M1165.478,976.777s5.383-.275,11.782-8.188c0,0,4.8-5.328,2.514-14.934a24.914,24.914,0,0,0,4.435,1.464s-1.228,9.547-.625,15.461C1183.584,970.581,1177.823,980.855,1165.478,976.777Z" transform="translate(-1026.218 -953.656)" opacity="0.15"/>
          <path id="Path_33" data-name="Path 33" d="M1008.464,1853.5s8.261,37.745,8.425,49.524c0,0,3.106,53.906,9.482,63.821h25.992s-22.172-37.823-30.213-71.578C1022.15,1895.268,1010.572,1856.62,1008.464,1853.5Z" transform="translate(-898.107 -1687.863)" opacity="0.15"/>
          <path id="Path_34" data-name="Path 34" d="M2157.084,1827.636s-5.143,18.384-2.092,26.2c0,0-3.512,9.127-7.586,12.07l4.484-18.1S2153.836,1832.846,2157.084,1827.636Z" transform="translate(-1827.397 -1666.758)" opacity="0.15"/>
          <path id="Path_35" data-name="Path 35" d="M2106.734,2114.1s-1.309,11.633,3.279,11.666c0,0-1.375,15.123,11.232,14.444,0,0,9.06,18.674,26.4,8.813,0,0-23.409,10.277-22.771,18.968L2112,2144.968s-3.257-12.171-6.889-13.587l-1.633-6.227Z" transform="translate(-1791.558 -1900.49)" opacity="0.15"/>
          <path id="Path_36" data-name="Path 36" d="M1932.783,1990.95l-.881,4.618s5.515-.27,7.436.418a76.135,76.135,0,0,1,9.593-2.713s-.543-1.693,3.218-8.189.426,1.225-6.244,5.793C1945.9,1990.877,1938.776,1994.974,1932.783,1990.95Z" transform="translate(-1651.562 -1793.188)" opacity="0.15"/>
          <path id="Path_37" data-name="Path 37" d="M1972.336,2356.067s-5.234,7.312-3.546,13.832l-4.542-8.261-1.575-1.828S1970.788,2358.216,1972.336,2356.067Z" transform="translate(-1676.671 -2097.918)" opacity="0.15"/>
          <path id="Path_38" data-name="Path 38" d="M1823.515,2240.63s-17.651-2.729-24.19-1.3c0,0-7.759-2.593-10.421-4.715C1788.9,2234.614,1803.487,2233.555,1823.515,2240.63Z" transform="translate(-1534.887 -1998.776)" opacity="0.15"/>
          <path id="Path_39" data-name="Path 39" d="M2073.536,2120.815s1.623,6.058,0,9.077c0,0,1.2,8.088.361,10.7,0,0-2.476,3.846-2.8,5.929,0,0,5.069-4.947,5.069-6.582C2076.162,2139.942,2075.569,2126.373,2073.536,2120.815Z" transform="translate(-1765.133 -1905.97)" opacity="0.15"/>
          <path id="Path_40" data-name="Path 40" d="M1600.364,1562.968s8.087,2.728,9.688,6.462c0,0,46.809,17.132,67.669-16.172,0,0-5.271-5.91-37.447-11.884a44.884,44.884,0,0,1-16.971,8.619l-.312,4.724-6.25,3.42A126.954,126.954,0,0,0,1600.364,1562.968Z" transform="translate(-1381.052 -1433.189)" opacity="0.15"/>
        </g>
        <g id="Group_16" data-name="Group 16">
          <g id="Group_9" data-name="Group 9" transform="translate(253.544 108.381)">
            <path id="Path_41" data-name="Path 41" d="M1597.969,1105.731a7,7,0,0,0-3.651-1.191,7.78,7.78,0,0,0-3.72.862,8.037,8.037,0,0,0-2.846,2.36,18.33,18.33,0,0,1,3.236-1.421,9.876,9.876,0,0,1,3.287-.5,8.344,8.344,0,0,1,3.192.783,17.922,17.922,0,0,1,3,1.853A7.907,7.907,0,0,0,1597.969,1105.731Z" transform="translate(-1587.751 -1104.537)" fill="#1a3139"/>
            <path id="Path_42" data-name="Path 42" d="M1793.772,1121.468a7.761,7.761,0,0,0-3.388-1.762,7.019,7.019,0,0,0-3.833.243,7.933,7.933,0,0,0-3.1,2.03,17.719,17.719,0,0,1,3.365-1.048,8.3,8.3,0,0,1,3.286.041,9.924,9.924,0,0,1,3.057,1.31,18.64,18.64,0,0,1,2.779,2.183A8.019,8.019,0,0,0,1793.772,1121.468Z" transform="translate(-1747.427 -1116.784)" fill="#1a3139"/>
          </g>
          <path id="Path_43" data-name="Path 43" d="M1609.351,1374.006c-.651-.558-1.21-1.236-1.838-1.892a12.167,12.167,0,0,0-4.632-3.087,13.374,13.374,0,0,0-1.349-.409c-.229-.055-.458-.107-.689-.149l-.637-.121a6.927,6.927,0,0,1-2.295-.871,3.81,3.81,0,0,1-.9-.783,3.268,3.268,0,0,1-.612-1.045,5.879,5.879,0,0,1-.311-2.572,4.943,4.943,0,0,0-.3,2.741,4.134,4.134,0,0,0,1.526,2.474,7.046,7.046,0,0,0,2.6,1.247c.477.127.889.19,1.3.306a12.226,12.226,0,0,1,1.211.4,14.491,14.491,0,0,1,4.388,2.605,16.306,16.306,0,0,0,2.167,1.677,3.811,3.811,0,0,0,2.682.578A4.163,4.163,0,0,1,1609.351,1374.006Z" transform="translate(-1340.706 -1207.105)" fill="#e8a28f"/>
          <g id="Group_10" data-name="Group 10" transform="translate(241.339 12.61)">
            <path id="Path_44" data-name="Path 44" d="M1626.02,872.858a10.082,10.082,0,0,1,1.715,1.351,15.975,15.975,0,0,1,1.491,1.65,23.461,23.461,0,0,1,2.416,3.849c.347.687.692,1.383,1.024,2.091.171.367.319.686.458,1.033s.275.706.412,1.077c.274.741.557,1.528.932,2.322.372.773.767,1.5,1.2,2.217a25.03,25.03,0,0,0,3.051,3.992,25.794,25.794,0,0,0,3.78,3.289,30.7,30.7,0,0,0,8.9,4.274,45.817,45.817,0,0,0,9.549,1.778c1.608.118,3.215.188,4.819.174a37.221,37.221,0,0,0,4.8-.288c-1.6-.076-3.179-.229-4.755-.43s-3.145-.421-4.7-.72a54.288,54.288,0,0,1-9.069-2.433,39.439,39.439,0,0,1-4.228-1.881,28.357,28.357,0,0,1-3.862-2.457,24.224,24.224,0,0,1-6.077-6.659c-.4-.637-.774-1.309-1.1-1.968-.316-.643-.585-1.353-.872-2.1-.143-.375-.292-.76-.457-1.149s-.354-.792-.525-1.145c-.353-.73-.719-1.461-1.125-2.177a25.749,25.749,0,0,0-2.823-4.129,16.357,16.357,0,0,0-1.79-1.819,12.234,12.234,0,0,0-2.13-1.471,17.54,17.54,0,0,0-9.655-2.176l-.619.044c-.206.014-.41.062-.614.092-.407.074-.816.124-1.217.217a14.977,14.977,0,0,0-2.339.75l-.565.231-.281.115-.269.146-1.066.58a8.449,8.449,0,0,0-1.008.666l-.973.7a19.79,19.79,0,0,1,4.387-1.761,17.512,17.512,0,0,1,2.282-.442c.384-.045.772-.048,1.155-.075.192-.006.382-.031.575-.022l.576.024a16.31,16.31,0,0,1,4.5.755A16.955,16.955,0,0,1,1626.02,872.858Z" transform="translate(-1592.436 -816.515)" fill="#3c545e"/>
            <path id="Path_45" data-name="Path 45" d="M1615.24,808.535a16.67,16.67,0,0,1,6.51-3.653,13.953,13.953,0,0,1,3.688-.577l.47-.025.471.013c.314.013.63,0,.943.035.627.073,1.26.109,1.884.233a33.174,33.174,0,0,1,7.378,2.281,21.6,21.6,0,0,0-7.176-3.273,14.927,14.927,0,0,0-11.728,1.709,16.486,16.486,0,0,0-3.136,2.528,18.368,18.368,0,0,0-4.187,6.679A25.7,25.7,0,0,1,1615.24,808.535Z" transform="translate(-1593.991 -762.795)" fill="#3c545e"/>
            <path id="Path_46" data-name="Path 46" d="M1545.12,704.084l-.1-1.073-.151-1.066c-.086-.716-.256-1.414-.407-2.118-.133-.709-.348-1.4-.551-2.086-.106-.343-.191-.7-.315-1.033l-.365-1.015-.376-1.013c-.128-.336-.288-.659-.432-.989-.3-.652-.572-1.322-.9-1.961l-1.032-1.893-.26-.472-.288-.456-.579-.908a39.477,39.477,0,0,0-2.509-3.492,21.179,21.179,0,0,0-1.383-1.64l-1.441-1.587c-1.016-1-2.067-1.972-3.132-2.911.859,1.143,1.779,2.218,2.651,3.329l1.259,1.7c.419.566.862,1.112,1.233,1.711.387.587.778,1.171,1.177,1.747l.3.434.269.452.535.9.546.9.275.447.245.464.979,1.855a49.482,49.482,0,0,1,3.124,7.769,34.307,34.307,0,0,1,1.5,8.284A18.673,18.673,0,0,0,1545.12,704.084Z" transform="translate(-1529.16 -661.045)" fill="#3c545e"/>
            <path id="Path_47" data-name="Path 47" d="M1603.9,610.162a21.869,21.869,0,0,1-11.836.144,21.5,21.5,0,0,1-10.119-5.982c-2.767-2.876-4.922-6.363-7.754-9.4l-1.077-1.122c-.361-.372-.76-.7-1.139-1.058-.747-.721-1.59-1.33-2.4-1.98-.42-.3-.854-.589-1.28-.884l-.642-.439-.667-.4-1.34-.788-1.388-.7c-.233-.114-.46-.239-.7-.343l-.716-.3c-.48-.2-.95-.415-1.436-.594-.981-.332-1.95-.706-2.959-.948-.5-.123-1-.29-1.507-.377l-1.526-.3c-.507-.109-1.028-.139-1.539-.212s-1.027-.14-1.546-.15l-1.553-.077c-.518-.012-1.036.017-1.553.024l-.777.019c-.258.012-.516.047-.774.07l-1.545.159-1.528.278-.764.143-.75.2-1.5.4-1.468.493a36.391,36.391,0,0,0-10.616,6.154,38.449,38.449,0,0,0-8.068,9.151,40.464,40.464,0,0,1,8.419-8.71,37.031,37.031,0,0,1,10.566-5.736l1.436-.441,1.458-.35.729-.174.74-.118,1.48-.231,1.492-.12c.249-.019.5-.049.746-.058l.749-.007c.5,0,1-.023,1.5,0l1.494.094c.5.016.992.1,1.487.165s.992.11,1.479.223l1.465.3c.49.089.963.258,1.446.382.97.236,1.9.6,2.844.925.467.174.919.387,1.379.578l.688.294c.228.1.446.223.67.334l1.333.679,1.286.764.642.385.614.425c.409.286.826.561,1.227.855.773.63,1.591,1.206,2.31,1.9.365.339.751.656,1.1,1.012l1.04,1.075c2.738,2.9,4.917,6.4,7.846,9.353a22.489,22.489,0,0,0,22.5,5.739c-.152.883-.338,1.769-.565,2.642a30.924,30.924,0,0,1-.953,3.057,19.842,19.842,0,0,1-1.348,2.9,10.182,10.182,0,0,1-1.942,2.541,10.271,10.271,0,0,0,2.1-2.446,19.228,19.228,0,0,0,1.492-2.876,31.384,31.384,0,0,0,1.1-3.053c.315-1.037.586-2.078.8-3.153l.094-.477Z" transform="translate(-1521.446 -584.253)" fill="#3c545e"/>
            <path id="Path_48" data-name="Path 48" d="M1722.372,1841.713a5.2,5.2,0,0,0-3.236-2.471,7.331,7.331,0,0,0-2-.157l-1.859.019-14.877.214-14.876.283-3.718.085-.465.01-.489.032-.489.034c-.163.018-.323.049-.485.074a7.075,7.075,0,0,0-.961.193,7.328,7.328,0,0,0-.939.277,11.066,11.066,0,0,0-5.921,4.842,11.281,11.281,0,0,0-1.366,3.613c-.127.644-.191,1.249-.274,1.865l-.242,1.845-.964,7.376c-.6,4.924-1.237,9.843-1.795,14.774.848-4.889,1.613-9.789,2.421-14.683l1.146-7.351.285-1.838c.1-.61.182-1.237.31-1.807a10.25,10.25,0,0,1,6.764-7.561,6.636,6.636,0,0,1,.846-.238,6.215,6.215,0,0,1,.863-.161c.145-.021.289-.048.435-.061l.439-.024.438-.025.465-.006,3.719-.039,14.878-.212,14.876-.282,1.859-.043a6.191,6.191,0,0,1,1.7.1,4.037,4.037,0,0,1,2.537,1.894,4.183,4.183,0,0,1,.539,1.533c.011.137.031.272.04.408l-.005.411c-.029.274-.059.534-.12.853l-.654,3.663-2.612,14.648c-.825,4.891-1.692,9.775-2.478,14.674,1.074-4.844,2.067-9.7,3.1-14.555l2.968-14.58.741-3.646a8.82,8.82,0,0,0,.153-.985l.012-.519c-.009-.173-.028-.345-.042-.518A5.336,5.336,0,0,0,1722.372,1841.713Z" transform="translate(-1640.545 -1608.098)" fill="#3c545e"/>
          </g>
          <g id="Group_11" data-name="Group 11" transform="translate(0 39.769)">
            <path id="Path_49" data-name="Path 49" d="M1722.073,1156.652c.979-.091,1.952-.214,2.926-.335.97-.137,1.943-.257,2.909-.413l.469-.074-.108-.535a73.522,73.522,0,0,1-1-8.2l-.615-8.314c-.186-2.777-.4-5.554-.634-8.334-.247-2.78-.5-5.561-.86-8.344-.252,2.8-.335,5.594-.365,8.391-.014,2.8.038,5.594.18,8.388s.365,5.589.691,8.376c.195,1.393.36,2.788.639,4.174.113.693.293,1.387.441,2.078a9.6,9.6,0,0,0,.285,1.032l.173.559c-.774.215-1.547.442-2.321.663C1723.944,1156.053,1723.005,1156.337,1722.073,1156.652Z" transform="translate(-1443.804 -1050.261)" fill="#a0724a"/>
            <path id="Path_50" data-name="Path 50" d="M1536.281,1147.126a37.462,37.462,0,0,0,5-.619c.195-.035.385-.073.576-.112-.108.5-.2,1-.264,1.505-.1.7-.16,1.392-.212,2.093-.016.312-.029.618-.043.93-.017.389-.026.778-.022,1.172a17.467,17.467,0,0,0,.112,2.111,16.352,16.352,0,0,0,.389-2.08c.078-.536.13-1.077.178-1.614.009-.16.021-.316.035-.476.04-.7.073-1.4.069-2.1,0-.524-.025-1.047-.069-1.574a41.859,41.859,0,0,0,4.147-1.064,39.107,39.107,0,0,0,3.988-1.484c.242-.1.484-.208.723-.32a31.689,31.689,0,0,0,4.443-2.47,31.009,31.009,0,0,0,3.974-3.153,34.209,34.209,0,0,0,3.409-3.763,39.125,39.125,0,0,0,5.008-8.776,49.545,49.545,0,0,0,1.7-4.745c.5-1.6.926-3.226,1.3-4.857.735-3.261,1.345-6.539,1.868-9.831s.947-6.6,1.311-9.909.662-6.621.917-9.939l1.432-19.887c.242-3.313.363-6.64.537-9.957s.319-6.64.462-9.961c-.592,6.621-1.008,13.252-1.635,19.866l-1.791,19.853c-.658,6.609-1.311,13.21-2.4,19.745-1.111,6.522-2.349,13.076-4.9,19.126a37.86,37.86,0,0,1-4.793,8.521,33.762,33.762,0,0,1-3.252,3.637,29.819,29.819,0,0,1-3.806,3.054,34.339,34.339,0,0,1-8.833,4.182,41.765,41.765,0,0,1-4.762,1.215,36.171,36.171,0,0,1-4.874.692,44.442,44.442,0,0,1-19.408-2.638,39.931,39.931,0,0,1-8.772-4.55,37.557,37.557,0,0,1-7.34-6.665,37.92,37.92,0,0,0,15.883,11.8A45.071,45.071,0,0,0,1536.281,1147.126Z" transform="translate(-1263.166 -988.361)" fill="#a0724a"/>
            <path id="Path_51" data-name="Path 51" d="M1261.441,1107.4a15.128,15.128,0,0,0-8.344-2.1,14.843,14.843,0,0,0-8.157,2.974,17.181,17.181,0,0,0-5.434,6.811,16.5,16.5,0,0,0-.761,2.068,20.5,20.5,0,0,0-.471,2.158,16.271,16.271,0,0,0-.028,4.405,14.989,14.989,0,0,0,1.2,4.229,15.191,15.191,0,0,0,2.3,3.729,16.517,16.517,0,0,0,3.232,2.94,15.608,15.608,0,0,0,1.889,1.09,13.7,13.7,0,0,0,2.009.833,16.179,16.179,0,0,0,8.482.414c-.442,4.381-.761,8.766-1.036,13.155-.15,2.213-.254,4.428-.379,6.642l-.307,6.644-.238,6.648c-.055,2.217-.133,4.433-.164,6.651-.085,4.435-.126,8.872-.036,13.314.45-4.42.772-8.845,1.048-13.273.151-2.213.252-4.429.379-6.642l.306-6.645.235-6.648c.056-2.217.133-4.433.164-6.651.085-4.4.125-8.795.04-13.2l.02,0-.02,0,.02,0a15.072,15.072,0,0,0,2.548-.822,16.324,16.324,0,0,1-2.59.6h0a16.342,16.342,0,0,1-4.188.085,16.619,16.619,0,0,1-4.034-.973,12.818,12.818,0,0,1-1.868-.882,17.116,17.116,0,0,1-1.744-1.1,15.534,15.534,0,0,1-2.932-2.858,15.017,15.017,0,0,1-3.106-7.44,15.066,15.066,0,0,1,.052-4.054,19.884,19.884,0,0,1,.447-1.983,18.164,18.164,0,0,1,.7-1.913,16.34,16.34,0,0,1,4.98-6.367,14.2,14.2,0,0,1,7.494-2.952,14.926,14.926,0,0,1,7.986,1.654,17.26,17.26,0,0,1,6.264,5.492A16.672,16.672,0,0,0,1261.441,1107.4Z" transform="translate(-1048.927 -1036.534)" fill="#a0724a"/>
            <path id="Path_52" data-name="Path 52" d="M1298.23,1153.66a8.113,8.113,0,0,0-.851,5.726c.321-.926.567-1.814.88-2.667a16.285,16.285,0,0,1,1.1-2.421,13.342,13.342,0,0,1,1.516-2.157,20.478,20.478,0,0,1,1.529-1.556,17.251,17.251,0,0,1,1.858,1.615,20.072,20.072,0,0,1,2.243,2.73c.679.984,1.279,2.036,1.914,3.123a11.111,11.111,0,0,0-1.033-3.629,11.637,11.637,0,0,0-2.2-3.137,10.756,10.756,0,0,0-3.146-2.21,8.163,8.163,0,0,0-3.7-.808,18.157,18.157,0,0,1,3.205,1.7c.193.128.379.262.564.4a6.8,6.8,0,0,0-1.926,1.028A7.458,7.458,0,0,0,1298.23,1153.66Z" transform="translate(-1097.131 -1071.601)" fill="#a0724a"/>
            <path id="Path_53" data-name="Path 53" d="M2002.612,2019.713l-2.644-4.224q-.636-1.057-1.186-2.161c-.37-.733-.688-1.488-1.067-2.239-.734-1.5-1.451-3.01-2.2-4.5l-2.357-4.407c-1.566-2.9-3.116-5.811-4.7-8.7-.129-.615-.247-1.232-.392-1.843-.176-.641-.311-1.291-.521-1.923a33.977,33.977,0,0,0-1.363-3.748,29.484,29.484,0,0,0-1.871-3.535c-.353-.569-.729-1.123-1.134-1.66a15.751,15.751,0,0,0-1.221-1.454c-.443-1.15-.863-2.333-1.285-3.508l-1.3-3.644-2.545-7.224a48.869,48.869,0,0,0-.214-6.216,25.7,25.7,0,0,0-.529-3.136,13.357,13.357,0,0,0-1.056-3.03,5.862,5.862,0,0,0-.922-1.366,2.676,2.676,0,0,0-.33-.3c-.024-.018-.046-.03-.069-.046a12.014,12.014,0,0,0,.348-3.453,10.613,10.613,0,0,0-.832-3.764,18.012,18.012,0,0,0-.908-1.665c-.315-.527-.636-1.051-.974-1.567-.566-.859-1.156-1.706-1.818-2.52a11.112,11.112,0,0,0,.136-1.389c.013-.326.013-.653,0-.979a6.218,6.218,0,0,0-.151-1.021,6.116,6.116,0,0,0-.788-1.9,8.378,8.378,0,0,0-2.929-2.752,8.7,8.7,0,0,0-3.853-1.138,11.889,11.889,0,0,0-3.862.7,27.583,27.583,0,0,0-6.737,3.461,55.238,55.238,0,0,1,7.021-2.49,12.34,12.34,0,0,1,3.528-.442,7.313,7.313,0,0,1,1.675.329,8.871,8.871,0,0,1,1.587.71,7.337,7.337,0,0,1,2.538,2.287,4.929,4.929,0,0,1,.72,1.518,5.812,5.812,0,0,1,.17.826c.036.3.06.6.073.9a10,10,0,0,1-.448,3.551,5.865,5.865,0,0,1-2.1,2.928,5.478,5.478,0,0,0,2.681-2.686,8.69,8.69,0,0,0,.645-1.92c.3.856.642,1.686,1.006,2.509.251.566.52,1.123.793,1.676s.589,1.117.805,1.606a16.693,16.693,0,0,1,1.01,3.362c.22,1.056.369,2.139.535,3.25l-.165-.094c-.236-.132-.478-.249-.722-.359a13.653,13.653,0,0,0-3.041-.926,16.33,16.33,0,0,0-3.145-.255,19.2,19.2,0,0,0-3.12.352,17.6,17.6,0,0,1,6.192.253,13.231,13.231,0,0,1,2.894,1.036c.227.116.451.238.664.371a1.863,1.863,0,0,1,.535.442,5.454,5.454,0,0,1,.764,1.262,12.653,12.653,0,0,1,.9,2.907,24.835,24.835,0,0,1,.406,3.054,49.336,49.336,0,0,1,.047,6.2l0,.09.032.1c.792,2.46,1.621,4.905,2.443,7.355l1.248,3.671c.428,1.222.854,2.437,1.32,3.663l.044.116.106.109a14.3,14.3,0,0,1,1.187,1.422c.377.506.732,1.033,1.064,1.576a29.256,29.256,0,0,1,1.772,3.381,32.5,32.5,0,0,1,1.329,3.594c.206.606.338,1.234.511,1.851.151.623.272,1.252.409,1.879l.025.109.047.086c1.6,2.914,3.23,5.809,4.846,8.713l2.441,4.348c.782,1.462,1.53,2.94,2.3,4.41.387.728.748,1.492,1.152,2.232s.832,1.465,1.291,2.172c.931,1.4,1.876,2.755,2.826,4.126,1.9,2.734,3.778,5.48,5.707,8.195C2006.145,2025.355,2004.37,2022.541,2002.612,2019.713Z" transform="translate(-1630.863 -1708.379)" fill="#a0724a"/>
            <path id="Path_54" data-name="Path 54" d="M1938.064,2028.273a9.285,9.285,0,0,0,1.638.88,9.072,9.072,0,0,0,3.7.621,9.745,9.745,0,0,0,3.625-.874,10.6,10.6,0,0,0,3.018-2.057c-1.157.392-2.25.8-3.363,1.1a15.063,15.063,0,0,1-3.336.54,13.114,13.114,0,0,1-3.338-.295,15.775,15.775,0,0,1-1.655-.474c-.56-.178-1.077-.447-1.661-.652A8.827,8.827,0,0,0,1938.064,2028.273Z" transform="translate(-1618.916 -1788.457)" fill="#a0724a"/>
            <path id="Path_55" data-name="Path 55" d="M1644.172,2085.995a13.138,13.138,0,0,0,4.054-2.546,13.774,13.774,0,0,1-4.154,2.3,28.033,28.033,0,0,1-4.595,1.224c-1.56.291-3.139.473-4.72.613s-3.175.2-4.744.186H1630l-.033,0a16.376,16.376,0,0,1-4.41-.485c-1.469-.327-2.931-.728-4.374-1.194s-2.882-.948-4.306-1.479-2.843-1.086-4.231-1.677l-.038-.016-.044-.012q-7.833-2.106-15.675-4.175l-1.962-.513-.97-.256q-.462-.127-.91-.3a10.514,10.514,0,0,1-1.72-.832c-.276-.165-.535-.338-.8-.531l-.823-.592-6.611-4.7-3.309-2.344c-.549-.393-1.124-.77-1.616-1.166a10.836,10.836,0,0,1-1.391-1.345,10.978,10.978,0,0,1-1.131-1.576c-.322-.549-.61-1.173-.92-1.772l-1.84-3.615c-1.221-2.413-2.467-4.812-3.709-7.215l-.932-1.8a5.881,5.881,0,0,1-.417-.884,1.273,1.273,0,0,1,.808-1.489,4.917,4.917,0,0,1,.978-.152,10.911,10.911,0,0,1,1.606,0q.435,1.529.872,3.058l.555,1.917a7.026,7.026,0,0,0,.894,1.943,6.936,6.936,0,0,0,1.45,1.589l1.559,1.245c2.082,1.658,4.152,3.328,6.247,4.97l6.275,4.933,3.15,2.451,1.576,1.225a14.205,14.205,0,0,0,1.686,1.2,11.8,11.8,0,0,0,3.917,1.463,17.932,17.932,0,0,0,2.044.213l1.991.136c2.656.17,5.311.353,7.968.5h.031a12.546,12.546,0,0,1,3.033.441c1.014.242,2.022.54,3.019.878s1.988.694,2.969,1.081,1.964.773,2.932,1.2c-.932-.5-1.875-.979-2.835-1.422s-1.931-.869-2.914-1.269-1.982-.764-3.006-1.076a12.786,12.786,0,0,0-3.2-.606h.031c-2.647-.28-5.3-.526-7.945-.784l-1.986-.187a17,17,0,0,1-1.92-.236,10.587,10.587,0,0,1-3.495-1.382,15.172,15.172,0,0,1-1.552-1.13l-1.567-1.236-3.134-2.47-6.294-4.91c-2.1-1.641-4.214-3.25-6.323-4.874l-1.583-1.215a5.984,5.984,0,0,1-2.092-2.954l-.617-1.9c-.835-2.528-1.656-5.058-2.521-7.576l-1.287-3.779-.648-1.889a1.755,1.755,0,0,1,.076-1.442l2.8,3.229,4.219,4.832,2.116,2.41a8.085,8.085,0,0,0,1.247,1.183,9.769,9.769,0,0,0,1.442.891l11.3,6.065,11.348,6.007a10.825,10.825,0,0,0,3.221,1.029c.279.044.564.073.839.1l.8.063,1.6.127,6.393.492,3.2.238c1.073.066,2.086.229,3.142.4,2.092.355,4.173.827,6.249,1.322,4.158.971,8.276,2.126,12.394,3.282q-3.022-1.078-6.085-2.041c-2.04-.648-4.088-1.271-6.15-1.857s-4.141-1.111-6.253-1.543a29.653,29.653,0,0,0-3.207-.493l-3.192-.314-6.388-.615-1.6-.15-.8-.075c-.259-.024-.5-.055-.754-.1a9.587,9.587,0,0,1-2.85-.955l-11.3-6.057-11.338-6a8.589,8.589,0,0,1-1.3-.769,6.862,6.862,0,0,1-1.089-1.007l-2.15-2.38-4.313-4.748-4.328-4.736-1.086-1.179-.267-.294a3.043,3.043,0,0,1-.215-.274,2.4,2.4,0,0,1-.31-.622,2.62,2.62,0,0,1,.586-2.631,2.147,2.147,0,0,1,.262-.243,1.88,1.88,0,0,1,.3-.206c.2-.128.454-.244.684-.357a12.653,12.653,0,0,1,1.458-.575,11.971,11.971,0,0,1,3.1-.538,14.726,14.726,0,0,1,5.6.951c-.116.157-.233.313-.34.477a4.086,4.086,0,0,0-.682,1.588,3.959,3.959,0,0,0,.064,1.755,4.031,4.031,0,0,0,2.2,2.62,2.432,2.432,0,0,0,.409.163c.141.049.281.094.391.122l.712.2,1.423.4c.952.259,1.9.544,2.842.826q5.67,1.7,11.28,3.611c7.47,2.564,14.908,5.264,22.243,8.2l.04.016.027.005a44.341,44.341,0,0,0,5.894.728,28.566,28.566,0,0,0,5.915-.278c1.949-.184,3.906-.32,5.865-.37q1.469-.039,2.937.012a12.3,12.3,0,0,1,2.907.387,12.38,12.38,0,0,0-2.9-.522c-.98-.084-1.964-.126-2.948-.129-1.969-.018-3.934.05-5.9.168a28.455,28.455,0,0,1-5.836.08,43.729,43.729,0,0,1-5.739-.829c-7.287-3.087-14.652-5.969-22.121-8.586q-5.6-1.986-11.3-3.7c-.949-.288-1.9-.577-2.854-.842L1581,2033.3l-.716-.2c-.128-.035-.223-.068-.316-.1a1.476,1.476,0,0,1-.279-.113,2.748,2.748,0,0,1-1.487-1.786,2.675,2.675,0,0,1-.048-1.186,2.782,2.782,0,0,1,.484-1.114,10.27,10.27,0,0,1,4.212-3.573,17.673,17.673,0,0,1,5.5-1.524,40.366,40.366,0,0,1,11.641.511c3.884.681,7.781,1.379,11.651,2.167,1.935.391,3.868.8,5.784,1.261.96.224,1.914.471,2.857.738.468.143.947.265,1.4.437.225.083.461.156.679.247l.624.3.135.063.1-.02c1.374-.288,2.771-.526,4.166-.733s2.8-.372,4.208-.493,2.82-.184,4.232-.176a22.842,22.842,0,0,1,4.221.361,22.884,22.884,0,0,0-4.216-.558c-1.419-.06-2.841-.042-4.26.029s-2.835.191-4.247.349c-1.375.156-2.743.341-4.114.576l-.586-.3c-.237-.106-.472-.184-.709-.276-.471-.191-.949-.323-1.425-.48q-1.431-.438-2.873-.807c-1.92-.5-3.85-.957-5.784-1.389-3.87-.863-7.741-1.675-11.645-2.4a41.213,41.213,0,0,0-11.986-.643,18.912,18.912,0,0,0-5.892,1.619,11.781,11.781,0,0,0-4.371,3.491,16.592,16.592,0,0,0-2.419-.845,13.2,13.2,0,0,0-3.2-.415,12.343,12.343,0,0,0-3.227.413,12.975,12.975,0,0,0-1.549.531c-.255.111-.494.207-.753.351a2.353,2.353,0,0,0-.372.237,2.589,2.589,0,0,0-.339.286,3.288,3.288,0,0,0-.843,3.3,3.154,3.154,0,0,0,.376.82,3.911,3.911,0,0,0,.267.365l.263.309,1.047,1.215,1.376,1.584a1.863,1.863,0,0,0-.206,1.521l.524,1.927,1.056,3.851c.417,1.537.85,3.07,1.286,4.6a10.854,10.854,0,0,0-1.6-.094,4.916,4.916,0,0,0-1.029.1,1.45,1.45,0,0,0-.839.658,1.528,1.528,0,0,0-.187,1.068,5.9,5.9,0,0,0,.4.967l.849,1.842c1.132,2.456,2.26,4.915,3.413,7.359l1.721,3.674c.3.609.559,1.221.905,1.848a11.689,11.689,0,0,0,2.675,3.249c.551.463,1.1.84,1.642,1.247l3.271,2.4,6.549,4.785.821.6c.28.2.582.408.886.592a11.984,11.984,0,0,0,1.92.94c.333.128.673.24,1.016.337l.988.265,1.959.522q7.823,2.08,15.662,4.1c1.416.578,2.831,1.108,4.263,1.618,1.448.513,2.908,1,4.384,1.43s2.974.811,4.494,1.111a16.514,16.514,0,0,0,4.672.381c1.614-.036,3.2-.161,4.789-.346q1.813-.209,3.606-.574a17.178,17.178,0,0,1,2.122,3.82c.569,1.475,1.169,2.937,1.782,4.392s1.242,2.9,1.9,4.342,1.325,2.878,2.084,4.3a31.55,31.55,0,0,0-1.139-4.659c-.474-1.523-1.036-3.015-1.655-4.483s-1.3-2.909-2.061-4.312a10.231,10.231,0,0,0-2.912-3.423c.34-.069.681-.142,1.019-.219A28.251,28.251,0,0,0,1644.172,2085.995Z" transform="translate(-1315.706 -1784.721)" fill="#a0724a"/>
            <path id="Path_56" data-name="Path 56" d="M300.123,960.846l-6.758-.817c-3.85-.931-7.665-2.047-11.441-3.252-3.775-1.223-7.524-2.531-11.191-4.038-.925-.356-1.831-.757-2.742-1.146s-1.828-.766-2.716-1.2l-2.686-1.265-2.63-1.372c-.887-.439-1.727-.959-2.579-1.456s-1.715-.98-2.518-1.552c-.813-.556-1.645-1.086-2.441-1.662l-2.313-1.824a31.45,31.45,0,0,0-4.943-3.5c-1.752-.968-3.472-1.928-5.191-2.927-3.432-1.989-6.818-4.055-10.126-6.233a108.381,108.381,0,0,1-9.568-6.984,47.084,47.084,0,0,1-4.285-4,14.074,14.074,0,0,1-3.084-4.671l-.016-.047-.025-.057a8.946,8.946,0,0,1-.349-.964c-.1-.345-.191-.7-.268-1.052a16.914,16.914,0,0,1-.319-2.17,22.085,22.085,0,0,1,.087-4.419,27.74,27.74,0,0,1,.892-4.362,32.324,32.324,0,0,1,1.521-4.208,54.485,54.485,0,0,1,10.11-14.864c.5-.569,1.041-1.1,1.56-1.646l.788-.816.816-.794c1.087-1.05,2.191-2.138,3.27-3.209q3.256-3.228,6.478-6.489c2.147-2.176,4.283-4.363,6.389-6.588,1.052-1.113,2.1-2.234,3.126-3.379.518-.567,1.017-1.163,1.525-1.747l.739-.925a5.281,5.281,0,0,0,.365-.512l.265-.4a176.563,176.563,0,0,1,15.249-14.7,196.752,196.752,0,0,1,16.808-13c2.876-2.072,5.9-3.912,8.875-5.843l4.581-2.69c.767-.443,1.52-.909,2.3-1.332l2.347-1.242c1.569-.82,3.121-1.675,4.7-2.467l4.806-2.259c.8-.37,1.6-.768,2.41-1.115l2.458-1,4.916-2.006.052-.021.016-.008c4.707-2.4,9.24-5.03,13.683-7.843a152.275,152.275,0,0,0,12.861-9.114l1.532-1.244c.511-.414,1.025-.825,1.514-1.266l1.486-1.3c.495-.434,1-.86,1.465-1.324l1.429-1.365c.475-.456.96-.9,1.4-1.391l2.694-2.854a15.4,15.4,0,0,1,2.954-2.361,34.115,34.115,0,0,1,3.437-1.745,53.89,53.89,0,0,1,7.31-2.636l.129-.036.088-.092q4.75-4.975,9.41-10.025t9.208-10.21c3.028-3.44,6.016-6.919,8.851-10.527l1.039-1.373c.342-.461.7-.908,1.017-1.39l.975-1.423a8.626,8.626,0,0,1,1.072-1.3,8.9,8.9,0,0,1,6.035-2.721h.009l7.684-1.274-7.7,1.116a9.073,9.073,0,0,0-6.231,2.672,8.945,8.945,0,0,0-1.133,1.332l-.988,1.4c-.319.471-.685.913-1.032,1.366l-1.054,1.35c-2.88,3.552-5.916,6.98-8.991,10.37s-6.2,6.734-9.352,10.057c-3.126,3.286-6.252,6.576-9.418,9.82a54.763,54.763,0,0,0-7.343,2.579,34.951,34.951,0,0,0-3.574,1.776,16.47,16.47,0,0,0-3.186,2.5l-2.721,2.829c-.44.477-.923.913-1.4,1.358l-1.422,1.333c-.465.453-.966.87-1.458,1.294l-1.479,1.271c-.487.431-1,.833-1.509,1.238l-1.526,1.217a150.816,150.816,0,0,1-12.831,8.914c-2.22,1.366-4.454,2.71-6.723,3.992s-4.548,2.535-6.853,3.692l-4.921,1.99-2.485,1.005c-.823.347-1.623.747-2.436,1.117l-4.859,2.265c-1.6.794-3.168,1.651-4.754,2.474l-2.372,1.247c-.785.425-1.547.893-2.322,1.336l-4.629,2.7c-3,1.936-6.061,3.785-8.967,5.864a198.442,198.442,0,0,0-16.984,13.048,166.831,166.831,0,0,0-15.458,14.875l-.009.01-.1.149-.276.409a3.913,3.913,0,0,1-.3.42l-.688.866c-.493.569-.972,1.146-1.482,1.708-1.008,1.13-2.042,2.245-3.084,3.354-2.085,2.218-4.209,4.407-6.344,6.584s-4.285,4.342-6.445,6.5c-1.085,1.083-2.153,2.141-3.258,3.216l-.823.806-.8.833c-.528.562-1.08,1.1-1.585,1.683a56.035,56.035,0,0,0-10.346,15.33,33.9,33.9,0,0,0-1.576,4.4,29.237,29.237,0,0,0-.926,4.6,23.544,23.544,0,0,0-.077,4.723,18.415,18.415,0,0,0,.354,2.357q.129.585.3,1.165a10.14,10.14,0,0,0,.424,1.147,11.234,11.234,0,0,0,1.451,2.765,22.8,22.8,0,0,0,1.948,2.39,46.3,46.3,0,0,0,4.458,4.1,109.635,109.635,0,0,0,9.757,6.985c3.354,2.164,6.779,4.209,10.246,6.176,1.729.982,3.49,1.945,5.227,2.883a30.274,30.274,0,0,1,4.805,3.34l2.389,1.846c.818.582,1.67,1.113,2.5,1.672.824.575,1.707,1.049,2.572,1.553s1.727,1.015,2.627,1.45l2.671,1.362,2.722,1.25c.9.432,1.83.8,2.749,1.186s1.836.782,2.773,1.123c3.713,1.46,7.5,2.715,11.306,3.885,3.814,1.153,7.651,2.213,11.543,3.091l.013,0h.014l6.784.716,6.781.762,13.565,1.5-13.532-1.774Z" transform="translate(-210.356 -731.797)" fill="#a0724a"/>
            <path id="Path_57" data-name="Path 57" d="M700.553,1049.512a20.213,20.213,0,0,0,3.339-3.912,20.069,20.069,0,0,1-3.525,3.691c-.322.278-.682.5-1.019.76-.359.224-.7.471-1.078.668a13.7,13.7,0,0,1-2.292,1.056,14.394,14.394,0,0,1-4.926.841,14.88,14.88,0,0,1-2.489-.212,12.565,12.565,0,0,1-2.376-.629l-.2-.079-.2.1a64.1,64.1,0,0,0-7.188,4.3c-2.307,1.57-4.543,3.243-6.713,5a148.184,148.184,0,0,0-12.289,11.327c-3.887,3.994-7.573,8.145-11.287,12.26q-5.543,6.2-10.971,12.518t-10.671,12.785c-3.494,4.313-6.948,8.659-10.318,13.069q-10.148,13.2-19.688,26.837l-.057.083-.033.09-.341.943c-.11.316-.226.63-.365.935l-.793,1.849c-.284.609-.6,1.2-.9,1.8s-.634,1.187-.976,1.769c-.654,1.181-1.405,2.305-2.136,3.444-.781,1.106-1.546,2.225-2.387,3.29-1.655,2.148-3.41,4.229-5.266,6.219s-3.787,3.917-5.836,5.718a79.837,79.837,0,0,0,11.721-11.443c.891-1.043,1.708-2.146,2.543-3.238.785-1.128,1.6-2.24,2.3-3.425.367-.583.735-1.166,1.054-1.781s.673-1.207.984-1.824l.876-1.885c.153-.312.283-.634.408-.958l.34-.86q9.917-13.289,20.124-26.342c3.435-4.342,6.883-8.672,10.386-12.955s7.073-8.512,10.655-12.731,7.228-8.387,10.885-12.546,7.28-8.35,11.074-12.352a149.136,149.136,0,0,1,11.912-11.457,85.065,85.065,0,0,1,13.237-9.5,13.619,13.619,0,0,0,2.367.516,15.646,15.646,0,0,0,2.63.122,14.6,14.6,0,0,0,5.106-1.1,14.236,14.236,0,0,0,2.314-1.2c.375-.22.716-.49,1.072-.735C699.891,1050.067,700.242,1049.812,700.553,1049.512Z" transform="translate(-509.972 -987.837)" fill="#a0724a"/>
            <path id="Path_58" data-name="Path 58" d="M1207.248,998.118l-2.891,3.14c-.968,1.05-1.933,2.1-2.873,3.22a22.335,22.335,0,0,0,3.571-2.486A31.922,31.922,0,0,0,1208.2,999a29.436,29.436,0,0,0,2.719-3.4,20.658,20.658,0,0,0,2.118-3.805c-1.019,1.049-1.942,2.131-2.91,3.179Z" transform="translate(-1019.042 -943.938)" fill="#a0724a"/>
            <path id="Path_59" data-name="Path 59" d="M1276.854,756.04a8.858,8.858,0,0,0-2.365,1.082,13.778,13.778,0,0,0-2.014,1.588,11.13,11.13,0,0,0-1.664,1.938c1.436-.926,2.758-1.917,4.142-2.8a17.4,17.4,0,0,1,2.124-1.175,4.436,4.436,0,0,1,.557-.224,3.213,3.213,0,0,1,.576-.174c.385-.1.824-.173,1.232-.295a10.3,10.3,0,0,0-1.28-.127,3.427,3.427,0,0,0-.661.045A3.707,3.707,0,0,0,1276.854,756.04Z" transform="translate(-1075.608 -751.425)" fill="#a0724a"/>
          </g>
          <g id="Group_12" data-name="Group 12" transform="translate(88.953 188.792)">
            <path id="Path_60" data-name="Path 60" d="M2117.4,1752.09l-.693,2.627c-.221.879-.4,1.772-.6,2.659s-.313,1.8-.473,2.7c-.143.884-.262,1.761-.418,2.64-.616,3.516-1.444,7.011-2.342,10.485s-1.866,6.939-2.848,10.4q-1.5,5.182-3.083,10.342c-1.027,3.451-2.132,6.876-3.208,10.314q3.988-10.045,7.261-20.362a176.192,176.192,0,0,0,5.5-20.954c.154-.894.272-1.8.412-2.7.152-.873.264-1.747.443-2.619s.364-1.744.577-2.611l.659-2.6c.923-3.462,2.007-6.887,3.1-10.309,1.11-3.419,2.274-6.822,3.466-10.217,1.167-3.405,2.408-6.783,3.631-10.172-2.931,6.581-5.645,13.264-8.05,20.065Q2118.907,1746.877,2117.4,1752.09Z" transform="translate(-1844.16 -1688.518)" fill="#9a442d"/>
            <path id="Path_61" data-name="Path 61" d="M2160.99,1810.311c-.861,1.943-1.75,3.875-2.75,5.75a28.215,28.215,0,0,1-3.483,5.331,23.307,23.307,0,0,0,4.034-5.01,63.768,63.768,0,0,0,3.12-5.644c.956-1.925,1.812-3.892,2.66-5.863.825-1.98,1.6-3.978,2.359-5.982.733-2.014,1.449-4.032,2.131-6.062.663-2.036,1.328-4.072,1.932-6.125,1.228-4.1,2.35-8.233,3.262-12.417l-4.222,12.107c-1.415,4.028-2.827,8.054-4.318,12.047S2162.681,1806.407,2160.99,1810.311Z" transform="translate(-1885.795 -1731.414)" fill="#9a442d"/>
            <path id="Path_62" data-name="Path 62" d="M2186.05,2056.321c.476-.39.9-.832,1.36-1.246l.674-.63c.223-.213.428-.442.643-.663.423-.448.857-.885,1.27-1.342a48.9,48.9,0,0,0,4.432-5.9,51.011,51.011,0,0,0,5.885-13.46,55.366,55.366,0,0,0,1.483-7.185,42.979,42.979,0,0,0,.424-7.3,57.936,57.936,0,0,1-1.047,7.192,66.859,66.859,0,0,1-1.827,7,60.415,60.415,0,0,1-2.6,6.727,51.255,51.255,0,0,1-7.671,12.115,49.576,49.576,0,0,1-5.093,5.075,53.868,53.868,0,0,1-12.215,7.715,43.077,43.077,0,0,0,12.857-6.931Z" transform="translate(-1899.671 -1930.751)" fill="#9a442d"/>
            <path id="Path_63" data-name="Path 63" d="M2131.041,1996.095c.445-.356.906-.69,1.329-1.069.837-.771,1.719-1.5,2.49-2.343a31.023,31.023,0,0,0,4.239-5.381,22.293,22.293,0,0,0,2.76-6.329c.532-2.116,1.249-4.268,1.915-6.4l4.184-12.8q-2.809,6.134-5.141,12.469-.591,1.582-1.133,3.184c-.357,1.078-.707,2.125-1.019,3.256a21.637,21.637,0,0,1-2.669,5.936c-.564.942-1.213,1.83-1.868,2.714l-1.048,1.277c-.341.432-.746.812-1.109,1.226-.723.837-1.558,1.564-2.351,2.336-.4.382-.846.714-1.262,1.078s-.836.732-1.28,1.062a65.9,65.9,0,0,1-11.433,6.945,48.333,48.333,0,0,0,12.036-6.137C2130.153,1996.805,2130.587,1996.436,2131.041,1996.095Z" transform="translate(-1855.516 -1884.39)" fill="#9a442d"/>
            <path id="Path_64" data-name="Path 64" d="M697.311,1561.453a13.392,13.392,0,0,1,4.534-.862h.124l.059-.116a6.667,6.667,0,0,1,1.5-1.822,16.979,16.979,0,0,1,1.916-1.471,7.592,7.592,0,0,1,2.095-1.067,5.16,5.16,0,0,1,1.138-.222,7.773,7.773,0,0,1,1.174-.027,13.418,13.418,0,0,1,4.605,1.148,22.889,22.889,0,0,1,4.186,2.34l.216.153.252-.1a8.4,8.4,0,0,1,2.214-.5,18.912,18.912,0,0,1,2.351-.087,43.9,43.9,0,0,1,4.751.373c1.583.2,3.161.467,4.733.768s3.142.648,4.682,1.03l.141.035.144-.03a47.093,47.093,0,0,1,7.289-.81c2.459-.124,4.931-.112,7.4-.067s4.943.148,7.413.3,4.942.343,7.4.575l.2.019.183-.108a9.383,9.383,0,0,1,1.97-.908,11.877,11.877,0,0,1,2.159-.475,15.765,15.765,0,0,1,2.235-.114,15.3,15.3,0,0,1,2.218.2l.208.036.173-.1a14.825,14.825,0,0,1,2.42-1.042,26.123,26.123,0,0,1,2.6-.71c.88-.2,1.773-.356,2.669-.493s1.8-.248,2.695-.321l.2-.016.112-.145a3.362,3.362,0,0,1,2.429-1.15c.118-.011.238-.013.35-.012.131,0,.272-.008.407-.012.276-.005.541-.034.807-.059a12.542,12.542,0,0,0,1.576-.273,13.04,13.04,0,0,0,2.989-1.1l1.353-.769c.458-.227.908-.473,1.381-.67a24.236,24.236,0,0,1,5.9-1.754,28.326,28.326,0,0,1,6.181-.357,26.334,26.334,0,0,0-6.223.073,24.636,24.636,0,0,0-6.059,1.557c-.492.183-.962.418-1.442.633l-1.378.716a12.6,12.6,0,0,1-2.857.975,11.5,11.5,0,0,1-1.491.224c-.25.018-.5.039-.745.037-.123,0-.242.008-.37,0-.147,0-.287,0-.427,0a5,5,0,0,0-1.646.368,3.762,3.762,0,0,0-1.265.886c-.875.055-1.734.142-2.6.251-.917.119-1.834.257-2.745.442a27.307,27.307,0,0,0-2.717.675,15.318,15.318,0,0,0-2.457.988,16.405,16.405,0,0,0-2.208-.216,17,17,0,0,0-2.405.095,13.1,13.1,0,0,0-2.381.494,10.357,10.357,0,0,0-2.056.9c-2.42-.263-4.834-.446-7.256-.607-2.484-.162-4.973-.279-7.466-.33s-4.989-.043-7.488.086a48.772,48.772,0,0,0-7.35.839c-1.541-.37-3.076-.679-4.626-.963-1.6-.286-3.2-.536-4.814-.723a40.255,40.255,0,0,0-4.884-.309,20.306,20.306,0,0,0-2.473.15,9.833,9.833,0,0,0-2.228.533,23.614,23.614,0,0,0-4.2-2.2,14.161,14.161,0,0,0-4.9-1.1,8.439,8.439,0,0,0-1.277.06,5.8,5.8,0,0,0-1.262.277,6.627,6.627,0,0,0-1.176.522,11.411,11.411,0,0,0-1.052.7,17.3,17.3,0,0,0-1.92,1.591,7.288,7.288,0,0,0-1.466,1.906,13.656,13.656,0,0,0-2.238.32,13.29,13.29,0,0,0-2.258.729,9.43,9.43,0,0,0-2.034,1.208,7.756,7.756,0,0,0-1.588,1.734,7.678,7.678,0,0,1,1.658-1.639A9.943,9.943,0,0,1,697.311,1561.453Z" transform="translate(-693.602 -1548.826)" fill="#9a442d"/>
            <path id="Path_65" data-name="Path 65" d="M1164.414,1707.1c-2.555-3.857-5.05-7.756-7.283-11.812-2.261-4.036-4.426-8.129-6.381-12.325a245.874,245.874,0,0,1-10.434-25.736q-2.274-6.568-4.173-13.264-1.957-6.677-3.468-13.481c.353,2.3.8,4.578,1.288,6.85s1.01,4.537,1.565,6.8q1.722,6.759,3.839,13.414c1.394,4.439,2.983,8.817,4.661,13.159,1.7,4.333,3.568,8.6,5.551,12.818a161.777,161.777,0,0,0,14.017,24.147l2.052,2.829,2.143,2.759c.36.458.71.923,1.08,1.373l1.124,1.336,1.123,1.337c.377.443.74.9,1.144,1.319l2.372,2.562c.387.433.8.844,1.215,1.252l1.238,1.23c1.611,1.678,3.395,3.177,5.113,4.736A133.192,133.192,0,0,1,1164.414,1707.1Z" transform="translate(-1051.853 -1614.081)" fill="#9a442d"/>
            <path id="Path_66" data-name="Path 66" d="M1046.344,1628.741l.018-.524.061-.519.247-2.078.4-2.05c.054-.346.183-.67.268-1.007l.276-1.008c.2-.665.477-1.306.709-1.965l.437-.95.219-.476.258-.455a13.591,13.591,0,0,1,2.486-3.4,11.225,11.225,0,0,0-3.027,3.062l-.316.445-.276.469-.551.943c-.164.324-.308.658-.461.988s-.321.657-.435,1c-.234.687-.505,1.367-.69,2.071l-.509,2.121-.3,2.157-.071.54-.027.542-.054,1.086a39.261,39.261,0,0,0,.086,4.332,10.179,10.179,0,0,0,.114,1.075l.144,1.07c.1.714.187,1.428.318,2.134.314,1.4.615,2.806.989,4.186.439,1.366.874,2.729,1.363,4.069-.214-1.418-.481-2.815-.744-4.207-.133-.7-.2-1.4-.3-2.1s-.206-1.4-.307-2.1c-.077-.7-.114-1.407-.187-2.105l-.1-1.051a9.494,9.494,0,0,1-.066-1.051c-.013-1.4-.139-2.8-.013-4.2Z" transform="translate(-980.294 -1600.883)" fill="#9a442d"/>
            <path id="Path_67" data-name="Path 67" d="M939.725,1737.01c-1.877-5.723-3.7-11.464-5.44-17.234q-2.628-8.646-5.088-17.343l-1.228-4.346-.3-1.088-.149-.544c-.053-.212-.118-.375-.178-.559l-.73-2.157c-.494-1.434-.958-2.883-1.477-4.3l-1.571-4.257-.4-1.062-.421-1.053-.842-2.106c-.561-1.4-1.115-2.812-1.719-4.2l-1.78-4.171-1.874-4.13a256.8,256.8,0,0,0-17.34-31.788q4.484,7.86,8.474,15.973,4.028,8.088,7.634,16.368t6.73,16.743l1.531,4.241c.509,1.414.958,2.839,1.441,4.259l.712,2.131c.057.174.128.363.163.519l.148.547.3,1.094,1.214,4.364c3.324,11.609,6.885,23.151,10.919,34.54q1.51,4.27,3.125,8.5c1.091,2.818,2.207,5.625,3.387,8.408,1.2,2.773,2.447,5.527,3.789,8.235a63.021,63.021,0,0,0,4.515,7.851,108.385,108.385,0,0,1-7.522-16.4C943.588,1748.42,941.62,1742.728,939.725,1737.01Z" transform="translate(-861.346 -1619.128)" fill="#9a442d"/>
            <path id="Path_68" data-name="Path 68" d="M733.975,1683.7a16.643,16.643,0,0,1-3.712,4.771,28.42,28.42,0,0,1-5,3.585,18.111,18.111,0,0,1-5.746,2.143,11.979,11.979,0,0,1-6.107-.506,11.223,11.223,0,0,0,3.01.844,12.7,12.7,0,0,0,3.147,0,18.614,18.614,0,0,0,5.994-1.924,28.7,28.7,0,0,0,5.252-3.5c.405-.344.8-.676,1.189-1.072.353-.4.719-.793,1.06-1.2.316-.43.65-.848.951-1.288.279-.454.581-.9.842-1.361a23.805,23.805,0,0,0,2.325-5.924,35.291,35.291,0,0,0,.962-6.267,56.251,56.251,0,0,0-.75-12.578c-.346-2.072-.792-4.124-1.319-6.157-.27-1.017-.54-2.028-.889-3.036l-.546-1.488-.274-.743-.139-.371-.165-.36a35.312,35.312,0,0,0-6.959-10.527,37.41,37.41,0,0,0-22.231-10.759,39.8,39.8,0,0,1,11.706,4.042,37.05,37.05,0,0,1,9.792,7.414,35.379,35.379,0,0,1,6.56,10.306l.155.351.129.362.261.723.523,1.445c.327.958.591,1.962.85,2.958.508,2,.935,4.019,1.267,6.053a56.088,56.088,0,0,1,.806,12.291A28.335,28.335,0,0,1,733.975,1683.7Z" transform="translate(-702.8 -1610.401)" fill="#9a442d"/>
            <path id="Path_69" data-name="Path 69" d="M731.523,1981.333c-1.332.085-2.661.205-3.983.37s-2.642.341-3.955.557c-1.289.2-2.57.426-3.853.679a46.807,46.807,0,0,1-4.8-.381,36.7,36.7,0,0,1-4.764-.976,30.612,30.612,0,0,1-4.586-1.653,29.5,29.5,0,0,1-4.3-2.394,20.04,20.04,0,0,0,3.989,3,25.284,25.284,0,0,0,4.583,2.075,30.035,30.035,0,0,0,4.9,1.189,35.277,35.277,0,0,0,5.019.41h.066l.069-.015,3.889-.792,3.9-.772c1.3-.251,2.6-.5,3.9-.73s2.609-.446,3.937-.549A24.141,24.141,0,0,0,731.523,1981.333Z" transform="translate(-699.865 -1897.25)" fill="#9a442d"/>
            <path id="Path_70" data-name="Path 70" d="M924.863,1879.4c-.22-2.671-.47-5.326-.761-8l-1.239-7.933q-.593-3.96-1.112-7.931c-.694-5.291-1.292-10.595-1.716-15.911s-.736-10.644-.675-15.956c.011-.668.015-1.325.07-1.96.047-.652.158-1.259.264-1.929l.291-2.019.073-.5.038-.505.074-1.011a71.215,71.215,0,0,0,.111-8.071,205.44,205.44,0,0,0-4.082-31.838c.8,5.289,1.505,10.587,2.03,15.9.556,5.309.988,10.636,1.054,15.959l0,2,0,1-.036.995-.066,1.989c-.017.664-.1,1.32-.148,1.979l-.083.987-.042.494-.076.488-.3,1.947c-.109.648-.246,1.356-.3,2.039s-.078,1.376-.1,2.044c-.1,5.382.194,10.74.611,16.084q.677,8.011,1.794,15.971c.752,5.293,1.6,10.609,2.579,15.831.68,5.279,1.275,10.6,1.62,15.921.084,1.329.167,2.662.181,3.992.025.664-.007,1.332-.008,2l.044,2.007q.08,4.013.2,8.023.088-4.01.139-8.017l.028-2c.025-.668.082-1.337.082-2.008.033-1.344,0-2.684-.036-4.024C925.271,1884.744,925.079,1882.073,924.863,1879.4Z" transform="translate(-875.223 -1732.674)" fill="#9a442d"/>
            <path id="Path_71" data-name="Path 71" d="M740.882,1628.844a38.616,38.616,0,0,0-7.226-7.138,30.6,30.6,0,0,0-4.384-2.648,22.471,22.471,0,0,0-4.834-1.71,19.4,19.4,0,0,0-5.089-.479,13.885,13.885,0,0,0-4.939,1.071,16.453,16.453,0,0,1,4.938-.437,21.712,21.712,0,0,1,4.839.822,28.011,28.011,0,0,1,8.7,4.427,39.011,39.011,0,0,1,3.771,3.175l.455.419.436.44.873.88,1.68,1.828c2.187,2.494,4.186,5.164,6.138,7.9A49.632,49.632,0,0,0,740.882,1628.844Z" transform="translate(-710.58 -1602.959)" fill="#9a442d"/>
            <path id="Path_72" data-name="Path 72" d="M806.556,1616.528c-.58-1.092-1.144-2.2-1.774-3.268a49.253,49.253,0,0,0-4.256-6.118l-.593-.722-.626-.7c-.425-.456-.817-.941-1.27-1.372l-1.341-1.3c-.464-.418-.937-.826-1.41-1.232-.5-.381-.976-.779-1.482-1.145-.521-.348-1.017-.723-1.557-1.039a15.234,15.234,0,0,0-3.357-1.621,23.375,23.375,0,0,1,2.991,2.138c.484.37.931.789,1.394,1.182l1.341,1.238c.427.436.854.868,1.29,1.291l1.243,1.335c.418.441.8.912,1.209,1.367l.6.686.568.715c.383.473.778.937,1.154,1.415l1.1,1.463.559.725.527.749c.348.5.707,1,1.069,1.491l2.074,3.04c.668,1.031,1.33,2.069,2.049,3.082C807.59,1618.782,807.073,1617.656,806.556,1616.528Z" transform="translate(-771.348 -1587.586)" fill="#9a442d"/>
            <path id="Path_73" data-name="Path 73" d="M866.9,1965.754a8.667,8.667,0,0,0-4.375-1.474c-.192-.011-.387-.015-.581-.012s-.335,0-.508,0a4.714,4.714,0,0,1-1.01-.16,7.839,7.839,0,0,1-1.021-.3,2.845,2.845,0,0,1-.932-.526,2.381,2.381,0,0,0,.757.841,6.684,6.684,0,0,0,.978.589,5.323,5.323,0,0,0,1.1.4,4.658,4.658,0,0,0,.584.095c.171.021.341.049.51.083a10.246,10.246,0,0,1,3.766,1.543,10.824,10.824,0,0,1,2.856,2.922,24.122,24.122,0,0,1,1.968,3.834,10.906,10.906,0,0,0-1.1-4.34A9,9,0,0,0,866.9,1965.754Z" transform="translate(-828.122 -1885.614)" fill="#9a442d"/>
            <path id="Path_74" data-name="Path 74" d="M1917.46,1677.153a5.5,5.5,0,0,0-.114-.662l-.251-1.222-.5-2.415c-.209-5.076-.587-10.133-1.034-15.19l.049-4.495c.009-1.508.059-3.016,0-4.523-.082-3.014-.132-6.032-.36-9.039-.319-6.024-1.007-12.024-1.84-18l-.685-4.472-.8-4.453-.2-1.113-.229-1.107-.459-2.217c-.29-1.48-.642-2.948-.983-4.418a146.994,146.994,0,0,0-5.091-17.34l-.489-2.1c-.22-.708-.41-1.423-.658-2.122-.274-.69-.5-1.4-.831-2.068-.158-.338-.308-.678-.473-1.012l-.541-.98a18.79,18.79,0,0,0-2.672-3.6,14.327,14.327,0,0,0-1.69-1.509,9.95,9.95,0,0,0-1.826-1.122,18.364,18.364,0,0,0-4.092-3.958,45.228,45.228,0,0,0-4.862-3.087,99.236,99.236,0,0,0-10.333-4.907c-3.52-1.448-7.087-2.772-10.681-4.009q-5.369-1.846-10.821-3.432a45.724,45.724,0,0,0-8.967-4.181c-3.121-1.112-6.3-2.044-9.488-2.891s-6.413-1.586-9.641-2.273-6.474-1.293-9.724-1.858c3.235.646,6.457,1.359,9.669,2.1s6.406,1.563,9.576,2.464,6.308,1.9,9.382,3.066a44.893,44.893,0,0,1,8.82,4.248l.05.033.059.018c3.619,1.092,7.218,2.292,10.781,3.567s7.1,2.64,10.576,4.12q2.605,1.12,5.168,2.325c1.7.815,3.381,1.672,5.021,2.591a44.238,44.238,0,0,1,4.727,3.027,17.031,17.031,0,0,1,3.9,3.822l.1.149.178.076a6.839,6.839,0,0,1,.86.463,9.71,9.71,0,0,1,.844.589,13.169,13.169,0,0,1,1.546,1.393,17.568,17.568,0,0,1,2.483,3.38l.506.927c.155.316.295.641.444.961.315.632.524,1.313.783,1.971.235.668.414,1.358.624,2.035l.474,2.082.014.058.017.05a159.557,159.557,0,0,1,5.032,17.229c.345,1.458.7,2.916,1,4.386l.466,2.2.232,1.1.2,1.106.815,4.425.7,4.444c.853,5.937,1.562,11.9,1.9,17.893.245,2.991.29,5.992.407,8.991.079,1.5.046,3,.057,4.5l.006,4.5v.037l0,.021c.509,5.053.952,10.122,1.222,15.192l0,.034.005.024.536,2.448.269,1.224a4.906,4.906,0,0,1,.106.567,2.269,2.269,0,0,1-.012.539,2.293,2.293,0,0,1-.39,1,6.279,6.279,0,0,1-.823.84l-.9.839c-.31.27-.648.506-.97.761a37.651,37.651,0,0,1-8.633,4.828,70.352,70.352,0,0,1-9.472,3.094,99.6,99.6,0,0,1-9.794,1.958,92.411,92.411,0,0,0,9.854-1.713,70.637,70.637,0,0,0,9.583-2.916,38.072,38.072,0,0,0,8.859-4.732c.335-.257.683-.5,1.006-.77l.938-.855a6.436,6.436,0,0,0,.927-.936,3.028,3.028,0,0,0,.525-1.3A3.106,3.106,0,0,0,1917.46,1677.153Z" transform="translate(-1610.35 -1541.373)" fill="#9a442d"/>
          </g>
          <g id="Group_13" data-name="Group 13" transform="translate(169.776 227.965)">
            <path id="Path_75" data-name="Path 75" d="M1162.135,1829.29c-1.37-2.321-2.649-4.7-3.945-7.059-1.24-2.394-2.51-4.772-3.674-7.2-1.214-2.407-2.339-4.859-3.48-7.3l-1.644-3.7c-.549-1.232-1.053-2.483-1.59-3.72-2.106-4.967-4.034-10.008-5.881-15.079s-3.518-10.209-5.057-15.386q-2.368-7.748-4.189-15.657c.452,2.667,1.013,5.315,1.622,7.951s1.257,5.265,1.954,7.88q2.129,7.837,4.728,15.54a245.663,245.663,0,0,0,12.374,30.043c1.18,2.441,2.465,4.828,3.721,7.231,1.317,2.368,2.6,4.76,4,7.079.133.23.271.458.407.687l1.3-.188C1162.563,1830.035,1162.345,1829.665,1162.135,1829.29Z" transform="translate(-1132.675 -1754.185)" fill="#9a442d"/>
            <path id="Path_76" data-name="Path 76" d="M1308.147,2193.778c-3.419-4.175-6.7-8.463-9.708-12.939l-1.145-1.667c-.38-.557-.734-1.133-1.1-1.7l-2.2-3.393c-1.176-1.938-2.379-3.856-3.516-5.816l-1.3.188c1.241,2.106,2.564,4.163,3.856,6.239,1.51,2.252,2.974,4.536,4.588,6.714,3.124,4.43,6.508,8.675,10.04,12.78l2.711,3.026c.917,1,1.875,1.954,2.81,2.931l1.409,1.46c.478.48.974.941,1.461,1.411L1319,2205.8C1315.241,2201.916,1311.527,2197.991,1308.147,2193.778Z" transform="translate(-1260.37 -2092.044)" fill="#b99b4d"/>
          </g>
          <g id="Group_14" data-name="Group 14" transform="translate(194.546)">
            <path id="Path_77" data-name="Path 77" d="M1282.951,651.747a11.6,11.6,0,0,0-1.209-2.809,8.611,8.611,0,0,0-1.939-2.261c-.189-.158-.39-.3-.589-.438s-.412-.26-.63-.365a5.378,5.378,0,0,0-1.344-.489,6.051,6.051,0,0,0-2.81.016,5.362,5.362,0,0,0-1.28.513,4.673,4.673,0,0,0-1.05.833,4.171,4.171,0,0,0-.457,4.9,3.739,3.739,0,0,0,2.025,1.518,3.469,3.469,0,0,0,2.495-.091,3.844,3.844,0,0,0,1.827-1.787,5.1,5.1,0,0,0,.464-1.271,5.375,5.375,0,0,0,.106-1.356c-.01-.112-.01-.227-.029-.338l-.053-.334-.084-.337c-.026-.113-.07-.221-.1-.333a6.387,6.387,0,0,0-.6-1.275,8.313,8.313,0,0,0-1.943-2.131,10.419,10.419,0,0,0-2.574-1.472,27.426,27.426,0,0,0-5.936-1.485,21.936,21.936,0,0,1,6.182.8,11.121,11.121,0,0,1,2.895,1.371,8.7,8.7,0,0,1,1.265,1.027,8.382,8.382,0,0,1,1.073,1.256,7.54,7.54,0,0,1,.793,1.479c.049.133.1.263.144.4l.118.409.087.426c.03.142.037.286.056.43a6.327,6.327,0,0,1-.073,1.721,6.544,6.544,0,0,1-.545,1.64,5.225,5.225,0,0,1-2.477,2.481,4.569,4.569,0,0,1-1.768.413,5.251,5.251,0,0,1-4.576-2.393,5.455,5.455,0,0,1,.753-6.559,5.727,5.727,0,0,1,1.4-1.03,6.594,6.594,0,0,1,1.614-.545,6.85,6.85,0,0,1,1.673-.115,6.388,6.388,0,0,1,1.637.289,6.277,6.277,0,0,1,1.507.684,7,7,0,0,1,1.284,1,8.821,8.821,0,0,1,1.819,2.607,10,10,0,0,1,.85,3Z" transform="translate(-1267.24 -617.906)" fill="#1a3139"/>
            <path id="Path_78" data-name="Path 78" d="M1497.028,544.846a16.874,16.874,0,0,1-1.687-1.471,15.581,15.581,0,0,1-1.472-1.709,12.256,12.256,0,0,1-2.008-4.1,10.53,10.53,0,0,1-.173-4.648,8.753,8.753,0,0,1,.764-2.26,8.077,8.077,0,0,1,1.39-1.987,7.967,7.967,0,0,1,4.247-2.335,6.8,6.8,0,0,1,2.516-.018,6.451,6.451,0,0,1,2.359.977,6.838,6.838,0,0,1,1.814,1.773,6.186,6.186,0,0,1,1.026,2.367,5.474,5.474,0,0,1-.13,2.638,5.854,5.854,0,0,1-1.309,2.265,6.823,6.823,0,0,1-2.052,1.512,7.325,7.325,0,0,1-2.434.7,6.536,6.536,0,0,1-2.554-.237,7.119,7.119,0,0,1-2.243-1.143,8.875,8.875,0,0,1-2.889-3.908,9.236,9.236,0,0,1-.573-2.357,10.031,10.031,0,0,1,.064-2.4,12.225,12.225,0,0,1,1.571-4.407,15.944,15.944,0,0,1,2.9-3.564,23.04,23.04,0,0,1,3.63-2.693q.962-.582,1.95-1.1c.662-.343,1.326-.678,2-.992-.622.408-1.247.81-1.859,1.231s-1.219.841-1.807,1.287-1.163.9-1.714,1.386a20.721,20.721,0,0,0-1.564,1.525,15.083,15.083,0,0,0-2.477,3.5,11.4,11.4,0,0,0-1.2,4,8.654,8.654,0,0,0,.042,2.041,7.865,7.865,0,0,0,.547,1.941,7.372,7.372,0,0,0,2.416,3.1,5.568,5.568,0,0,0,1.72.84,4.733,4.733,0,0,0,1.85.141,5.383,5.383,0,0,0,3.329-1.653,4.026,4.026,0,0,0,.911-1.549,3.717,3.717,0,0,0,.1-1.762,4.91,4.91,0,0,0-2.037-3.043,4.744,4.744,0,0,0-1.708-.761,5.351,5.351,0,0,0-1.912-.043,6.4,6.4,0,0,0-1.872.607,6.643,6.643,0,0,0-1.638,1.146,7.383,7.383,0,0,0-2,3.5,9.593,9.593,0,0,0-.122,4.186,12.018,12.018,0,0,0,1.555,4.013,15.545,15.545,0,0,0,1.255,1.806A19.575,19.575,0,0,0,1497.028,544.846Z" transform="translate(-1450.225 -515.748)" fill="#1a3139"/>
          </g>
          <g id="Group_15" data-name="Group 15" transform="translate(203.377 190.549)">
            <path id="Path_79" data-name="Path 79" d="M1631.755,1574.877a26.314,26.314,0,0,1-2.8,2.772c-.636.567-1.311,1.09-1.981,1.6s-1.363,1-2.063,1.463c-.437.3-.877.583-1.324.864-.216.143-.436.278-.656.411-.762.468-1.531.916-2.3,1.354-.726.4-1.466.791-2.2,1.167l-1.1.55-.545.259c-.173.078-.377.174-.5.216l.714-.324c-2.15.467-4.208,1-6.25,1.575s-4.053,1.192-6.046,1.851q-2.015.68-4.019,1.39c1.411.486,9.322,3.338,9.823,6.385l3.3-1.594c1.843-.887,3.681-1.8,5.476-2.639l.718-.324c.255-.182.419-.316.618-.472l.558-.45c.368-.3.722-.61,1.073-.922.705-.618,1.38-1.263,2.037-1.929a41.949,41.949,0,0,0,3.676-4.208c.554-.753,1.086-1.518,1.588-2.306s.951-1.6,1.358-2.444a18.276,18.276,0,0,0,1.574-4.567C1632.24,1574.67,1632,1574.778,1631.755,1574.877Z" transform="translate(-1548.134 -1570.206)" fill="#fff"/>
            <path id="Path_80" data-name="Path 80" d="M1631.755,1574.877a26.314,26.314,0,0,1-2.8,2.772c-.636.567-1.311,1.09-1.981,1.6s-1.363,1-2.063,1.463c-.437.3-.877.583-1.324.864-.216.143-.436.278-.656.411-.762.468-1.531.916-2.3,1.354-.726.4-1.466.791-2.2,1.167l-1.1.55-.545.259c-.173.078-.377.174-.5.216l.714-.324c-2.15.467-4.208,1-6.25,1.575s-4.053,1.192-6.046,1.851q-2.015.68-4.019,1.39c1.411.486,9.322,3.338,9.823,6.385l3.3-1.594c1.843-.887,3.681-1.8,5.476-2.639l.718-.324c.255-.182.419-.316.618-.472l.558-.45c.368-.3.722-.61,1.073-.922.705-.618,1.38-1.263,2.037-1.929a41.949,41.949,0,0,0,3.676-4.208c.554-.753,1.086-1.518,1.588-2.306s.951-1.6,1.358-2.444a18.276,18.276,0,0,0,1.574-4.567C1632.24,1574.67,1632,1574.778,1631.755,1574.877Z" transform="translate(-1548.134 -1570.206)" opacity="0.15"/>
            <path id="Path_81" data-name="Path 81" d="M1367.761,1570.739l-.065.023c-.619.218-1.238.435-1.854.657q-2.959,1.064-5.9,2.2l-1.116.644a1.585,1.585,0,0,1,.178-.142c.034-.021.065-.039.1-.057a.455.455,0,0,0,.065-.039.248.248,0,0,1,.078-.047.213.213,0,0,0-.091.022l-.2.043a12.188,12.188,0,0,1-1.254.19c-.983.112-2.12.169-3.262.194-.572.013-1.154.018-1.738.018h-.216l-.074,0-.8-.428c-.643-.355-1.249-.624-1.877-.931-2.461-1.168-4.888-2.142-7.327-3.071s-4.891-1.764-7.349-2.561-4.939-1.522-7.431-2.2q-1.868-.512-3.75-.981l-.943-.23-.468-.113-.229-.03a3.041,3.041,0,0,1-.925-.311,3.513,3.513,0,0,1-1.476-1.6c-.091-.234-.185-.558-.277-.836s-.186-.579-.267-.877c-.178-.589-.334-1.189-.485-1.8-.631-2.434-1.1-5-1.781-7.556a54.55,54.55,0,0,0-1.579,7.755q-.118,1-.177,2.015-.032.513-.052,1.025c0,.174,0,.343,0,.516s-.009.324.009.545a8.594,8.594,0,0,0,.592,2.656,8.749,8.749,0,0,0,1.475,2.383,9.165,9.165,0,0,0,2.223,1.838l1.917,1.026,3.4,1.777c2.263,1.173,4.533,2.314,6.8,3.448l6.773,3.352c2.24,1.1,4.477,2.215,6.578,3.327.506.276,1.055.562,1.518.835l.727.411a10.6,10.6,0,0,0,1.8.835,10.344,10.344,0,0,0,1.929.466c.329.047.657.078.991.1l.648.014c.7.009,1.389.012,2.089,0a40.784,40.784,0,0,0,4.373-.32,21.848,21.848,0,0,0,2.513-.481l.718-.2c.277-.095.55-.19.817-.294.294-.117.641-.28.951-.437.07-.031.173-.09.278-.151l.225-.138c1.729-.762,3.455-1.536,5.177-2.336,1.873-.861,3.733-1.752,5.588-2.656l2.266-1.1C1377.083,1574.077,1369.173,1571.224,1367.761,1570.739Zm-15.336,3.708h.009a.217.217,0,0,1,.07.03.189.189,0,0,1,.06.044Z" transform="translate(-1315.214 -1550.918)" fill="#fff"/>
          </g>
        </g>
      </g>
      <g id="Group_19" data-name="Group 19" transform="translate(343.776 13.168)">
        <g id="Group_18" data-name="Group 18">
          <path id="Path_82" data-name="Path 82" d="M2084.15,687.035a57.668,57.668,0,1,1,12.376,10.23l-24.536,9.289Z" transform="translate(-2068.752 -589.774)" fill="#fff"/>
          <path id="Path_83" data-name="Path 83" d="M2082.987,684.546a57.829,57.829,0,0,1-11.254-60.781,58.407,58.407,0,0,1,29.285-31.006,57.348,57.348,0,0,1,21.067-5.368,58.856,58.856,0,0,1,21.586,2.719,58.241,58.241,0,0,1-6.543,112.523,57.284,57.284,0,0,1-10.847,1.093l-.68.015-.682-.014-1.365-.029-1.362-.075-.68-.038c-.227-.015-.453-.04-.68-.06l-1.358-.125-1.352-.169-.676-.086c-.226-.032-.449-.071-.673-.107l-1.346-.219a58.088,58.088,0,0,1-20.227-7.777l.273.026-24.59,9.146-.443.165.252-.4Zm0,0-12.026,19.6-.192-.233,24.482-9.432.142-.055.133.081a57.588,57.588,0,0,0,20.035,7.536l1.331.207c.22.033.442.071.664.1l.668.08,1.335.158,1.339.114c.223.017.446.04.67.054l.672.033,1.344.064,1.344.019.672.009.67-.02a56.336,56.336,0,0,0,10.671-1.151,56.917,56.917,0,1,0-65.136-35.545A58.213,58.213,0,0,0,2082.987,684.546Z" transform="translate(-2067.591 -587.285)" fill="#1a3139"/>
        </g>
        <path id="Path_84" data-name="Path 84" d="M2312.679,786.526a14.52,14.52,0,0,1-2.453,7.741,18.888,18.888,0,0,1-7.162,6.5,22.551,22.551,0,0,1-10.985,2.574,23.433,23.433,0,0,1-10.294-2.151,16.683,16.683,0,0,1-6.888-5.852,14.38,14.38,0,0,1-2.43-8.043,12.465,12.465,0,0,1,1.386-5.993,18.383,18.383,0,0,1,3.293-4.445q1.909-1.87,6.847-6.294a27.933,27.933,0,0,0,2.194-2.192,8.823,8.823,0,0,0,1.229-1.729,8.566,8.566,0,0,0,.624-1.57q.22-.784.663-2.754.766-4.181,4.789-4.181a4.9,4.9,0,0,1,3.523,1.368,5.365,5.365,0,0,1,1.427,4.061,14.257,14.257,0,0,1-3.822,10.2,64,64,0,0,1-4.671,4.443q-2.574,2.252-3.722,3.4a11.516,11.516,0,0,0-1.932,2.554,6.182,6.182,0,0,0-.785,3.057,7.106,7.106,0,0,0,2.395,5.428,8.739,8.739,0,0,0,6.175,2.212q4.427,0,6.521-2.235a17.837,17.837,0,0,0,3.54-6.582q1.367-4.534,5.19-4.535a5.1,5.1,0,0,1,3.8,1.589A4.864,4.864,0,0,1,2312.679,786.526Zm-19.63-44.086a6.336,6.336,0,0,1,4.287,1.589,5.574,5.574,0,0,1,1.829,4.447,5.724,5.724,0,0,1-1.77,4.264,5.977,5.977,0,0,1-4.346,1.73,5.912,5.912,0,0,1-6-5.994,5.616,5.616,0,0,1,1.812-4.427A6.11,6.11,0,0,1,2293.049,742.44Z" transform="translate(-2234.754 -713.88)" fill="#d15d3e"/>
      </g>
      <path id="Path_85" data-name="Path 85" d="M284.2,2457.02c4.663-.158,9.325-.273,13.987-.414l13.987-.349q13.988-.334,27.975-.587,27.975-.512,55.95-.812,55.95-.608,111.9-.6,55.949-.005,111.9.589,27.974.318,55.949.815,13.987.267,27.975.587l13.988.352,6.993.2,3.5.1,3.5.113-3.5.115-3.5.1-6.993.2-13.988.355q-13.987.333-27.975.586-27.975.517-55.949.814-55.95.606-111.9.59t-111.9-.6q-27.975-.318-55.95-.813-13.987-.266-27.975-.584l-13.987-.351C293.526,2457.3,288.864,2457.179,284.2,2457.02Z" transform="translate(-268.702 -2097.429)" fill="#f6cf67"/>
    </g>
  </g>
</svg>
