<svg id="Group_32186" data-name="Group 32186" xmlns="http://www.w3.org/2000/svg" width="55.039" height="62.96" viewBox="0 0 55.039 62.96">
  <path id="Path_273" data-name="Path 273" d="M75.537,21.537a21.537,21.537,0,1,0-43.074,0c-3.075.383-5.983,2.393-5.983,7.059V39.843c0,5.265,3.685,7.179,7.179,7.179h3.47a1.2,1.2,0,0,0,1.2-1.2V22.662a1.2,1.2,0,0,0-1.2-1.2H34.856a19.144,19.144,0,0,1,38.288,0H70.87a1.2,1.2,0,0,0-1.2,1.2V45.79a1.2,1.2,0,0,0,1.2,1.2h2.273c-.335,8.22-4.283,10.146-12.168,10.493v-.8a2.393,2.393,0,0,0-2.393-2.393H51.056a2.393,2.393,0,0,0-2.393,2.393v3.889a2.393,2.393,0,0,0,2.393,2.393h7.55A2.393,2.393,0,0,0,61,60.567v-.694c7.586-.347,14.143-1.914,14.537-12.958,3.075-.383,5.983-2.393,5.983-7.059V28.608C81.519,23.918,78.624,21.92,75.537,21.537ZM58.606,58.76v1.819h-7.55V56.69Z" transform="translate(-26.48)" fill="#d4801e"/>
</svg>
