<svg xmlns="http://www.w3.org/2000/svg" width="13.536" height="15.919" viewBox="0 0 13.536 15.919">
  <g id="Iconly_Light_Profile" data-name="Iconly/Light/Profile" transform="translate(0.45 0.45)">
    <g id="Profile" transform="translate(0 -1)">
      <circle id="Ellipse_736" cx="3.982" cy="3.982" r="3.982" transform="translate(2.334 1)" fill="none" stroke="#3b3b3b" stroke-linecap="round" stroke-linejoin="round" stroke-miterlimit="10" stroke-width="0.9"/>
      <path id="Path_33945" d="M0,2.513A1.846,1.846,0,0,1,.183,1.7,3.369,3.369,0,0,1,2.532.355,13.989,13.989,0,0,1,4.485.08a20.877,20.877,0,0,1,3.654,0,14.149,14.149,0,0,1,1.953.275A3.241,3.241,0,0,1,12.441,1.7a1.892,1.892,0,0,1,0,1.625,3.209,3.209,0,0,1-2.349,1.342,13.1,13.1,0,0,1-1.953.282A21.518,21.518,0,0,1,5.164,5a3.388,3.388,0,0,1-.679-.046A12.853,12.853,0,0,1,2.54,4.672,3.225,3.225,0,0,1,.183,3.33,1.9,1.9,0,0,1,0,2.513Z" transform="translate(0 10.988)" fill="none" stroke="#3b3b3b" stroke-linecap="round" stroke-linejoin="round" stroke-miterlimit="10" stroke-width="0.9"/>
    </g>
  </g>
</svg>
