<svg xmlns="http://www.w3.org/2000/svg" width="493.454" height="246.967" viewBox="0 0 493.454 246.967">
  <g id="Illustration" transform="translate(-25.044 -90.174)">
    <path id="Path_1" data-name="Path 1" d="M508.812,316.394s11.548-23.389-1.6-47.269c-19.377-35.2-28.766-56.306-14.117-90.133s8.452-101.216-59.7-86.833-147.443,63.148-226.875,23.913C127.254,76.916,87.113,99.29,80.508,167.611c-5.878,60.8-95.919,71.5-33.576,148.783Z" transform="translate(0)" fill="#d4801e" opacity="0.06"/>
    <g id="Group_5" data-name="Group 5" transform="translate(154.443 186.717)">
      <g id="Group_2" data-name="Group 2">
        <g id="Group_1" data-name="Group 1">
          <path id="Path_2" data-name="Path 2" d="M143.509,217.572s-6.573-6.777-.343-11.392,7.621-5.68,8.163-10.552,2.61-4.654,7.215-6.783,7.558-13.592,11.595-12.465,3.618.868.645,9.878,1.3,12.471-1.615,16.073-8.541,4.915-9.594,9.658-10.391,11.377-10.391,11.377Z" transform="translate(-140.484 -176.303)" fill="#359d9e"/>
        </g>
      </g>
      <path id="Path_3" data-name="Path 3" d="M146.147,220.833a.686.686,0,0,1-.025-.786l18.5-31.211a.464.464,0,0,1,.685-.211.653.653,0,0,1,.07.827l-18.5,31.211a.464.464,0,0,1-.685.211A.381.381,0,0,1,146.147,220.833Z" transform="translate(-139.815 -174.823)" fill="#215273"/>
      <g id="Group_4" data-name="Group 4" transform="translate(7.507 1.395)">
        <g id="Group_3" data-name="Group 3">
          <path id="Path_4" data-name="Path 4" d="M156.549,236.263s7.472-8.16,12.651-13.719,7.788-1.768,9.328-9.4,4.6-16.575,9.483-18.708,10.783-15.705,8-16.749-5.676,4.123-11.121,6.272-8.289-1.15-10.713,4.367-8.272,8.955-10.734,9.7-4.551,4.245-5.406,9.121-4.383,7.419-8.158,9.156-2.479,14.451-2.479,14.451Z" transform="translate(-147.181 -177.547)" fill="#7ce496"/>
        </g>
      </g>
    </g>
    <g id="Group_7" data-name="Group 7" transform="translate(59.268 152.611)">
      <g id="Group_6" data-name="Group 6" transform="translate(0)">
        <path id="Path_5" data-name="Path 5" d="M55.576,282.019V254.171l77.15-108.3h34.467V252.98h21v29.039h-21v33.8H134.78v-33.8Zm81.715-96.871L88.445,252.98h48.846Z" transform="translate(-55.576 -145.875)" fill="#e29e50"/>
      </g>
    </g>
    <g id="Group_9" data-name="Group 9" transform="translate(217.484 151.589)">
      <g id="Group_8" data-name="Group 8">
        <path id="Path_6" data-name="Path 6" d="M208.621,207.822q31.417-79.2,83.344-58.607,27.5,10.909,31.2,36.956t-10.877,62.772q-14.657,36.95-35.2,53.381t-48.044,5.523Q177.116,287.248,208.621,207.822Zm76.93,30.515q9.478-23.894,9.516-38.858T280.294,178.64q-15-5.95-25.232,4.971t-19.708,34.815q-9.567,24.118-9.6,39.08t14.964,20.914q14.808,5.875,25.04-5.045T285.552,238.337Z" transform="translate(-196.724 -144.964)" fill="#e29e50"/>
      </g>
    </g>
    <g id="Group_11" data-name="Group 11" transform="translate(344.468 150.171)">
      <g id="Group_10" data-name="Group 10">
        <path id="Path_7" data-name="Path 7" d="M310.009,279.843V252l77.15-108.3h34.467V250.805h21v29.038h-21v33.8H389.213v-33.8Zm81.715-96.871-48.848,67.834h48.848Z" transform="translate(-310.009 -143.699)" fill="#e29e50"/>
      </g>
    </g>
    <g id="Group_12" data-name="Group 12" transform="translate(89.67 273.301)">
      <path id="Path_8" data-name="Path 8" d="M117.893,291.326,103.8,291.7v.035l-.566-.024-.566.024V291.7l-14.089-.377,1.355-4.594,1.7-5.8,1.473-5.007,1.319-4.512,1.767-6,3.487-11.875H106.8l3.487,11.875,1.767,6,1.319,4.512,1.473,5.007,1.7,5.8.224.742Z" transform="translate(-81.986 -253.546)" fill="#f8bf2c"/>
      <path id="Path_9" data-name="Path 9" d="M111.419,270.136H93.8l1.767-6h14.089Z" transform="translate(-81.356 -252.265)" fill="#fff"/>
      <path id="Path_10" data-name="Path 10" d="M114.512,278.521H91.305l1.473-5.007H113.04Z" transform="translate(-81.657 -251.131)" fill="#fff"/>
      <path id="Path_11" data-name="Path 11" d="M117.893,287.746l-14.089.377v.035h-1.131v-.035l-14.089-.377,1.355-4.594h26.6Z" transform="translate(-81.986 -249.966)" fill="#fff"/>
      <path id="Path_12" data-name="Path 12" d="M117.893,291.326l-14.09.377v.036l-.565-.024-.566.024V291.7l-14.089-.377,1.355-4.595,1.7-5.8,1.473-5.007,1.319-4.512,1.767-6,3.487-11.874h2.5c-4.488,11.863-9.365,31.878,8.176,33.185,2.073.154,4.229.413,6.408.742Z" transform="translate(-81.986 -253.546)" fill="#ff6d33" opacity="0.29"/>
      <path id="Path_13" data-name="Path 13" d="M125.2,288.481v1.968a2.358,2.358,0,0,1-2.356,2.25H85.054a2.35,2.35,0,0,1-2.356-2.25v-1.968a2.354,2.354,0,0,1,2.356-2.355h37.791A2.362,2.362,0,0,1,125.2,288.481Z" transform="translate(-82.698 -249.606)" fill="#ff8533"/>
      <path id="Path_14" data-name="Path 14" d="M125.2,289.983a2.357,2.357,0,0,1-2.356,2.25H85.054a2.35,2.35,0,0,1-2.356-2.25Z" transform="translate(-82.698 -249.14)" fill="#e55c2c" opacity="0.29"/>
    </g>
    <g id="Group_16" data-name="Group 16" transform="translate(367.04 274.302)">
      <path id="Path_15" data-name="Path 15" d="M351.538,254.439s-2.355-.1-.883,3.043,1.48,6.184.2,8.245-.139,4.516.126,6.087-3.368,5.277-3.27,7.3,0,15.965,0,15.965,6.58-.982,7.071-1.178,4.418-5.89,2.258-10.6-3.338-5.4-1.473-10.9-1.963-5.792-1.472-8.835-.341-4.025-1.4-5.793A8.185,8.185,0,0,1,351.538,254.439Z" transform="translate(-328.022 -254.439)" fill="#215273"/>
      <g id="Group_13" data-name="Group 13" transform="translate(11.816 2.375)">
        <path id="Path_16" data-name="Path 16" d="M342.374,266.257c-1.963,4.81,2.455,4.614,1.178,8.639s3.239,4.909,1.572,9.817c-1.285,3.777.167,9.239.906,11.561h6.348c-.082-1.7-.671-13.144-1.817-14.507a5.29,5.29,0,0,1-.921-5.4c.687-2.258-.392-3.632-2.356-5.3s-.687-1.57-.872-5.792-2.76-6.774-5.116-8.443S344.338,261.446,342.374,266.257Z" transform="translate(-340.687 -256.558)" fill="#359d9e"/>
      </g>
      <g id="Group_14" data-name="Group 14" transform="translate(0 12.433)">
        <path id="Path_17" data-name="Path 17" d="M336.65,280.669c.59,2.278-1.57,6.009,1.079,7.58s3.142.295,4.516,2.945c.836,1.613,1.345,3.071,1.858,4h6.532c-.184-1.809-.973-7.1-3.973-8.315-3.632-1.473-5.1-1.669-5.1-5.1s.687-4.615-.982-5.694-3.141-1.57-3.828-3.436-.1-2.552-1.669-3.437a14.335,14.335,0,0,1-4.221-3.533c-.59-.982-1.669,3.436,1.079,5.889s2.847,2.259,2.847,5.3S336.061,278.39,336.65,280.669Z" transform="translate(-330.146 -265.53)" fill="#7ce496"/>
      </g>
      <g id="Group_15" data-name="Group 15" transform="translate(21.689 5.95)">
        <path id="Path_18" data-name="Path 18" d="M363.594,274.608c-1.473-3.141,3.632-14.038.589-14.823s-2.945,10.7-4.515,12.468-2.748,1.864-3.338,7.46-2.258,6.284-5.5,9.13c-2.234,1.964-1.155,5.232-.429,7.046h5.438c.721-.659,1.64-1.521,2.649-2.53,2.258-2.258,1.767-6.283,1.079-7.657S365.067,277.75,363.594,274.608Z" transform="translate(-349.495 -259.747)" fill="#7ce496"/>
      </g>
    </g>
    <g id="Group_20" data-name="Group 20" transform="translate(210.807 286.757)">
      <g id="Group_17" data-name="Group 17" transform="translate(21.919)">
        <path id="Path_19" data-name="Path 19" d="M222.075,296.286s-14.014-3.775-11.437-16.66,3.019-14.943,3.608-13.8,3.976,10.344,6.995,12.921,5.006,8.1,4.785,11.191-3.165,6.352-3.165,6.352Z" transform="translate(-210.322 -265.55)" fill="#359d9e"/>
      </g>
      <g id="Group_18" data-name="Group 18" transform="translate(0 3.472)">
        <path id="Path_20" data-name="Path 20" d="M212.687,295.911s-12.495,1.452-14.925-5.837-3.165-13.327-4.2-16.272a19.518,19.518,0,0,0-2.8-5.154s18.555,4.124,22.825,12.443,3.976,14.358,3.976,14.358Z" transform="translate(-190.767 -268.648)" fill="#7ce496"/>
      </g>
      <path id="Path_21" data-name="Path 21" d="M221.667,295.626a.3.3,0,0,1-.284-.216c-.02-.072-1.964-7.145-3.887-12.666a62.622,62.622,0,0,0-3.769-8.863.295.295,0,1,1,.516-.285,63.423,63.423,0,0,1,3.81,8.955c1.929,5.54,3.878,12.633,3.9,12.7a.3.3,0,0,1-.206.363A.314.314,0,0,1,221.667,295.626Z" transform="translate(-187.995 -264.596)" fill="#215273"/>
      <g id="Group_19" data-name="Group 19" transform="translate(8.026 10.394)">
        <path id="Path_22" data-name="Path 22" d="M216.7,295a.317.317,0,0,1-.119-.024,33.143,33.143,0,0,1-10.19-7.438,88.763,88.763,0,0,1-8.428-12.272.295.295,0,1,1,.513-.29,88.012,88.012,0,0,0,8.358,12.173,32.436,32.436,0,0,0,9.984,7.286.3.3,0,0,1,.151.389A.292.292,0,0,1,216.7,295Z" transform="translate(-197.927 -274.823)" fill="#359d9e"/>
      </g>
    </g>
    <g id="Group_22" data-name="Group 22" transform="translate(477.097 283.739)">
      <path id="Path_23" data-name="Path 23" d="M438.426,295.513c2.289-1.557,10.463-7.341,14.492-13.217,4.711-6.872,1.963-19.438,1.963-19.438a51.921,51.921,0,0,0-2.16,5.1c-.981,2.749-3.337,1.178-8.049,5.6s-5.89,8.934-11.089,10.9c-4.544,1.715-5.167,9.2-5.253,11.057Z" transform="translate(-428.33 -262.858)" fill="#215273"/>
      <g id="Group_21" data-name="Group 21" transform="translate(5.302 6.3)">
        <path id="Path_24" data-name="Path 24" d="M462.556,269.639c-7.069,2.749-3.338,7.657-11.585,7.6s-3.73,8.7-11,9.485c-5.617.608-6.708,5.787-6.916,8.112h14.292q.9-.711,2.049-1.633c2.946-2.356,8.835-6.675,8.05-10.013s8.442-3.73,10.6-8.835S469.625,266.891,462.556,269.639Z" transform="translate(-433.06 -268.478)" fill="#359d9e"/>
      </g>
    </g>
    <g id="Group_24" data-name="Group 24" transform="translate(46.932 268.548)">
      <path id="Path_25" data-name="Path 25" d="M45.582,291.052c-1.128,3.2.092,5.043,1.921,6.1H64.045c1.011-3,3.469-11.145,1.564-14.4-2.356-4.025,2.16-9.13,2.418-13.766s-6.344-3.807-9.879-12.181-2.945-8.511-7.657-6.264.588,12.282-2.356,17.178-5.1,6.3-2.16,10.026S48.331,283.243,45.582,291.052Z" transform="translate(-44.571 -249.305)" fill="#215273"/>
      <path id="Path_26" data-name="Path 26" d="M59.8,295.672l-4.113-33.614a.581.581,0,0,0-.656-.513.59.59,0,0,0-.513.656l4.1,33.472Z" transform="translate(-43.369 -247.826)" fill="#1b4156"/>
      <g id="Group_23" data-name="Group 23" transform="translate(14.366 10.909)">
        <path id="Path_27" data-name="Path 27" d="M77.256,259.045c-2.3.295-2.595,3.5-5.688,6.022s-6.185,1.783-6.037,5.023-2.8,6.471-4.271,7.506-1.767,3.244-.736,5.747-.588,4.671-2.65,6.533c-1.429,1.289.605,4.344,1.991,6.1h9.9c.837-1.959,2.458-5.742,3.714-8.6,1.767-4.029,4.859-3,3.386-6.973s-2.32-8.983.387-11.339S79.557,258.75,77.256,259.045Z" transform="translate(-57.387 -259.037)" fill="#359d9e"/>
      </g>
    </g>
    <g id="Group_31" data-name="Group 31" transform="translate(87.113 174.346)">
      <g id="Group_28" data-name="Group 28">
        <g id="Group_26" data-name="Group 26">
          <path id="Path_28" data-name="Path 28" d="M141.767,198.635a27.975,27.975,0,0,1-22.831,27.484,26.67,26.67,0,0,1-3.652.447c-.494.025-1,.036-1.508.036a27.635,27.635,0,0,1-13.182-3.31,25.852,25.852,0,0,1-3.381-2.121,28.465,28.465,0,0,1-3.263-2.8,27.968,27.968,0,0,1,18.083-47.652c.577-.036,1.155-.059,1.743-.059a27.908,27.908,0,0,1,9.7,1.732,25.536,25.536,0,0,1,3.746,1.708,25.817,25.817,0,0,1,2.6,1.614,28.118,28.118,0,0,1,9.6,11.7,27.009,27.009,0,0,1,1.531,4.523A27.924,27.924,0,0,1,141.767,198.635Z" transform="translate(-79.766 -164.614)" fill="#a2e4ea" opacity="0.25"/>
          <path id="Path_29" data-name="Path 29" d="M126.2,217.266a26.663,26.663,0,0,1-3.652.447c-.494.024-1,.036-1.508.036a27.635,27.635,0,0,1-13.182-3.31,25.854,25.854,0,0,1-3.381-2.121,28.37,28.37,0,0,1-3.263-2.8,27.972,27.972,0,0,1-4.4-33.74,27.946,27.946,0,0,0-2.868,41.974,28.465,28.465,0,0,0,3.263,2.8,25.852,25.852,0,0,0,3.381,2.121,27.635,27.635,0,0,0,13.182,3.31c.507,0,1.013-.011,1.508-.036a26.67,26.67,0,0,0,3.652-.447,28.008,28.008,0,0,0,19.093-13.526A27.833,27.833,0,0,1,126.2,217.266Z" transform="translate(-79.766 -163.995)" fill="#83d2d6" opacity="0.25"/>
          <rect id="Rectangle_3" data-name="Rectangle 3" width="4.05" height="6.514" transform="matrix(0.647, -0.763, 0.763, 0.647, 57.959, 55.777)" fill="#2a274f"/>
          <path id="Path_30" data-name="Path 30" d="M190.771,256.765l-1.52,1.98a2.317,2.317,0,0,1-1.578.918,2.372,2.372,0,0,1-1.72-.471l-50.02-38.227a2.36,2.36,0,0,1-.436-3.3l.094-.118,1.426-1.873a2.339,2.339,0,0,1,3.3-.436l19.308,14.749,6.774,5.183,1.366,1.037L189.8,253.055l.53.4A2.373,2.373,0,0,1,190.771,256.765Z" transform="translate(-73.815 -159.283)" fill="#635f77"/>
          <path id="Path_31" data-name="Path 31" d="M114.427,165.266a34.016,34.016,0,1,0,34.022,34.021A34.019,34.019,0,0,0,114.427,165.266Zm0,61.988a27.973,27.973,0,1,1,27.991-27.967A27.979,27.979,0,0,1,114.427,227.254Z" transform="translate(-80.417 -165.266)" fill="#4f4765"/>
          <path id="Path_32" data-name="Path 32" d="M114,168.6a30.282,30.282,0,1,0,30.1,30.287A30.192,30.192,0,0,0,114,168.6Zm0,58.254a27.973,27.973,0,1,1,27.991-27.967A27.979,27.979,0,0,1,114,226.851Z" transform="translate(-79.994 -164.863)" fill="#635f77"/>
          <path id="Path_33" data-name="Path 33" d="M187.673,259.36a2.373,2.373,0,0,1-1.72-.471l-50.02-38.227a2.36,2.36,0,0,1-.436-3.3l.094-.118c4.441,3.7,19.32,15.574,24.033,12.44l6.774,5.183c-1.2,1.379-3.134,3.735-1.862,4.665.872.648,2-1.685,3.228-3.628L189.8,252.752C188.474,254.814,186.931,257.9,187.673,259.36Z" transform="translate(-73.815 -158.98)" fill="#4f4765"/>
          <g id="Group_25" data-name="Group 25" transform="translate(7.257 6.043)" opacity="0.41">
            <path id="Path_34" data-name="Path 34" d="M123.34,172.389,93.818,218.368a27.89,27.89,0,0,1-6.927-11.533l25.01-36.118c.577-.036,1.155-.059,1.743-.059A27.908,27.908,0,0,1,123.34,172.389Z" transform="translate(-86.891 -170.657)" fill="#fff"/>
            <path id="Path_35" data-name="Path 35" d="M128.59,175.34,99.363,222.921a25.852,25.852,0,0,1-3.381-2.121l30-47.074A25.818,25.818,0,0,1,128.59,175.34Z" transform="translate(-85.792 -170.286)" fill="#fff"/>
            <path id="Path_36" data-name="Path 36" d="M137.773,190.125l-22.018,34.187a26.67,26.67,0,0,1-3.652.447L136.242,185.6A27.009,27.009,0,0,1,137.773,190.125Z" transform="translate(-83.842 -168.85)" fill="#fff"/>
          </g>
        </g>
        <g id="Group_27" data-name="Group 27" transform="translate(66.837 44.659)">
          <path id="Path_37" data-name="Path 37" d="M163.928,232.857s-6.691,7.635-8.1,6.739c-1.391-.849-4.654-4.37-5.95-5.961-.058-.071-.094-.106-.094-.106-1.249-1.542-3.169-4.418-4.017-5.124s-3.864-.872-5.113-2.828-.33-1.884.624-1.142,4.053,2.061,3.947,1.142.282-1.8.954-1.142.695,1.614,1.508,2.756,7.834,7.657,8.424,7.363a59.28,59.28,0,0,0,4.382-4.218c.448-.447.742-.753.742-.753Z" transform="translate(-140.043 -202.828)" fill="#ffbf9f"/>
          <path id="Path_38" data-name="Path 38" d="M181.84,247.755l-1.2-4.488c0-.011,0-.024-.012-.024l-.105-.4s2.214-1.672,2.261-2.651a50.717,50.717,0,0,0-1.837-6.68c-.248-.789-.424-1.319-.424-1.319l4.264-2.167s1.92,6.973,2.356,8.988S181.84,247.755,181.84,247.755Z" transform="translate(-135.149 -202.094)" fill="#ffbf9f"/>
          <path id="Path_39" data-name="Path 39" d="M148.813,233.027a33.83,33.83,0,0,0,4.394,4.052c2.309,1.685,4.418-.518,6.362-2.65,1.4-1.532.482-3.641-.142-4.7.448-.447.742-.753.742-.753l2.7,3.274s-6.691,7.635-8.1,6.739C153.372,238.14,150.109,234.618,148.813,233.027Z" transform="translate(-138.983 -202.221)" fill="#ed8772" opacity="0.4"/>
          <path id="Path_40" data-name="Path 40" d="M181.84,247.755l-1.2-4.488c.447.778,1.2,1.143,2.462.307,3.322-2.2,1.52-3.382,1.755-4.336s1.225-1.178.282-4.276c-.659-2.156-2.9-1.837-4.193-1.449-.248-.789-.424-1.319-.424-1.319l4.264-2.167s1.92,6.973,2.356,8.988S181.84,247.755,181.84,247.755Z" transform="translate(-135.149 -202.094)" fill="#ed8772" opacity="0.4"/>
          <path id="Path_41" data-name="Path 41" d="M172.3,271.562a36.852,36.852,0,0,0-.483,8.283c.036,3.5-.436,8.506-.554,11.933s-1.7,17.328-1.614,19.1a7.59,7.59,0,0,0,.118,1.1c.141.86.378,1.508.4,2.038a1.244,1.244,0,0,1-.047.519c-.154.471-1.967.565-3.817.565-1.225,0-2.474-.047-3.288-.047-2.025,0-3.086-.224-2.65-1.142.353-.718,3.346-1.967,5.053-3.417h.012a4.062,4.062,0,0,0,1.048-1.225c.883-1.92-2.286-34.823-2.4-37.108a9.942,9.942,0,0,1,.118-1.991c.036-.248.071-.483.118-.695a13.562,13.562,0,0,1,.472-1.732l8.247,1.142S172.78,269.689,172.3,271.562Z" transform="translate(-137.598 -197.534)" fill="#ffbf9f"/>
          <path id="Path_42" data-name="Path 42" d="M171.861,271.562a36.852,36.852,0,0,0-.483,8.283c.036,3.5-.436,8.506-.554,11.933s-1.7,17.328-1.614,19.1a7.59,7.59,0,0,0,.118,1.1c.141.86.378,1.508.4,2.038a1.244,1.244,0,0,1-.047.519c-.154.471-1.967.565-3.817.565a1.68,1.68,0,0,1,.341-1.685c2.086-2.333,1.9-32.573.872-35.07s1.319-3.533,1.461-5.748c.083-1.261-2.414-2.369-4.665-3.122a13.562,13.562,0,0,1,.472-1.732l8.247,1.142S172.344,269.689,171.861,271.562Z" transform="translate(-137.162 -197.534)" fill="#ed8772" opacity="0.4"/>
          <path id="Path_43" data-name="Path 43" d="M187.387,312.812a9.041,9.041,0,0,1-1.544.73c-1.978.79-6.55.931-7.386-.047a.54.54,0,0,1-.13-.389c.154-1.354,4.772-2.5,5.666-4.5l.012-.012c.024-.071.047-.129.071-.2.659-2.144-7.657-33.21-8.317-35.271a7.862,7.862,0,0,1-.295-2.32,16.469,16.469,0,0,1,.295-2.981l7.363-.825a16.338,16.338,0,0,0-.448,3.322c.083,1.107.955,3.757,1.92,7.657s1.7,20.839,2.133,23.644c.388,2.5.2,4.476.895,6.856.083.282.177.577.284.872C188.636,311.352,188.4,312.188,187.387,312.812Z" transform="translate(-135.76 -197.623)" fill="#ffbf9f"/>
          <path id="Path_44" data-name="Path 44" d="M187.387,312.812c.306-.212-2.957-37.474-5.489-39.1-2.074-1.32-4.913-2.852-6.433-2.91a16.469,16.469,0,0,1,.295-2.981l7.363-.825a16.338,16.338,0,0,0-.448,3.322c.083,1.107.955,3.757,1.92,7.657s1.7,20.839,2.133,23.644c.388,2.5.2,4.476.895,6.856.083.282.177.577.284.872C188.636,311.352,188.4,312.188,187.387,312.812Z" transform="translate(-135.76 -197.623)" fill="#ed8772" opacity="0.4"/>
          <path id="Path_45" data-name="Path 45" d="M167.587,208.7s-1.682,6.933.821,8.4,4.025,1.081,3.191,5.744,4.418,1.079,4.368.294-.589-4.515,0-6.822-.906-5.2-3.692-6.381A14.531,14.531,0,0,0,167.587,208.7Z" transform="translate(-136.78 -204.673)" fill="#ffbf9f"/>
          <path id="Path_46" data-name="Path 46" d="M187.529,232.245a8.047,8.047,0,0,0-1,.577,6.61,6.61,0,0,1-3.334.636s.105,1.355.27,3.357c0,.036.012.072.012.106.447,5.254,1.249,14.773,1.39,15.974.035.295-.141.507-.46.648-1.484.695-6.173-.071-8.082-.554-2.308-.589-9.176.684-10.166.684s.494-23.314.152-24.091-2.992,3.723-3.64,4.123c-.494.295-2.108-1.107-3.287-2.557a10.191,10.191,0,0,1-.883-1.272c-.979-1.72,6.137-7.362,7.315-8.694s4.512-1.472,5.985-1.425a15.735,15.735,0,0,1,3,.447,5.586,5.586,0,0,0,1.861-.447c.59-.354,5.255-.295,6.574.695s4.418,9.765,4.865,10.649C188.4,231.7,188.107,231.916,187.529,232.245Z" transform="translate(-137.822 -203.359)" fill="#ffa733"/>
          <path id="Path_47" data-name="Path 47" d="M185.115,269.923c-.118.4-1.8.836-3.663,1.166a29.208,29.208,0,0,1-5.031.6c-.636-.154-1.131-5.643-1.131-5.643a55.922,55.922,0,0,1-1.225,5.69c-.342.637-9.518-.447-10.261-.789s1.721-20.863,1.721-20.863c.99,0,7.858-1.272,10.166-.684,1.909.483,6.6,1.249,8.082.554C183.772,249.955,185.362,269.039,185.115,269.923Z" transform="translate(-137.187 -199.77)" fill="#2a274f"/>
          <path id="Path_48" data-name="Path 48" d="M180.2,270.124a29.208,29.208,0,0,1-5.031.6c-.636-.154-1.131-5.643-1.131-5.643l1.379-7.858S175.98,268.4,180.2,270.124Z" transform="translate(-135.933 -198.805)" fill="#121c2d"/>
          <path id="Path_49" data-name="Path 49" d="M169.764,307.37c.2,1.155.554,1.956.354,2.557-.248.777-5.078.518-7.1.518s-3.086-.224-2.65-1.142c.353-.718,3.346-1.967,5.053-3.417h.012s2.179-.543,1.225.7S169.764,307.37,169.764,307.37Z" transform="translate(-137.598 -192.935)" fill="#2a274f"/>
          <path id="Path_50" data-name="Path 50" d="M185.535,309.067c-2.214.884-7.657.955-7.516-.436.154-1.354,4.772-2.5,5.666-4.5l.012-.012c.141-.047,1.331-.494,1.048.8-.294,1.379,2.038.035,2.568-.919.083.282.177.577.284.872C188.622,307.666,187.75,308.184,185.535,309.067Z" transform="translate(-135.452 -193.148)" fill="#2a274f"/>
          <path id="Path_51" data-name="Path 51" d="M168.261,205.176a2.8,2.8,0,0,0-1.436,2.246c.037,1.435,1.215,2.061,1.878,2.54a8.169,8.169,0,0,1,2.246,3.165,1.258,1.258,0,0,0,1.351,1.031c.453,0,.342,1.1-.173,1.62s-.81.479-.442,1.215,3.128,2.356,4.012,1.841,3.866-5.744,2.983-7.915-4.05-3.167-5.3-4.05a8.463,8.463,0,0,0-2.356-1.473A6.042,6.042,0,0,0,168.261,205.176Z" transform="translate(-136.805 -205.107)" fill="#1c2b49"/>
          <path id="Path_52" data-name="Path 52" d="M178.135,308.553c4.571-.294,8.788-.588,8.929-.683a9.036,9.036,0,0,1-1.544.73C183.542,309.39,178.971,309.531,178.135,308.553Z" transform="translate(-135.437 -192.681)" fill="#2a274f"/>
          <path id="Path_53" data-name="Path 53" d="M166.207,228.636c-.341-.789-2.992,3.723-3.64,4.123-.494.295-2.108-1.107-3.287-2.557l.318-.188a5.933,5.933,0,0,0,4.594-1.8C166.078,226.15,166.207,228.636,166.207,228.636Z" transform="translate(-137.717 -202.412)" fill="#ff6d33"/>
          <path id="Path_54" data-name="Path 54" d="M185.007,231.535a8.047,8.047,0,0,0-1,.577,6.61,6.61,0,0,1-3.334.636l-1.4-7.315S181.25,232.23,185.007,231.535Z" transform="translate(-135.3 -202.649)" fill="#ff6d33"/>
        </g>
      </g>
      <g id="Group_29" data-name="Group 29" transform="translate(150.583 42.747)">
        <path id="Path_55" data-name="Path 55" d="M235.063,216.54s-2.868-2.678-3.6-5.23.3-5.154,2.7-5.449a19.251,19.251,0,0,0,6.133-2.208c1.718-.835,3.142.539,3.142,2.208a3.81,3.81,0,0,1-1.528,2.763s-3.344,6.172-4.284,7.361A2.333,2.333,0,0,1,235.063,216.54Z" transform="translate(-212.764 -203.402)" fill="#1c2b49"/>
        <path id="Path_56" data-name="Path 56" d="M224.025,311.831c-1.767,1.272-8.34-2.756-9.083-4.029-.683-1.189.648-3.464,1.779-4.512l.237-.2c1.178-.93,2.885-5.866,2.885-5.866l3.793,1.944s-1.425,2.5-1.873,3.039a4.968,4.968,0,0,0-1.153,3.428,2.868,2.868,0,0,0,.766,1.579C223.189,309.181,225.793,310.559,224.025,311.831Z" transform="translate(-214.756 -192.056)" fill="#ed8772"/>
        <path id="Path_57" data-name="Path 57" d="M241.547,311.288c-.9-.295-.425-2.11-.13-4.512.024-.189.035-.389.059-.6a51.922,51.922,0,0,0-.059-6.032s4.465-.188,4.264,0a19.558,19.558,0,0,0,.671,6.1,2.082,2.082,0,0,0,.307.624c.883,1.084,4.865,1.625,5.607,3.628S242.442,311.583,241.547,311.288Z" transform="translate(-211.579 -191.713)" fill="#ed8772"/>
        <path id="Path_58" data-name="Path 58" d="M224.025,311.176c-1.767,1.272-8.34-2.756-9.083-4.029-.683-1.189.648-3.464,1.779-4.512.047,1.343.389,2.639,1.614,2.108a2.218,2.218,0,0,1,2.274.235,2.868,2.868,0,0,0,.766,1.579C223.189,308.526,225.793,309.9,224.025,311.176Z" transform="translate(-214.756 -191.402)" fill="#34d67d"/>
        <path id="Path_59" data-name="Path 59" d="M241.547,310.629c-.9-.295-.425-2.11-.13-4.512.024-.189.035-.389.059-.6.777.813,1.991,1.484,2.838.554a2.51,2.51,0,0,1,2.038-.483,2.082,2.082,0,0,0,.307.624c.883,1.084,4.865,1.625,5.607,3.628S242.442,310.923,241.547,310.629Z" transform="translate(-211.579 -191.054)" fill="#34d67d"/>
        <path id="Path_60" data-name="Path 60" d="M249.693,306.246c-.447,1.4-4.418,1.178-5.666,1.025-1.119-.13-.719-21.476-.719-27.531v-.035c0-.731-.012-1.225-.024-1.437-.012-.106-.024-.237-.047-.389l-.012-.047c-.483-2.593-3.4-10.756-3.4-10.756a75.645,75.645,0,0,1-1.909,10.709c-1.106,3.4-13.1,27.8-13.841,28.755s-4.124-1.767-4.783-2.874,9.2-24.08,10.673-27.754,0-27.095,0-27.095l17.989.494s3.062,25.057,3.287,27.33S250.14,304.844,249.693,306.246Z" transform="translate(-214.212 -197.91)" fill="#2a274f"/>
        <path id="Path_61" data-name="Path 61" d="M245.884,230.746s7.8,10.6,10.676,9.13,10.75-12.738,12-13.768,2.725-2.135,2.356-3.313-1.251-1.767-2.282,0-11.117,11.265-11.486,10.97-5.6-6.272-5.6-6.272Z" transform="translate(-210.992 -201.191)" fill="#d17061"/>
        <path id="Path_62" data-name="Path 62" d="M255.494,227.286l-4.088,2.356-2.838,1.625s-.1,4.877-.189,9.931c-.105,5.006-.212,10.19-.259,10.967a1.928,1.928,0,0,1-.058.412c-.248.954-1.4.259-5.679.99a33.616,33.616,0,0,1-12.958-.954c-1.509-.577,1.319-19.285,1.461-20.216v-.011c-.036.047-.165.235-.577.86-.59.883-5.961-.954-6.551-1.39s3.087-9.872,3.6-10.685c.507-.789,8.235-3.617,8.6-3.746v.011c-.094.154-.6,1-.129,1.6.507.66,2.273.884,3.757.59s.66-2.215.66-2.215a72.078,72.078,0,0,1,7.5,1.484C249.816,219.558,255.494,227.286,255.494,227.286Z" transform="translate(-213.675 -201.707)" fill="#34d67d"/>
        <path id="Path_63" data-name="Path 63" d="M241.006,277.094c-.483-2.593-3.4-10.756-3.4-10.756l2.51-11.414Z" transform="translate(-211.993 -197.171)" fill="#121c2d"/>
        <path id="Path_64" data-name="Path 64" d="M241.19,215.823c-1.285,1.591-2.062,1.544-2.062,1.544l-.105,1.178s.813,1.92-.66,2.215-3.251.071-3.757-.59c-.472-.6.035-1.448.129-1.6v-.011l.012-.012v-2.568s1.366-.588.919-1.625-2.238-2.027-1.732-3.087,1.178-.295,1.178-.295,0-1.542,1.036-1.625,2.875.259,4.159-.507l1.285-.777S242.486,214.245,241.19,215.823Z" transform="translate(-212.448 -202.838)" fill="#ed8772"/>
        <path id="Path_65" data-name="Path 65" d="M235.308,214.628s.736,1.657,2.1,1.73a4.093,4.093,0,0,1,1.545.215l-.105,1.178s-2.212.742-2.727-.473A16.237,16.237,0,0,1,235.308,214.628Z" transform="translate(-212.271 -202.044)" fill="#d17061"/>
        <path id="Path_66" data-name="Path 66" d="M247.807,240.261a.036.036,0,0,0-.011.024s-9.731,3.734-9.083,7.174c.541,2.863,6.209,3.958,8.777,4.182-.248.954-1.4.259-5.679.99a33.616,33.616,0,0,1-12.958-.954c-1.509-.577,1.319-19.285,1.461-20.216v-.011a.038.038,0,0,0,.011-.024l1.579-4.783c-.9,3.015-2.4,9.566,1.625,9.224,5.207-.424,14.078-6.479,14.467-8.14s.494-2.557.494-2.557.554,2.733,2.344,3.534a2.717,2.717,0,0,0,1.956.094C256.066,227.845,248.22,239.648,247.807,240.261Z" transform="translate(-213.104 -200.769)" fill="#2eb769"/>
        <path id="Path_67" data-name="Path 67" d="M237.091,248.137,275.26,223.9a11.023,11.023,0,0,0,17.486-9.943l0,.006-9.641,6.124-4.739-2.272-.041-5.255,9.642-6.124h.006a11.023,11.023,0,0,0-16.434,11.6l-38.169,24.241a11.023,11.023,0,0,0-17.486,9.943l0-.006,9.641-6.124,4.739,2.272.04,5.255-9.641,6.124h-.007a11.023,11.023,0,0,0,16.435-11.6Z" transform="translate(-214.628 -203.224)" fill="#4f4765"/>
        <path id="Path_68" data-name="Path 68" d="M224,230.294s-4.124,11.338-1.473,11.559,16.64-2.5,18.848-1.841,4.639.516,5.375-.81,0-1.4-1.251-1.251-3.019.221-2.5-.295,1.473-1.754.516-1.576-2.65,1.723-4.049,1.723-11.707.664-11.413-.883a50.148,50.148,0,0,1,1.539-5Z" transform="translate(-213.923 -200.15)" fill="#ed8772"/>
      </g>
      <g id="Group_30" data-name="Group 30" transform="translate(310.608 28.813)">
        <path id="Path_69" data-name="Path 69" d="M411.241,208.354s-1.774-1.916-.792-2.75a1.753,1.753,0,0,1,1.767-.491s.049-2.209,3.78-2.406,4.515,1.424,4.515,1.424,4.713-3.288,6.333,2.528-.049,10.97,1.226,12.149,5.793,6.185,4.369,9.572-1.227,5.742-2.7,3.534-9.572-14.824-9.572-14.824a5.281,5.281,0,0,1,1.266-3.043c1.189-1.276-.923-5.448-.923-5.448s.639,6.823-2.9,7.362S411.241,208.354,411.241,208.354Z" transform="translate(-351.153 -189.554)" fill="#1c2b49"/>
        <path id="Path_70" data-name="Path 70" d="M411.2,207.471s-.736,5.559.221,6.7a2.58,2.58,0,0,0,1.878,1.1l-.147.627s-2.209,4.27-1.362,5.779,4.822,1.767,6.516.588,2.8-2.319,1.62-3.865a20.161,20.161,0,0,1-1.841-2.872s-.221-2.429.221-2.982,1.4-.883,1.067-1.694.037-1.583-.773-1.472a2.236,2.236,0,0,1-2.245-.664c-.994-.846-2.835-2.724-3.9-2.466A1.658,1.658,0,0,0,411.2,207.471Z" transform="translate(-351.059 -189.126)" fill="#ffbf9f"/>
        <path id="Path_71" data-name="Path 71" d="M428.809,238.07s6.38,9.326,6.38,11.585-.491,3.533,1.081,3.239,5.3,2.749,5.693,1.669-3.436-3.633-4.712-5.694-4.515-12.664-4.515-12.664Z" transform="translate(-348.897 -185.501)" fill="#ffbf9f"/>
        <path id="Path_72" data-name="Path 72" d="M412.573,308.116c-.519,1.613-2.875,1.025-5.373,1.177s-4.935-.518-4.865-1.92,2.945-1.613,4.276-2.356a1.94,1.94,0,0,0,.671-1.189,26.368,26.368,0,0,0,.507-5.878h4.559s-.141,4.559-.212,6.184a4.907,4.907,0,0,0,.342,1.873A3.176,3.176,0,0,1,412.573,308.116Z" transform="translate(-352.098 -178.035)" fill="#ffbf9f"/>
        <path id="Path_73" data-name="Path 73" d="M427.582,309.4c-2.133,1.272-7.74,1.672-8.541,0s1.7-1.343,3.97-3.263a2.568,2.568,0,0,0,.813-1.614c.471-2.722-1.355-7.127-1.473-7.363h5.078s.518,3.677.589,4.937a8.269,8.269,0,0,0,.979,2.9c.165.331.33.684.494,1.073C430.232,307.763,429.714,308.128,427.582,309.4Z" transform="translate(-350.097 -178.13)" fill="#ffbf9f"/>
        <path id="Path_74" data-name="Path 74" d="M432.667,304.326c.294,1.473-7.858,1.379-9.331.883s-2.556-16.291-2.85-20.71-3.723-21.9-3.723-21.9-2.946,15.126-3.534,17.482,1.178,20.321,1.178,22.677,0,1.862-1.873,2.651a5.028,5.028,0,0,1-2.132.165c-2.568-.2-6.149-1.308-6.8-2.038-.884-.977,1.767-16.587,2.673-21.393s.566-15.127.071-19.639,1.674-18.943,1.674-18.943l17.67-.789s-.094,1.272,1.084,6.09.778,23.066.683,26.505S432.373,302.853,432.667,304.326Z" transform="translate(-351.966 -184.707)" fill="#1c2b49"/>
        <path id="Path_75" data-name="Path 75" d="M438.21,239.191c-.223.671-4.711,2.945-5.3,2.215s-6.256-13.371-6.256-13.371-.035.425-.071,1.131a45.414,45.414,0,0,0,.365,8.706c.731,4.559,1.685,8.247,1.178,8.611a28.418,28.418,0,0,1-10.332,1.272h-.011a14.769,14.769,0,0,1-1.8-.235c-4.937-.966-7.222-.152-7-.895s1.909-7.434,1.025-11.4-2.132-5.16-2.426-6.856c-.284-1.591.695-4.112.8-4.383a.043.043,0,0,1,.012-.024s-12.005,5.3-13.618,4.124c-.13-.1-.271-.213-.436-.342-1.732-1.426-4.689-4.7-4.276-5.855a3.6,3.6,0,0,1,.283-.6,6.051,6.051,0,0,1,2.7-2.557,1.071,1.071,0,0,1,1.213.295c1.249,1.4,1.614,2.579,2.427,2.579S409.937,216,411.41,215.63s4.265-.731,4.265-.731-1.685,3.016,0,4.559,3.028.519,4.052-.588,1.991-.954,1.4-2.061a4.755,4.755,0,0,1-.518-2.274s6.7,1.768,7.434,2.792S438.434,238.531,438.21,239.191Z" transform="translate(-353.587 -188.122)" fill="#ed56a8"/>
        <path id="Path_76" data-name="Path 76" d="M413.769,301.669c0,2.356,0,1.862-1.873,2.651a5.028,5.028,0,0,1-2.132.165c1.26-5.23-2.11-17.683-.707-19.414,1.661-2.061,2.745-3.922,1.862-7.257s3.734-26.022,3.734-26.022l1.473,9.718s-2.946,15.126-3.534,17.482S413.769,299.313,413.769,301.669Z" transform="translate(-351.328 -183.617)" fill="#101e33"/>
        <path id="Path_77" data-name="Path 77" d="M412.478,305.372a3.176,3.176,0,0,1,.094,2.11c-.519,1.613-2.875,1.025-5.373,1.177s-4.935-.518-4.865-1.92,2.945-1.613,4.276-2.356a1.94,1.94,0,0,0,.671-1.189c.977.248,2.191.742,1.531,1.625C407.79,306.221,406.27,307.245,412.478,305.372Z" transform="translate(-352.098 -177.401)" fill="#ed56a8"/>
        <path id="Path_78" data-name="Path 78" d="M427.582,308.606c-2.133,1.272-7.74,1.672-8.541,0s1.7-1.343,3.97-3.263a2.568,2.568,0,0,0,.813-1.614c1.166.13,1.767.424,1.473.9-1.026,1.614.883,2.521,3.1,0a1.511,1.511,0,0,1,.6-.425c.165.331.33.684.494,1.073C430.232,306.968,429.714,307.334,427.582,308.606Z" transform="translate(-350.097 -177.336)" fill="#ed56a8"/>
        <path id="Path_79" data-name="Path 79" d="M413.044,214.434a4.162,4.162,0,0,0,2.725-.258,6.349,6.349,0,0,0,1.177-.993s-2.134,4.234-2.982,3.534A3.642,3.642,0,0,1,413.044,214.434Z" transform="translate(-350.803 -188.285)" fill="#e28f79"/>
        <path id="Path_80" data-name="Path 80" d="M406.1,209.772l7.066,1.121a1.138,1.138,0,0,0,.456-1.121l-.074-.818-6.761-1.594-1.227,1.962Z" transform="translate(-351.709 -188.989)" fill="#ff6d33"/>
        <path id="Path_81" data-name="Path 81" d="M393.535,219.792a6.051,6.051,0,0,0-2.7,2.557c-.719-2.722-2.78-10.415-3.428-11.415-.789-1.225-1.967-5.843-1.178-5.114s1.508,1.874,2.3,1.815,1.674.447,1.578,1.178-.636,2.662.142,4.076C390.766,213.819,392.439,217.424,393.535,219.792Z" transform="translate(-354.077 -189.185)" fill="#ffbf9f"/>
        <path id="Path_82" data-name="Path 82" d="M399.172,203.88l-.188,1.107-.99,5.737-23.243-4.347-1.755-.33-11.627-2.168,2.651-11.026,3.452,1.084,7.174,2.25,2.038.636Z" transform="translate(-357.052 -190.744)" fill="#ffe133"/>
        <path id="Path_83" data-name="Path 83" d="M395.2,203.363l12.689,3.681a2.466,2.466,0,0,1,0,2.405c-.662,1.5-1.1,1.5-1.1,1.5L394.17,208.6Z" transform="translate(-353.086 -189.473)" fill="#ffa733"/>
        <path id="Rectangle_4" data-name="Rectangle 4" d="M1.928,0h.687A1.929,1.929,0,0,1,4.543,1.929v9.788a1.929,1.929,0,0,1-1.929,1.929H1.928A1.928,1.928,0,0,1,0,11.718V1.928A1.928,1.928,0,0,1,1.928,0Z" transform="matrix(0.971, 0.238, -0.238, 0.971, 3.243, 0)" fill="#ffea80"/>
        <path id="Path_84" data-name="Path 84" d="M398.984,204.987l-.99,5.737-23.242-4.347-1.755-.33-11.627-2.168,2.65-11.027,3.452,1.084c-.778,2.933-1.366,7,1.013,7.845a7.058,7.058,0,0,0,6.385-.506s-.342,2.132,11.144,5.1C395.52,208.84,398.3,206.024,398.984,204.987Z" transform="translate(-357.052 -190.744)" fill="#ffa733" opacity="0.57"/>
        <path id="Path_85" data-name="Path 85" d="M375.335,200.445a20.088,20.088,0,0,1-1.837,5.572l-1.755-.33a20.806,20.806,0,0,0,1.437-3.864,13.687,13.687,0,0,0,.212-6l2.038.636A19.963,19.963,0,0,1,375.335,200.445Z" transform="translate(-355.798 -190.384)" fill="#ff6d33" opacity="0.61"/>
        <path id="Path_86" data-name="Path 86" d="M409.178,219.043l-1.249,4.37s-12.005,5.3-13.618,4.124c-.13-.1-.271-.213-.436-.342a18.471,18.471,0,0,0,10.708-4.135Z" transform="translate(-353.121 -187.577)" fill="#d8419b"/>
        <path id="Path_87" data-name="Path 87" d="M425.131,245.522a28.418,28.418,0,0,1-10.332,1.272c.389-.165,9.106-3.757,7.163-9.447-1.991-5.82-3.169-4.712-5.23-5.078s-.295-.742,2.65-.813,2.875-8.976,2.875-8.976l1.4,4.594-.294.224s.082.342.223.907a45.414,45.414,0,0,0,.365,8.706C424.683,241.47,425.637,245.157,425.131,245.522Z" transform="translate(-350.591 -187.161)" fill="#d8419b"/>
      </g>
    </g>
  </g>
</svg>
