<svg id="Group_29" data-name="Group 29" xmlns="http://www.w3.org/2000/svg" width="488.353" height="299.105" viewBox="0 0 488.353 299.105">
  <g id="Group_6" data-name="Group 6">
    <g id="Group_5" data-name="Group 5">
      <path id="Path_1" data-name="Path 1" d="M166.164,246.727H125.687A39.724,39.724,0,0,0,86.08,286.334h0a39.723,39.723,0,0,0,39.607,39.607H467.936a64.324,64.324,0,0,0,64.136-64.136h0a64.323,64.323,0,0,0-64.136-64.135h0a27.2,27.2,0,0,1-27.118-27.118h0a27.2,27.2,0,0,1,27.118-27.118h32.637a28.277,28.277,0,0,0,28.194-28.194h0a28.276,28.276,0,0,0-28.194-28.194H459.3a11.01,11.01,0,0,1-10.976-10.977h0A11.008,11.008,0,0,1,459.3,65.1h7.276a7.6,7.6,0,0,0,7.575-7.576h0a7.6,7.6,0,0,0-7.575-7.576H418.841c-10.054,0-11.174,11.877-36.568,11.877H309.1a9.914,9.914,0,0,0-9.885,9.884h0a9.915,9.915,0,0,0,9.885,9.885h9.492a14.365,14.365,0,0,1,14.323,14.322h0a14.365,14.365,0,0,1-14.323,14.323H304.307c-38.578,0-44.028,10.082-50.784,30.134s-41.849,21.669-41.849,21.669H163.693a21.647,21.647,0,0,0-21.583,21.583h0a21.647,21.647,0,0,0,21.583,21.583h2.471a20.822,20.822,0,0,1,20.76,20.761h0a20.821,20.821,0,0,1-20.76,20.759ZM487.837,65.1a7.576,7.576,0,1,1,7.575-7.576A7.576,7.576,0,0,1,487.837,65.1Z" transform="translate(-54.945 -49.944)" fill="#e2e8f5" fill-rule="evenodd"/>
      <g id="Group_1" data-name="Group 1" transform="translate(48.575)">
        <path id="Path_2" data-name="Path 2" d="M197.735,363.754H201.2V342.7l13.146,13.147-7.912,7.911h3.269l6.277-6.277,6.277,6.277h3.269l-7.912-7.911L230.764,342.7v21.058h3.467v-163.9h-3.467v3.992l-3.993-3.992H223.5l7.262,7.261v.2l-14.781,14.78-14.78-14.78v-.2l7.261-7.261H205.2l-3.992,3.992v-3.992h-3.468V243.3a20.593,20.593,0,0,1,3.468.9v-.589l.953.953a20.954,20.954,0,0,1,11.388,11.388l.805.8-.365.365a20.279,20.279,0,0,1,.695,2.573l1.3-1.3,14.781,14.78v.2L215.983,288.15l-8.414-8.414a20.972,20.972,0,0,1-1.877,1.392l8.657,8.656L201.2,302.93V283.361a20.519,20.519,0,0,1-3.468.9v79.5Zm3.468-27.8V309.667l13.146,13.146L201.2,335.959Zm0-99.087V210.579l13.146,13.147L201.2,236.872Zm29.561-26.293v26.293l-13.146-13.146,13.146-13.147Zm0,33.029V269.9l-13.146-13.146,13.146-13.146Zm0,33.029V302.93l-13.146-13.146,13.146-13.146Zm0,33.029v26.292l-13.146-13.146,13.146-13.146ZM201.2,240.14l14.78-14.78,14.781,14.78v.2l-14.781,14.782L201.2,240.339v-.2Zm0,66.058,14.78-14.78,14.781,14.78v.2l-14.781,14.78L201.2,306.4v-.2Zm0,33.029,14.78-14.78,14.781,14.78v.2l-14.781,14.779L201.2,339.428Z" transform="translate(-131.684 -87.756)" fill="#bfcce8" fill-rule="evenodd"/>
        <path id="Path_3" data-name="Path 3" d="M522.053,325.942h3.467V304.884l13.146,13.146-7.912,7.911h3.269l6.278-6.277,6.278,6.277h3.268l-7.912-7.911,13.146-13.146v21.058h3.467V189.5a27.426,27.426,0,0,1-3.467-4.345V199.06l-13.146-13.146,9.5-9.5a26.814,26.814,0,0,1-.469-2.8L540.3,184.279,525.52,169.5v-.2L540.3,154.519l10.967,10.967q.258-1.337.641-2.628l-9.973-9.973,13.146-13.146v16.216a27.422,27.422,0,0,1,3.467-4.345v-73.2a10.951,10.951,0,0,1-.254-2.338h0a10.949,10.949,0,0,1,.254-2.337V49.944h-3.467v17L541.935,53.8l3.853-3.853H542.52L540.3,52.163l-2.218-2.219h-3.269l3.853,3.853L525.52,66.944V50.417a14.907,14.907,0,0,0-3.467,1.6v273.92Zm3.467-27.8V271.855L538.666,285,525.52,298.147Zm0-33.029V238.826l13.146,13.146L525.52,265.118Zm0-33.029V205.8l13.146,13.146L525.52,232.089Zm0-33.029V172.767l13.146,13.147L525.52,199.06Zm0-33.029V139.738l13.146,13.146L525.52,166.031Zm0-33.029V106.709l13.146,13.147L525.52,133Zm0-33.029V73.68l13.146,13.146L525.52,99.973ZM555.082,73.68V99.973L541.935,86.826,555.082,73.68Zm0,33.029V133l-13.146-13.146,13.146-13.147Zm0,99.087v26.293l-13.146-13.146L555.082,205.8Zm0,33.029v26.292l-13.146-13.146,13.146-13.146Zm0,33.029v26.292L541.935,285l13.146-13.146ZM525.52,70.212,540.3,55.432l14.781,14.78v.2L540.3,85.192,525.52,70.411v-.2Zm0,33.029L540.3,88.461l14.781,14.781v.2L540.3,118.221,525.52,103.44v-.2Zm0,33.029L540.3,121.49l14.781,14.78v.2L540.3,151.25,525.52,136.469v-.2Zm0,66.058,14.781-14.78,14.781,14.78v.2L540.3,217.309,525.52,202.527v-.2Zm0,33.029,14.781-14.78,14.781,14.78v.2L540.3,250.338,525.52,235.557v-.2Zm0,33.029,14.781-14.78,14.781,14.78v.2L540.3,283.366l-14.781-14.78v-.2Zm0,33.029,14.781-14.78,14.781,14.78v.2L540.3,316.4l-14.781-14.78Z" transform="translate(-213.489 -49.944)" fill="#bfcce8" fill-rule="evenodd"/>
        <path id="Path_4" data-name="Path 4" d="M163.18,284.867h-5.11v6.264l-6.264-6.264H146.99l11.08,11.081v.292l-21.779,21.779L114.512,296.24v-.292l10.537-10.536a39.154,39.154,0,0,0-6.481,1.664l-4.056,4.055v-2.376A39.675,39.675,0,0,0,109.4,291.7V357.25a39.673,39.673,0,0,0,5.109,2.945V349.725l14.256,14.256q1.39.1,2.8.1h2.115l-19.174-19.173v-.293l21.779-21.779,21.779,21.779v.293L138.9,364.082h4.816l14.358-14.357v14.357h5.11V284.867Zm0-83.715a21.762,21.762,0,0,0-12.156,9.616l7.046-7.046V240a21.515,21.515,0,0,0,5.11,2.373V201.152ZM114.512,339.8V301.058l19.372,19.37L114.512,339.8Zm43.559-38.742V339.8L138.7,320.428Z" transform="translate(-109.403 -88.084)" fill="#bfcce8" fill-rule="evenodd"/>
        <path id="Path_5" data-name="Path 5" d="M587.275,325.942h5.11V311.585l13.34,13.341q2-.363,3.964-.852l-17.3-17.3v-.293L614.164,284.7l21.779,21.779v.293l-11.767,11.768a64.764,64.764,0,0,0,16.877-12.883V217.96a65.092,65.092,0,0,0-7.112-6.525l-19.777,19.776-21.778-21.779v-.292l10.847-10.849q-2.157-.3-4.357-.458l-6.491,6.49V197.6a26.932,26.932,0,0,1-5.11-.873V325.942Zm0-181.561a26.933,26.933,0,0,1,5.11-.874V116.914l19.371,19.372-7.149,7.149h4.815l4.742-4.742,4.741,4.742h4.817l-7.149-7.149,19.37-19.372V141.97a28.1,28.1,0,0,0,5.11-2.316V90.829a28.1,28.1,0,0,0-5.11-2.316v18.475l-19.37-19.37.571-.57h-5.958l.571.57-19.371,19.37V87.048h-5.11v57.333Zm0-79.286H593a7.542,7.542,0,0,0,.986-.065l-1.6-1.6v-.293l7.85-7.852a7.59,7.59,0,0,0-1.794-3.022l-6.056,6.058V49.944h-5.11V65.1Zm5.11,236.564V262.917l19.371,19.37-19.371,19.372Zm0-48.668V214.25l19.371,19.37-19.371,19.371Zm43.557-38.741v38.741l-19.37-19.371,19.37-19.37Zm0,48.667v38.742l-19.37-19.372,19.37-19.37ZM592.385,111.8l21.778-21.779L635.942,111.8v.293l-21.779,21.779L592.385,112.1V111.8Zm0,146,21.778-21.779,21.779,21.779v.292l-21.779,21.779L592.385,258.1Z" transform="translate(-229.94 -49.944)" fill="#bfcce8" fill-rule="evenodd"/>
      </g>
      <g id="Group_4" data-name="Group 4" transform="translate(87.196 212.956)">
        <g id="Group_2" data-name="Group 2" transform="translate(5.092)">
          <rect id="Rectangle_3" data-name="Rectangle 3" width="39.967" height="29.699" rx="3.432" fill="#90a9d5"/>
          <rect id="Rectangle_4" data-name="Rectangle 4" width="39.967" height="29.699" rx="3.432" transform="translate(22.856)" fill="#b6c7e6"/>
          <path id="Rectangle_5" data-name="Rectangle 5" d="M1.96,0h24.8a1.96,1.96,0,0,1,1.96,1.96V8.121a1.961,1.961,0,0,1-1.961,1.961H1.961A1.961,1.961,0,0,1,0,8.121V1.96A1.96,1.96,0,0,1,1.96,0Z" transform="translate(28.479 9.808)" fill="#90a9d5"/>
          <path id="Rectangle_6" data-name="Rectangle 6" d="M.428,0H12.894a.428.428,0,0,1,.428.428V1.772a.428.428,0,0,1-.428.428H.427A.427.427,0,0,1,0,1.773V.428A.428.428,0,0,1,.428,0Z" transform="translate(31.473 11.519)" fill="#e6e4eb"/>
          <path id="Rectangle_7" data-name="Rectangle 7" d="M.427,0H6.477a.428.428,0,0,1,.428.428V1.772a.428.428,0,0,1-.428.428H.428A.428.428,0,0,1,0,1.772V.427A.427.427,0,0,1,.427,0Z" transform="translate(31.473 15.003)" fill="#e6e4eb"/>
        </g>
        <g id="Group_3" data-name="Group 3" transform="translate(0 29.699)">
          <path id="Rectangle_8" data-name="Rectangle 8" d="M4.113,0H43.781a4.114,4.114,0,0,1,4.114,4.114V31.477a4.114,4.114,0,0,1-4.114,4.114H4.113A4.113,4.113,0,0,1,0,31.478V4.113A4.113,4.113,0,0,1,4.113,0Z" transform="translate(27.388)" fill="#90a9d5"/>
          <path id="Rectangle_9" data-name="Rectangle 9" d="M4.113,0H43.781a4.113,4.113,0,0,1,4.113,4.113V31.477a4.114,4.114,0,0,1-4.114,4.114H4.113A4.113,4.113,0,0,1,0,31.478V4.113A4.113,4.113,0,0,1,4.113,0Z" fill="#b6c7e6"/>
          <rect id="Rectangle_10" data-name="Rectangle 10" width="34.418" height="12.081" rx="2.349" transform="translate(6.738 11.755)" fill="#90a9d5"/>
          <rect id="Rectangle_11" data-name="Rectangle 11" width="15.963" height="2.637" rx="0.513" transform="translate(21.604 13.804)" fill="#e6e4eb"/>
          <rect id="Rectangle_12" data-name="Rectangle 12" width="8.274" height="2.637" rx="0.513" transform="translate(29.293 17.979)" fill="#e6e4eb"/>
        </g>
      </g>
      <path id="Path_6" data-name="Path 6" d="M451.514,154.639a11.237,11.237,0,1,1-2.445,3.657,11.283,11.283,0,0,1,2.445-3.657Zm4.052-1.483a10.269,10.269,0,1,0,3.908-.772,10.237,10.237,0,0,0-3.908.772Zm-1.244-8.284a18.13,18.13,0,0,0-2.075.74,18.337,18.337,0,0,0-1.993,1,18.611,18.611,0,0,0-3.591,2.708,1.175,1.175,0,0,1-1.408.171c-1.653-.954-3.391-1.9-5.011-2.893a.684.684,0,0,0-.244-.076.76.76,0,0,0-.276.021.745.745,0,0,0-.254.123.727.727,0,0,0-.182.208c-1.205,1.824-2.415,4.18-3.531,6.114a.71.71,0,0,0-.088.259.739.739,0,0,0,.022.285.719.719,0,0,0,.123.254.7.7,0,0,0,.207.182c1.487.983,3.4,1.967,4.979,2.877a1.169,1.169,0,0,1,.5.557,1.184,1.184,0,0,1,.075.246l.1.034-.116.464c-.09.366-.169.731-.236,1.094s-.121.725-.168,1.111-.08.751-.1,1.119-.033.739-.033,1.132.01.771.033,1.131.056.744.1,1.121.1.756.168,1.11.147.73.236,1.1a1.174,1.174,0,0,1-.606,1.329l-4.411,2.547,0,0-.523.3a.713.713,0,0,0-.208.182.762.762,0,0,0-.144.538.705.705,0,0,0,.088.259l3.265,5.658h0l.264.457a.716.716,0,0,0,.182.208.748.748,0,0,0,.537.144.7.7,0,0,0,.259-.087c1.579-.992,3.362-1.94,4.991-2.88a1.178,1.178,0,0,1,1.4.169l0,0a18.358,18.358,0,0,0,7.709,4.456,1.179,1.179,0,0,1,.856,1.136l0,5.755a.7.7,0,0,0,.053.27.74.74,0,0,0,.389.39.706.706,0,0,0,.271.054h7.062a.7.7,0,0,0,.27-.054.739.739,0,0,0,.233-.156.751.751,0,0,0,.156-.233.7.7,0,0,0,.053-.27v-5.755a1.193,1.193,0,0,1,.909-1.15,17.955,17.955,0,0,0,2.074-.739,18.544,18.544,0,0,0,5.585-3.7,1.181,1.181,0,0,1,1.467-.134l4.926,2.844a.679.679,0,0,0,.262.087.747.747,0,0,0,.283-.02.728.728,0,0,0,.254-.123.719.719,0,0,0,.182-.208c1.17-2.041,2.359-4.074,3.531-6.114a.687.687,0,0,0,.087-.26.755.755,0,0,0-.143-.537.682.682,0,0,0-.2-.182l-4.985-2.877a1.172,1.172,0,0,1-.5-.557,1.22,1.22,0,0,1-.063-.19l-.129-.026.13-.529c.091-.365.17-.731.237-1.094s.121-.725.168-1.111.08-.751.1-1.121.033-.738.033-1.131-.011-.77-.033-1.131-.057-.743-.1-1.119-.1-.763-.168-1.114-.146-.728-.237-1.092a1.176,1.176,0,0,1,.606-1.33l4.937-2.85a.672.672,0,0,0,.2-.182.71.71,0,0,0,.123-.254.729.729,0,0,0,.021-.283.687.687,0,0,0-.087-.26c-1.205-1.792-2.412-4.187-3.531-6.114a.73.73,0,0,0-.182-.208.74.74,0,0,0-.254-.123.761.761,0,0,0-.283-.021.7.7,0,0,0-.26.089l-4.988,2.879a1.17,1.17,0,0,1-.748.15,1.189,1.189,0,0,1-.674-.334,18.72,18.72,0,0,0-1.708-1.456,18.391,18.391,0,0,0-3.876-2.238,18.119,18.119,0,0,0-2.11-.748,1.179,1.179,0,0,1-.857-1.136l0-5.755a.718.718,0,0,0-.052-.271.732.732,0,0,0-.158-.232.7.7,0,0,0-.5-.21h-7.062a.706.706,0,0,0-.271.053.719.719,0,0,0-.442.66v5.755a1.176,1.176,0,0,1-.254.731,1.194,1.194,0,0,1-.655.419Zm-2.483-.218a19.553,19.553,0,0,0-5.9,3.911.135.135,0,0,1-.079.037.136.136,0,0,1-.086-.016q-2.515-1.451-5.03-2.905a1.728,1.728,0,0,0-.629-.2,1.79,1.79,0,0,0-.662.049,1.766,1.766,0,0,0-.615.3,1.709,1.709,0,0,0-.451.514c-1.215,1.967-2.37,4.1-3.532,6.112a1.741,1.741,0,0,0-.218.651,1.761,1.761,0,0,0,.046.684,1.741,1.741,0,0,0,.3.616,1.709,1.709,0,0,0,.514.451c1.6.991,3.343,1.931,4.983,2.878a.134.134,0,0,1,.057.065.136.136,0,0,1,.008.088l-.114.465.006,0q-.075.339-.139.688-.11.6-.18,1.177t-.107,1.181q-.036.61-.037,1.193t.037,1.192c.025.406.061.8.107,1.182s.108.777.18,1.175.157.782.248,1.156a.13.13,0,0,1-.009.09.14.14,0,0,1-.061.067c-1.831.978-3.691,2.129-5.5,3.174l.064.081-.056.07a1.772,1.772,0,0,0-.348,1.3,1.727,1.727,0,0,0,.219.65l3.794,6.571.069-.042c.038.034.078.066.118.1a1.766,1.766,0,0,0,.615.3,1.787,1.787,0,0,0,.683.046,1.753,1.753,0,0,0,.633-.209c1.659-.88,3.369-1.945,5.007-2.892a.148.148,0,0,1,.083-.014.152.152,0,0,1,.082.037,19.468,19.468,0,0,0,8.143,4.706.145.145,0,0,1,.073.049.129.129,0,0,1,.028.085v5.755a1.756,1.756,0,0,0,.517,1.24,1.777,1.777,0,0,0,.569.381,1.734,1.734,0,0,0,.67.135h7.062a1.74,1.74,0,0,0,.67-.135,1.762,1.762,0,0,0,.951-.952,1.751,1.751,0,0,0,.135-.669v-5.755a.138.138,0,0,1,.028-.088.141.141,0,0,1,.078-.048l.023-.008a19.308,19.308,0,0,0,2.219-.788,19.531,19.531,0,0,0,5.9-3.911.132.132,0,0,1,.082-.038.148.148,0,0,1,.09.022l4.983,2.877a1.726,1.726,0,0,0,.648.218,1.769,1.769,0,0,0,1.3-.348,1.747,1.747,0,0,0,.443-.5c1.309-2.1,2.546-4.412,3.795-6.574l-.067-.04a1.542,1.542,0,0,0,.03-.166,1.788,1.788,0,0,0-.045-.683,1.751,1.751,0,0,0-.3-.615,1.72,1.72,0,0,0-.512-.451l-4.985-2.878a.133.133,0,0,1-.056-.064.144.144,0,0,1-.008-.09l.129-.527-.007,0c.045-.2.086-.413.126-.624.073-.4.134-.792.18-1.177s.083-.776.107-1.182.037-.8.037-1.192-.013-.785-.037-1.192-.06-.8-.107-1.184-.106-.773-.18-1.175-.156-.781-.248-1.153a.15.15,0,0,1,.01-.093.143.143,0,0,1,.064-.064l4.978-2.874a1.7,1.7,0,0,0,.512-.452,1.763,1.763,0,0,0,.138-1.932c-1.187-2.2-2.547-4.413-3.8-6.587l-.071.042c-.037-.034-.077-.067-.117-.1a1.768,1.768,0,0,0-1.3-.348,1.731,1.731,0,0,0-.648.215l-.369.212v0l-4.623,2.668a.14.14,0,0,1-.089.018.141.141,0,0,1-.079-.04l-.012-.012a19.431,19.431,0,0,0-8.131-4.694.134.134,0,0,1-.072-.049.122.122,0,0,1-.028-.085v-5.755a1.753,1.753,0,0,0-.518-1.24,1.78,1.78,0,0,0-.568-.381,1.739,1.739,0,0,0-.67-.135h-7.062a1.734,1.734,0,0,0-.67.135,1.81,1.81,0,0,0-.57.381,1.752,1.752,0,0,0-.516,1.24v5.755a.154.154,0,0,1-.028.088.143.143,0,0,1-.078.047l-.022.008A19.6,19.6,0,0,0,451.839,144.654Z" transform="translate(-142.861 -71.704)" fill="#bfcce8" fill-rule="evenodd"/>
      <path id="Path_7" data-name="Path 7" d="M61.333,230.122a11.249,11.249,0,1,1-2.444,3.658,11.281,11.281,0,0,1,2.444-3.658Zm4.052-1.482a10.274,10.274,0,1,0,3.909-.772,10.234,10.234,0,0,0-3.909.772Zm-1.244-8.284a18.318,18.318,0,0,0-4.067,1.735,18.593,18.593,0,0,0-3.592,2.708,1.175,1.175,0,0,1-1.408.17c-1.653-.954-3.391-1.9-5.011-2.893a.681.681,0,0,0-.243-.076.746.746,0,0,0-.53.144.71.71,0,0,0-.182.208c-1.205,1.824-2.415,4.18-3.531,6.114a.709.709,0,0,0-.088.259.754.754,0,0,0,.022.285.707.707,0,0,0,.331.436c1.487.982,3.4,1.967,4.98,2.877a1.172,1.172,0,0,1,.571.8l.1.035-.115.464q-.135.548-.236,1.094c-.064.354-.121.725-.168,1.111s-.081.751-.1,1.119-.033.739-.033,1.132.011.771.033,1.131.057.743.1,1.121.1.756.168,1.11.146.73.236,1.095a1.178,1.178,0,0,1-.608,1.331l-4.41,2.546h0l-.523.3a.7.7,0,0,0-.331.436.754.754,0,0,0-.022.285.717.717,0,0,0,.088.26l3.265,5.656h0l.264.458a.707.707,0,0,0,.182.207.731.731,0,0,0,.253.124.743.743,0,0,0,.283.02.689.689,0,0,0,.258-.088c1.58-.992,3.362-1.94,4.992-2.88a1.176,1.176,0,0,1,1.4.168l0,0a18.557,18.557,0,0,0,3.592,2.707,18.207,18.207,0,0,0,4.118,1.749,1.177,1.177,0,0,1,.856,1.136l0,5.755a.7.7,0,0,0,.053.27.742.742,0,0,0,.39.39.713.713,0,0,0,.271.052h7.062a.719.719,0,0,0,.271-.052.758.758,0,0,0,.233-.156.767.767,0,0,0,.156-.234.7.7,0,0,0,.054-.27v-5.755a1.189,1.189,0,0,1,.908-1.149,18.342,18.342,0,0,0,4.068-1.736,18.591,18.591,0,0,0,3.592-2.707,1.181,1.181,0,0,1,1.466-.135l4.927,2.845a.691.691,0,0,0,.26.087.747.747,0,0,0,.284-.02.724.724,0,0,0,.254-.124.7.7,0,0,0,.182-.207c1.17-2.041,2.359-4.074,3.531-6.114a.716.716,0,0,0,.088-.261.744.744,0,0,0-.022-.283.711.711,0,0,0-.123-.254.678.678,0,0,0-.2-.182l-4.985-2.877a1.171,1.171,0,0,1-.5-.557,1.093,1.093,0,0,1-.063-.191l-.13-.026.131-.528q.135-.547.236-1.095c.065-.353.121-.725.168-1.11s.081-.751.1-1.121.033-.737.033-1.131-.011-.77-.033-1.131-.057-.743-.1-1.119-.1-.763-.168-1.115-.146-.727-.236-1.092a1.172,1.172,0,0,1,.075-.779,1.188,1.188,0,0,1,.53-.55l4.936-2.85a.669.669,0,0,0,.206-.182.7.7,0,0,0,.123-.253.747.747,0,0,0,.022-.283.712.712,0,0,0-.088-.26c-1.205-1.792-2.412-4.187-3.531-6.114a.71.71,0,0,0-.182-.208.734.734,0,0,0-.254-.123A.761.761,0,0,0,88.76,222a.7.7,0,0,0-.261.089l-4.987,2.879a1.166,1.166,0,0,1-.748.149,1.187,1.187,0,0,1-.674-.332,18.4,18.4,0,0,0-3.578-2.694,18.314,18.314,0,0,0-4.117-1.748,1.18,1.18,0,0,1-.855-1.135l0-5.756a.7.7,0,0,0-.054-.271.727.727,0,0,0-.157-.232.7.7,0,0,0-.5-.21H65.762a.7.7,0,0,0-.271.053.718.718,0,0,0-.443.659v5.756a1.181,1.181,0,0,1-.254.731,1.194,1.194,0,0,1-.655.418Zm-2.483-.218a19.551,19.551,0,0,0-5.9,3.911.136.136,0,0,1-.079.037.144.144,0,0,1-.087-.017q-2.515-1.451-5.029-2.905a1.741,1.741,0,0,0-.63-.2,1.773,1.773,0,0,0-1.277.352,1.73,1.73,0,0,0-.451.514c-1.215,1.967-2.369,4.1-3.532,6.112a1.742,1.742,0,0,0-.218.651,1.769,1.769,0,0,0,.348,1.3,1.721,1.721,0,0,0,.514.451c1.6.99,3.343,1.931,4.984,2.878a.133.133,0,0,1,.056.065.135.135,0,0,1,.008.087l-.115.465.007,0c-.05.226-.1.455-.139.689-.073.4-.134.791-.18,1.176s-.082.775-.107,1.181-.037.8-.037,1.193.013.786.037,1.192.061.8.107,1.182.108.777.18,1.175.157.781.249,1.156a.135.135,0,0,1-.01.09.131.131,0,0,1-.061.067c-1.831.979-3.691,2.129-5.5,3.175l.064.082-.055.07a1.767,1.767,0,0,0-.348,1.3,1.717,1.717,0,0,0,.219.65l3.794,6.571.07-.043c.038.034.077.067.117.1a1.778,1.778,0,0,0,.615.3,1.78,1.78,0,0,0,1.316-.162c1.659-.882,3.368-1.946,5.007-2.892a.138.138,0,0,1,.084-.015.146.146,0,0,1,.082.037,19.494,19.494,0,0,0,3.79,2.856,19.343,19.343,0,0,0,4.354,1.851.143.143,0,0,1,.073.049.132.132,0,0,1,.028.085v5.755a1.733,1.733,0,0,0,.135.669,1.78,1.78,0,0,0,.952.952,1.736,1.736,0,0,0,.67.135h7.062a1.732,1.732,0,0,0,.669-.135,1.8,1.8,0,0,0,.571-.381,1.765,1.765,0,0,0,.381-.571,1.734,1.734,0,0,0,.135-.669v-5.755a.131.131,0,0,1,.106-.135l.022-.008a19.312,19.312,0,0,0,4.326-1.841,19.429,19.429,0,0,0,3.792-2.858.143.143,0,0,1,.082-.039A.147.147,0,0,1,83,252.1l4.984,2.878a1.743,1.743,0,0,0,.648.218,1.792,1.792,0,0,0,.683-.046,1.765,1.765,0,0,0,.615-.3,1.739,1.739,0,0,0,.443-.5c1.309-2.106,2.547-4.411,3.8-6.574l-.067-.04c.013-.056.022-.111.029-.167a1.772,1.772,0,0,0-.046-.683,1.75,1.75,0,0,0-.3-.615,1.7,1.7,0,0,0-.512-.452l-4.985-2.878a.131.131,0,0,1-.056-.064.15.15,0,0,1-.008-.091l.129-.526-.007,0c.045-.2.087-.413.126-.625.073-.4.134-.791.18-1.175s.082-.777.107-1.183.037-.8.037-1.192-.012-.785-.037-1.192-.06-.8-.107-1.184-.106-.774-.18-1.175-.156-.78-.248-1.153a.147.147,0,0,1,.01-.093.134.134,0,0,1,.064-.065l4.979-2.874a1.7,1.7,0,0,0,.512-.452,1.766,1.766,0,0,0,.348-1.3,1.747,1.747,0,0,0-.21-.635c-1.187-2.2-2.547-4.413-3.8-6.587l-.07.042c-.038-.034-.077-.067-.118-.1a1.768,1.768,0,0,0-.615-.3,1.788,1.788,0,0,0-.683-.046,1.721,1.721,0,0,0-.648.215l-.369.212v0l-4.623,2.668a.138.138,0,0,1-.088.018.141.141,0,0,1-.08-.04l-.012-.012a19.436,19.436,0,0,0-8.13-4.694.144.144,0,0,1-.073-.049.125.125,0,0,1-.028-.084v-5.756a1.749,1.749,0,0,0-.518-1.24,1.763,1.763,0,0,0-.568-.381,1.733,1.733,0,0,0-.669-.135H65.762a1.737,1.737,0,0,0-.67.135,1.806,1.806,0,0,0-.571.381,1.751,1.751,0,0,0-.516,1.24v5.756a.151.151,0,0,1-.028.088.141.141,0,0,1-.077.047l-.022.008A19.433,19.433,0,0,0,61.658,220.137Z" transform="translate(-44.442 -90.744)" fill="#bfcce8" fill-rule="evenodd"/>
      <path id="Path_8" data-name="Path 8" d="M123.948,274.88Zm2.483-9.458a4.779,4.779,0,1,1-1.4,3.379,4.766,4.766,0,0,1,1.4-3.379Zm1.033-4.736a8.424,8.424,0,0,0-1.873.8,8.51,8.51,0,0,0-1.643,1.239.293.293,0,0,1-.35.042l-2.221-1.281-.012-.008a.554.554,0,0,0-.74.209l-.009.015-1.562,2.706a.555.555,0,0,0,.2.752l.015.009,2.2,1.271a.3.3,0,0,1,.139.324h0a8.509,8.509,0,0,0,0,4.078.292.292,0,0,1-.155.333l-2.2,1.271h0a.556.556,0,0,0-.2.753l1.571,2.72h0a.555.555,0,0,0,.751.2l.017-.009,2.2-1.273a.294.294,0,0,1,.349.043,8.566,8.566,0,0,0,1.643,1.238,8.427,8.427,0,0,0,1.885.8.293.293,0,0,1,.213.282v2.561a.553.553,0,0,0,.55.55h3.144a.553.553,0,0,0,.549-.55V277.2a.294.294,0,0,1,.226-.286,8.419,8.419,0,0,0,1.872-.8,8.549,8.549,0,0,0,1.644-1.238.293.293,0,0,1,.365-.034l2.205,1.273a.554.554,0,0,0,.752-.2l.01-.015,1.562-2.708h0a.554.554,0,0,0-.2-.751l-2.219-1.281a.294.294,0,0,1-.138-.324h0a8.513,8.513,0,0,0,0-4.078.291.291,0,0,1,.155-.332l2.2-1.272a.555.555,0,0,0,.2-.752l-.009-.016L139,261.684h0a.552.552,0,0,0-.752-.2h0l-2.22,1.281a.293.293,0,0,1-.357-.049,8.433,8.433,0,0,0-3.521-2.033.294.294,0,0,1-.214-.282v-2.561a.552.552,0,0,0-.549-.55h-3.144a.551.551,0,0,0-.55.55V260.4A.293.293,0,0,1,127.464,260.685Z" transform="translate(-63.244 -102.244)" fill="#bfcce8" fill-rule="evenodd"/>
      <path id="Path_9" data-name="Path 9" d="M261.552,173.607a.82.82,0,0,0-1.639,0v1.927h-1.927a.82.82,0,1,0,0,1.639h1.927V179.1a.82.82,0,0,0,1.639,0v-1.928h1.927a.82.82,0,0,0,0-1.639h-1.927Z" transform="translate(-98.099 -80.93)" fill="#bfcce8" fill-rule="evenodd"/>
      <path id="Path_10" data-name="Path 10" d="M328.637,96.71Zm2.484-9.458a4.78,4.78,0,1,1-1.4,3.378,4.765,4.765,0,0,1,1.4-3.378Zm1.033-4.736a8.426,8.426,0,0,0-1.873.8,8.543,8.543,0,0,0-1.644,1.238.291.291,0,0,1-.349.043l-2.221-1.282-.012-.007a.553.553,0,0,0-.739.209l-.01.015-1.562,2.705a.554.554,0,0,0,.2.753l.015.01,2.2,1.271a.292.292,0,0,1,.138.324h0a8.3,8.3,0,0,0-.185,1.009,8.552,8.552,0,0,0,0,2.059,8.357,8.357,0,0,0,.185,1.009.293.293,0,0,1-.156.333l-2.2,1.271h0a.553.553,0,0,0-.2.752l1.571,2.721h0a.552.552,0,0,0,.751.2l.016-.009,2.205-1.273a.294.294,0,0,1,.348.043,8.484,8.484,0,0,0,1.644,1.238,8.364,8.364,0,0,0,1.885.8.293.293,0,0,1,.213.283v2.561a.553.553,0,0,0,.55.55h3.143a.553.553,0,0,0,.55-.55V99.031a.3.3,0,0,1,.226-.286,8.388,8.388,0,0,0,1.873-.8,8.486,8.486,0,0,0,1.644-1.238.291.291,0,0,1,.364-.033l2.206,1.273a.554.554,0,0,0,.752-.2l.01-.015,1.562-2.706h0a.555.555,0,0,0-.2-.752l-2.219-1.281a.294.294,0,0,1-.138-.324h0a8.336,8.336,0,0,0,.185-1.009,8.563,8.563,0,0,0,0-2.059,8.323,8.323,0,0,0-.185-1.009.294.294,0,0,1,.155-.334l2.2-1.271a.555.555,0,0,0,.2-.752l-.009-.016-1.563-2.705h0a.552.552,0,0,0-.752-.2h0l-2.22,1.282a.293.293,0,0,1-.357-.048,8.5,8.5,0,0,0-1.637-1.233,8.4,8.4,0,0,0-1.885-.8.294.294,0,0,1-.213-.282V79.669a.551.551,0,0,0-.55-.55h-3.143a.552.552,0,0,0-.55.55V82.23A.294.294,0,0,1,332.154,82.515Z" transform="translate(-114.874 -57.303)" fill="#bfcce8" fill-rule="evenodd"/>
      <path id="Path_11" data-name="Path 11" d="M688.246,73.488a.82.82,0,0,0-1.639,0v1.927H684.68a.82.82,0,1,0,0,1.639h1.927v1.928a.82.82,0,0,0,1.639,0V77.054h1.927a.82.82,0,0,0,0-1.639h-1.927Z" transform="translate(-205.727 -55.676)" fill="#bfcce8" fill-rule="evenodd"/>
      <path id="Path_12" data-name="Path 12" d="M49.385,359.412a.819.819,0,1,0-1.638,0v1.927H45.819a.82.82,0,1,0,0,1.639h1.927v1.927a.819.819,0,1,0,1.638,0v-1.927h1.928a.82.82,0,1,0,0-1.639H49.385Z" transform="translate(-44.583 -127.797)" fill="#bfcce8" fill-rule="evenodd"/>
      <path id="Path_13" data-name="Path 13" d="M398.594,154.68Zm2.485-9.458a4.779,4.779,0,1,1-1.4,3.378,4.767,4.767,0,0,1,1.4-3.378Zm1.033-4.737a8.414,8.414,0,0,0-1.873.8,8.517,8.517,0,0,0-1.644,1.238.29.29,0,0,1-.349.043l-2.221-1.282-.012-.007a.556.556,0,0,0-.74.209l-.009.016L393.7,144.2a.554.554,0,0,0,.2.753l.015.009,2.2,1.271a.293.293,0,0,1,.137.324h0a8.492,8.492,0,0,0-.186,1.01,8.677,8.677,0,0,0,0,2.059,8.517,8.517,0,0,0,.186,1.009.294.294,0,0,1-.156.333l-2.2,1.271h0a.553.553,0,0,0-.2.752l1.571,2.722h0a.553.553,0,0,0,.334.255.547.547,0,0,0,.417-.054l.016-.009,2.205-1.273a.293.293,0,0,1,.348.043,8.481,8.481,0,0,0,1.644,1.238,8.359,8.359,0,0,0,1.885.8.3.3,0,0,1,.213.283v2.561a.55.55,0,0,0,.55.549h3.142a.55.55,0,0,0,.55-.549V157a.294.294,0,0,1,.226-.286,8.414,8.414,0,0,0,3.515-2.035.293.293,0,0,1,.365-.034l2.206,1.273a.553.553,0,0,0,.752-.2l.009-.016L415.214,153h0a.546.546,0,0,0,.053-.417.552.552,0,0,0-.254-.335l-2.219-1.28a.293.293,0,0,1-.138-.324h0a8.166,8.166,0,0,0,.185-1.009,8.567,8.567,0,0,0,0-2.059,8.143,8.143,0,0,0-.185-1.01.293.293,0,0,1,.155-.333l2.2-1.271a.555.555,0,0,0,.2-.752l-.01-.016-1.561-2.706h0a.557.557,0,0,0-.752-.2h0l-2.222,1.282a.292.292,0,0,1-.356-.049,8.519,8.519,0,0,0-1.636-1.232,8.418,8.418,0,0,0-1.886-.8.294.294,0,0,1-.213-.282v-2.562a.551.551,0,0,0-.55-.549h-3.142a.552.552,0,0,0-.55.549V140.2A.293.293,0,0,1,402.112,140.486Z" transform="translate(-132.52 -71.925)" fill="#bfcce8" fill-rule="evenodd"/>
      <path id="Path_14" data-name="Path 14" d="M358.91,144.009a.82.82,0,1,0-1.639,0v1.927h-1.927a.82.82,0,0,0,0,1.64h1.927V149.5a.82.82,0,0,0,1.639,0v-1.927h1.927a.82.82,0,0,0,0-1.64H358.91Z" transform="translate(-122.657 -73.464)" fill="#bfcce8" fill-rule="evenodd"/>
      <path id="Path_15" data-name="Path 15" d="M363.377,265.377a.819.819,0,0,0-1.638,0V267.3h-1.928a.82.82,0,0,0,0,1.64h1.928v1.927a.819.819,0,1,0,1.638,0v-1.927H365.3a.82.82,0,0,0,0-1.64h-1.928Z" transform="translate(-123.784 -104.078)" fill="#bfcce8" fill-rule="evenodd"/>
      <path id="Path_16" data-name="Path 16" d="M267.324,211.022a.82.82,0,0,0-1.639,0v1.928h-1.927a.82.82,0,1,0,0,1.639h1.927v1.927a.82.82,0,1,0,1.639,0v-1.927h1.927a.82.82,0,1,0,0-1.639h-1.927Z" transform="translate(-99.555 -90.367)" fill="#bfcce8" fill-rule="evenodd"/>
    </g>
    <path id="Path_17" data-name="Path 17" d="M631.657,204.537a.82.82,0,0,0-1.64,0v1.927h-1.926a.82.82,0,1,0,0,1.639h1.926v1.927a.82.82,0,0,0,1.64,0V208.1h1.927a.82.82,0,1,0,0-1.639h-1.927Z" transform="translate(-191.454 -88.731)" fill="#bfcce8" fill-rule="evenodd"/>
  </g>
  <g id="Group_9" data-name="Group 9" transform="translate(209.405 113.258)">
    <g id="Group_7" data-name="Group 7" transform="translate(0 33.01)">
      <path id="Path_18" data-name="Path 18" d="M470.958,285.652a21.282,21.282,0,0,1,8.733,6.294c2.178,2.644,28.823,53.693,30.536,57.015s1.707,11.725-2.331,16.9c-1.566,2.008-6.073,7.628-11,13.752H480.936c5.8-8.7,13.365-20.072,13.907-20.988.887-1.5,1.332-2.944-.288-5.472s-22.95-28.535-22.95-28.535S461.119,295.3,470.958,285.652Z" transform="translate(-360.368 -255.667)" fill="#0f1630" stroke="#0e1632" stroke-miterlimit="22.926" stroke-width="0.216" fill-rule="evenodd"/>
      <path id="Path_19" data-name="Path 19" d="M415.5,280.161s26.869,3.819,28.027,4.106,3.12,2.99,4.176,4.813,2.3,28.049,2.9,35.393-1.768,39.358-1.062,47.957c.117,1.427.336,3.434.62,5.794H369.788c-1.031-9.509-8.2-39.26-8.785-46.408-.6-7.343-3.647-33.421-2.9-35.392s2.241-4.957,3.337-5.429,27.3-8.639,27.3-8.639l13.433,1.481Z" transform="translate(-332.935 -254.282)" fill="#cec9d0" fill-rule="evenodd"/>
      <path id="Path_20" data-name="Path 20" d="M424.427,280.161l4.442.634a3.846,3.846,0,0,1-.921,1.823c-10.439,11.964-21.106,12.839-33.354,2.734a3.833,3.833,0,0,1-1.209-1.66l4.282-1.337,13.433,1.481Z" transform="translate(-341.864 -254.282)" fill="#fff" fill-rule="evenodd"/>
      <path id="Path_21" data-name="Path 21" d="M421.172,245.552l.23,6.689s1.119,13.649,1.288,15.722c.082,1,1.242,2.362,3.181,3.47-8.784,10.068-16.454,10.7-26.759,2.193,1.734-1.409,2.656-2.939,2.574-3.941-.17-2.072-1.289-15.722-1.289-15.722l-.861-6.637s5.394.421,10.988,1.178C415.918,246.846,421.172,245.552,421.172,245.552Z" transform="translate(-343.308 -245.552)" fill="#e8685b" fill-rule="evenodd"/>
      <path id="Path_22" data-name="Path 22" d="M435.553,280.585s-3.106,13.426-3.337,16.158-3.88,30.24-3.5,34.889c.173,2.115,4.376,23.609,8.951,46.7h36.607c-.9-5.628-1.668-10.48-2.083-13.22-1.487-9.851-2.485-30.325-2.16-42.97s-2.818-31.62-3.191-33.421-3.962-4.051-5.074-4.469Z" transform="translate(-350.769 -254.389)" fill="#0f1630" fill-rule="evenodd"/>
      <path id="Path_23" data-name="Path 23" d="M431.544,307.069c-1.1,9.064-3.116,25.629-2.827,29.143,0,0,17.8-19.386,17.535-21.3s-7.514-16.173-7.514-16.173S435.625,302.322,431.544,307.069Z" transform="translate(-350.769 -258.969)" fill="#3d4155" fill-rule="evenodd"/>
      <path id="Path_24" data-name="Path 24" d="M435.338,280.168s.787-.7,1.069-.728,5.112,1.612,5.112,1.612,7.047,11.079,7.163,12.494-17.3,15.668-17.3,15.668l1.544-13.033s2.525-12.74,3.309-15.885Z" transform="translate(-351.447 -254.1)" fill="#545a6c" fill-rule="evenodd"/>
      <path id="Path_25" data-name="Path 25" d="M353.3,294.614a21.283,21.283,0,0,0-7.591,7.632c-1.718,2.963-19.7,57.669-20.845,61.226s.224,11.847,5.049,16.29c.523.482,1.317,1.2,2.316,2.107h19.923c-5.277-5.659-10.054-10.8-10.538-11.37-1.119-1.332-1.792-2.689-.606-5.448s18-31.89,18-31.89S364.581,302.529,353.3,294.614Z" transform="translate(-324.484 -257.927)" fill="#0f1630" fill-rule="evenodd"/>
      <path id="Path_26" data-name="Path 26" d="M386.275,284s5.251,12.741,5.924,15.4,8.751,29.2,9.133,33.853c.169,2.068-.446,23.029-1.179,45.942H363.94c-.016-2.391-.034-4.4-.052-5.832-.136-9.961-2.486-30.325-4.866-42.748s-2.367-31.657-2.291-33.5,3.249-4.643,4.279-5.236Z" transform="translate(-332.612 -255.249)" fill="#0f1630" fill-rule="evenodd"/>
      <path id="Path_27" data-name="Path 27" d="M401.844,309.649c2.561,8.764,7.246,24.78,7.534,28.294,0,0-20.724-16.228-20.769-18.158s4.781-17.18,4.781-17.18S397.044,305.629,401.844,309.649Z" transform="translate(-340.659 -259.943)" fill="#3d4155" fill-rule="evenodd"/>
      <path id="Path_28" data-name="Path 28" d="M393.691,283.45a3.94,3.94,0,0,0-1.173-.545c-.283.022-4.782,2.423-4.782,2.423s-5.15,12.078-5.033,13.493,19.624,12.641,19.624,12.641l-3.645-12.608s-4.565-12.158-5.851-15.133Z" transform="translate(-339.169 -254.973)" fill="#545a6c" fill-rule="evenodd"/>
    </g>
    <g id="Group_8" data-name="Group 8" transform="translate(40.349 33.462)">
      <path id="Path_29" data-name="Path 29" d="M382.748,251c-.135.031-.267.066-.4.106l0,0h0a5.529,5.529,0,1,0,4.7.688c.289,1.612.213,3.646-1.842,4.037l-.229-3.179A1.9,1.9,0,0,0,382.748,251Z" transform="translate(-378.445 -247.373)" fill="#e8685b" fill-rule="evenodd"/>
      <path id="Path_30" data-name="Path 30" d="M435.384,246.156c.138.007.274.016.41.032h0a5.529,5.529,0,1,1-4.494,1.526c.008,1.638.451,3.625,2.542,3.637l-.349-3.167A1.9,1.9,0,0,1,435.384,246.156Z" transform="translate(-391.355 -246.156)" fill="#e8685b" fill-rule="evenodd"/>
    </g>
    <path id="Path_31" data-name="Path 31" d="M401.607,211.784h0a18.979,18.979,0,0,0-17.124,20.564l1.563,17.141a18.98,18.98,0,0,0,20.563,17.126h0a18.978,18.978,0,0,0,17.125-20.563l-1.563-17.141A18.98,18.98,0,0,0,401.607,211.784Z" transform="translate(-339.598 -204.004)" fill="#f4ad85" fill-rule="evenodd"/>
    <path id="Path_32" data-name="Path 32" d="M385.646,227.178a18.735,18.735,0,0,0-1.166,8.435l1.563,17.14a18.988,18.988,0,0,0,18.765,17.2c-10.956-.843-12.984-13.79-13.821-20.607s1.717-8.345,2.732-8.683,16.925-2.979,20.445-3.385a6.28,6.28,0,0,1,5.29,1.546l1.48-2.156-1.422-4.6s1.214.04,2.646,0a18.852,18.852,0,0,0-.695-3.563,30.009,30.009,0,0,1-6.217-2.806c-4.2-2.708-24.236.677-27.485.677A5.09,5.09,0,0,0,385.646,227.178Z" transform="translate(-339.598 -207.271)" fill="#ed9072" fill-rule="evenodd"/>
    <path id="Path_33" data-name="Path 33" d="M417.614,235.405s.114,1.26.222,2.429,1.311,2.376,2.208,2.293l-.243-2.654a2.652,2.652,0,0,1,2.62-2.213c6.64-9.2,4.426-22.652-4.131-28.948s-25.606-5.195-28.485-3.934-5.477,6.577-5.477,6.577-2.726-2.02-4.958-.637-8.715,16.853-8.378,20.542,8.145,10.348,8.145,10.348a2.65,2.65,0,0,1,2.975,1.7l.242,2.655c.9-.082,1.864-1.485,1.758-2.655l-.222-2.43c.084-.046.167-.1.249-.144,2.285-1.485,1.831-6.02,1.831-6.02l-2.106-2.946,4.18-5.5,4.809-1.582,10.926.419s12.884,1.6,11.756,5.351S417.614,235.405,417.614,235.405Z" transform="translate(-336.212 -201.406)" fill="#0e1632" fill-rule="evenodd"/>
    <path id="Path_34" data-name="Path 34" d="M417.614,238.557c.131,1.444,1.1,7.893,2.778,7.739,5.013-10.558,9.642-21.579,2.174-32.4-.879,6.961-7.813,11.207-14.756,12.668,3.674.8,8.43,2.3,7.725,4.644-1.127,3.751,2.079,7.345,2.079,7.345Zm-46.141-9.782a10.946,10.946,0,0,0-.481,3.239c.259,2.844,9.725,16.572,11.826,19.692,1.094-.1,1.24-8.232,1.072-10.072.085-.047.166-.1.249-.144,2.285-1.485,1.831-6.02,1.831-6.02l-2.106-2.946,4.18-5.5,4.588-1.509a6.725,6.725,0,0,1-2.976-1.911C380.173,233.2,374.669,232.674,371.472,228.775Z" transform="translate(-336.212 -204.558)" fill="#010518" fill-rule="evenodd"/>
    <path id="Path_35" data-name="Path 35" d="M381.43,237.8s-7.927-17.187,8.019-20.125c0,0,4.221-8.333,12.677-6.243s13.75,2.031,17.543-1.706c0,0,2.175,4.093-.466,7.672,8,6.211,5.225,14.175,1.949,18.473-1.312-8.907-24.778,1.008-27.846-7.554C393,236.5,384.424,234.463,381.43,237.8Z" transform="translate(-338.351 -203.505)" fill="#0e1632" fill-rule="evenodd"/>
    <path id="Path_36" data-name="Path 36" d="M381.451,241.106a24.838,24.838,0,0,1-1.91-7.487c3.082-.293,7.081-2.507,12.275-7.762,0,0,2.121,3.117,11.916,3.52,5.948.245,13.511-1.957,17.775-6.544,5.1,5.807,2.577,12.524-.334,16.344-1.312-8.907-24.777,1.008-27.846-7.554C393.022,239.8,384.445,237.769,381.451,241.106Z" transform="translate(-338.372 -206.811)" fill="#010518" fill-rule="evenodd"/>
  </g>
  <g id="Group_13" data-name="Group 13" transform="translate(432.292 142.657)">
    <g id="Group_10" data-name="Group 10" transform="translate(1.744)">
      <path id="Path_37" data-name="Path 37" d="M673.792,247.47c-3.353-12.571-15.067-5.658-20.08,5.1s-16.5,52.743-26.432,63.614c-3.849,4.213-2.672,4.567.867,2.516C645.8,308.471,678.407,264.774,673.792,247.47Z" transform="translate(-624.89 -240.722)" fill="#05304b" fill-rule="evenodd"/>
      <path id="Path_38" data-name="Path 38" d="M624.907,321.1c-.121.565.41.591,1.417.175,26.759-22.632,40.97-73.225,41.016-73.387a.524.524,0,1,0-1.008-.287C666.286,247.765,651.881,299.048,624.907,321.1Z" transform="translate(-624.89 -242.361)" fill="#0076bd" fill-rule="evenodd"/>
    </g>
    <g id="Group_11" data-name="Group 11" transform="translate(0.244 9.525)">
      <path id="Path_39" data-name="Path 39" d="M643.632,257.387c-5.848-9.165-13.431-.7-14.7,9.14s.186,46.18-4.978,57.348c-2,4.329-.974,4.314,1.326,1.785C636.75,313.049,651.681,270,643.632,257.387Z" transform="translate(-622.884 -253.46)" fill="#0076bd" fill-rule="evenodd"/>
      <path id="Path_40" data-name="Path 40" d="M622.89,328.485c.045.481.475.367,1.172-.219,15.6-24.788,14.129-68.677,14.124-68.817a.438.438,0,1,0-.875.025C637.316,259.615,638.8,304.1,622.89,328.485Z" transform="translate(-622.885 -254.863)" fill="#05304b" fill-rule="evenodd"/>
    </g>
    <g id="Group_12" data-name="Group 12" transform="translate(0 44.593)">
      <path id="Path_41" data-name="Path 41" d="M672.539,300.407c10.106,1.054,6.2,10.933-1.489,16.113s-38.673,19.158-45.847,28.144c-2.781,3.484-3.2,2.618-2.047-.362C628.9,329.439,658.629,298.956,672.539,300.407Z" transform="translate(-622.557 -300.357)" fill="#0076bd" fill-rule="evenodd"/>
      <path id="Path_42" data-name="Path 42" d="M622.967,348.525c-.421.162-.505-.245-.307-1.072,14.2-23.4,51.489-40.53,51.608-40.586a.409.409,0,0,1,.345.742C674.493,307.665,636.69,325.029,622.967,348.525Z" transform="translate(-622.557 -301.99)" fill="#05304b" fill-rule="evenodd"/>
    </g>
  </g>
  <g id="Group_14" data-name="Group 14" transform="translate(305.792 12.236)">
    <path id="Path_43" data-name="Path 43" d="M495.545,283.536l-2.509,22.049s3.793,51.638,5.658,73.489h28.16l.618-87.885Z" transform="translate(-463.387 -121.1)" fill="#0e1632" fill-rule="evenodd"/>
    <path id="Path_44" data-name="Path 44" d="M515.945,309.064l-1.24,7.793,2.468,68.621H551.5c.573-4.75,1.09-8.811,1.508-11.738,2.578-18.049,3.461-43.133,3.449-49.07s-6.888-14.746-9.251-15.392S515.945,309.064,515.945,309.064Z" transform="translate(-468.852 -127.504)" fill="#0e1632" fill-rule="evenodd"/>
    <path id="Path_45" data-name="Path 45" d="M488.994,166.809s-1.172-2.182-2.1-1.773-32.009,46.148-33.063,50.084-.62,10.911,5.4,20.593,18.888,33.445,19.342,33.957,7.489-4.256,8.239-5.588c0,0,.308-.438-.143-1.329s-15.754-37.138-16.723-39.741,26.3-34.871,27.6-37.452S503.853,169.441,488.994,166.809Z" transform="translate(-453.385 -91.197)" fill="#171c3a" fill-rule="evenodd"/>
    <path id="Path_46" data-name="Path 46" d="M525.227,149.9l-13.537,9.669S502.033,197.384,502,199.1s-3.735,22.569-3.735,22.569,13.537,5.372,15.47.215,23.637-42.115,24.711-47.917-1.5-19.553-2.793-21.057S525.227,149.9,525.227,149.9Z" transform="translate(-464.705 -87.393)" fill="#c9c4d1" fill-rule="evenodd"/>
    <path id="Path_47" data-name="Path 47" d="M508.207,158.422s-12.259,4.314-13.387,4.958-7.75,24.775-8.287,27.031,3.009,43.618,3.009,47.271-4.62,49.313-4.728,50.065a1.351,1.351,0,0,0,1.4,1.611c1.075,0,13.107-22.668,14.074-25.247s-2.163-41.468-2.163-41.468L506.3,166.99Z" transform="translate(-461.309 -89.542)" fill="#171c3a" fill-rule="evenodd"/>
    <path id="Path_48" data-name="Path 48" d="M548.032,166.6s17.572,17.711,18.216,18.785-17.619,61.561-17.834,64.354,9.026,43.941,9.348,45.015a2.08,2.08,0,0,1-.268,1.075,4.011,4.011,0,0,1-1.45,1.29c-.377.268-43.35-6.662-46.789-8.811s-10.851-35.561-10.851-40.073,2.6-21.782,2.6-21.782l21.145-35.8S537.424,167.739,548.032,166.6Z" transform="translate(-464.741 -91.604)" fill="#1c2344" fill-rule="evenodd"/>
    <path id="Path_49" data-name="Path 49" d="M556.879,162.876s20.355,20.5,21,21.569-17.619,61.561-17.833,64.354,9.025,43.941,9.348,45.015a2.074,2.074,0,0,1-.269,1.075,4,4,0,0,1-1.45,1.29c-.194.138-11.625-1.623-23.164-3.66,10.01-14.427,9.487-38.33,8.614-39.784-1.015-1.694-6.363-5.348-5.552-5.619s6.3-.406,6.7-1.759,8.12-44.187,8.12-44.187l5.149-3.472s2.3-16.653.677-19.09-12.34-11.652-12.428-11.727C557.125,166.224,555.641,163.009,556.879,162.876Z" transform="translate(-476.37 -90.665)" fill="#101937" fill-rule="evenodd"/>
    <path id="Path_50" data-name="Path 50" d="M580.826,188.111a30.64,30.64,0,0,1,4.5,4.522c1.841,2.4,24.77,50.33,25.243,54.822s-1.2,12.059-9.465,21.625-26.463,33.371-27.05,33.853-7.467-5.954-8.059-7.543c0,0-.262-.532.385-1.43S590.05,256,591.56,253.32s-22.781-42.734-23.76-45.786S564.1,188.429,580.826,188.111Z" transform="translate(-481.777 -97.031)" fill="#383d5d" fill-rule="evenodd"/>
    <path id="Path_51" data-name="Path 51" d="M543.432,127.4c.124,6.7-1.613,13.617-1.174,20.326.089,1.368.745,1.823,2.433,2.92,2.338,3.479-4.057,14.483-8.262,15.138-.278.043-7.128-5.329-11.981-6.576-2.49-.639-4.541,2.541-4.728,2.4-1.009-.734,1.16-6.425.454-8.584.853-.229,1.614-2.135,2.219-2.691,3.931-3.626,2.649-12.676-.572-16.1C519.416,131.685,543.432,127.4,543.432,127.4Z" transform="translate(-470.049 -81.716)" fill="#ed9072" fill-rule="evenodd"/>
    <path id="Path_52" data-name="Path 52" d="M549.572,158.77c-.535,1.515-13.523,18.85-13.523,18.85s-.464.623-1.143-.167-8.681-11.959-8.681-11.959L544,152.252l-.406-3.046C543.851,148.927,550.121,157.213,549.572,158.77Z" transform="translate(-471.758 -87.215)" fill="#fff" fill-rule="evenodd"/>
    <path id="Path_53" data-name="Path 53" d="M523.446,154.448c0-.009-.019-.026-.068-.03-6.075-.429-7,16.784-5.927,20.157.008.022,3.692-5.633,6.232-7.883C524.832,165.676,521.236,157.9,523.446,154.448Z" transform="translate(-469.448 -88.53)" fill="#fff" fill-rule="evenodd"/>
    <path id="Path_54" data-name="Path 54" d="M541.9,155.381s-22.722,28.168-24.335,30.531-13.966,31.479-15.685,37.71c0,0,19.016-23.744,21.7-25.892s12.626-10.422,12.626-10.422a1.437,1.437,0,0,0,.134-.914c-.134-.375-2.9-6.633-2.9-6.633s8.273,1.235,9.024,1.181,4.466-18.511,4.573-19.048S541.9,155.381,541.9,155.381Z" transform="translate(-465.618 -88.775)" fill="#383d5d" fill-rule="evenodd"/>
    <path id="Path_55" data-name="Path 55" d="M519.85,154.4a66.49,66.49,0,0,0-6.977,1.93c-.966.538-8.595,13.215-8.809,14.289a.675.675,0,0,0,.321.725,22.293,22.293,0,0,1,2.177,1.37,13.059,13.059,0,0,1-2.66.483s-.322.122-.268.618-1.018,47.81-1.018,47.81,9.378-52.317,10.766-55.761a63.123,63.123,0,0,1,5.12-8.89Z" transform="translate(-465.803 -88.529)" fill="#383d5d" fill-rule="evenodd"/>
    <path id="Path_56" data-name="Path 56" d="M510.2,114.362a5.359,5.359,0,1,1-5.328,5.388A5.36,5.36,0,0,1,510.2,114.362Z" transform="translate(-466.371 -78.428)" fill="#e8685b" fill-rule="evenodd"/>
    <path id="Path_57" data-name="Path 57" d="M558.021,114.089a5.358,5.358,0,1,1-5.329,5.388A5.359,5.359,0,0,1,558.021,114.089Z" transform="translate(-478.434 -78.359)" fill="#e8685b" fill-rule="evenodd"/>
    <path id="Path_58" data-name="Path 58" d="M527.275,77.529h0c10.094-.061,18.4,8.9,18.456,19.9l.093,18.189c.055,11.009-8.157,20.065-18.251,20.127h0c-10.094.061-18.4-8.9-18.457-19.9l-.093-18.191C508.968,86.647,517.18,77.59,527.275,77.529Z" transform="translate(-467.42 -69.138)" fill="#f4ad85" fill-rule="evenodd"/>
    <path id="Path_59" data-name="Path 59" d="M545.017,93.823a21.51,21.51,0,0,1,.714,5.407l.093,18.19c.052,10.122-6.888,18.594-15.855,19.94-.88.092-1.445.148-1.567.161h-.008c10.024-.992,12.146-14.16,12.146-18.13V109.079c0-9.743-5.392-10.76-9.082-10.76h-18.3a3.576,3.576,0,0,0-3.217,2.176l-.912-.693v-.349a20.844,20.844,0,0,1,5.918-14.8c9.19,1.8,24.473,4.849,25.526,5.507C541.042,90.518,542.913,92.052,545.017,93.823Z" transform="translate(-467.419 -70.935)" fill="#ed9072" fill-rule="evenodd"/>
    <path id="Path_60" data-name="Path 60" d="M505.356,93.13l3.3,3.31s1.58-6.153,14.873-4.256-12.257-12.355-15.151-10.8S502.96,87.518,505.356,93.13Z" transform="translate(-466.253 -70.081)" fill="#01020e" fill-rule="evenodd"/>
    <path id="Path_61" data-name="Path 61" d="M538.357,89.654s-13.083,1.435-19.741-2.793-12.295-6.188-14-3.891c-1.619,2.179,4.892,8.062,2.272,18.068-.142.543-.485,9.8-.684,10.365-.064-3.621-1.223-12.874-2.423-15.19C500.2,89.3,494.6,84.105,501.872,73.739c4.466-6.362,12.052-9.343,15.574-6.124,11.483,10.489,27.29-3.139,27.387,14.242,0,0,8.516,2.868.6,20.293a2.262,2.262,0,0,0-2.339,2.512l.07,9.3C536.772,113.966,536.641,97.2,538.357,89.654Z" transform="translate(-464.721 -66.307)" fill="#0e1632" fill-rule="evenodd"/>
  </g>
  <g id="Group_17" data-name="Group 17" transform="translate(348.37 193.135)">
    <g id="Group_15" data-name="Group 15" transform="translate(14.761)">
      <path id="Rectangle_13" data-name="Rectangle 13" d="M4.352,0H39.178A4.352,4.352,0,0,1,43.53,4.352V65.8a4.353,4.353,0,0,1-4.353,4.353H4.352A4.352,4.352,0,0,1,0,65.805V4.352A4.352,4.352,0,0,1,4.352,0Z" transform="translate(7.409)" fill="#e2e1e7"/>
      <rect id="Rectangle_14" data-name="Rectangle 14" width="35.424" height="70.157" rx="3.662" transform="translate(45.761)" fill="#fff"/>
      <path id="Path_62" data-name="Path 62" d="M530.066,341.284h38.353c0-6.873,7.409-7.632,7.409-7.632H537.475S530.066,334.412,530.066,341.284Z" transform="translate(-530.066 -314.641)" fill="#fff" fill-rule="evenodd"/>
      <rect id="Rectangle_15" data-name="Rectangle 15" width="43.976" height="18.209" rx="2.865" transform="translate(5.266 58.866)" fill="#b92f6d"/>
      <path id="Path_63" data-name="Path 63" d="M590.661,386.95h8.717a4.105,4.105,0,0,1,3.51,2.678c1.25,2.723,1.116,5.445,4.821,5.445H609.3c3.705,0,3.6-2.786,4.821-5.445a4,4,0,0,1,3.511-2.678h8.271a2.149,2.149,0,0,1,2.142,2.142v13.924a2.15,2.15,0,0,1-2.142,2.143H590.661a2.148,2.148,0,0,1-2.142-2.143V389.092A2.148,2.148,0,0,1,590.661,386.95Z" transform="translate(-544.81 -328.084)" fill="#e74d91" fill-rule="evenodd"/>
      <path id="Path_64" data-name="Path 64" d="M530.066,373.429h38.353c0-6.873,7.409-7.632,7.409-7.632H537.475S530.066,366.555,530.066,373.429Z" transform="translate(-530.066 -322.749)" fill="#fff" fill-rule="evenodd"/>
      <path id="Path_65" data-name="Path 65" d="M632.923,358.1h-34.88c0-6.873-6.779-7.632-6.779-7.632h34.879S632.923,351.231,632.923,358.1Z" transform="translate(-545.502 -318.883)" fill="#acabbb" fill-rule="evenodd"/>
      <path id="Path_66" data-name="Path 66" d="M598.289,318.42h26.735A1.182,1.182,0,0,1,626.2,319.6h0a1.182,1.182,0,0,1-1.179,1.178H598.289a1.182,1.182,0,0,1-1.178-1.178h0A1.182,1.182,0,0,1,598.289,318.42Z" transform="translate(-546.977 -310.798)" fill="#e2e1e7" fill-rule="evenodd"/>
      <path id="Path_67" data-name="Path 67" d="M598.289,335.787h26.735a1.182,1.182,0,0,1,1.179,1.178h0a1.183,1.183,0,0,1-1.179,1.179H598.289a1.182,1.182,0,0,1-1.178-1.179h0A1.182,1.182,0,0,1,598.289,335.787Z" transform="translate(-546.977 -315.179)" fill="#e2e1e7" fill-rule="evenodd"/>
      <path id="Path_68" data-name="Path 68" d="M598.289,372.053h26.735a1.182,1.182,0,0,1,1.179,1.178h0a1.182,1.182,0,0,1-1.179,1.178H598.289a1.182,1.182,0,0,1-1.178-1.178h0A1.182,1.182,0,0,1,598.289,372.053Z" transform="translate(-546.977 -324.327)" fill="#e2e1e7" fill-rule="evenodd"/>
      <path id="Path_69" data-name="Path 69" d="M547.155,317.143h25.826a1.182,1.182,0,0,1,1.178,1.178h0a1.182,1.182,0,0,1-1.178,1.178H547.155a1.182,1.182,0,0,1-1.178-1.178h0A1.181,1.181,0,0,1,547.155,317.143Z" transform="translate(-534.079 -310.476)" fill="#acabbb" fill-rule="evenodd"/>
      <rect id="Rectangle_16" data-name="Rectangle 16" width="28.183" height="2.357" rx="1.179" transform="translate(11.897 35.916)" fill="#acabbb"/>
      <path id="Path_70" data-name="Path 70" d="M547.155,381.288h25.826a1.182,1.182,0,0,1,1.178,1.179h0a1.182,1.182,0,0,1-1.178,1.178H547.155a1.182,1.182,0,0,1-1.178-1.178h0A1.181,1.181,0,0,1,547.155,381.288Z" transform="translate(-534.079 -326.656)" fill="#acabbb" fill-rule="evenodd"/>
    </g>
    <g id="Group_16" data-name="Group 16" transform="translate(0 30.431)">
      <rect id="Rectangle_17" data-name="Rectangle 17" width="26.343" height="42.457" rx="2.634" transform="translate(4.483)" fill="#e2e1e7"/>
      <path id="Rectangle_18" data-name="Rectangle 18" d="M2.216,0H19.222a2.215,2.215,0,0,1,2.215,2.215V40.241a2.216,2.216,0,0,1-2.216,2.216H2.216A2.216,2.216,0,0,1,0,40.241V2.216A2.216,2.216,0,0,1,2.216,0Z" transform="translate(27.694)" fill="#fff"/>
      <path id="Path_71" data-name="Path 71" d="M510.326,368.928h23.21c0-4.158,4.484-4.618,4.484-4.618H514.809S510.326,364.77,510.326,368.928Z" transform="translate(-510.326 -352.805)" fill="#fff" fill-rule="evenodd"/>
      <path id="Rectangle_19" data-name="Rectangle 19" d="M1.733,0H24.879a1.734,1.734,0,0,1,1.734,1.734V9.285a1.734,1.734,0,0,1-1.734,1.734H1.734A1.734,1.734,0,0,1,0,9.285V1.733A1.733,1.733,0,0,1,1.733,0Z" transform="translate(3.187 35.625)" fill="#b92f6d"/>
      <path id="Path_72" data-name="Path 72" d="M547,396.565h5.275a2.486,2.486,0,0,1,2.125,1.62c.756,1.647.675,3.3,2.916,3.3h.965c2.242,0,2.179-1.686,2.918-3.3a2.419,2.419,0,0,1,2.124-1.62h5.006a1.3,1.3,0,0,1,1.3,1.3v8.426a1.3,1.3,0,0,1-1.3,1.3H547a1.3,1.3,0,0,1-1.3-1.3v-8.426A1.3,1.3,0,0,1,547,396.565Z" transform="translate(-519.248 -360.941)" fill="#e74d91" fill-rule="evenodd"/>
      <path id="Path_73" data-name="Path 73" d="M510.326,388.382h23.21c0-4.16,4.484-4.618,4.484-4.618H514.809S510.326,384.222,510.326,388.382Z" transform="translate(-510.326 -357.712)" fill="#fff" fill-rule="evenodd"/>
      <path id="Path_74" data-name="Path 74" d="M572.572,379.108H551.464a4.616,4.616,0,0,0-4.1-4.618h21.109A4.615,4.615,0,0,1,572.572,379.108Z" transform="translate(-519.668 -355.372)" fill="#acabbb" fill-rule="evenodd"/>
      <path id="Path_75" data-name="Path 75" d="M551.612,355.092h16.179a.715.715,0,0,1,.713.713h0a.715.715,0,0,1-.713.713H551.612a.716.716,0,0,1-.713-.713h0A.716.716,0,0,1,551.612,355.092Z" transform="translate(-520.56 -350.48)" fill="#e2e1e7" fill-rule="evenodd"/>
      <path id="Path_76" data-name="Path 76" d="M551.612,365.6h16.179a.714.714,0,0,1,.713.713h0a.715.715,0,0,1-.713.713H551.612a.716.716,0,0,1-.713-.713h0A.715.715,0,0,1,551.612,365.6Z" transform="translate(-520.56 -353.131)" fill="#e2e1e7" fill-rule="evenodd"/>
      <path id="Path_77" data-name="Path 77" d="M551.612,387.549h16.179a.715.715,0,0,1,.713.713h0a.715.715,0,0,1-.713.713H551.612a.716.716,0,0,1-.713-.713h0A.716.716,0,0,1,551.612,387.549Z" transform="translate(-520.56 -358.667)" fill="#e2e1e7" fill-rule="evenodd"/>
      <path id="Rectangle_20" data-name="Rectangle 20" d="M.713,0H16.342a.713.713,0,0,1,.713.713v0a.713.713,0,0,1-.713.713H.713A.713.713,0,0,1,0,.713v0A.713.713,0,0,1,.713,0Z" transform="translate(7.2 4.034)" fill="#acabbb"/>
      <path id="Rectangle_21" data-name="Rectangle 21" d="M.713,0H16.342a.713.713,0,0,1,.713.713v0a.713.713,0,0,1-.713.713H.714A.714.714,0,0,1,0,.713v0A.713.713,0,0,1,.713,0Z" transform="translate(7.2 21.736)" fill="#acabbb"/>
      <path id="Path_78" data-name="Path 78" d="M520.668,393.138H536.3a.715.715,0,0,1,.712.713h0a.715.715,0,0,1-.712.713H520.668a.716.716,0,0,1-.713-.713h0A.715.715,0,0,1,520.668,393.138Z" transform="translate(-512.755 -360.076)" fill="#acabbb" fill-rule="evenodd"/>
    </g>
  </g>
  <g id="Group_19" data-name="Group 19" transform="translate(51.298 164.188)">
    <path id="Path_79" data-name="Path 79" d="M182.74,271.772l30.643.145a.731.731,0,0,1,.731.73l-.007,3.206a.732.732,0,0,1-.731.732l-30.642-.145a.731.731,0,0,1-.731-.731l.007-3.206a.731.731,0,0,1,.731-.731Zm29.91,1.605-29.18-.141,0,1.743,29.18.141Z" transform="translate(-130.438 -270.085)" fill="#0e1632" fill-rule="evenodd"/>
    <g id="Group_18" data-name="Group 18" transform="translate(10.776)">
      <path id="Path_80" data-name="Path 80" d="M129.089,317.352l40.485-46.132a.731.731,0,0,1,1.032-.07l2.41,2.115a.732.732,0,0,1,.07,1.032L132.6,320.429a.731.731,0,0,1-1.032.07l-2.41-2.115a.732.732,0,0,1-.07-1.032Zm41.1-44.619-39.519,45.033,1.31,1.15L171.5,273.883Z" transform="translate(-127.823 -269.883)" fill="#0e1632" fill-rule="evenodd"/>
      <path id="Path_81" data-name="Path 81" d="M182.335,269.549a4.08,4.08,0,1,1-3.533,4.561A4.08,4.08,0,0,1,182.335,269.549Z" transform="translate(-140.399 -269.516)" fill="#383d5d" fill-rule="evenodd"/>
      <path id="Path_82" data-name="Path 82" d="M129.088,332.428l28.466,54.377a.732.732,0,0,0,.986.311l2.84-1.487a.732.732,0,0,0,.311-.987l-28.466-54.377a.731.731,0,0,0-.986-.311l-2.841,1.487a.731.731,0,0,0-.311.986Zm29.423,53.052L130.724,332.4l1.544-.808,27.788,53.081Z" transform="translate(-127.847 -284.74)" fill="#0e1632" fill-rule="evenodd"/>
      <path id="Path_83" data-name="Path 83" d="M166.127,405.1a4.08,4.08,0,1,0-2.359-5.267A4.081,4.081,0,0,0,166.127,405.1Z" transform="translate(-136.547 -301.724)" fill="#383d5d" fill-rule="evenodd"/>
      <path id="Path_84" data-name="Path 84" d="M131.023,328.02a4.08,4.08,0,1,1-3.534,4.561A4.08,4.08,0,0,1,131.023,328.02Z" transform="translate(-127.456 -284.264)" fill="#383d5d" fill-rule="evenodd"/>
    </g>
    <rect id="Rectangle_22" data-name="Rectangle 22" width="67.177" height="10.307" rx="5.154" transform="translate(0 99.92)" fill="#383d5d"/>
    <rect id="Rectangle_23" data-name="Rectangle 23" width="67.177" height="10.307" rx="5.154" transform="translate(20.262 99.92)" fill="#0e1632"/>
    <path id="Path_85" data-name="Path 85" d="M212.483,283.094h14.989a7.93,7.93,0,0,0,7.907-7.906h-30.8A7.929,7.929,0,0,0,212.483,283.094Z" transform="translate(-136.133 -270.947)" fill="#fff" fill-rule="evenodd"/>
    <path id="Path_86" data-name="Path 86" d="M213.927,282.048h9.006a4.764,4.764,0,0,0,4.75-4.75H209.176A4.765,4.765,0,0,0,213.927,282.048Z" transform="translate(-137.293 -271.479)" fill="#dff0f2" fill-rule="evenodd"/>
    <path id="Path_87" data-name="Path 87" d="M206.369,270.336h25.07a6.065,6.065,0,0,1,6.048,6.047H200.322A6.064,6.064,0,0,1,206.369,270.336Z" transform="translate(-135.059 -269.723)" fill="#383d5d" fill-rule="evenodd"/>
    <path id="Path_88" data-name="Path 88" d="M206.369,270.336h11.464a6.065,6.065,0,0,1,6.047,6.047H200.322A6.064,6.064,0,0,1,206.369,270.336Z" transform="translate(-135.059 -269.723)" fill="#01020e" fill-rule="evenodd"/>
  </g>
  <g id="Group_20" data-name="Group 20" transform="translate(420.617 41.858)">
    <path id="Path_89" data-name="Path 89" d="M611.538,116.381a.553.553,0,0,1-.9-.642,23.426,23.426,0,1,1-3.677,19.271.553.553,0,1,1,1.074-.264,22.35,22.35,0,1,0,3.5-18.365Z" transform="translate(-606.944 -105.921)" fill="#0e1632" fill-rule="evenodd"/>
    <path id="Path_90" data-name="Path 90" d="M646.533,123.146a12.249,12.249,0,0,0-3.362,5.929c.92.613,3.455,2.552,2.266,4.612l-4.947,8.564c-1.2,2-4.116.79-5.1.3a12.233,12.233,0,0,0-3.454,5.876,7.749,7.749,0,0,0,4.54.959,4.883,4.883,0,0,0,3.612-2.03l9.608-16.64a4.912,4.912,0,0,0-.061-4.125,7.741,7.741,0,0,0-3.1-3.449Zm-4.378,6.019c1.32-4.885,3.79-6.786,4.045-6.973a.479.479,0,0,1,.541-.037,8.822,8.822,0,0,1,3.769,4.069,5.887,5.887,0,0,1,.013,4.965l-9.612,16.649a5.868,5.868,0,0,1-4.325,2.5,8.808,8.808,0,0,1-5.389-1.221.477.477,0,0,1-.259-.462c0-.009.253-3.233,4-7.006a.476.476,0,0,1,.592-.093c.01.005,3.175,1.833,4.146.2l4.932-8.545c.92-1.592-1.962-3.348-2.216-3.5A.478.478,0,0,1,642.155,129.165Z" transform="translate(-612.995 -109.999)" fill="#0e1632" fill-rule="evenodd"/>
    <text id="_24" data-name="24" transform="translate(3.576 19.582)" fill="#0e1632" font-size="11" font-family="OpenSans-Extrabold, Open Sans" font-weight="800"><tspan x="0" y="0">24</tspan></text>
  </g>
  <g id="Group_22" data-name="Group 22" transform="translate(285.453 23.463)">
    <path id="Path_91" data-name="Path 91" d="M437.086,85.647h31.93a4.99,4.99,0,0,1,4.976,4.976v27.813a.555.555,0,0,1-.947.393l-8.48-8.479H437.086a4.99,4.99,0,0,1-4.976-4.976V90.623A4.99,4.99,0,0,1,437.086,85.647Z" transform="translate(-427.68 -82.412)" fill="#bfcce8" fill-rule="evenodd"/>
    <g id="Group_21" data-name="Group 21" transform="translate(0)">
      <path id="Path_92" data-name="Path 92" d="M431.818,81.321h31.931a5.649,5.649,0,0,1,5.633,5.634v27.812a1.213,1.213,0,0,1-.749,1.12h0a1.2,1.2,0,0,1-1.32-.262l-8.287-8.287H431.818a5.646,5.646,0,0,1-5.633-5.634V86.955a5.647,5.647,0,0,1,5.633-5.634Zm31.931,1.315H431.818a4.334,4.334,0,0,0-4.318,4.318V101.7a4.334,4.334,0,0,0,4.318,4.318H459.57l8.5,8.5V86.955a4.331,4.331,0,0,0-4.318-4.318Z" transform="translate(-426.185 -81.321)" fill="#fff" fill-rule="evenodd"/>
      <path id="Path_93" data-name="Path 93" d="M433.242,88.433a.36.36,0,1,1,0-.719H465.7a.36.36,0,1,1,0,.719Z" transform="translate(-427.874 -82.934)" fill="#fff" fill-rule="evenodd"/>
      <path id="Path_94" data-name="Path 94" d="M433.242,93.125a.36.36,0,1,1,0-.719h3.439a.36.36,0,0,1,0,.719Zm8.017,0a.36.36,0,0,1,0-.719H465.7a.36.36,0,1,1,0,.719Z" transform="translate(-427.874 -84.117)" fill="#fff" fill-rule="evenodd"/>
      <path id="Path_95" data-name="Path 95" d="M433.242,97.816a.36.36,0,1,1,0-.719H465.7a.36.36,0,1,1,0,.719Z" transform="translate(-427.874 -85.3)" fill="#fff" fill-rule="evenodd"/>
      <path id="Path_96" data-name="Path 96" d="M445.315,104.176a.36.36,0,1,1,0-.719h23.433a.36.36,0,1,1,0,.719Z" transform="translate(-430.919 -86.905)" fill="#fff" fill-rule="evenodd"/>
      <path id="Path_97" data-name="Path 97" d="M459.309,109.265a.36.36,0,1,1,0-.719h12.969a.36.36,0,1,1,0,.719Z" transform="translate(-434.449 -88.188)" fill="#fff" fill-rule="evenodd"/>
      <path id="Path_98" data-name="Path 98" d="M449.37,109.265a.36.36,0,1,1,0-.719h4.637a.36.36,0,1,1,0,.719Z" transform="translate(-431.942 -88.188)" fill="#fff" fill-rule="evenodd"/>
    </g>
  </g>
  <path id="Path_99" data-name="Path 99" d="M683.779,416a.82.82,0,0,0-1.64,0v1.927h-1.926a.82.82,0,1,0,0,1.639h1.926v1.928a.82.82,0,0,0,1.64,0v-1.928h1.927a.82.82,0,0,0,0-1.639h-1.927Z" transform="translate(-204.6 -142.071)" fill="#bfcce8" fill-rule="evenodd"/>
  <g id="Group_25" data-name="Group 25" transform="translate(96.636 253.693)">
    <g id="Group_23" data-name="Group 23" transform="translate(0 7.268)">
      <path id="Path_100" data-name="Path 100" d="M246.613,398.934H218.848a4.15,4.15,0,0,0,0,8.3h27.765a4.15,4.15,0,0,0,0-8.3Z" transform="translate(-184.023 -398.934)" fill="#0076bd" fill-rule="evenodd"/>
      <path id="Path_101" data-name="Path 101" d="M174.323,399.581H209.83a3.677,3.677,0,0,1,3.666,3.665h0a3.678,3.678,0,0,1-3.666,3.668H174.323Z" transform="translate(-173.839 -399.097)" fill="#fff" fill-rule="evenodd"/>
      <path id="Path_102" data-name="Path 102" d="M174.16,398.934a.483.483,0,1,0,0,.967h35.507a3.183,3.183,0,0,1,0,6.366H174.16a.483.483,0,1,0,0,.967h35.507a4.15,4.15,0,0,0,0-8.3Z" transform="translate(-173.676 -398.934)" fill="#004a82" fill-rule="evenodd"/>
      <path id="Path_103" data-name="Path 103" d="M254.269,403.083a4.161,4.161,0,0,0-4.15-4.149h3.609a4.15,4.15,0,0,1,0,8.3h-3.609a4.162,4.162,0,0,0,4.15-4.15Z" transform="translate(-192.958 -398.934)" fill="#004a82" fill-rule="evenodd"/>
      <path id="Path_104" data-name="Path 104" d="M247.275,403.083a4.161,4.161,0,0,0-4.151-4.149h3.61a4.15,4.15,0,0,1,0,8.3h-3.61a4.162,4.162,0,0,0,4.151-4.15Z" transform="translate(-191.193 -398.934)" fill="#004a82" fill-rule="evenodd"/>
    </g>
    <g id="Group_24" data-name="Group 24" transform="translate(4.149)">
      <path id="Path_105" data-name="Path 105" d="M182.859,389.214h24.313a3.634,3.634,0,0,1,0,7.268H182.859a3.634,3.634,0,0,1,0-7.268Z" transform="translate(-179.225 -389.214)" fill="#e74d91" fill-rule="evenodd"/>
      <path id="Path_106" data-name="Path 106" d="M245.243,389.78H214.151a3.22,3.22,0,0,0-3.21,3.211h0a3.22,3.22,0,0,0,3.21,3.211h31.092Z" transform="translate(-187.225 -389.357)" fill="#fff" fill-rule="evenodd"/>
      <path id="Path_107" data-name="Path 107" d="M245.1,389.214a.424.424,0,0,1,0,.847H214.008a2.787,2.787,0,0,0,0,5.575H245.1a.423.423,0,1,1,0,.846H214.008a3.634,3.634,0,0,1,0-7.268Z" transform="translate(-187.082 -389.214)" fill="#b92f6d" fill-rule="evenodd"/>
      <path id="Path_108" data-name="Path 108" d="M184.516,392.848a3.644,3.644,0,0,1,3.634-3.634h-3.161a3.634,3.634,0,0,0,0,7.268h3.161a3.643,3.643,0,0,1-3.634-3.634Z" transform="translate(-179.762 -389.214)" fill="#b92f6d" fill-rule="evenodd"/>
      <path id="Path_109" data-name="Path 109" d="M190.641,392.848a3.644,3.644,0,0,1,3.634-3.634h-3.161a3.634,3.634,0,0,0,0,7.268h3.161a3.643,3.643,0,0,1-3.634-3.634Z" transform="translate(-181.307 -389.214)" fill="#b92f6d" fill-rule="evenodd"/>
    </g>
  </g>
  <g id="Group_26" data-name="Group 26" transform="translate(200.524 190.837)">
    <path id="Rectangle_24" data-name="Rectangle 24" d="M3.793,0H123.2A3.793,3.793,0,0,1,127,3.793v0A3.792,3.792,0,0,1,123.2,7.585H3.792A3.792,3.792,0,0,1,0,3.793v0A3.793,3.793,0,0,1,3.793,0Z" transform="translate(0 71.788)" fill="#a8a6b5"/>
    <path id="Path_110" data-name="Path 110" d="M436.275,410.1H316.863a4.074,4.074,0,0,1-3.323-1.789,3.543,3.543,0,0,1,3.108-1.787H436.06a4.076,4.076,0,0,1,3.322,1.787A3.539,3.539,0,0,1,436.275,410.1Z" transform="translate(-312.843 -330.723)" fill="#96929f" fill-rule="evenodd"/>
    <path id="Path_111" data-name="Path 111" d="M447.222,376.942H351.713a4.615,4.615,0,0,1-4.648-4.962l3.91-61.864a5.377,5.377,0,0,1,5.276-4.962h95.509a4.615,4.615,0,0,1,4.648,4.962L452.5,371.98A5.375,5.375,0,0,1,447.222,376.942Z" transform="translate(-321.297 -305.155)" fill="#96929f" fill-rule="evenodd"/>
    <path id="Path_112" data-name="Path 112" d="M448.173,376.942H355.481a4.615,4.615,0,0,1-4.648-4.962l3.91-61.864a5.376,5.376,0,0,1,5.275-4.962H452.71a4.615,4.615,0,0,1,4.647,4.962l-3.91,61.864A5.375,5.375,0,0,1,448.173,376.942Z" transform="translate(-322.247 -305.155)" fill="#fff" fill-rule="evenodd"/>
    <path id="Path_113" data-name="Path 113" d="M444.367,376.942h-9.538l-79.071-63.2.229-3.628a5.223,5.223,0,0,1,1.132-2.907l87.247,69.733Zm-76.538-71.787,86.254,68.94a5.149,5.149,0,0,0,.609-2.115l.609-9.62-71.574-57.205Z" transform="translate(-323.492 -305.155)" fill="#f0eef0" fill-rule="evenodd"/>
    <path id="Rectangle_25" data-name="Rectangle 25" d="M3.793,0h21.7a3.793,3.793,0,0,1,3.793,3.793v0a3.792,3.792,0,0,1-3.792,3.792H3.792A3.792,3.792,0,0,1,0,3.793v0A3.793,3.793,0,0,1,3.793,0Z" transform="translate(0 71.788)" fill="#fff"/>
    <path id="Path_114" data-name="Path 114" d="M445.559,402.414H346.193a2.045,2.045,0,0,1-2.009-1.9h0a1.771,1.771,0,0,1,1.782-1.9h99.366a2.046,2.046,0,0,1,2.01,1.9h0A1.771,1.771,0,0,1,445.559,402.414Z" transform="translate(-320.572 -328.731)" fill="#d2ced6" fill-rule="evenodd"/>
  </g>
  <g id="Group_27" data-name="Group 27" transform="translate(15.796 122.942)">
    <path id="Path_115" data-name="Path 115" d="M313.066,277.386a19.673,19.673,0,0,1,.152-9.146l-15.658-1.322,21.793-9.551a50.33,50.33,0,0,0,6.805-11.249c2.181-5.575-3.732-19.749-5.954-23.267s-6.838-2.99-9.879-1.087c0,0-4.565-6.879-10.015-7.339s-22.772,1.137-27.8,13.849,3.064,25.418-5.04,38.495a3.257,3.257,0,0,0,.338,3.047c1.052,1.395,13.829,16.285,42.948,10.285a2.96,2.96,0,0,0,2.312-2.714Z" transform="translate(-116.434 -214.357)" fill="#0e1632" fill-rule="evenodd"/>
    <path id="Path_116" data-name="Path 116" d="M292.544,290.963c1.6-17.51,2.735-32.73,2.735-32.73l-1.486-4.934s-13.409,10.837-22.929-.565c.452,7.822,1.57,15.7-3.4,23.714a3.257,3.257,0,0,0,.338,3.047l.043.057.016.019.037.046.039.048.023.03.069.082,0,0,.082.1.024.028.069.079.058.067.045.049.1.112.013.014.123.134.028.03.107.113.074.079.07.072.05.052.1.106.165.166.114.111.086.086c2.786,2.695,9.276,7.68,20.211,9.41l.032,0q1.422.224,2.945.372Z" transform="translate(-116.434 -224.037)" fill="#010518" fill-rule="evenodd"/>
    <path id="Path_117" data-name="Path 117" d="M315.535,292.749c-1-4.954-.3-6.945,1.089-13.562l-24.918-3.921-10.889,2.11a72.986,72.986,0,0,1-3.8,13.483c6.63,4.1,18.341,8.284,36.2,4.6a2.96,2.96,0,0,0,2.312-2.714Z" transform="translate(-118.903 -229.72)" fill="#010518" fill-rule="evenodd"/>
    <path id="Path_118" data-name="Path 118" d="M273.456,299.836c6.9,2.163,16.321,4.748,24.449,8.744.562.277-.583,2.44-.062,2.729a19.057,19.057,0,0,1,3.566,2.9c3.8,3.754,11.521,33.133,10.831,36.06-1.11,4.709-10.869,17.644-10.869,17.644-1.938,3.743-4.341,9.2-6.7,15.087H246.2c3.376-10.975,4.632-18.409,4.722-25.11h0c2.588-22.779-9.66-27.735-9.66-27.735l12.685-29.85c4.934-1.747,14.776-1.09,14.776-1.09C271.325,299.212,271.127,299.1,273.456,299.836Z" transform="translate(-109.884 -235.73)" fill="#e74d91" fill-rule="evenodd"/>
    <path id="Path_119" data-name="Path 119" d="M304.125,387.109h-6.841c1.275-3.412,7.205-19.547,8.474-22.99-5.765-1-13.7-2.379-15.1-2.712s-6.758,2.729-6.758,2.729l.6-3.482-5.753,5.794,9.837-18.37s16.052,3.625,19.462,4.247,1.33.148,1.964.1c1.9-5.335-1.209-6.828-.84-9.41s.478-27.625.478-27.625c2.074,1.074,3.011,3.411,4.185,7.1.772,2.425,4.87,18.363,6.567,27.791.4,2.242.723,3.921.925,5.259C317.515,365.229,308.977,374.992,304.125,387.109Z" transform="translate(-119.337 -239.84)" fill="#b92f6d" fill-rule="evenodd"/>
    <path id="Path_120" data-name="Path 120" d="M297.051,263.287l-2.426,7.291s-3.671,17.2-4.52,19.436c-.3.775-1.266,1.011-2.758.975,2.148,3.076,6.319,7.768,12.348,8.91,3.85.73,6.542.011,8.37-1.067-1.288-.68-2.518-1.487-2.513-2.151.052-5.871,1.061-16.206,4.243-18.116C313.438,276.377,297.051,263.287,297.051,263.287Z" transform="translate(-121.508 -226.699)" fill="#e8685b" fill-rule="evenodd"/>
    <path id="Path_121" data-name="Path 121" d="M287.79,300.221a15.329,15.329,0,0,1-3.474-.135,26.241,26.241,0,0,0,7.718,6.973c9.507,6.024,14.085,2.741,15.533,1.193a10.615,10.615,0,0,1-2.317-1.487h0c-8.872,4.335-17.458-6.544-17.458-6.544Z" transform="translate(-120.744 -235.981)" fill="#fff" fill-rule="evenodd"/>
    <path id="Path_122" data-name="Path 122" d="M313.65,311.527s3.791,38.155,3.331,41.378-6.488,19.1-11.771,33.228h9.085c1.795-3.458,3.166-6.158,3.415-6.808.162-.42.79-1.641,1.653-3.239,1.552-2.874,3.871-6.972,5.619-9.841,5.57-9.143,5.555-7.009,3.627-17.72-1.7-9.427-6.9-26.87-7.676-29.3C319.759,315.542,314.633,311.258,313.65,311.527Z" transform="translate(-126.014 -238.863)" fill="#1c2344" fill-rule="evenodd"/>
    <path id="Path_123" data-name="Path 123" d="M314.365,381.121c-1.249,3.491-2.7,7.466-4.208,11.546a30.335,30.335,0,0,1,5.75.823c2.762,1.085,3.051,2.323,3.051,2.323.162-.42.789-1.641,1.653-3.239,1.553-2.874,3.871-6.972,5.619-9.841,1.676-2.751,2.844-4.48,3.609-5.845a15.79,15.79,0,0,1-3.613,2.613C325.219,379.8,317.477,380.749,314.365,381.121Z" transform="translate(-127.262 -255.353)" fill="#0e1632" fill-rule="evenodd"/>
    <path id="Path_124" data-name="Path 124" d="M271.48,298.822s6.956,33.7,7.91,43.5-2.11,16.807-5.557,24.168c-1.162,2.481-4.887,8.813-9.476,16.311H242.939l2.291-52.938-6.142-1.424c.365-2.659.663-4.861.867-6.4l12.093-21.382S256.607,296.952,271.48,298.822Z" transform="translate(-109.335 -235.529)" fill="#1c2344" fill-rule="evenodd"/>
    <path id="Path_125" data-name="Path 125" d="M258.459,319.144c-3.417,13.724-1.045,19.415-1.045,19.415l1.831-8.539s1.731,12.6,3.657,14.212c.956.8,12.342,2.981,16.609,3.777a35.794,35.794,0,0,1-2.1,14.119c-3.062.315-21.486-2.281-22.366,3.671-.439,2.969-.34-6.583-.34-6.583l-1.09,27.682H242.939l2.291-52.938-6.142-1.424.016-.125.017-.123.017-.123.016-.123h0l.017-.121.016-.121.016-.12.016-.12.016-.119.016-.118.016-.117h0l.016-.117.016-.116.015-.115h0l.016-.114.015-.114h0l.016-.113h0l.015-.112h0l.016-.112h0l.015-.11h0l.015-.11h0l.014-.11h0l.015-.108h0l.015-.108h0l.014-.107h0l.014-.105h0l.014-.105h0l.014-.1h0l.014-.1h0l.014-.1h0l.014-.1h0l.013-.1h0l.014-.1h0l.014-.1h0l.013-.1h0l.013-.1h0l.013-.1h0l.013-.1h0l.013-.095h0l.013-.095h0l.012-.093h0l.013-.093h0l.013-.092h0l.012-.091h0l.013-.09h0l.012-.09h0l.012-.088h0l.011-.087h0l.012-.086h0l.011-.086h0l.011-.085h0l.011-.083h0l.012-.083h0l.011-.082h0l.01-.081h0l.011-.079h0l.01-.08h0l.01-.078h0l.01-.077h0l.01-.076h0l.01-.075h0l.01-.074h0l.01-.073h0l.01-.073,6.549-11.578Z" transform="translate(-109.335 -239.63)" fill="#0e1632" fill-rule="evenodd"/>
    <path id="Path_126" data-name="Path 126" d="M241.106,316c-3.921,10.715-4.988,47.464-1.757,67.193h17.206c-7.037-39.162,7.743-67.174,4.5-77.1C255.852,290.213,243.684,308.963,241.106,316Z" transform="translate(-108.92 -235.93)" fill="#383d5d" fill-rule="evenodd"/>
    <path id="Path_127" data-name="Path 127" d="M332.547,269.791l1.917-.84a55.3,55.3,0,0,0,5.58-8.55c-.456.869-3.478,6.153-7.9,2.924-4.81-3.513-5,2.05-5,2.05s2.91,3.305,4.6,4.078c.218.1.494.215.808.339Zm7.555-9.5v0h0Z" transform="translate(-131.545 -225.941)" fill="#010518" fill-rule="evenodd"/>
    <path id="Path_128" data-name="Path 128" d="M329.6,268.718a5.485,5.485,0,1,0,4.89,6.021A5.487,5.487,0,0,0,329.6,268.718Z" transform="translate(-130.641 -228.061)" fill="#e8685b" fill-rule="evenodd"/>
    <path id="Path_129" data-name="Path 129" d="M278.794,263.522c-.137.006-.272.018-.407.034h0a5.487,5.487,0,1,0,4.469,1.484c0,1.625-.423,3.6-2.5,3.626l.325-3.146A1.884,1.884,0,0,0,278.794,263.522Z" transform="translate(-118.034 -226.758)" fill="#e8685b" fill-rule="evenodd"/>
    <path id="Path_130" data-name="Path 130" d="M304.56,229.385h0a18.842,18.842,0,0,0-20.622,16.751l-1.759,16.982a18.841,18.841,0,0,0,16.751,20.621h0a18.841,18.841,0,0,0,20.621-16.751l1.759-16.982A18.841,18.841,0,0,0,304.56,229.385Z" transform="translate(-120.179 -218.122)" fill="#f4ad85" fill-rule="evenodd"/>
    <path id="Path_131" data-name="Path 131" d="M283.63,252.48l-1.451,14a18.86,18.86,0,0,0,11.975,19.478c-10.934-4.529-5.329-23.534-5.329-23.534,2.214-.377,5.706-4.5,7.736-6.906s3.6-4.825,7.1-4.754,10.906,1.91,10.906,1.91a20.6,20.6,0,0,0,6.02,7.626l.718-6.932a18.634,18.634,0,0,0-.356-6.031c-.453-.266-.918-.535-1.41-.812C304.5,238.071,291.728,244.915,283.63,252.48Z" transform="translate(-120.179 -221.488)" fill="#ed9072" fill-rule="evenodd"/>
    <path id="Path_132" data-name="Path 132" d="M323.592,248.238l-3.039,1.291a8.963,8.963,0,0,0-6.126-.986s-6.671-2.452-10.205-1.086-1.455-3.542-.808-3.757a43.207,43.207,0,0,1,10.264-.078c2.922.562,7.318,1.247,7.318,1.247Z" transform="translate(-125.259 -221.668)" fill="#010518" fill-rule="evenodd"/>
    <path id="Path_133" data-name="Path 133" d="M283.125,262.307l1.8.316s1.25,5.693-2.284,5.737l.325-3.146a1.782,1.782,0,0,0-.037-.6Z" transform="translate(-120.321 -226.451)" fill="#010518" fill-rule="evenodd"/>
    <path id="Path_134" data-name="Path 134" d="M309.047,244.106c-2.746-3.705-7.233-4.463-10.722.741-3.186,4.754-7.92,12.981-15.886,12.31l-.04-.146.019,0,.449-5.308s-.671.175-1.485.366a34.257,34.257,0,0,1-.275-9.513c.923-6.671,10.2-16.415,20.673-16.79s18.042,5.841,19.542,9.387,2.981,11.589,2.981,11.589l-1.842,2.634-1.984,5.237c-4.816-4.685-4.321-9.115-6.414-11.347C312.928,242.059,311.233,242.055,309.047,244.106Z" transform="translate(-119.878 -217.231)" fill="#0e1632" fill-rule="evenodd"/>
    <path id="Path_135" data-name="Path 135" d="M297.337,253.491c-3.159,4.781-7.692,11.261-14.8,10.662l-.04-.146.019,0,.449-5.308s-.671.175-1.485.366c-.07-.458-.137-.938-.2-1.434C289.308,259.963,297.311,253.512,297.337,253.491Z" transform="translate(-119.979 -224.228)" fill="#010518" fill-rule="evenodd"/>
    <path id="Path_136" data-name="Path 136" d="M313.578,309.921s4.888,40.1,4.792,41.405-1.4,7.573-1.4,7.573a26.447,26.447,0,0,0,2.939-7.235c.579-3.28,2.122-25.464,2.122-25.464l-2.6-1.4,2.411-.145-3.98-12.458a3.52,3.52,0,0,0-1.083-1.286c-.627-.363-2.911-1.508-2.948-1.525a1.494,1.494,0,0,0-.894.108S313.411,309.817,313.578,309.921Z" transform="translate(-127.963 -238.32)" fill="#484e6a" fill-rule="evenodd"/>
    <path id="Path_137" data-name="Path 137" d="M280.124,298.841s6.956,33.7,7.91,43.5a34.76,34.76,0,0,1-.6,10.859c1.282-10.021-12.82-33.6-12.82-33.6l3.665-1.737-4.919-2.218s2.267-12.684,2.411-14.8c.141-2.063-.953-2.447-1.014-2.467C276.373,298.445,278.158,298.594,280.124,298.841Z" transform="translate(-117.979 -235.548)" fill="#484e6a" fill-rule="evenodd"/>
    <path id="Path_138" data-name="Path 138" d="M88.535,425.865h6.09a4.426,4.426,0,0,0,4.414-4.413h0a4.428,4.428,0,0,0-4.414-4.414H78.536a3.514,3.514,0,0,1-3.5-3.5h0a3.514,3.514,0,0,1,3.5-3.5h425.04a3.514,3.514,0,0,1,3.5,3.5h0a3.514,3.514,0,0,1-3.5,3.5H481.512a4.427,4.427,0,0,0-4.413,4.414h0a4.425,4.425,0,0,0,4.413,4.413h5.171a7.026,7.026,0,0,1,7.005,7.006h0a7.027,7.027,0,0,1-7.005,7.006H88.535a7.029,7.029,0,0,1-7.006-7.006h0a7.027,7.027,0,0,1,7.006-7.006ZM69.07,410.033a3.5,3.5,0,1,1-3.5,3.5A3.5,3.5,0,0,1,69.07,410.033Z" transform="translate(-65.567 -263.713)" fill="#01020e" fill-rule="evenodd"/>
  </g>
  <g id="Group_28" data-name="Group 28" transform="translate(218.759 85.645)">
    <path id="Path_139" data-name="Path 139" d="M374.557,164.479H342.628a5.647,5.647,0,0,0-5.634,5.634v27.813a1.213,1.213,0,0,0,.749,1.119h0a1.2,1.2,0,0,0,1.321-.262l8.286-8.287h27.206a5.65,5.65,0,0,0,5.634-5.634v-14.75a5.649,5.649,0,0,0-5.634-5.634Zm-31.929,1.315h31.929a4.334,4.334,0,0,1,4.319,4.319v14.75a4.333,4.333,0,0,1-4.319,4.318H346.806l-8.5,8.5V170.113a4.334,4.334,0,0,1,4.318-4.319Z" transform="translate(-336.994 -164.479)" fill="#1a293d" fill-rule="evenodd"/>
    <path id="Path_140" data-name="Path 140" d="M376.513,171.592a.359.359,0,0,0,0-.719H344.051a.359.359,0,1,0,0,.719Z" transform="translate(-338.683 -166.092)" fill="#1a293d" fill-rule="evenodd"/>
    <path id="Path_141" data-name="Path 141" d="M376.513,176.283a.359.359,0,0,0,0-.719h-3.439a.359.359,0,0,0,0,.719Zm-8.017,0a.359.359,0,1,0,0-.719H344.051a.359.359,0,1,0,0,.719Z" transform="translate(-338.683 -167.275)" fill="#1a293d" fill-rule="evenodd"/>
    <path id="Path_142" data-name="Path 142" d="M376.513,180.974a.36.36,0,0,0,0-.719H344.051a.36.36,0,0,0,0,.719Z" transform="translate(-338.683 -168.458)" fill="#1a293d" fill-rule="evenodd"/>
    <path id="Path_143" data-name="Path 143" d="M367.485,187.334a.36.36,0,0,0,0-.719H344.051a.36.36,0,0,0,0,.719Z" transform="translate(-338.683 -170.063)" fill="#1a293d" fill-rule="evenodd"/>
    <path id="Path_144" data-name="Path 144" d="M357.021,192.423a.36.36,0,0,0,0-.719H344.051a.36.36,0,0,0,0,.719Z" transform="translate(-338.683 -171.346)" fill="#1a293d" fill-rule="evenodd"/>
    <path id="Path_145" data-name="Path 145" d="M369.771,192.423a.36.36,0,0,0,0-.719h-4.638a.36.36,0,0,0,0,.719Z" transform="translate(-344.001 -171.346)" fill="#1a293d" fill-rule="evenodd"/>
  </g>
</svg>
