<svg xmlns="http://www.w3.org/2000/svg" xmlns:xlink="http://www.w3.org/1999/xlink" width="18" height="18" viewBox="0 0 18 18">
  <defs>
    <clipPath id="clip-path">
      <rect id="Rectangle_2855" data-name="Rectangle 2855" width="18" height="18" transform="translate(3655 1603)" fill="#776667"/>
    </clipPath>
  </defs>
  <g id="Mask_Group_1490" data-name="Mask Group 1490" transform="translate(-3655 -1603)" clip-path="url(#clip-path)">
    <g id="placeholder" transform="translate(3657.726 1603)">
      <path id="Path_57982" data-name="Path 57982" d="M6.274,8.869a2.668,2.668,0,1,1,1.888-.781A2.661,2.661,0,0,1,6.274,8.869Zm0-4.281a1.613,1.613,0,1,0,1.141.472A1.609,1.609,0,0,0,6.274,4.588Zm0,0" fill="#776667"/>
      <path id="Path_57983" data-name="Path 57983" d="M6.28,18l-.408-.48C5.633,17.24.018,10.593.018,6.257a6.257,6.257,0,0,1,12.513,0c0,4.123-5.611,10.968-5.85,11.258ZM6.274,1.056a5.207,5.207,0,0,0-5.2,5.2c0,1.612.961,3.944,2.779,6.745.944,1.454,1.894,2.685,2.416,3.336.523-.669,1.482-1.941,2.432-3.422,1.815-2.832,2.775-5.135,2.775-6.659a5.207,5.207,0,0,0-5.2-5.2Zm0,0" fill="#776667"/>
    </g>
  </g>
</svg>
