<svg xmlns="http://www.w3.org/2000/svg" xmlns:xlink="http://www.w3.org/1999/xlink" width="18" height="18" viewBox="0 0 18 18">
  <defs>
    <clipPath id="clip-path">
      <rect id="Rectangle_11" data-name="Rectangle 11" width="18" height="18" transform="translate(327 354)" fill="rgba(85,64,65,0.8)" stroke="#707070" stroke-width="1"/>
    </clipPath>
  </defs>
  <g id="Mask_Group_1" data-name="Mask Group 1" transform="translate(-327 -354)" clip-path="url(#clip-path)">
    <g id="user-3-line_3_" data-name="user-3-line (3)" transform="translate(327 354)">
      <path id="Path_451" data-name="Path 451" d="M0,0H18V18H0Z" fill="none"/>
      <path id="Path_452" data-name="Path 452" d="M15,16.5H13.5V15a2.25,2.25,0,0,0-2.25-2.25H6.75A2.25,2.25,0,0,0,4.5,15v1.5H3V15a3.75,3.75,0,0,1,3.75-3.75h4.5A3.75,3.75,0,0,1,15,15ZM9,9.75a4.5,4.5,0,1,1,4.5-4.5A4.5,4.5,0,0,1,9,9.75Zm0-1.5a3,3,0,1,0-3-3A3,3,0,0,0,9,8.25Z" fill="rgba(85,64,65,0.8)"/>
    </g>
  </g>
</svg>
