<svg xmlns="http://www.w3.org/2000/svg" width="139.97" height="101.797" viewBox="0 0 139.97 101.797"><path d="M139.969,41.851C139.966,19.013,114.332.5,82.71.5A74.057,74.057,0,0,0,53.521,6.3C43.98,10.406,33.937,13.167,24.08,16.446,9.781,21.2,0,30.782,0,41.848v19.1C0,72.014,9.781,81.6,24.081,86.351c9.857,3.277,19.9,6.039,29.44,10.148a74.06,74.06,0,0,0,29.189,5.8c31.622,0,57.257-18.513,57.26-41.351Zm0,0" transform="translate(0 -0.5)" fill="#edb4a2"/><path d="M82.71.5A74.843,74.843,0,0,0,56.057,5.267c-9.517,3.638-18.944,7.56-28.779,10.216C11.255,19.812,0,29.98,0,41.855S11.255,63.9,27.277,68.226C37.113,70.883,46.54,74.8,56.057,78.441A74.843,74.843,0,0,0,82.71,83.21c31.623,0,57.26-18.516,57.26-41.355S114.333.5,82.71.5Zm0,0" transform="translate(0 -0.5)" fill="#f3cdc1"/><path d="M388.3,147.746a6.422,6.422,0,0,0-6.288-7.609H363.258c-12.725,0-12.178,4.809-12.178,6.362a5.78,5.78,0,0,0,1.7,4.113c4.2,4.2,5.982,8.31,6.738,16.026a5.984,5.984,0,0,0,8.729,4.661C379.027,165.755,386.521,157.361,388.3,147.746Zm0,0" transform="translate(-255.1 -101.963)" fill="#ae2b00"/><path d="M389.713,148.625c-.1,0-.205.005-.309.015a3.18,3.18,0,0,0-2.862,3.471c.011.117.019.234.024.353v.173h0v.069c0,.057,0,.112,0,.168v.015c0,.014,0,.028,0,.042v.015c0,.014,0,.028,0,.042V153c0,.014,0,.028,0,.041v.03c0,.009,0,.017,0,.027v.03l0,.027v.151a.173.173,0,0,1,0,.027v.03l0,.03h0v.025c0,.015,0,.029,0,.043v.013h0l-.005.044v.014c0,.015,0,.029-.007.044v.014c0,.015,0,.029-.005.044v.014c0,.015,0,.03-.007.044h0v.014l0,.009v0a.267.267,0,0,1-.005.031v.028c0,.01,0,.02,0,.03v.043l0,.012,0,.013,0,.007v.018s0,.008,0,.013,0,.021-.005.031l0,.009-.006.032c0,.007,0,.014,0,.02l0,.011,0,.02v.011c0,.007,0,.014-.005.022v.007l-.005.026v.005c0,.02-.008.042-.013.062v0l-.006.028v.005l0,.026,0,.006,0,.025v.006l-.006.026v.005c0,.01,0,.02-.006.029v0l-.019.095v0l-.006.029v0l-.005.028v0c0,.01,0,.019-.006.029v0c-.012.052-.022.106-.034.158h0a28.669,28.669,0,0,1-6.6,12.66l-.023.026h0l-.021.026h0c-.038.045-.076.087-.115.131l0,0a.277.277,0,0,1-.02.024l0,0-.019.021,0,0-.019.021-.006.005-.021.023h0l-.047.052,0,0-.019.021-.007.008-.015.017-.022.026-.008.008-.016.017-.007.007-.015.017-.008.008-.017.02-.008.008-.019.02-.01.011-.013.014-.011.013-.011.012-.013.013-.011.013-.01.012-.012.012-.012.014-.01.011-.013.014-.007.006-.055.061,0,0a.156.156,0,0,0-.017.018l0,.005-.017.018-.006.005-.016.018-.007.006-.016.018,0,0-.1.111-.02.022h0l-.019.021,0,0c-.167.178-.335.355-.507.531q-.061.062-.118.128c-.043.04-.086.079-.126.121a44.609,44.609,0,0,1-9.3,7.078h0l-.15.087-.03.017h0l-.119.068h0l-.028.016,0,0-.027.015,0,0-.12.067h0l-.122.069-.183.1h0l-.029.016,0,0-.028.015h0l-.09.05,0,0-.027.014,0,0-.027.016h0l-.091.049,0,0-.027.014,0,0-.026.014-.005,0-.089.048-.005,0-.024.013-.006,0-.023.013-.007,0-.026.014h0l-.061.033h0l-.027.015-.006,0-.023.013-.007,0-.025.014,0,0-.06.032-.006,0-.022.012-.008.005-.021.011-.008.005-.022.012-.006,0-.06.032,0,0-.026.014-.03.015-.007,0-.023.012-.007,0-.027.014h0l-.03.016-.006,0-.024.013-.03.015-.009.005-.03.015-.026.014h0l-.031.016h0l-.029.014-.009.005-.03.015-.021.012-.038.019-.03.016h0l-.026.014-.01,0-.02.011-.011.005-.019.011-.032.016-.008,0-.03.015a6.05,6.05,0,0,1-2.775.678,5.942,5.942,0,0,1-5.954-5.34c0-.009,0-.018,0-.028v-.007c0-.007,0-.015,0-.021v-.006l0-.023v0c0-.009,0-.019,0-.029h0l0-.027v-.005l0-.022v-.006c0-.009,0-.018,0-.027v-.005a.155.155,0,0,1,0-.022v-.006l0-.022v-.006a.219.219,0,0,1,0-.027v0l0-.022v-.008l0-.022v-.005l0-.027v-.005l0-.021v-.007l0-.021v-.005l0-.056v0l0-.023v-.006c0-.008,0-.017,0-.026h0l0-.027v-.005l0-.02v-.01l0-.022v0l0-.028v0a.163.163,0,0,1,0-.022V172.1l0-.025v0a.206.206,0,0,1,0-.027v0c0-.007,0-.015,0-.022v-.006c0-.009,0-.017,0-.026a.222.222,0,0,0,0-.029l0-.027v0c0-.009,0-.017,0-.025v0l-.006-.056v0a.167.167,0,0,1,0-.023v0c0-.018,0-.036-.006-.054v0l0-.021v-.006l-.01-.081v0l-.01-.081v-.006l0-.022v0l0-.026V171.5c0-.006,0-.013,0-.019l0-.008c0-.007,0-.013,0-.018v-.007l0-.026v0c0-.007,0-.015,0-.022v-.009c0-.006,0-.012,0-.018v-.007l-.006-.051V171.3l0-.02v-.007l0-.023h0l0-.026v-.008a.141.141,0,0,0,0-.02v0l0-.026c0-.009,0-.018,0-.027v-.005l0-.02v-.006l0-.02v-.005l0-.025v-.007a.144.144,0,0,0,0-.019v-.006a.215.215,0,0,1,0-.021v0c0-.017,0-.034-.006-.051v-.006c0-.007,0-.013,0-.018v-.007a.116.116,0,0,1,0-.019l0-.013,0-.018v-.008a.084.084,0,0,1,0-.017v-.008c0-.006,0-.014,0-.02v0l0-.023v-.009l0-.016v-.007l0-.017v-.014l0-.018V170.7a.082.082,0,0,0,0-.016v-.01l0-.017v-.008l0-.023v-.009a.069.069,0,0,1,0-.016l0-.009,0-.016v-.01c0-.007,0-.016,0-.023v0a.093.093,0,0,0,0-.02v-.009l0-.016,0-.01a.116.116,0,0,0,0-.018l0-.028v-.011l0-.026,0-.016v-.009l0-.02v-.01l0-.016v-.009c0-.007,0-.013,0-.018V170.3l0-.022v-.01l0-.014v-.012l0-.014v-.009l0-.022v-.01c0-.005,0-.01,0-.015v-.011l0-.013,0-.011,0-.022v-.007c0-.005,0-.011,0-.015s0-.009,0-.013v-.01a.113.113,0,0,1,0-.013l0-.014c0-.006,0-.012,0-.018l0-.014V170l0-.013,0-.012v-.013l0-.019,0-.012,0-.014v-.01l0-.012,0-.013,0-.018v-.014l0-.012,0-.009,0-.014V169.8l0-.013,0-.019,0-.013,0-.01v-.012l0-.013,0-.011,0-.022v-.006l0-.015,0-.012,0-.013v-.011l0-.015,0-.018v-.009l0-.024,0-.019a.207.207,0,0,0,0-.028v-.007l0-.014v-.01l0-.014,0-.005,0-.033v0l-.005-.037V169.4l-.005-.031v0l0-.013v-.011l0-.012,0-.011,0-.012,0-.02,0-.011,0-.012,0-.013v-.008l0-.013,0-.008a.22.22,0,0,0,0-.025v-.01l0-.013,0-.008,0-.015h0c0-.012,0-.024-.006-.035v0l0-.015v-.009l0-.013,0-.008c0-.01,0-.019,0-.029v0l0-.015v-.007l0-.015v-.006c0-.01,0-.019-.005-.03v0l0-.015v-.007l0-.015v-.005c0-.011,0-.022-.005-.031v0l0-.015v-.006l0-.015v-.005l-.008-.051v0l0-.017v0c0-.018-.006-.035-.011-.053v0l0-.015v-.006l-.013-.069v-.005l-.013-.069v-.006c0-.005,0-.011,0-.016v0l-.01-.05v-.007l0-.016v0c0-.018-.007-.036-.011-.055s-.009-.049-.015-.074h0l0-.017v0c0-.018-.008-.036-.011-.053h0l0-.018c-.005-.025-.01-.048-.015-.072v0c0-.005,0-.011,0-.017v0l-.008-.034h0l0-.016v0l0-.016v0c0-.016-.006-.033-.01-.049v0l0-.015v0c0-.024-.009-.046-.015-.069v0c-.005-.022-.009-.046-.015-.068v0c0-.024-.01-.047-.015-.069v0c-.005-.024-.011-.047-.015-.07h0c-.01-.048-.021-.1-.031-.143h0l0-.017v0c-.005-.024-.011-.046-.015-.069h0l-.016-.069h0l-.015-.068,0,0,0-.015v0c0-.016-.007-.032-.011-.047v0l0-.015v0c0-.016-.008-.033-.012-.05h0l0-.016v0c0-.017-.008-.033-.012-.05l0-.017v0l-.017-.067v0l-.016-.066v0l-.016-.065v-.005l0-.014v0l-.013-.049h0c-.005-.022-.011-.045-.017-.068h0l0-.016v0c0-.017-.008-.033-.013-.05l-.009-.034-.008-.032v0l0-.014v0l0-.015v0c-.01-.038-.02-.077-.03-.115v0l0-.015v0c0-.016-.009-.032-.013-.048h0l0-.015v0c0-.015-.008-.031-.013-.047h0l0-.015,0-.005,0-.017-.008-.027v0l0-.012,0-.008,0-.013,0-.005c0-.014-.008-.028-.012-.042l0-.007,0-.012v-.007l-.012-.043,0-.005,0-.013,0-.005c0-.014-.007-.028-.012-.042l0-.006,0-.013v-.005l-.013-.043,0-.005,0-.013v-.006l0-.012,0-.008a.163.163,0,0,0-.005-.019l0-.01,0-.01,0-.01,0-.009,0-.01c0-.005,0-.012-.005-.017l0-.009,0-.011,0-.009,0-.011,0-.007-.006-.022v-.005l0-.011,0-.009,0-.011,0-.009-.006-.017,0-.011,0-.01,0-.008,0-.01,0-.011,0-.01,0-.017,0-.006,0-.012,0-.008,0-.011,0-.01,0-.014,0-.01,0-.014,0-.006,0-.012,0-.008-.007-.023-.005-.014,0-.009,0-.012,0-.009,0-.009,0-.013,0-.014,0-.007,0-.012,0-.007,0-.014,0,0-.005-.019,0-.005,0-.014,0-.007-.006-.019-.007-.018v0c0-.005,0-.011,0-.015l0-.006,0-.014,0-.005-.006-.019-.007-.019V165.2l-.005-.014v-.006l-.007-.018h0l-.006-.018,0-.005,0-.015v0l-.007-.018h0l-.006-.019,0-.005-.006-.015v0l-.013-.039v0l-.005-.018,0,0-.006-.019h0l-.014-.039v0c-.014-.04-.028-.082-.042-.122h0a19.4,19.4,0,0,0-1.645-3.587,3.181,3.181,0,1,0-5.481,3.231.023.023,0,0,1,0,.007c1.242,2.1,1.947,4.781,2.357,8.966a12.272,12.272,0,0,0,12.287,11.081,12.493,12.493,0,0,0,5.685-1.383,52.279,52.279,0,0,0,13.252-9.533c.048-.049.1-.1.139-.149s.1-.093.147-.142a35.635,35.635,0,0,0,9.858-18.228,12.822,12.822,0,0,0,.157-3.57,3.182,3.182,0,0,0-3.162-2.877Zm0,0" transform="translate(-253.261 -108.131)" fill="#e48d72"/><path d="M291.436,36.667a68.77,68.77,0,0,0,13.784,9c10.427,5.114,25.268,4.258,25.268,4.258a5.428,5.428,0,0,0,3.851-9.215c-7.954-8.585-21.185-14.637-36.539-15.962-12.725-.272-12.725,6.09-6.365,11.92Zm0,0" transform="translate(-208.728 -18.112)" fill="#ae2b00"/><path d="M321.954,90.68a3.181,3.181,0,0,0-1.623,5.919c1.625.962,3.3,1.869,4.985,2.694,8.8,4.316,19.8,4.961,25.57,4.961,1.372,0,2.322-.039,2.693-.056a12.1,12.1,0,0,0,1.444-.109,7.3,7.3,0,0,1,.743-.125,11.629,11.629,0,0,0,9.162-9.412,3.181,3.181,0,1,0-6.26-1.135c0,.015,0,.03-.008.045h0l0,.01v0l0,.01v0l0,.01v0l0,.009v.015l0,.009v0l0,.013v.023l0,.006v.029l0,.008v0l0,.013,0,.005v.012l0,.007v0l0,.009v0l0,.009v0l0,.01v0l0,.01v0c-.015.063-.031.126-.048.189a5.459,5.459,0,0,1-1.28,2.3h0l-.009.009-.007.009h0l-.008.009-.017.017v0l-.017.017-.006.008h0l-.008.009-.007.007-.051.051,0,0-.005.006-.009.009,0,0-.017.017-.008.007-.007.007v0l-.035.033,0,0-.007.006-.012.012,0,0-.009.009-.005,0-.009.009,0,0-.009.009-.005,0-.008.009,0,0-.006,0-.008.009,0,0-.005.005,0,0-.009.008-.006.005,0,0-.005,0-.008.009,0,0-.008.009-.006.005,0,0-.006.005,0,0-.007.008-.009.006-.008.009h0l-.008.006,0,0-.006.005h0l-.009.006h0q-.082.069-.167.135l-.019.015-.018.014h0l-.009.008a5.18,5.18,0,0,1-2.105.941c-.058.011-.114.025-.17.039s-.117.011-.174.019c-.116.016-.234.028-.353.036h-.042l-.054,0h-.334s-.934.053-2.5.053c-4.672,0-14.958-.481-22.767-4.311l-.041-.02-.025-.012-.009,0-.064-.032-.007,0-.027-.013-.007,0-.067-.033-.041-.02-.066-.033-.034-.017h0l-.1-.051-.006,0-.066-.034-.007,0-.028-.015-.006,0-.067-.033h0l-.03-.016-.008,0-.029-.015,0,0-.033-.017h0l-.031-.015-.005,0-.028-.015-.007,0a.272.272,0,0,0-.033-.017l-.032-.016-.01-.005-.023-.013-.01,0-.028-.015-.013-.005-.022-.012-.012-.006-.02-.01-.014-.007-.02-.011L327,93.023,326.958,93l-.017-.01-.014-.007-.032-.016-.013-.006-.018-.01-.011-.005-.02-.011-.009-.005-.045-.022h0l-.024-.012-.005,0-.024-.013h0l-.076-.039,0,0-.024-.013h0q-.964-.5-1.931-1.051h0l-.025-.013,0,0-.024-.014,0,0-.043-.023-.009-.006-.018-.01-.03-.017-.023-.014-.011-.006-.029-.016-.008,0-.025-.015-.009,0c-.286-.163-.572-.331-.859-.5a3.148,3.148,0,0,0-1.608-.441Zm0,0" transform="translate(-231.624 -66.027)" fill="#e48d72"/><path d="M19.086,93.59H17.268C7.83,93.59-.541,101.2.033,110.62c.012.189.027.379.044.57l-.03,16.038c-.833,11.637,9.15,21.814,24.032,26.762q1.724.573,3.452,1.131a17.868,17.868,0,0,0,23.365-17c0-12.725,0-44.536-31.81-44.536Zm0,0" transform="translate(0.002 -68.141)" fill="#ae2b00"/><path d="M201.367,79.266a11.958,11.958,0,0,1,1.419-5.521A6.392,6.392,0,0,0,200.36,65.2,79.442,79.442,0,0,1,188.1,56.19c-.274-.241-.869-.808-1.66-1.573a24.932,24.932,0,0,0-25.976-5.461c-8.172,2.3-7.891,10.085-4.174,13.713,10.21,9.742,12.227,25.253,12.626,35.484,0,6.362,4.65,9.616,6.459,10.127a70.62,70.62,0,0,0,19.088,2.6q1.349,0,2.679-.049a12.771,12.771,0,0,0,12-15.493,14.423,14.423,0,0,0-4.208-7.658,12.105,12.105,0,0,1-3.567-8.611Zm0,0" transform="translate(-111.749 -34.73)" fill="#ae2b00"/><path d="M236.458,186.828a3.182,3.182,0,0,0-2.673,4.9v0l0,.005a.352.352,0,0,0,.022.034l.008.013,0,.006.006.01,0,.005.007.009,0,0,.006.011h0c.008.014.016.027.025.04h0l.008.012v0l.007.012,0,0,.007.012h0c.012.018.022.036.033.055h0l.007.013h0a13.729,13.729,0,0,1,1.143,2.366h0c.014.038.029.077.043.116h0l.006.016h0c.009.026.02.054.03.082v0l.005.015v0l.005.015h0l.022.066v0l.005.015v0l.005.015v0l.022.065v0l.005.014v0l0,.014,0,0,0,.014,0,0,.02.063,0,.005,0,.012.009.025,0,.012,0,.007c.005.014.009.028.014.042l0,.007,0,.012,0,.008,0,.011.013.038,0,.007c0,.008.005.018.009.027v0l0,.012,0,.007,0,.011,0,.008,0,.011,0,.009.006.021,0,.008,0,.011.007.02,0,.006,0,.012,0,.008,0,.011,0,.009,0,.012,0,.008,0,.011,0,.01,0,.016,0,.012,0,.009,0,.012,0,.008,0,.011,0,.01,0,.012,0,.007,0,.014,0,.006.005.02v0c0,.006,0,.012.005.018v.005l0,.015,0,.006,0,.014,0,.008,0,.013v.007l.005.017v0l.005.02,0,.005.006.022,0,.013,0,.008a.059.059,0,0,1,0,.014l0,.007,0,.016v.005l.007.02h0l.005.019,0,.006,0,.015,0,.006,0,.015,0,.006,0,.015,0,.006c0,.014.007.028.011.041v.005l.005.017v.005a.09.09,0,0,0,0,.015l0,.007,0,.014,0,.007,0,.016v.005c0,.014.008.028.012.042v.006l0,.015,0,.006,0,.016v.006c0,.005,0,.011,0,.016v0a.171.171,0,0,1,.005.021l.006.022h0l.005.02v.005l0,.016,0,.007,0,.016v.006c0,.006,0,.012,0,.018v0c0,.015.007.03.012.045v0l.005.019v.005l0,.016v.006l0,.017v.005c0,.015.007.03.012.044v0l0,.018v0l0,.018v.005l0,.017v.005l0,.017v.005c0,.015.007.029.011.044v.005l0,.017v.006l.006.022c0,.005,0,.012,0,.017v.005c0,.006,0,.013.005.019v0l.005.022,0,.006,0,.016,0,.007,0,.015,0,.008,0,.014,0,.009,0,.014,0,.008,0,.021c0,.015.007.03.011.045l0,.01,0,.014v.005l0,.017,0,.005,0,.017v0l0,.018v0a.093.093,0,0,1,0,.019h0l.006.021v0l0,.018v0l0,.019v0c0,.006,0,.013,0,.019v0l0,.018v0a.107.107,0,0,0,0,.018V197l0,.017v0l0,.019v0a.11.11,0,0,0,0,.02v0l0,.018v0a.1.1,0,0,1,0,.018v0l0,.019v0l0,.018v0l0,.019v0l0,.019v0a.122.122,0,0,1,0,.019v0a.17.17,0,0,1,0,.019v0l0,.019v0l0,.019v0l0,.019v0l0,.019v0c0,.006,0,.014,0,.02v0l0,.02v0l0,.019v0l0,.019v0l0,.019v0l0,.019v0l0,.019v0l0,.02v0c0,.006,0,.014,0,.02v0l0,.02v0l0,.02v0l0,.02v0l0,.021h0l0,.021h0l0,.021h0l0,.021h0a.147.147,0,0,1,0,.021h0l0,.022c0,.008,0,.015,0,.022h0l0,.022h0l0,.022,0,.023h0l0,.021,0,.022h0a.151.151,0,0,1,0,.021h0a.16.16,0,0,1,0,.021h0l0,.021,0,.022h0l0,.022a12.55,12.55,0,0,1-2.54,9.18q-.3.389-.625.755a.158.158,0,0,0-.014.016h0l-.013.015h0l-.014.015h0l-.013.014,0,0-.012.014,0,0-.012.013,0,0-.012.013,0,0-.012.014,0,0-.012.013,0,0-.012.013,0,0-.012.013,0,0-.011.012-.015.015,0,0-.011.012,0,0-.011.012-.015.015,0,0-.011.012,0,0a.106.106,0,0,1-.011.011l0,0-.011.012,0,0-.01.011-.015.015-.005.006-.016.016-.007.008-.038.038-.007.008-.015.015-.007.007-.009.008-.007.007-.007.008-.068.068-.007.007-.008.007-.022.022-.009.007-.006.007-.015.015-.009.008-.031.031-.007.005-.039.039-.007.005-.015.015-.011.01,0,.005-.011.01-.005.005-.011.01,0,.005-.01.01-.005,0-.012.011,0,0-.011.01-.02.02-.012.011,0,0-.014.012v0l-.014.012,0,0-.014.012,0,0-.013.012,0,0-.014.013v0l-.014.013,0,0-.015.013h0l-.015.014h0c-.01.01-.02.018-.031.028h0l-.031.029h0l-.03.028h0q-.32.288-.66.554h0l-.033.027h0l-.033.026h0l-.016.013h0l-.016.013h0l-.016.012h0l-.015.012,0,0-.014.012h0l-.015.012h0l-.015.012h0l-.015.012,0,0-.014.011,0,0-.015.011,0,0-.015.011,0,0-.015.011,0,0-.014.011,0,0-.014.011,0,0-.015.011,0,0-.015.011,0,0-.014.01,0,0-.014.011,0,0-.014.01,0,0-.014.009,0,0-.014.009,0,0-.014.01,0,0-.015.011,0,0-.014.01-.005,0-.017.013-.014.01,0,0-.014.009-.017.013-.005,0-.013.009,0,0-.014.01,0,0-.014.009,0,0-.014.009,0,0-.014.008,0,0-.013.008-.005,0-.013.008-.005,0-.012.008-.006,0-.012.008-.005,0-.013.009-.005,0-.013.009-.005,0-.012.009-.007,0-.013.009,0,0-.013.008-.005,0-.013.008-.005,0-.013.007-.005,0-.013.009-.005,0-.013.008-.005,0-.013.007-.005,0-.012.008-.008,0-.011.007-.006,0-.012.007-.007,0-.012.007-.007,0-.011.007-.007,0-.012.007-.007,0-.011.007-.007,0-.013.007-.005,0-.013.007-.006,0-.012.009-.006,0-.012.007-.006,0-.012.007-.006,0-.012.008-.008,0-.01.007-.008,0L230,210.3l-.007,0-.012.008-.007,0-.011.006-.008.005-.011.006-.007,0-.011.006-.008.006-.011.006-.008,0-.01.006-.01.005-.009.005-.009.006-.01.006-.008.005-.011.007-.009,0-.008.006-.029.016-.01.006-.008,0-.01.006-.008.005-.019.011-.009.006-.011.006-.009,0-.01.006-.011.005-.008.005-.009,0-.011.006-.007,0-.012.006-.008,0-.012.006-.006,0-.013.007-.005,0-.013.007-.005,0-.014.007-.005,0-.014.007-.005,0-.014.006,0,0-.016.008h0l-.017.01h0l-.017.009h0q-.417.231-.85.429h0l-.019.009a12.678,12.678,0,0,1-3.905,1.074l-.022,0h0l-.068.007-.045,0h0l-.045,0h0l-.021,0h0l-.045,0h0l-.067.007h-.024l-.021,0h0l-.022,0h-.024l-.045,0h-.025l-.021,0h-.072l-.02,0h-.071l-.022,0h-.049l-.043,0h0l-.114.005h-.023q-1.33.048-2.679.049h-1.674l-.1,0h-.011l-.1,0H219.2l-.107,0h0l-.051,0h-.059l-.051,0h0l-.107,0h0l-.109,0h0l-.109,0h0l-.11,0-.056,0-.221-.007h0a71.654,71.654,0,0,1-9.319-.984l-.1-.018h-.007l-.1-.017-.006,0-.047-.007h0l-.049-.009-.01,0-.041-.007H208.5l-.047-.009-.01,0-.039-.006-.013,0-.046-.008-.013,0-.034-.005-.018,0-.033-.006-.022,0-.033-.006-.023,0-.023-.005-.036-.006-.026,0-.026-.005-.017,0-.1-.017-.012,0-.1-.019h0c-.257-.048-.513-.1-.769-.15-.058-.012-.114-.021-.172-.03s-.113-.028-.171-.039c-.265-.055-.529-.111-.792-.168h0l-.035-.007h0l-.108-.024h-.005l-.03-.006-.014,0-.022-.005-.014,0-.023-.006-.014,0-.022-.005-.036-.008-.023-.005-.013,0-.028-.007-.009,0c-.2-.044-.4-.09-.592-.136h0l-.146-.034h0l-.036-.008-.036-.008h0l-.073-.017h0l-.145-.034h0l-.072-.017h0l-.072-.018h0q-.4-.1-.806-.2h0l-.035-.01-.073-.018h0l-.032-.008-.01,0-.028-.007-.008,0-.027-.006-.012,0-.024-.007-.011,0-.025-.007-.014,0-.023-.007-.013,0-.023-.006-.014,0-.035-.009-.022-.007-.016,0-.021-.006-.014,0-.021-.006-.015,0-.021-.006-.015,0-.02-.005-.017-.005-.02-.005-.015,0-.019-.005-.017-.005-.02-.006-.016,0-.019,0-.017-.005-.019,0-.017-.005-.017,0-.019-.006-.018-.005-.017,0-.018-.005-.018,0-.019-.005-.016-.005-.018,0-.019-.005-.018-.005-.017,0-.018-.005-.018,0-.018-.005-.017-.005-.018,0-.018-.006-.019-.005-.017,0-.018-.005-.017,0-.036-.011-.017,0-.019-.005-.017-.005-.018,0-.016-.005-.02-.006-.016,0-.019-.005-.016,0-.02-.005-.019-.006-.016,0-.018-.005-.018,0-.024-.007-.047-.013-.007,0h-.009l-.007,0h-.009l-.006,0-.007,0h0l-.014,0h0l-.015-.005h0l-.007,0-.016-.005-.016,0h0l-.007,0h0l-.015-.005h0l-.016-.005-.1-.035a6.8,6.8,0,0,1-1.286-.666h0l-.079-.051-.057-.037-.022-.016c-.031-.02-.061-.042-.092-.063l-.022-.015h0a.149.149,0,0,0-.021-.015h0l-.022-.016h0l-.009-.006h0l-.011-.008-.011-.007h0l-.011-.008h0l-.011-.007,0,0-.01-.006h0l-.011-.007,0,0-.009-.005,0,0-.021-.016h0l-.011-.007-.011-.008,0,0-.009-.006h0l-.012-.007h0l-.011-.007h0l-.011-.009-.011-.007,0,0-.01-.008h0l-.011-.007,0,0-.008-.005,0,0-.01-.007,0,0-.007-.005-.013-.01h0l-.011-.007,0,0-.006-.005,0,0-.011-.008,0,0-.008-.005,0,0-.009-.006,0,0-.008,0,0,0-.008-.006,0,0-.01-.007,0,0-.007-.005,0,0-.01-.008,0,0-.007-.005-.005,0-.007-.006-.005,0-.007-.005-.005,0-.007-.006,0,0-.011-.007,0,0-.007-.006,0,0-.009-.007,0,0-.006,0,0,0-.013-.011-.007-.006,0,0-.005,0-.006-.006-.007-.006-.016-.013-.007-.006-.005,0-.007-.006,0,0-.008-.006-.005,0-.007-.005-.011-.008,0,0-.006-.005-.008-.007,0,0-.005,0-.007-.005-.007-.006-.005,0-.005-.005,0,0-.011-.008,0,0-.005-.005-.005,0-.011-.01-.008-.007-.005,0-.006-.005h0l-.013-.012,0,0-.009-.01-.021-.018,0,0-.006-.006h0l-.014-.012,0,0-.007-.006h0l-.025-.02,0,0-.022-.02,0,0-.008-.006h0l-.014-.013,0,0-.007-.005,0,0-.022-.019,0,0-.021-.019,0,0-.01-.01-.013-.011,0,0-.007-.006,0,0-.012-.011,0,0-.01-.01-.022-.02,0,0-.007-.006,0,0-.013-.012-.01-.01h0l-.022-.021,0,0-.023-.022-.011-.011-.023-.021h0l-.025-.024c-.019-.019-.039-.037-.059-.056v0l-.022-.021-.01-.01,0,0-.014-.015h0l-.007-.008h0l-.024-.024h0l-.058-.058h0l-.05-.051h0l-.033-.034h0l-.058-.06h0c-.047-.049-.094-.1-.141-.149h0l-.049-.052h0l-.082-.091h0l-.033-.036h0l-.058-.065-.024-.029c-.008-.01-.016-.019-.025-.028h0l-.058-.066h0l-.032-.039h0l-.023-.029h0l-.024-.028v0l-.032-.038-.023-.03h0l-.024-.029h0l-.032-.04h0c-.043-.054-.085-.107-.127-.162l-.032-.042-.079-.1c-.007-.011-.015-.021-.023-.032l-.055-.074v0l-.031-.042h0l-.022-.031v0l-.022-.03v0c-.01-.014-.02-.028-.03-.043v0l-.021-.03v0c-.007-.011-.015-.02-.021-.031l0,0-.029-.043,0,0-.02-.031,0,0-.02-.031-.009-.013,0,0-.013-.019v0l-.006-.009v0c-.007-.01-.014-.021-.02-.031l-.008-.013,0,0-.012-.018,0,0-.008-.013c-.006-.009-.013-.02-.02-.03l0,0-.019-.032,0,0-.005-.009,0,0c0-.005-.007-.01-.01-.017l-.009-.013,0,0-.013-.02-.007-.01,0,0-.005-.01h0l-.012-.019,0,0-.009-.013-.011-.018,0,0-.005-.01,0,0-.019-.03,0-.005-.005-.008,0,0-.011-.018-.008-.013,0,0a.207.207,0,0,1-.01-.018l0,0-.005-.008,0-.006-.005-.009-.006-.01-.006-.011,0-.006,0-.009,0-.006s-.005-.009-.007-.014l0-.006-.006-.009,0-.006c0-.005-.005-.01-.008-.015l0-.006-.005-.008,0-.006-.005-.008,0-.008-.007-.013,0-.007,0-.008,0-.007a.1.1,0,0,0-.008-.013l0-.009,0-.006,0-.008,0-.007-.007-.013,0-.009,0-.006,0-.008,0-.007-.007-.013-.009-.015-.01-.019-.011-.017,0-.007,0-.007-.007-.014-.013-.023L196.9,205l-.005-.011-.006-.009,0-.007,0-.009-.006-.01-.01-.019,0-.008-.005-.008-.005-.011-.005-.01,0-.008,0-.008,0-.007-.007-.014,0-.007,0-.008,0-.007,0-.008-.006-.014,0-.007,0-.008,0-.008-.007-.013,0-.007-.005-.01,0-.006-.005-.01-.018-.036,0-.007-.006-.015,0-.005-.008-.017-.008-.014,0-.006-.007-.011-.008-.017,0-.005-.027-.053,0-.005-.018-.036-.005-.013-.019-.038,0-.006-.009-.017-.006-.016,0-.006,0-.011,0-.007-.009-.017-.006-.014,0-.006-.005-.012,0-.006-.006-.016,0-.005-.005-.012,0-.006-.007-.016,0,0-.005-.013,0-.006,0-.012,0,0a3.181,3.181,0,0,0-5.8,2.606c2.2,4.9,6.382,8,9.548,8.9q2.533.716,5.158,1.256c.063.013.125.025.188.033s.123.031.186.043a77.9,77.9,0,0,0,15.286,1.506q1.467,0,2.914-.053a19.12,19.12,0,0,0,14.5-7.51,18.894,18.894,0,0,0,3.468-15.76,21.325,21.325,0,0,0-2.84-6.986A3.181,3.181,0,0,0,236.458,186.828Zm0,0" transform="translate(-138.383 -135.89)" fill="#e48d72"/><path d="M422.43,162.238a3.21,3.21,0,0,0-3.068,2.277l-.076.251c-.012.039-.023.079-.033.118s-.032.088-.047.132c-1.961,6.041-7.123,11.666-14.534,15.84a3.181,3.181,0,0,0,3.112,5.549c8.666-4.877,14.96-11.67,17.477-19.434.016-.048.03-.1.043-.144s.031-.089.046-.133l.013-.043v0c.034-.112.068-.223.1-.335v0c0-.015.01-.031.014-.046a3.164,3.164,0,0,0-3.049-4.027Zm0,0" transform="translate(-292.864 -118.022)" fill="#8e1600"/><path d="M366.856,69.816s0-.009-.005-.012l-.005-.012h0c0-.007-.007-.015-.011-.022h0s0-.007-.006-.012l-.005-.011h0a.09.09,0,0,1-.006-.012.045.045,0,0,0-.005-.012l-.021-.047-.007-.012c-.064-.138-.135-.273-.213-.408l-.007-.012h0l-.006-.011-.007-.012-.006-.011h0a.056.056,0,0,0-.007-.011h0a.09.09,0,0,1-.006-.011h0a.041.041,0,0,0-.006-.01v0l-.005-.01,0,0-.006-.01h0l-.005-.01v0l-.006-.01h0a.037.037,0,0,0-.005-.011h0l-.006-.01v0a.092.092,0,0,0-.006-.01v0l-.006-.01h0l-.006-.01v0l-.006-.01v0l-.007-.009v0l-.006-.01v0a.043.043,0,0,1-.007-.01h0a.03.03,0,0,0-.007-.01v0l-.007-.01v0l-.007-.01h0l-.005-.01,0,0-.006-.01h0l-.006-.01v0l-.006-.01h0l-.007-.01v0l-.006-.01h0a.072.072,0,0,0-.008-.011h0a.067.067,0,0,0-.007-.011l-.008-.011h0c-.041-.06-.083-.119-.127-.178l-.008-.011h0l-.008-.01h0l-.008-.01v0l-.007-.01h0l-.007-.01v0s0-.006-.007-.009v0l-.008-.007v0l-.007-.007,0,0-.006-.009,0,0-.007-.007,0,0-.007-.007,0,0-.006-.009,0,0-.006-.007,0,0-.006-.007,0,0-.006-.007,0,0-.006-.007,0,0-.006-.007,0,0-.006-.007,0,0-.005-.006,0,0-.006-.006,0,0-.007-.006,0,0-.006-.006,0,0-.005-.006,0,0-.005-.006,0,0-.006-.006,0,0L366,68.43l0,0-.006-.006,0,0-.006-.006,0,0-.005-.006,0,0-.005-.006,0,0-.006-.006,0,0-.005-.007,0,0-.005-.006-.01-.01,0,0-.006-.006,0,0-.006-.006,0,0-.007-.006,0,0-.005-.006,0,0-.01-.01-.006-.007,0,0-.005-.006,0,0-.005-.006,0,0-.006-.006,0,0-.006-.007,0,0-.007-.008,0,0-.008-.008,0,0s-.006,0-.007-.007l0,0-.01-.011-.021-.022-.007-.007-.013-.015-.021-.021a.147.147,0,0,0-.018-.02L365.7,68.1l-.013-.014-.006-.006c-.092-.1-.185-.2-.279-.295h0l-.021-.022-.014-.015-.005-.005-.02-.021-.172-.177c-.028-.028-.056-.056-.084-.082s-.068-.075-.1-.111a41.206,41.206,0,0,0-4.158-3.667h0l-.121-.092h0l-.079-.06,0,0-.078-.06h0c-.013-.009-.023-.018-.035-.027l-.007-.005-.076-.057-.007-.005-.034-.026,0,0-.037-.029-.007-.005-.031-.023-.008-.006-.036-.027,0,0-.032-.023-.012-.01-.026-.019-.01-.007a3.181,3.181,0,0,0-3.792,5.109,35.919,35.919,0,0,1,3.342,2.8h-.283c-3.759,0-13.229-.357-19.966-3.661q-2.046-1-4.107-2.22a3.181,3.181,0,0,0-3.29,5.446l.049.029q.426.253.852.5l.008.005.025.015.008,0,.029.016.01.006.024.014.015.009.014.007.018.011.011.006.043.024,0,0,.024.014.005,0,.024.014h0q.968.548,1.932,1.051h0l.025.013,0,0,.076.04,0,0,.024.012.005,0,.024.012.046.023.009.005.02.011.011.005.018.01.013.006c.011.005.021.012.032.016l.014.007.017.01.013.006.019.01.013.006.025.013.02.012.014.006.019.01.012.006.022.011.013.006.029.015.008,0,.024.013.01,0,.028.014,0,0,.033.016.034.017.005,0,.031.016h0l.033.017,0,0,.028.015.009,0,.031.016h0l.067.034.006,0,.028.014.005,0,.067.034.005,0,.1.051h0l.032.016h0l.066.033.009,0,.028.014,0,0,.066.033.006,0,.027.013.009,0,.064.031.01.005.032.016.032.016c7.809,3.831,18.1,4.311,22.768,4.311h.356c1.268-.007,2.046-.048,2.136-.053h.339a.017.017,0,0,0,.007,0h.364c.034,0,.067-.008.1-.013h0l.023,0h0l.01,0h0l.009,0h0l.01,0h0l.01,0h.118l.009,0h0l.008,0h0l.008,0h0l.013,0H363l.013,0h0l.009,0h.016l.009,0h0l.008,0h0l.026-.006h.008l.013,0h0l.009,0h0l.009,0h0l.009,0h0l.009,0h.015l.009,0h0l.01,0h0l.01,0h0l.011,0h0l.024-.006c.114-.027.228-.058.338-.092h0l.012,0,.035-.011.047-.016h0c.016-.005.031-.01.046-.016h0l.023-.008h0l.011,0h0l.011,0h0a5.139,5.139,0,0,0,2.022-1.3l.007-.009.008-.009.008-.009.008-.009.008-.009.008-.008h0l.008-.009.007-.007h0l.007-.009.008-.009a.1.1,0,0,0,.015-.017h0l.007-.008h0l.007-.009h0l.006-.007h0l.007-.007h0l.007-.007h0s0-.005.008-.007v0l.006-.006v0l.006-.006,0,0,.005-.006,0,0,.005-.006,0,0,.006-.006v0l.007-.007h0l.006-.007h0l.006-.009h0l.006-.009.007-.008v0l.007-.007.007-.009h0l.014-.017h0l.028-.034,0,0,.055-.068,0,0,.005-.007,0,0,.005-.006,0,0a.018.018,0,0,1,.005-.008l0,0,0-.005,0,0,0,0,0-.005,0,0,0,0,0-.005,0,0,0-.005.007-.009,0,0,0-.005a.011.011,0,0,0,0-.005l0,0,0,0,0,0,0-.005,0,0,0-.005,0,0,0-.005,0,0,0,0,.007-.011,0,0,0-.005,0,0,0-.005,0,0,0-.005,0,0,0-.005,0,0,0-.005,0,0,.005-.006,0,0,0-.006,0,0,.005-.006v0l.006-.006.008-.013.006-.006.015-.022.005-.006.008-.013.006-.007v0l.005-.007v0l.005-.007v0l.005-.007v0l.006-.009h0l.006-.01.007-.01a5.523,5.523,0,0,0,.6-1.2l0-.011,0-.011h0l0-.01v0s0-.006,0-.01h0l0-.01v0l0-.009v0l0-.01v0l0-.008v0l0-.01v0l0-.01h0l0-.01v0l0-.009v0l0-.009v0l0-.01v0l0-.009v0l0-.009v0l0-.009v0l0-.009v0l0-.009v0a.019.019,0,0,0,0-.008v0l0-.009v0l0-.008v0l0-.007v0l0-.009v0l0-.009v0l0-.009v0l0-.008v0l0-.009v0l0-.009v0l0-.008v0l0-.009v0l0-.009v0l0-.007v0l0-.007v0l0-.007,0-.006v-.005l.007-.022v0l.007-.021v0l0-.01v0l0-.007v0l0-.007v0l0-.007v0a.019.019,0,0,0,0-.008v0l0-.009v0s0-.005,0-.009v0l0-.008v0l0-.007v-.012l0-.013v0l0-.007v0l.005-.021v0s0-.006,0-.009v0a.019.019,0,0,1,0-.008v0a.066.066,0,0,1,0-.009v0l0-.008v0l0-.009v0l0-.007v-.016l0-.007v0s0-.005,0-.008V73.11a.045.045,0,0,0,0-.007v0l0-.007v-.016l0-.009v0l0-.01v0l0-.01v0l0-.01v-.013h0l0-.01V72.98a.046.046,0,0,1,0-.01v0s0-.006,0-.011h0l0-.011h0v-.012h0a.156.156,0,0,0,0-.022h0c.02-.12.036-.239.048-.361.006-.064.012-.129.016-.193h0A5.438,5.438,0,0,0,366.856,69.816Zm0,0" transform="translate(-240.177 -45.597)" fill="#8e1600"/><path d="M240.28,124.586a3.291,3.291,0,0,0-3.069,2.1l-.006.016-.006.015-.012.022a18.214,18.214,0,0,0-2.136,8.457,18.415,18.415,0,0,0,5.428,13.108,8.1,8.1,0,0,1,2.506,4.582,6.157,6.157,0,0,1-1.162,5.174,6.431,6.431,0,0,1-4.875,2.539q-1.214.045-2.444.045a63.881,63.881,0,0,1-17.112-2.289,4.88,4.88,0,0,1-2.078-4.322l-.052-1.191a3.161,3.161,0,0,0-3.158-3.025c-.053,0-.107,0-.16,0a3.2,3.2,0,0,0-3.037,3.335c.019.381.035.756.05,1.125v.129h0v.422a.106.106,0,0,0,0,.017v.294l0,.017v.067c0,.011,0,.021,0,.033v.123l0,.017v.1a.16.16,0,0,1,0,.021v.021l0,.026v.039l0,.017c0,.011,0,.021,0,.033v.007l0,.026v.055l0,.017a.09.09,0,0,0,0,.018v.085l0,.017v.07l0,.01v.005l0,.011v.005l0,.011v0l0,.011v0a.188.188,0,0,0,0,.025v.028l0,.016v0l0,.016v.029l.007.04v.018l0,.011v0l0,.01v.021l0,.011v0l.01.053v0l0,.013v0l0,.012v0l0,.012v0l0,.012v0l0,.013h0l.01.057,0,.013v0l0,.013h0l0,.013v0l.016.085h0s0,.008,0,.014l0,.014h0l0,.013v0l0,.013h0l.016.085h0l0,.014h0l0,.013h0c.007.029.012.057.018.084h0l.007.028h0c.007.032.014.065.021.1l0,.013h0c.017.075.035.15.054.222h0a10.938,10.938,0,0,0,2.62,4.825l.007.007h0l.007.007h0l.006.007,0,0,.035.037.007.008h0l.007.008.007.007h0l.044.045h0l.008.006h0l.005.006,0,0,.042.044,0,0,0,.005,0,0,.005.005,0,0,.005.005h0l.006.007v0l.019.019.01.01,0,.005,0,0,.012.012,0,.005,0,0,.009.008.016.016,0,0,.006.005,0,0,.032.032.006.005,0,0,.008.009h0l.033.033.005,0,.019.019.016.015.016.016,0,0,.015.015.042.039h0l.008.006,0,0,.015.014h0l.033.031h0l.008.006.01.01.049.045.008.009h0l.008.006h0a8.48,8.48,0,0,0,2.589,1.67l.012,0h0l.01,0h0l.01,0h0l.007,0,0,0h0l.007,0,.005,0,.007,0h0l.016.006h0l.006,0h0l.008,0h0l.008,0h0l.008,0h0l.008,0h0l.009,0h0l.01,0h0l.008,0,.01,0h0l.009,0h0l.008,0h0l.009,0h0l.009,0h0l.01,0h0l.008,0a70.621,70.621,0,0,0,19.088,2.6q1.349,0,2.679-.049h.022l.114-.005h0l.044,0h.049l.021,0h.071l.021,0h.071l.022,0h.024l.046,0h.024l.021,0h0l.022,0h.024l.022,0,.024,0,.022,0,.046,0,.022,0h0l.021,0h0l.045,0h0l.022,0,.068-.007.022,0a12.678,12.678,0,0,0,3.905-1.074h0l.019-.009h0c.289-.133.573-.277.85-.429h0l.017-.01h0l.017-.01h0l.016-.009,0,0,.013-.006.006,0,.013-.007.005,0,.014-.008.005,0,.013-.007.006,0,.012-.006.007,0,.012-.006.006,0,.012-.006.008,0,.01-.006.009,0,.009-.005.009-.006.01-.005.009,0,.01-.007.009-.005.019-.011.008-.006.01-.006.009,0,.01-.006.008-.005.019-.011.01-.006.008,0,.011-.006.008-.005.011-.006.008-.005.01-.005.008-.005.01-.006.008,0,.011-.006.007-.005.01-.006.008,0,.011-.006.007-.005.012-.006.007,0,.011-.007.007,0,.012-.007.008,0,.011-.007.009,0,.01-.007.007,0,.012-.008.006,0,.012-.008.006,0,.013-.008.007,0,.012-.007.006,0,.012-.007.006,0,.012-.007.007,0,.011-.007.008,0,.011-.008.006,0,.012-.008.006,0,.012-.008.006,0,.012-.007.008,0,.01-.007.006,0,.012-.007.006,0,.012-.009.006,0,.012-.008.007,0,.012-.007.005,0,.013-.009.005,0,.013-.009.005,0,.013-.009.005,0,.013-.009,0,0,.014-.01,0,0,.013-.009.005,0,.012-.009.007,0,.012-.007.005,0,.013-.008.005,0,.013-.009.005,0,.013-.008.005,0,.013-.009,0,0,.014-.01,0,0,.014-.01,0,0,.013-.009.005,0,.013-.009,0,0,.014-.009.017-.013,0,0,.014-.01,0,0,.014-.01,0,0,.014-.011,0,0,.015-.011,0,0,.014-.01,0,0,.014-.01,0,0,.015-.011,0,0,.014-.011,0,0,.014-.011,0,0,.015-.011,0,0,.015-.011,0,0,.015-.011,0,0,.014-.011,0,0,.015-.011,0,0,.015-.011,0,0,.015-.011,0,0,.015-.011,0,0,.016-.012h0l.015-.012h0l.015-.012,0,0,.014-.011,0,0,.015-.012h0l.016-.012h0l.016-.013h0l.016-.012h0l.033-.026h0l.033-.026h0q.34-.266.66-.553l0,0,.031-.027h0l.031-.028h0l.031-.028,0,0,.014-.013h0l.015-.013,0,0,.014-.012v0l.014-.013,0,0,.013-.013,0,0,.013-.012,0,0,.013-.012.015-.015,0,0,.012-.011.02-.02.011-.01.015-.015.005,0,.011-.011.005,0,.015-.015.01-.01,0-.005.011-.01.005-.005.01-.009.006-.006.01-.008.021-.021.01-.008.021-.022.01-.008.067-.067.008-.007.015-.015.007-.009.052-.052.008-.009.007-.007.009-.007.007-.007.008-.01.03-.03.006-.008.024-.023.006-.007.008-.009.005-.006.015-.015.01-.011.015-.015,0-.005.015-.015.011-.012,0,0,.011-.012,0,0,.011-.012,0,0,.011-.012.015-.015,0,0,.011-.012,0,0,.012-.013,0,0,.012-.013,0,0,.012-.014,0,0,.012-.013,0,0,.013-.013,0,0,.012-.013,0,0,.013-.014,0,0,.013-.014h0l.013-.015h0l.014-.015.014-.016a12.6,12.6,0,0,0,3.166-9.934l-.006-.045,0-.023h0l0-.021h0l0-.021h0l0-.021h0l0-.021h0l0-.023,0-.021h0l0-.022,0-.022,0-.022h0c0-.006,0-.014,0-.021h0l0-.021h0l0-.021h0l0-.021h0l0-.021v0l0-.02v0c0-.007,0-.013,0-.02v0l0-.02v0l0-.02v0l0-.02v0l0-.019v0l0-.019v0l0-.019v0l0-.019v0l0-.019v0l0-.019v0l0-.019v0l0-.02v0c0-.005,0-.013,0-.018v0c0-.005,0-.013,0-.019v0l0-.019v0l0-.019v0l0-.019v0l0-.019v0l0-.019v0l0-.018v0c0-.006,0-.012,0-.019v0l0-.018v0l0-.018v0a.1.1,0,0,0,0-.019v0l0-.019v0l0-.018v-.005l0-.018v0c0-.005,0-.012,0-.018v0l0-.019v0l0-.019v0a.128.128,0,0,1,0-.019v0c0-.008,0-.014,0-.022a.149.149,0,0,1,0-.02v0l0-.018v0l0-.017v-.005a.091.091,0,0,1,0-.017v-.005l0-.013,0-.011-.01-.045a14.43,14.43,0,0,0-4.207-7.658,12.1,12.1,0,0,1-3.567-8.611,11.941,11.941,0,0,1,1.419-5.522c.032-.061.062-.124.089-.187.016-.03.032-.06.047-.09.056-.12.107-.24.155-.361v0l.005-.013c.03-.077.059-.155.086-.233h0c.037-.107.072-.214.1-.321a3.077,3.077,0,0,0-1.975-3.7A3.254,3.254,0,0,0,240.28,124.586Zm0,0" transform="translate(-151.793 -90.664)" fill="#8e1600"/><path d="M14.561,204.871a9.547,9.547,0,0,0-8.347,14.158,25.411,25.411,0,0,0,3.158,4.448h0l.046.051h0l.069.078h0l.046.051h0l.046.051v0l.046.05h0l.069.078h0l.047.05v0l.119.129.047.051h0c.015.017.031.033.047.05l0,0c.015.017.031.033.047.05h0l.022.025h0l.047.05,0,0c.015.016.031.032.046.049l0,0,.046.049,0,0,.047.049,0,0,.021.023h0l.023.026.027.027.047.049,0,0,.022.023h0l.025.025v0l.026.026.023.025.023.023,0,0,.047.048,0,0,.047.048,0,0,.049.048v0l.022.022,0,0,.048.047,0,0,.048.049,0,0,.049.048.025.025,0,0,.025.025.025.025h0l.049.048,0,0,.048.047,0,0,.022.021,0,0,.025.023.028.028a.248.248,0,0,1,.025.023l.025.022,0,0,.048.047,0,0,.023.022h0l.026.023,0,0,.021.021,0,0,.026.024h0l.023.022,0,0,.049.047,0,0,.049.046,0,0a.272.272,0,0,0,.025.024h0l.027.024h0l.025.023h0l.051.048,0,0,.05.047,0,0,.05.047,0,0,.023.022,0,0,.051.047,0,0,.051.047,0,0,.051.047,0,0,.026.023.027.023,0,0,.025.022h0l.051.047,0,0,.051.046,0,0,.053.047.027.025h0l.053.048h0l.053.047,0,0,.053.047,0,0c.018.015.036.031.053.047h0l.026.022h0l.054.047,0,0,.054.047h0l.083.07h0l.054.047h0l.056.047h0l.056.047h0l.085.07h0l.057.047h0l.056.046,0,0,.141.116,0,0,.056.045,0,0,.056.045h0l.058.047.029.024.059.047.058.046h0l.087.07h0l.058.046h0l.058.045,0,0,.058.045v0l.058.045h0l.027.021,0,0,.057.044,0,0,.057.044,0,0,.058.045.15.115h0a46.041,46.041,0,0,0,12.376,6.579h0l.2.073h0l.079.028h0l.08.029.082.029h0l.04.014h0l.08.028,0,0,.078.027.006,0,.036.013h0l.038.014.006,0,.034.012.005,0,.04.013h0l.037.012.006,0,.076.026.01,0,.036.012h0l.037.013.009,0,.034.012h0l.037.013.007,0,.033.012.045.015.005,0,.033.01.009,0,.037.012.123.042.014,0,.11.036.019.007.106.035.021.006.1.034.023.007.1.035.03.01.1.033.032.01.093.031.032.011.088.029.041.014.084.028.05.016.076.024.058.019.081.027.045.014.074.024.053.017.072.024.065.021.057.019.072.022.054.018.075.025.041.013.084.028.037.012.123.041.02.007.1.032.019.006.106.034.009,0c2.622.85,5.253,1.674,7.88,2.508l.156.048.163.053.044.014.295.094A9.543,9.543,0,0,0,44.557,220.2h-.005l-.34-.109c-.057-.017-.112-.035-.169-.051l-.171-.057-2.186-.692c-2.648-.838-5.3-1.675-7.931-2.552-6.76-2.247-10-5.428-10.841-6.953a9.539,9.539,0,0,0-8.353-4.914Zm0,0" transform="translate(-3.653 -149)" fill="#8e1600"/><path d="M204.26,272.953a6.364,6.364,0,0,0-2.05,12.388l.093.031.037.013.025.008.022.007.027.009.028.01.032.011.02.007.03.01.017.005.043.015.017.006.03.009.018.007.043.014.015.005.033.011.017.006.041.013.005,0,.047.015.014.005.036.012.013,0,.046.015.012,0,.038.013.013,0,.047.015.007,0,.041.014.013,0,.1.031.011,0,.045.015,0,0,.049.016.008,0,.045.014.005,0,.051.016h0l.047.015.007,0,.1.032.006,0,.1.033h0l.051.016h0l.1.033h0l.1.033h0l.1.032h0a72.915,72.915,0,0,0,9.1,2.176l.524.089h0l.115.019h0l.115.02h0l.174.028h0l.114.019h0l.113.018h0l.057.009h0l.114.017h0l.114.017h0l.112.017h.006l.051.007h.005l.057.008h0l.06.009.11.017h.01l.11.016.06.009h0l.055.008h.007l.05.008h.005l.058.008h0l.055.007h.007l.111.015h.007l.052.007h0l.057.007h.006l.048.007h.009l.055.007h.005l.05.007.009,0,.109.014.011,0,.052.007h0l.055.006.01,0,.047.005h.008l.053.008h.011l.046.007h.011l.054.008h0l.053.008h.012l.05.006h0l.053.006h.012l.046.006h.01l.053.006h.009l.046.006h.013l.052.006h.006l.048.007h.014l.052.006.055.006.014,0,.046.005.007,0,.053.006h.013l.043.006.013,0,.053.006h.008l.047.006h.013l.109.013.011,0,.05.005h.006l.054.007h.011l.046.005h.011l.054.006h.007l.047.005h.013l.055.007h0l.051.005.014,0,.049.005h0l.053.005h.015l.044.005.064.006h.01l.046.005h.012l.055.006h.006l.048.005h.013l.052.005h0l.054.005h.013l.045,0h.011l.054.007h.012l.045,0h.012l.054.005h.007l.047,0,.015,0,.108.009.014,0,.048,0h.005l.055.005h.011l.047,0h.009l.056.005h.006l.05.005h.01l.112.011h.009l.054.005h0l.058.005h.007l.051,0h.007l.058.005h0l.053,0h.007l.113.009h.01l.114.01h.005l.118.009h0l.058.006h0l.119.009h0l.118.01h0l.119.009.06.005h0l.118.009h.005l.118.008h0l.12.008q1.038.077,2.086.125c.057,0,.112,0,.169.005s.113.008.17.01h.07a.209.209,0,0,0,.031,0h.057l.039,0h.017l.057,0h.018l.041,0h.019l.039,0h.018l.044,0h.014l.051,0h.007l.122,0h0l.057,0h.068l.058,0h0l.246.007h0l.057,0h0l.245.007h.125l.246.005h.127l.185,0h2.374q.974-.013,1.94-.049a6.362,6.362,0,0,0-.248-12.719c-.08,0-.16,0-.24,0q-1.25.047-2.515.046-1.431,0-2.839-.059l-.146-.005-.147-.007a61.855,61.855,0,0,1-17.064-3.166,6.36,6.36,0,0,0-2.051-.34ZM271.491,257.8a6.352,6.352,0,0,0-5.035,2.467,30.4,30.4,0,0,1-3,3.319c-.031.029-.061.059-.091.089l-.094.086a43.951,43.951,0,0,1-13.718,8.5,6.363,6.363,0,0,0,4.73,11.814,56.406,56.406,0,0,0,17.727-11.064l.12-.116.127-.118,0,0,.034-.033,0,0,.031-.03,0,0,.071-.067,0,0,.071-.069,0,0,.034-.033h0l.071-.069h0a43.114,43.114,0,0,0,3.478-3.823l0,0,.059-.074,0,0,.029-.036.03-.038h0l.028-.035,0,0,.057-.072.006-.008.026-.032,0,0,.027-.035.007-.008.022-.029.006-.008.026-.033.007-.009.02-.026.009-.011.021-.028.008-.012c.008-.008.015-.018.021-.027l.011-.013c.005-.007.011-.015.017-.022l.007-.011a6.363,6.363,0,0,0-5.026-10.257Zm0,0" transform="translate(-143.797 -187.461)" fill="#e48d72"/><g transform="translate(6.363 12.725)"><path d="M42.36,123.226c0-3.514-4.273-6.362-9.543-6.362s-9.544,2.848-9.544,6.362,4.273,6.362,9.544,6.362S42.36,126.739,42.36,123.226Zm0,0" transform="translate(-23.273 -97.777)" fill="#d65128"/><path d="M121.41,141.444c-1.423-1.425-3.412-1.745-4.44-.717s-.709,3.017.713,4.44,3.412,1.746,4.441.718S122.834,142.868,121.41,141.444Zm0,0" transform="translate(-90.917 -114.679)" fill="#d65128"/><path d="M205.27,76.679c0-3.513-4.273-6.362-9.544-6.362s-9.543,2.849-9.543,6.362,4.273,6.363,9.543,6.363S205.27,80.193,205.27,76.679Zm0,0" transform="translate(-141.648 -63.955)" fill="#d65128"/><path d="M285.636,120.045a3.181,3.181,0,1,1-3.181-3.181A3.182,3.182,0,0,1,285.636,120.045Zm0,0" transform="translate(-209.289 -97.777)" fill="#d65128"/><path d="M332.179,50.228A3.181,3.181,0,1,1,329,47.047,3.18,3.18,0,0,1,332.179,50.228Zm0,0" transform="translate(-243.108 -47.047)" fill="#d65128"/><path d="M378.726,166.592a3.181,3.181,0,1,1-3.181-3.181A3.181,3.181,0,0,1,378.726,166.592Zm0,0" transform="translate(-276.93 -131.599)" fill="#d65128"/></g></svg>