<svg id="OBJECTS" xmlns="http://www.w3.org/2000/svg" width="353.4" height="154.976" viewBox="0 0 353.4 154.976">
  <g id="Group_29" data-name="Group 29" transform="translate(0 0)">
    <g id="Group_3" data-name="Group 3" transform="translate(0 63.32)">
      <path id="Path_2" data-name="Path 2" d="M106.519,359.284c4.35-5.343,5.54-15.4,3.482-21.275-1.066-3.041-3.039-5.773-3.591-8.948-.862-4.958,1.888-9.787,2.463-14.787a17.479,17.479,0,0,0-3.5-12.553,3.243,3.243,0,0,0-.963-.916c-1.288-.7-2.936.516-3.251,1.946a7.363,7.363,0,0,0,.812,4.244c1.243,3.06,2.435,6.345,1.839,9.593-.8,4.372-4.754,8.234-3.757,12.566a19.8,19.8,0,0,0,1.158,2.974,14.5,14.5,0,0,1,.514,9.393c-.82,2.867-2.5,5.395-3.821,8.069-1.4,2.843-2.6,6.665-1.2,9.694Z" transform="translate(-51.815 -267.629)" fill="#93c4d2"/>
      <path id="Path_3" data-name="Path 3" d="M52.446,354.518c3.881,3.621,3.133,7.217,4.039,11.731H69.14c-.25-5.178-2.658-10.185-5.737-14.431a23.3,23.3,0,0,0-6.216-6.218c-3.973-2.505-9.185-3.275-12.112-6.949-1.692-2.123-2.312-4.876-3.35-7.384A23.043,23.043,0,0,0,30.255,319.3a7.025,7.025,0,0,0-4.482-.809c-1.505.358-2.816,1.89-2.42,3.387a4.045,4.045,0,0,0,1.232,1.786c4.566,4.384,11.706,6.922,13.274,13.056.543,2.126.29,4.41.963,6.5C40.669,348.949,48.042,350.41,52.446,354.518Z" transform="translate(-23.282 -274.594)" fill="#93c4d2"/>
      <path id="Path_4" data-name="Path 4" d="M65.6,293.734c1.795,3.784,5.5,6.572,6.6,10.612,1.114,4.081-.7,8.321-1.127,12.529-.685,6.741,2.251,13.114,5.81,18.646.443.688.941,1.591,1.5,2.506H88.44c0-.194-.007-.388-.017-.581a30.257,30.257,0,0,0-3.031-11.789c-1.006-2.056-2.246-4-3.126-6.112-3.648-8.76-.635-18.955-2.965-28.154-1.057-4.175-3.181-7.994-4.625-12.051-2.033-5.711-2.7-11.814-4.389-17.634s-4.707-11.649-9.959-14.675a3.191,3.191,0,0,0-2.715-.517c-1.24.514-1.458,2.167-1.342,3.5a18.75,18.75,0,0,0,1.738,6.4c1.885,3.969,5.15,7.242,6.522,11.416C67.261,276.144,61.852,285.832,65.6,293.734Z" transform="translate(-36.202 -246.371)" fill="#aad8d8"/>
      <path id="Path_5" data-name="Path 5" d="M84.987,338.408a.311.311,0,0,1-.3-.227,27.219,27.219,0,0,0-3.1-6.406,19.178,19.178,0,0,1-3.367-15.523c.113-1.106.23-2.25.285-3.367l.026-.524c.182-3.624.371-7.372-1.292-10.439-2.383-4.393-5.084-9.373-5.489-14.762a37.918,37.918,0,0,1-.005-4.173c.019-.533.038-1.065.049-1.6.195-10.183-3.232-18.956-9.4-24.069a.311.311,0,0,1,.4-.479c6.317,5.234,9.826,14.186,9.627,24.561-.01.536-.03,1.072-.049,1.608a37.271,37.271,0,0,0,0,4.1c.4,5.256,3.063,10.173,5.416,14.512,1.746,3.221,1.553,7.057,1.367,10.767l-.026.523c-.056,1.133-.173,2.285-.287,3.4a18.594,18.594,0,0,0,3.282,15.142,27.643,27.643,0,0,1,3.165,6.556.311.311,0,0,1-.3.4Z" transform="translate(-38.567 -250.447)" fill="#fff"/>
    </g>
    <g id="Group_5" data-name="Group 5" transform="translate(39.049 17.685)">
      <path id="Path_6" data-name="Path 6" d="M166.527,377.748l.27,7.952h-3.624l-.811-10.116Z" transform="translate(-116.846 -251.384)" fill="#ff9895"/>
      <path id="Path_7" data-name="Path 7" d="M130.812,177.252a4.043,4.043,0,0,1,.549-3.185,2.064,2.064,0,0,1,.482-.532c.449-.327,1.057-.361,1.516-.671a5.027,5.027,0,0,0,.634-.593,3.593,3.593,0,0,1,4.214-.482,1.336,1.336,0,0,0,.364.179,1.553,1.553,0,0,0,.862-.2,2.133,2.133,0,0,1,2.389.719,5.512,5.512,0,0,0,.78,1.127c.4.326.973.367,1.366.7a2.336,2.336,0,0,1,.61,1.525,6.2,6.2,0,0,1,.081,1.644,9.591,9.591,0,0,0-.448,2.5,5.148,5.148,0,0,1,.13.8,1.706,1.706,0,0,1-.626,1.16c-.331.306-.718.553-1.023.886-.176.193-.324.412-.517.587a2.147,2.147,0,0,1-1.771.438,5.817,5.817,0,0,1-1.754-.671q-1.935-1.006-3.771-2.191a13.366,13.366,0,0,0-1.738-1.107,3.758,3.758,0,0,1-1.269-.784A4.038,4.038,0,0,1,130.812,177.252Z" transform="translate(-104.434 -171.317)" fill="#001e51"/>
      <path id="Path_8" data-name="Path 8" d="M128.9,372.778l-1.427,7.828-3.541-.771,1.359-10.057Z" transform="translate(-101.781 -249.108)" fill="#ff9895"/>
      <path id="Path_9" data-name="Path 9" d="M106.294,387.188l14.854,2.229a4.4,4.4,0,0,0,.057-2.563c-.428-1.158-.262-1.9-.843-2.041s-.9.522-1.541.426-1.1-1.041-2.2-.658a22.657,22.657,0,0,1-5.821,1.369C108.2,386.161,107.016,385.656,106.294,387.188Z" transform="translate(-94.869 -254.875)" fill="#5658bc"/>
      <rect id="Rectangle_2" data-name="Rectangle 2" width="3.76" height="7.573" rx="0.698" transform="matrix(0.748, -0.664, 0.664, 0.748, 0, 14.955)" fill="#001e51"/>
      <path id="Path_10" data-name="Path 10" d="M150.123,280.986c-.649-8.439.776-24.418-1.623-31.916H130.433s-1.515,15.038-2.921,26.723-2.056,18.5-2.272,22.5-2.38,27.589-2.38,28.13,3.354,1.623,6.492,1.3c0,0,3.679-18.609,4.111-29s1.082-14.389,1.3-15.038,5.41-13.2,5.41-13.2,1.948,14.931,2.056,22.18,3.57,36.244,3.57,36.244a7.585,7.585,0,0,0,5.843,0S150.772,289.425,150.123,280.986Z" transform="translate(-101.362 -201.794)" fill="#454869"/>
      <path id="Path_11" data-name="Path 11" d="M94.99,197.692l1.478,1.667a.55.55,0,0,1-.046.776l-1.931,1.713s.612-1.044.5-1.477-.709-.325-.709-.325.351-.838,0-1.028a.831.831,0,0,0-.865.216c-.054.081.406-1.19,0-1.326s-1.867,2.082-2.056,2.543a.8.8,0,0,0,.351.919c.162.136.162.649.514.758s.728.054.688.216a1.07,1.07,0,0,0,.665.811c.378.108,1.108-.406,1.947.541s14.153,12.769,16.752,12.834c1.407.035,4.045-5.3,4.045-5.3l-4.31-1.291-1.033,1.569s-7.447-5.431-10.152-7.162-3.354-2.7-3.462-3.461a8.731,8.731,0,0,0-.865-2.7s-.882-.657-1.509-.493" transform="translate(-88.995 -181.645)" fill="#ff9895"/>
      <path id="Path_12" data-name="Path 12" d="M139.346,198.005a43.1,43.1,0,0,1,4.792,1.549c1.876.793,4.4,1.587,4.8,1.911s2.777,8.619,3.065,9.773a11.566,11.566,0,0,1-4.4,2.02,72.149,72.149,0,0,0,.793,8.943c.649,3.462,1.731,7.646,1.731,7.646s-9.232,1.37-15,.865l-5.77-.5a9.228,9.228,0,0,0,.577-5.049c-.361-3.318-.577-13.344-.577-13.344s-1.659.577-4.833-2.164c0,0,2.532-8.006,3.755-8.872s6.193-1.731,6.193-1.731Z" transform="translate(-102.013 -181.778)" fill="#5658bc"/>
      <path id="Path_13" data-name="Path 13" d="M139.346,198.005a43.1,43.1,0,0,1,4.792,1.549c1.876.793,4.4,1.587,4.8,1.911s2.777,8.619,3.065,9.773a11.566,11.566,0,0,1-4.4,2.02,72.149,72.149,0,0,0,.793,8.943c.649,3.462,1.731,7.646,1.731,7.646s-9.232,1.37-15,.865l-5.77-.5a9.228,9.228,0,0,0,.577-5.049c-.361-3.318-.577-13.344-.577-13.344s-1.659.577-4.833-2.164c0,0,2.532-8.006,3.755-8.872s6.193-1.731,6.193-1.731Z" transform="translate(-102.013 -181.778)" fill="#5658bc"/>
      <path id="Path_14" data-name="Path 14" d="M139.346,198.005a43.1,43.1,0,0,1,4.792,1.549c1.876.793,4.4,1.587,4.8,1.911s2.777,8.619,3.065,9.773a11.566,11.566,0,0,1-4.4,2.02,72.149,72.149,0,0,0,.793,8.943c.649,3.462,1.731,7.646,1.731,7.646s-9.232,1.37-15,.865l-5.77-.5a9.228,9.228,0,0,0,.577-5.049c-.361-3.318-.577-13.344-.577-13.344s-1.659.577-4.833-2.164c0,0,2.532-8.006,3.755-8.872s6.193-1.731,6.193-1.731Z" transform="translate(-102.013 -181.778)" fill="#5658bc"/>
      <path id="Path_15" data-name="Path 15" d="M139.346,198.005a43.1,43.1,0,0,1,4.792,1.549c1.876.793,4.4,1.587,4.8,1.911s2.777,8.619,3.065,9.773a11.566,11.566,0,0,1-4.4,2.02,72.149,72.149,0,0,0,.793,8.943c.649,3.462,1.731,7.646,1.731,7.646s-9.232,1.37-15,.865l-5.77-.5a9.228,9.228,0,0,0,.577-5.049c-.361-3.318-.577-13.344-.577-13.344s-1.659.577-4.833-2.164c0,0,2.532-8.006,3.755-8.872s6.193-1.731,6.193-1.731Z" transform="translate(-102.013 -181.778)" fill="#5658bc"/>
      <path id="Path_16" data-name="Path 16" d="M161.262,222.66c-.17-2.23-.221-4.1-.223-4.147l-1.434.534c.027-.73-.8-7.656-.8-7.656l.234,8.628A5.166,5.166,0,0,1,161.262,222.66Z" transform="translate(-115.451 -187.025)" fill="#40428c"/>
      <path id="Path_17" data-name="Path 17" d="M144.75,189.229s.235,5.334.631,5.947-2.308,2.813-5.734.577l-.18-5.157Z" transform="translate(-107.872 -178.338)" fill="#d68895"/>
      <path id="Path_18" data-name="Path 18" d="M133.525,182.478s1.113,7.606,5.3,6.96a4.248,4.248,0,0,0,3.666-4.242c-.159.677-1.029-.8-1-3.4a8.976,8.976,0,0,1-4.42-.854,4.175,4.175,0,0,1-3.48.45C133.307,181.748,133.435,182.024,133.525,182.478Z" transform="translate(-105.501 -175.088)" fill="#ff9895"/>
      <path id="Path_19" data-name="Path 19" d="M147.917,182.133a10.958,10.958,0,0,1,0,2.278c-.153.573,1.138-.014,1.189-.741S149.123,181.365,147.917,182.133Z" transform="translate(-111.179 -175.476)" fill="#ff9895"/>
      <path id="Path_20" data-name="Path 20" d="M157.428,220.434l-4.026,1.692c-.1,1.928.145,7.334.145,7.334-2.056,1.948-7.31,10.306-8.31,10.657s-2.191.7-2.163,1.217,1.028.108.973.3a26.536,26.536,0,0,1-3.57,3.327c-.893.568-.7.947-.59,1.19s2.051-1.054,2.051-1.054-1.271,1.19-1.785,1.677-.189,1,.19.784a11.87,11.87,0,0,0,1.414-1.093c.162-.162-.55.6-.63.741-.252.451-.162.674.234.662a13.471,13.471,0,0,0,2.362-1.878s-.649,1-.568,1.217.433.054,1.677-.947,1.253-2.064,2.551-3.868,9.539-10.242,9.972-11.684S157.428,220.434,157.428,220.434Z" transform="translate(-107.998 -190.569)" fill="#ff9895"/>
      <path id="Path_21" data-name="Path 21" d="M132.8,212.859a21.532,21.532,0,0,0-2.109,4.754,2.283,2.283,0,0,0,1.082.024A33,33,0,0,1,132.8,212.859Z" transform="translate(-104.431 -187.6)" fill="#45489a"/>
      <g id="Group_4" data-name="Group 4" transform="translate(32.873 52.654)">
        <path id="Path_22" data-name="Path 22" d="M146.823,260.615l-.868,1.058-.286.378c.213-.193.354-.326.354-.326s-.2.311-.364.623l.43-.569.865-1.056a.085.085,0,0,0-.012-.12A.087.087,0,0,0,146.823,260.615Z" transform="translate(-143.172 -258.961)" fill="#b56e80"/>
        <path id="Path_23" data-name="Path 23" d="M142.55,259.943a16.491,16.491,0,0,0,1.963-1.889.085.085,0,1,0-.133-.107,16.245,16.245,0,0,1-1.924,1.853c-.129.086-.84.525-.848.53a.085.085,0,0,0-.028.116c.523-.3,1.054-.66,1.054-.66l-.343.321C142.408,260.034,142.508,259.971,142.55,259.943Z" transform="translate(-141.568 -257.914)" fill="#b56e80"/>
        <path id="Path_24" data-name="Path 24" d="M141.926,262.49l.693-.694a20.387,20.387,0,0,0,2.356-2.272.086.086,0,0,0-.01-.121.087.087,0,0,0-.12.01,20.414,20.414,0,0,1-2.341,2.256l-.652.654c.319-.249.623-.5.713-.593.162-.162-.55.6-.63.741C141.93,262.479,141.93,262.483,141.926,262.49Z" transform="translate(-141.679 -258.49)" fill="#b56e80"/>
      </g>
      <path id="Path_25" data-name="Path 25" d="M147.526,282c1.007-2.441,1.833-4.439,1.833-4.439s-.428-6.116-3.056-10.458A88.553,88.553,0,0,1,147.526,282Z" transform="translate(-110.552 -208.862)" fill="#313454"/>
      <path id="Path_26" data-name="Path 26" d="M147.444,394.253h15.021a4.389,4.389,0,0,0-.325-2.542c-.595-1.082-.541-1.839-1.136-1.893s-.811.649-1.46.649-1.244-.866-2.272-.325a22.654,22.654,0,0,1-5.554,2.218C149.176,392.954,147.931,392.63,147.444,394.253Z" transform="translate(-110.999 -256.962)" fill="#5658bc"/>
      <path id="Path_27" data-name="Path 27" d="M159.8,261.883a.084.084,0,0,1-.052-.018,8.923,8.923,0,0,1-3.223-4.648.085.085,0,0,1,.066-.1.084.084,0,0,1,.1.066,8.752,8.752,0,0,0,3.161,4.549.086.086,0,0,1-.052.153Z" transform="translate(-114.559 -204.946)" fill="#9b9fd1"/>
      <path id="Path_28" data-name="Path 28" d="M92.877,201.971s.956-1.51,1.313-2.113a.612.612,0,0,0-.159.126,3.724,3.724,0,0,1,.1-.41C94.112,199.6,93.17,201.3,92.877,201.971Z" transform="translate(-89.61 -182.392)" fill="#c97c85"/>
      <path id="Path_29" data-name="Path 29" d="M95.953,201.452a1.047,1.047,0,0,0-.33,0s.036-.088.072-.209a1.6,1.6,0,0,0-.41.48,10.963,10.963,0,0,0-.555,1.271A13.584,13.584,0,0,1,95.953,201.452Z" transform="translate(-90.336 -183.045)" fill="#c97c85"/>
    </g>
    <g id="Group_10" data-name="Group 10" transform="translate(92.492 23.749)">
      <g id="Group_6" data-name="Group 6">
        <rect id="Rectangle_3" data-name="Rectangle 3" width="178.284" height="107.289" rx="9.023" fill="#454869"/>
        <rect id="Rectangle_4" data-name="Rectangle 4" width="166.535" height="96.106" transform="translate(5.874 5.592)" fill="#e1e0f3"/>
        <path id="Path_30" data-name="Path 30" d="M348.2,347.843H180.886a5.487,5.487,0,0,1-5.486-5.487v-9.872H353.683v9.872A5.487,5.487,0,0,1,348.2,347.843Z" transform="translate(-175.4 -240.554)" fill="#5b63bc"/>
        <path id="Path_31" data-name="Path 31" d="M323.4,342.589a3.917,3.917,0,1,1-3.917-3.916A3.917,3.917,0,0,1,323.4,342.589Z" transform="translate(-230.342 -242.98)" fill="#ebe8f3"/>
        <rect id="Rectangle_5" data-name="Rectangle 5" width="83.971" height="5.538" transform="translate(47.156 125.69)" fill="#5b63bc"/>
        <path id="Path_32" data-name="Path 32" d="M317.184,357.744H294.81c-2.482,12.049-13.65,18.4-13.65,18.4h49.674S319.666,369.793,317.184,357.744Z" transform="translate(-216.855 -250.455)" fill="#495087"/>
        <path id="Path_33" data-name="Path 33" d="M302.093,357.744a24.482,24.482,0,0,1-2.353,6.494h27.08a24.483,24.483,0,0,1-2.353-6.494Z" transform="translate(-224.138 -250.455)" fill="#383d69"/>
      </g>
      <g id="Group_8" data-name="Group 8" transform="translate(11.784 32.19)">
        <rect id="Rectangle_6" data-name="Rectangle 6" width="154.716" height="31.337" rx="6.863" fill="#fff"/>
        <g id="Group_7" data-name="Group 7" transform="translate(5.574 4.996)">
          <path id="Path_34" data-name="Path 34" d="M216,243.088l2,6.162a.927.927,0,0,0,.882.641h6.479a.927.927,0,0,1,.545,1.677l-5.241,3.808a.927.927,0,0,0-.337,1.037l2,6.162a.927.927,0,0,1-1.426,1.037l-5.241-3.809a.928.928,0,0,0-1.09,0l-5.242,3.809a.927.927,0,0,1-1.426-1.037l2-6.162a.927.927,0,0,0-.337-1.037l-5.242-3.808a.927.927,0,0,1,.545-1.677h6.479a.926.926,0,0,0,.882-.641l2-6.162A.927.927,0,0,1,216,243.088Z" transform="translate(-203.947 -242.447)" fill="#feca43"/>
          <path id="Path_35" data-name="Path 35" d="M265.844,243.088l2,6.162a.926.926,0,0,0,.882.641h6.479a.927.927,0,0,1,.545,1.677l-5.242,3.808a.928.928,0,0,0-.337,1.037l2,6.162a.927.927,0,0,1-1.426,1.037l-5.242-3.809a.927.927,0,0,0-1.09,0l-5.242,3.809a.927.927,0,0,1-1.426-1.037l2-6.162a.928.928,0,0,0-.337-1.037l-5.242-3.808a.927.927,0,0,1,.545-1.677H261.2a.926.926,0,0,0,.882-.641l2-6.162A.927.927,0,0,1,265.844,243.088Z" transform="translate(-223.484 -242.447)" fill="#feca43"/>
          <path id="Path_36" data-name="Path 36" d="M315.688,243.088l2,6.162a.927.927,0,0,0,.882.641h6.479a.927.927,0,0,1,.545,1.677l-5.241,3.808a.927.927,0,0,0-.337,1.037l2,6.162a.927.927,0,0,1-1.427,1.037l-5.241-3.809a.928.928,0,0,0-1.09,0l-5.241,3.809a.927.927,0,0,1-1.427-1.037l2-6.162a.927.927,0,0,0-.337-1.037l-5.241-3.808a.927.927,0,0,1,.545-1.677h6.479a.927.927,0,0,0,.882-.641l2-6.162A.927.927,0,0,1,315.688,243.088Z" transform="translate(-243.021 -242.447)" fill="#feca43"/>
          <path id="Path_37" data-name="Path 37" d="M365.529,243.088l2,6.162a.926.926,0,0,0,.882.641h6.479a.927.927,0,0,1,.545,1.677l-5.242,3.808a.928.928,0,0,0-.337,1.037l2,6.162a.927.927,0,0,1-1.426,1.037l-5.242-3.809a.927.927,0,0,0-1.09,0l-5.242,3.809a.927.927,0,0,1-1.426-1.037l2-6.162a.928.928,0,0,0-.337-1.037l-5.242-3.808a.927.927,0,0,1,.545-1.677h6.479a.926.926,0,0,0,.882-.641l2-6.162A.927.927,0,0,1,365.529,243.088Z" transform="translate(-262.558 -242.447)" fill="#feca43"/>
          <path id="Path_38" data-name="Path 38" d="M415.372,243.088l2,6.162a.926.926,0,0,0,.882.641h6.478a.927.927,0,0,1,.545,1.677l-5.242,3.808a.927.927,0,0,0-.337,1.037l2,6.162a.927.927,0,0,1-1.426,1.037l-5.242-3.809a.928.928,0,0,0-1.09,0l-5.241,3.809a.927.927,0,0,1-1.426-1.037l2-6.162a.927.927,0,0,0-.337-1.037l-5.241-3.808a.927.927,0,0,1,.545-1.677h6.479a.927.927,0,0,0,.882-.641l2-6.162A.927.927,0,0,1,415.372,243.088Z" transform="translate(-282.095 -242.447)" fill="#e1e0f3"/>
        </g>
      </g>
      <text id="FEEDBACK" transform="translate(85.11 25.681)" fill="#fff" font-size="13" font-family="Montserrat-ExtraBold, Montserrat" font-weight="800"><tspan x="-38.006" y="0">FEEDBACK</tspan></text>
      <g id="Group_9" data-name="Group 9" transform="translate(51.581 67.296)">
        <path id="Path_39" data-name="Path 39" d="M333.722,295.234H261.866a1.632,1.632,0,0,1-1.633-1.633h0a1.633,1.633,0,0,1,1.633-1.633h71.857a1.633,1.633,0,0,1,1.633,1.633h0A1.632,1.632,0,0,1,333.722,295.234Z" transform="translate(-260.233 -291.968)" fill="#fff"/>
        <path id="Path_40" data-name="Path 40" d="M333.722,307.48H261.866a1.633,1.633,0,0,1-1.633-1.633h0a1.632,1.632,0,0,1,1.633-1.633h71.857a1.632,1.632,0,0,1,1.633,1.633h0A1.633,1.633,0,0,1,333.722,307.48Z" transform="translate(-260.233 -296.768)" fill="#c2c5df"/>
        <path id="Path_41" data-name="Path 41" d="M333.722,319.725H261.866a1.633,1.633,0,0,1-1.633-1.633h0a1.633,1.633,0,0,1,1.633-1.633h71.857a1.633,1.633,0,0,1,1.633,1.633h0A1.633,1.633,0,0,1,333.722,319.725Z" transform="translate(-260.233 -301.568)" fill="#fff"/>
      </g>
    </g>
    <g id="Group_13" data-name="Group 13" transform="translate(317.897 32.153)">
      <path id="Path_42" data-name="Path 42" d="M561.888,195.558a12.435,12.435,0,0,0-12.731,20.122l-1.734,5.146a.409.409,0,0,0,.586.489l4.906-2.693a12.438,12.438,0,1,0,8.973-23.064Z" transform="translate(-546.118 -195.111)" fill="#ff6e7c"/>
      <circle id="Ellipse_1" data-name="Ellipse 1" cx="10.458" cy="10.458" r="10.458" transform="translate(1.544 22.435) rotate(-87.52)" fill="#bf667c"/>
      <circle id="Ellipse_2" data-name="Ellipse 2" cx="9.086" cy="9.086" r="9.086" transform="translate(1.977 19.891) rotate(-80.447)" fill="#fff"/>
      <g id="Group_12" data-name="Group 12" transform="translate(6.487 5.864)">
        <path id="Path_43" data-name="Path 43" d="M562.063,207.793l-2.579-3.037-1.5,1.276-1.2,1.015.081.3A16.238,16.238,0,0,0,566,217.9h0l2.7-2.291-2.579-3.038-1.6,1.358h0a7.6,7.6,0,0,1-3.983-4.542l-.077-.241Z" transform="translate(-556.786 -204.756)" fill="#d2d4e9"/>
        <g id="Group_11" data-name="Group 11" transform="translate(1.551 0)">
          <rect id="Rectangle_7" data-name="Rectangle 7" width="1.505" height="3.985" transform="matrix(0.762, -0.647, 0.647, 0.762, 6.639, 8.794)" fill="#e1e0f3"/>
          <rect id="Rectangle_8" data-name="Rectangle 8" width="1.505" height="3.985" transform="translate(0 0.974) rotate(-40.329)" fill="#e1e0f3"/>
        </g>
      </g>
    </g>
    <g id="Group_14" data-name="Group 14" transform="translate(101.18 96.295)">
      <path id="Path_44" data-name="Path 44" d="M192.14,323.413c-5.515,18.477,0,44.812,0,44.812h6.343C200.4,344.287,192.14,323.413,192.14,323.413Z" transform="translate(-189.688 -309.544)" fill="#93c4d2"/>
      <path id="Path_45" data-name="Path 45" d="M198.069,367.47a.46.46,0,0,1-.426-.4c-2.042-9.941-2.855-26.394-2.863-26.558a.5.5,0,0,1,.413-.547.476.476,0,0,1,.462.488c.008.164.817,16.524,2.84,26.374a.529.529,0,0,1-.322.626A.385.385,0,0,1,198.069,367.47Z" transform="translate(-191.684 -316.033)" fill="#fff"/>
      <path id="Path_46" data-name="Path 46" d="M197.157,359.284h12.961c11.858-14.738,17.642-58.681,17.642-58.681C199.84,328.812,197.157,359.284,197.157,359.284Z" transform="translate(-192.616 -300.603)" fill="#aad8d8"/>
      <path id="Path_47" data-name="Path 47" d="M210.747,362.826a.571.571,0,0,1-.557-.708c3.695-15.209,16.256-40.656,16.382-40.911a.573.573,0,1,1,1.027.51c-.126.254-12.63,25.588-16.3,40.673A.573.573,0,0,1,210.747,362.826Z" transform="translate(-197.718 -308.555)" fill="#7495ba"/>
    </g>
    <g id="Group_15" data-name="Group 15" transform="translate(297.796 81.742)">
      <path id="Path_48" data-name="Path 48" d="M549.681,373.947h15.868s13.44-8.332,17.468-35.935A63.313,63.313,0,0,0,549.681,373.947Z" transform="translate(-527.413 -300.713)" fill="#93c4d2"/>
      <path id="Path_49" data-name="Path 49" d="M568.189,373.1a.408.408,0,0,1-.175-.04.4.4,0,0,1-.186-.536c5.109-10.535,16.721-24.062,16.837-24.2a.4.4,0,1,1,.607.523c-.116.134-11.659,13.583-16.722,24.023A.4.4,0,0,1,568.189,373.1Z" transform="translate(-534.511 -304.701)" fill="#fff"/>
      <path id="Path_50" data-name="Path 50" d="M517.059,342.376c.25,2.117-.518,4.215-.639,6.343a10.552,10.552,0,0,0,1.158,5.421c1.248,2.411,3.443,4.375,4.025,7.027.429,1.955-.094,4,.1,5.988a7.573,7.573,0,0,0,1.681,4.327h8.228a3.718,3.718,0,0,0-.337-1.411,18.294,18.294,0,0,0-4.158-5.976,4.936,4.936,0,0,1-1.558-2.021,5.348,5.348,0,0,1-.1-1.538c.052-5.515-3.862-10.374-4.358-15.867-.164-1.82.053-3.669-.238-5.473a9.949,9.949,0,0,0-5.255-7.173,2.3,2.3,0,0,0-.966-.3,1.781,1.781,0,0,0-1.583,1.875,4.863,4.863,0,0,0,1,2.507C515.335,338.066,516.785,340.051,517.059,342.376Z" transform="translate(-513.058 -298.248)" fill="#93c4d2"/>
      <path id="Path_51" data-name="Path 51" d="M550.367,276.668C531.8,308.139,539.18,349.9,539.18,349.9h11.186C560.865,303.814,550.367,276.668,550.367,276.668Z" transform="translate(-522.729 -276.668)" fill="#aad8d8"/>
      <path id="Path_52" data-name="Path 52" d="M549.337,354.49a.422.422,0,0,1-.421-.412c-.443-18.832,4.017-52.979,4.062-53.323a.422.422,0,1,1,.837.111c-.046.342-4.5,34.426-4.056,53.192a.422.422,0,0,1-.412.431Z" transform="translate(-527.101 -285.966)" fill="#7495ba"/>
    </g>
    <g id="Group_19" data-name="Group 19" transform="translate(22.318 9.962)">
      <path id="Path_53" data-name="Path 53" d="M74.23,185.407h-.685a.9.9,0,0,0-.849.6l-.613,1.708a.347.347,0,0,1-.579.12l-2.011-2.141a.9.9,0,0,0-.658-.285H61.184a1.2,1.2,0,0,1-1.2-1.2V175.9a1.2,1.2,0,0,1,1.2-1.2H74.23a1.2,1.2,0,0,1,1.2,1.2v8.309A1.2,1.2,0,0,1,74.23,185.407Z" transform="translate(-59.988 -164.922)" fill="#feca43"/>
      <g id="Group_16" data-name="Group 16" transform="translate(3.131 12.081)">
        <path id="Path_54" data-name="Path 54" d="M68.088,180.149c0-.387-.339-.631-.852-.631a1.335,1.335,0,0,0-1.144.584l-.955-.561a2.515,2.515,0,0,1,2.233-1.057c1.183,0,2,.529,2,1.46,0,1.262-1.325,1.4-1.325,2.24H66.857C66.857,181.08,68.088,180.835,68.088,180.149Zm-1.388,3.3a.759.759,0,0,1,1.515,0,.758.758,0,0,1-1.515,0Z" transform="translate(-65.138 -178.484)" fill="#fff"/>
        <path id="Path_55" data-name="Path 55" d="M75.51,180.149c0-.387-.339-.631-.852-.631a1.335,1.335,0,0,0-1.144.584l-.955-.561a2.513,2.513,0,0,1,2.232-1.057c1.183,0,2,.529,2,1.46,0,1.262-1.325,1.4-1.325,2.24H74.279C74.279,181.08,75.51,180.835,75.51,180.149Zm-1.389,3.3a.759.759,0,0,1,1.515,0,.758.758,0,0,1-1.515,0Z" transform="translate(-68.047 -178.484)" fill="#fff"/>
      </g>
      <g id="Group_18" data-name="Group 18" transform="translate(19.044)">
        <path id="Path_56" data-name="Path 56" d="M92.672,170.812h.781a1.028,1.028,0,0,1,.968.681l.7,1.946a.4.4,0,0,0,.66.137l2.292-2.44a1.028,1.028,0,0,1,.75-.325h8.72a1.363,1.363,0,0,0,1.363-1.363v-9.471a1.363,1.363,0,0,0-1.363-1.363H92.672a1.363,1.363,0,0,0-1.363,1.363v9.471A1.363,1.363,0,0,0,92.672,170.812Z" transform="translate(-91.309 -158.615)" fill="#ff6e7c"/>
        <g id="Group_17" data-name="Group 17" transform="translate(6.64 2.909)">
          <path id="Path_57" data-name="Path 57" d="M102.23,168.947a.866.866,0,0,1,1.726,0,.864.864,0,0,1-1.726,0Zm.027-5.548h1.673l-.279,4.109h-1.115Z" transform="translate(-102.23 -163.399)" fill="#fff"/>
          <path id="Path_58" data-name="Path 58" d="M106.5,168.947a.866.866,0,0,1,1.726,0,.864.864,0,0,1-1.726,0Zm.027-5.548H108.2l-.279,4.109h-1.115Z" transform="translate(-103.905 -163.399)" fill="#fff"/>
        </g>
      </g>
    </g>
    <g id="Group_21" data-name="Group 21" transform="translate(243.593 26.364)">
      <path id="Path_59" data-name="Path 59" d="M503.941,196.709a8.047,8.047,0,0,1-2.654.173c-.223-.035-.443-.089-.662-.143l-1.342-.33c.134-1.153.34-2.326.369-3.479a9.345,9.345,0,0,1,.561-3.518,6.386,6.386,0,0,1,2.858-3.232,4.952,4.952,0,0,1,4.383-.142c.393.21.749.486,1.154.672.265.122.547.2.815.32,2.194.964,2.023,3.417,2,5.432a7.218,7.218,0,0,0,.595,3.848,9.96,9.96,0,0,1-4.659.668c-.454-.044-.9-.12-1.358-.176A7.8,7.8,0,0,0,503.941,196.709Z" transform="translate(-453.456 -185.59)" fill="#001e51"/>
      <path id="Path_60" data-name="Path 60" d="M528.009,225.8s.645,4.757,1.189,5.6,5.3,6.59,6.789,8.622,2.874,3.419,3.964,3.865,2.329.627,2.791.859.545.645.413.744a7.921,7.921,0,0,1-1.536,0s2.411,1.6,3.419,2.147.991.925.876,1.057-.2.132-.71,0-3.254-1.6-3.254-1.6,3.4,2.379,3.782,2.824.016.727-.2.776a9.068,9.068,0,0,1-1.751-.958s.776.681.792.96a.437.437,0,0,1-.677.411c-.43-.231-3.072-2.461-3.072-2.461a9.114,9.114,0,0,1,.925,1.768.413.413,0,0,1-.677.314,20.238,20.238,0,0,1-1.85-2.511,11.7,11.7,0,0,0-2.494-3.188c-1.586-1.354-9.712-9.679-10.538-11.166a7.335,7.335,0,0,1-1.123-3.2c-.165-1.189-1.355-6.078-1.355-6.078Z" transform="translate(-463.032 -200.873)" fill="#ff9895"/>
      <path id="Path_61" data-name="Path 61" d="M438.026,195.781l.3,6.663a.955.955,0,0,0,.7.877l6.432,1.769a.954.954,0,0,1,.083,1.813l-6.243,2.349a.955.955,0,0,0-.617.937l.3,6.663a.955.955,0,0,1-1.7.64l-4.163-5.212a.956.956,0,0,0-1.082-.3l-6.243,2.349a.954.954,0,0,1-1.133-1.418l3.67-5.57a.953.953,0,0,0-.051-1.121l-4.163-5.212a.954.954,0,0,1,1-1.516l6.432,1.769a.955.955,0,0,0,1.05-.4l3.67-5.57A.954.954,0,0,1,438.026,195.781Z" transform="translate(-423.912 -189.227)" fill="#feca43"/>
      <g id="Group_20" data-name="Group 20" transform="translate(0 5.641)">
        <path id="Path_62" data-name="Path 62" d="M449.531,209.674a.954.954,0,0,0,.7.877l5.744,1.581a.95.95,0,0,0-.484-1.515l-5.993-1.649Z" transform="translate(-433.941 -200.395)" fill="#fed958"/>
        <path id="Path_63" data-name="Path 63" d="M426.486,221.846l3.408-5.171a.955.955,0,0,0-.052-1.121l-.978-1.225a.944.944,0,0,1-.142.642l-3.67,5.57a.954.954,0,0,0,1.133,1.418Z" transform="translate(-424.296 -202.497)" fill="#fed958"/>
        <path id="Path_64" data-name="Path 64" d="M426.295,201.2l6.432,1.769a.955.955,0,0,0,1.05-.4l3.67-5.57a.917.917,0,0,1,.617-.4l-.037-.818a.954.954,0,0,0-1.75-.482l-3.67,5.57a.955.955,0,0,1-1.05.4l-6.432-1.769a.954.954,0,0,0-1,1.516l.976,1.221A.95.95,0,0,1,426.295,201.2Z" transform="translate(-423.912 -194.869)" fill="#fed958"/>
      </g>
      <path id="Path_65" data-name="Path 65" d="M473.8,221.389s-1.845,4.143-2.058,4.059a126.7,126.7,0,0,1-13.415-3.633c-5.75-2.059-6.459-3.247-6.814-3.815-.185-.3-.987-1.423-1.08-1.533a2.226,2.226,0,0,0-1.645-.752.25.25,0,0,0-.111.238.69.69,0,0,0,.086.254c.1.2.367.846.465,1.045,0,0-.93.213-1.035.977a26.917,26.917,0,0,0,.145,3.373s.319.32,1.827.426,13.38,5.957,18.6,6.743,5.891.408,6.1-.018,3.141-5.4,3.141-5.4Z" transform="translate(-433.421 -197.399)" fill="#ff9895"/>
      <path id="Path_66" data-name="Path 66" d="M496.832,297.71s-.213,4.5-1.277,11.841-1.278,23.316-3.62,34.176c0,0-1.7,6.281-1.437,7.665s1.171,3.46.692,4.471H473.782a2.286,2.286,0,0,1,1.969-2.022s8.837-.479,9.742-2.4,2.289-22.21,2.5-25.984.106-12.078.213-16.443,1.278-17.141,1.278-17.141Z" transform="translate(-443.46 -227.253)" fill="#ff9895"/>
      <path id="Path_67" data-name="Path 67" d="M552.29,324.73c-.284-.638-1.774-1.348-3.264-1.632s-5.11-1.207-12.066-5.04a71.154,71.154,0,0,0-14.622-5.82c-.638-.213-.568-1.113-.568-1.113a68.579,68.579,0,0,0,0-10.492l-7.169.532s-.355,13.486,2.556,15.047c3.1,1.662,26.119,9.653,27.042,10.079s2.271,1.916,2.626,4.684.071,8.233.638,9.3a1.732,1.732,0,0,0,1.562.994S552.574,325.369,552.29,324.73Z" transform="translate(-459.455 -230.684)" fill="#ff9895"/>
      <path id="Path_68" data-name="Path 68" d="M497.924,252.71s-2.183,11.221-2.822,19.1-.745,8.943-.745,8.943a19.914,19.914,0,0,0,7.453,1.384c4.365,0,6.92,1.917,8.836,2.023s6.175-2.023,6.175-2.023-1.917-3.088-1.81-8.943-.177-17.354-2.8-20.974S497.924,252.71,497.924,252.71Z" transform="translate(-451.525 -211.123)" fill="#4a4d70"/>
      <path id="Path_69" data-name="Path 69" d="M494.465,219.677c-.213,3.673.294,5.869.692,9.529a24.524,24.524,0,0,1-.266,7.251s.745-.745,5.749,0a65.112,65.112,0,0,0,11.072.416,32.946,32.946,0,0,1-1.633-7.633,34.4,34.4,0,0,1-.124-8.446,17.3,17.3,0,0,0,6.015-.958s-.745-1.863-1.384-3.247-1.871-5.976-2.616-6.614-5.439-1.389-5.439-1.389l-8.056.284s-3.939.561-4.7,1.677c-1.549,2.285-4.851,8.047-4.851,8.047l4.472,3.052Z" transform="translate(-449.397 -194.605)" fill="#5658bc"/>
      <path id="Path_70" data-name="Path 70" d="M495.908,225.285l1.065-1.97.248-5.447s-1.017,5.279-1.895,7.02Z" transform="translate(-451.905 -198.242)" fill="#3f408a"/>
      <path id="Path_71" data-name="Path 71" d="M522.373,218.51l.692,6.175a8.045,8.045,0,0,0,1.257.021C523.291,222.069,522.373,218.51,522.373,218.51Z" transform="translate(-462.506 -198.494)" fill="#3f408a"/>
      <path id="Path_72" data-name="Path 72" d="M510.557,201.85s.069,3.564.176,3.777,1.952.319,1.952.319-1.331,5.749-4.028,5.785-4.028-5.5-4.028-5.5,1.561-.071,1.633-.426-.39-3.955-.39-3.955Z" transform="translate(-455.551 -191.964)" fill="#d68895"/>
      <path id="Path_73" data-name="Path 73" d="M503.431,193.636s.137,6.2,3.77,6.911a5.055,5.055,0,0,0,3.639-5.025,2.271,2.271,0,0,1-.618-.513,2.057,2.057,0,0,1-.4-1.154,6.808,6.808,0,0,0-.151-1.23,1.878,1.878,0,0,1-.713.445,5.267,5.267,0,0,1-3.108.29,3.225,3.225,0,0,0-.562-.1,2.493,2.493,0,0,0-.738.123A4.634,4.634,0,0,1,503.431,193.636Z" transform="translate(-455.081 -188.347)" fill="#ff9895"/>
      <path id="Path_74" data-name="Path 74" d="M491.027,392.994a2,2,0,0,1-.345.315,8.027,8.027,0,0,1-3.722,1.1,8.461,8.461,0,0,1-3.921-.433c-.692-.285-1.318-.711-2.007-1-.091-.038-.185-.067-.278-.1-2.485.419-5,.556-5,.556a2.286,2.286,0,0,0-1.969,2.022h17.407A4.056,4.056,0,0,0,491.027,392.994Z" transform="translate(-443.46 -266.841)" fill="#5658bc"/>
      <path id="Path_75" data-name="Path 75" d="M573.179,339.18c-.284-.638-1.774-1.348-3.264-1.632l-.247-.05c.119.769.724,1.753.83,2.509a8.615,8.615,0,0,1-1.2,5.753c-.439.694-.972,1.325-1.424,2.01.1,2.781.042,6.144.474,6.955a1.732,1.732,0,0,0,1.562.994S573.463,339.819,573.179,339.18Z" transform="translate(-480.343 -245.135)" fill="#5658bc"/>
      <path id="Path_76" data-name="Path 76" d="M505.02,260.712a59.268,59.268,0,0,1-2.832,19.473C507.511,267.9,505.02,260.712,505.02,260.712Z" transform="translate(-454.594 -215.036)" fill="#313452"/>
      <path id="Path_77" data-name="Path 77" d="M516.279,282.484c-3.194-3.576-3.117-11.374-2.375-17.042,0,0,.565,13.892,2.375,17.042" transform="translate(-459.02 -216.89)" fill="#313452"/>
    </g>
    <g id="Group_23" data-name="Group 23" transform="translate(96.02)">
      <path id="Path_78" data-name="Path 78" d="M222.356,180.532H184.37a3.168,3.168,0,0,1-3.168-3.168V143.538a1.308,1.308,0,0,1,1.308-1.308h41.706a1.309,1.309,0,0,1,1.309,1.308v33.825A3.169,3.169,0,0,1,222.356,180.532Z" transform="translate(-181.202 -142.23)" fill="#f0effc"/>
      <path id="Path_79" data-name="Path 79" d="M225.525,148.99H181.2v-5.452a1.308,1.308,0,0,1,1.308-1.308h41.706a1.309,1.309,0,0,1,1.309,1.308Z" transform="translate(-181.202 -142.23)" fill="#7673b1"/>
      <g id="Group_22" data-name="Group 22" transform="translate(2.648 1.725)">
        <circle id="Ellipse_3" data-name="Ellipse 3" cx="1.655" cy="1.655" r="1.655" fill="#ff6e7c"/>
        <circle id="Ellipse_4" data-name="Ellipse 4" cx="1.655" cy="1.655" r="1.655" transform="translate(6.084)" fill="#feca43"/>
        <circle id="Ellipse_5" data-name="Ellipse 5" cx="1.655" cy="1.655" r="1.655" transform="translate(12.167)" fill="#fff"/>
      </g>
      <path id="Path_80" data-name="Path 80" d="M210.034,166.214v-7.6h-7.319v7.6h.005c-.176,4.872,6,5.21,6,5.21-3.812-1.83-2.846-5.21-2.846-5.21Z" transform="translate(-189.635 -148.653)" fill="#fff"/>
      <path id="Path_81" data-name="Path 81" d="M194.579,166.214v-7.6H187.26v7.6h.005c-.176,4.872,6,5.21,6,5.21-3.812-1.83-2.846-5.21-2.846-5.21Z" transform="translate(-183.577 -148.653)" fill="#fff"/>
      <path id="Path_82" data-name="Path 82" d="M221.347,188.664v-7.6h7.319v7.6h-.005c.175,4.872-6,5.21-6,5.21,3.812-1.83,2.846-5.21,2.846-5.21Z" transform="translate(-196.938 -157.452)" fill="#fff"/>
      <path id="Path_83" data-name="Path 83" d="M236.8,188.664v-7.6h7.319v7.6h-.005c.175,4.872-6,5.21-6,5.21,3.812-1.83,2.846-5.21,2.846-5.21Z" transform="translate(-202.996 -157.452)" fill="#fff"/>
    </g>
    <g id="Group_27" data-name="Group 27" transform="translate(228.736 96.295)">
      <g id="Group_25" data-name="Group 25">
        <rect id="Rectangle_9" data-name="Rectangle 9" width="53.373" height="43.943" rx="6.815" fill="#ebe8f3"/>
        <path id="Path_84" data-name="Path 84" d="M452.851,308.13H399.478v-3.383a4.143,4.143,0,0,1,4.143-4.144h45.086a4.144,4.144,0,0,1,4.144,4.144Z" transform="translate(-399.478 -300.603)" fill="#7673b1"/>
        <g id="Group_24" data-name="Group 24" transform="translate(33.098 2.195)">
          <circle id="Ellipse_6" data-name="Ellipse 6" cx="1.633" cy="1.633" r="1.633" fill="#ff6e7c"/>
          <path id="Path_85" data-name="Path 85" d="M466.265,305.847a1.633,1.633,0,1,1-1.633-1.633A1.633,1.633,0,0,1,466.265,305.847Z" transform="translate(-457.474 -304.214)" fill="#feca43"/>
          <circle id="Ellipse_7" data-name="Ellipse 7" cx="1.633" cy="1.633" r="1.633" transform="translate(11.05)" fill="#fff"/>
        </g>
      </g>
      <g id="Group_26" data-name="Group 26" transform="translate(13.117 11.892)">
        <circle id="Ellipse_8" data-name="Ellipse 8" cx="13.569" cy="13.569" r="13.569" fill="#feca43"/>
        <path id="Path_86" data-name="Path 86" d="M435.765,335.131c0,1.16-.663,2.1-1.482,2.1s-1.482-.941-1.482-2.1.663-2.1,1.482-2.1S435.765,333.97,435.765,335.131Zm6.7,2.1c.818,0,1.482-.941,1.482-2.1s-.663-2.1-1.482-2.1-1.482.941-1.482,2.1S441.643,337.232,442.461,337.232Zm3.424,6.85a.655.655,0,1,0-.838-1.006,10.436,10.436,0,0,1-13.352,0,.655.655,0,1,0-.838,1.006,11.745,11.745,0,0,0,15.027,0Z" transform="translate(-424.803 -325.205)" fill="#9f602f"/>
      </g>
      <path id="Path_87" data-name="Path 87" d="M484.326,362.177l-10.76-5.574,1.03,12.075,3.253-2.173,4.26,6.377,3.225-2.155-4.26-6.377Z" transform="translate(-428.518 -322.553)" fill="#c2c5df"/>
    </g>
    <g id="Group_28" data-name="Group 28" transform="translate(204.598 4.231)">
      <path id="Path_88" data-name="Path 88" d="M398.666,178.41H396.8a2.464,2.464,0,0,0-2.32,1.631L392.8,184.7a.947.947,0,0,1-1.582.328l-5.492-5.846a2.465,2.465,0,0,0-1.8-.776H363.043a3.266,3.266,0,0,1-3.266-3.266V152.455a3.266,3.266,0,0,1,3.266-3.266h35.622a3.266,3.266,0,0,1,3.266,3.266v22.689A3.266,3.266,0,0,1,398.666,178.41Z" transform="translate(-359.777 -149.189)" fill="#ff6e7c"/>
      <path id="Path_89" data-name="Path 89" d="M395.868,157.28c-3.713-2.215-8.6,2.581-8.6,2.581s-4.89-4.8-8.6-2.581c-4.719,2.815-3.143,13.84,7.337,19.342a2.731,2.731,0,0,0,2.533,0C399.012,171.12,400.588,160.1,395.868,157.28Z" transform="translate(-366.187 -152.132)" fill="#fff"/>
    </g>
  </g>
</svg>
