<svg xmlns="http://www.w3.org/2000/svg" width="516.731" height="302.572" viewBox="0 0 516.731 302.572">
  <g id="Group_69125" data-name="Group 69125" transform="translate(-96.849 -106.978)">
    <g id="Group_1" data-name="Group 1" transform="translate(483.717 228.966)">
      <path id="Path_1" data-name="Path 1" d="M2147.456,851.023s-22.621-11.252-16.643-27.856,22.447-11.448,26.2-20.621,2.226-21.308,13.342-26.3,22.566-.995,25.745-3.168,8.446-9.5,12.972-11.294,11.872-10.952,23.377-11.578,16.563,4.071,25.547-2.195c0,0,2.363,10.859,1.47,15.317s-9.068,11.678-17.66,12.271-22.986,10.531-24.254,18.649.471,12.017,2.164,17.219,3.613,13.19-8.452,17.332-13.541,6.621-13.688,15.35-3.925,16.314-25.137,13.638C2149.929,854.947,2147.456,851.023,2147.456,851.023Z" transform="translate(-2129.807 -748.01)" fill="#ffd32f"/>
      <path id="Path_2" data-name="Path 2" d="M2247.563,809.485a125.013,125.013,0,0,0-14.427,6.913l7.78-7.979a.979.979,0,0,0-1.4-1.367l-12.565,12.885a201.85,201.85,0,0,0-24.06,16.906,207.363,207.363,0,0,0-28.839,28.706c2.709-7.307,8.1-21.076,12.04-31a.979.979,0,1,0-1.82-.722c-.035.089-3.567,8.987-7.016,17.859-5.086,13.084-6.475,16.97-6.77,18.315q-1.484,1.906-2.923,3.846l0,0q-.879,1.185-1.742,2.383a212.463,212.463,0,0,0-30.308,61.184.979.979,0,0,0,1.87.581,209.814,209.814,0,0,1,31.64-62.731l49.758-15.562a.979.979,0,0,0-.584-1.869l-47.158,14.749a205.282,205.282,0,0,1,33.03-34.177c23.693-19.369,43.976-27.016,44.179-27.091a.979.979,0,0,0-.68-1.836Z" transform="translate(-2134.388 -795.578)" fill="#e9a71a"/>
    </g>
    <g id="Group_3" data-name="Group 3" transform="translate(96.849 293.043)">
      <path id="Path_3" data-name="Path 3" d="M247.192,1164.413s-4-9.194-4.735-18.195-3.235-32.422-17.881-43.083-68.592-33.217-127.727-4.029c0,0,21.807,10.464,27.169,18.175,6.476,9.314,26.682,44.3,39.992,51.281s37.319,6.165,55.672,1.481S247.192,1164.413,247.192,1164.413Z" transform="translate(-96.849 -1084.731)" fill="#ffd32f"/>
      <g id="Group_2" data-name="Group 2" transform="translate(114.998 17.119)">
        <path id="Path_4" data-name="Path 4" d="M713.91,1217.191a.8.8,0,0,1-.765-.574l-11.959-40.9a.8.8,0,0,1,1.531-.448l11.958,40.9a.8.8,0,0,1-.766,1.021Z" transform="translate(-701.154 -1174.692)" fill="#513983"/>
      </g>
      <path id="Path_5" data-name="Path 5" d="M265.194,1195.813c-.08-.107-6.464-8.531-20.287-19.16a.79.79,0,0,0-.134-.1c-3.834-2.942-8.236-6.05-13.231-9.2a198.018,198.018,0,0,0-20.894-11.415l-24.3-31.527a.8.8,0,1,0-1.264.974l22.429,29.1c-5.979-2.711-12.555-5.369-19.746-7.858a.793.793,0,0,0-.5-.17,256,256,0,0,0-26.635-7.543l-22.306-12.475a.8.8,0,1,0-.779,1.393l17.76,9.932a297.016,297.016,0,0,0-36.157-5.1.8.8,0,0,0-.128,1.591,277.33,277.33,0,0,1,64.871,12.746l-26.279,4.355a.8.8,0,1,0,.261,1.574l29.233-4.844a210.959,210.959,0,0,1,43.5,20.563c4.392,2.764,8.319,5.5,11.8,8.108-4.651.595-19,1.251-47.379-6.745a.8.8,0,1,0-.433,1.535c20.931,5.9,34.24,7.168,41.819,7.168a38.014,38.014,0,0,0,7.751-.621c13.46,10.386,19.668,18.565,19.746,18.67a.8.8,0,1,0,1.278-.956Z" transform="translate(-114.212 -1116.609)" fill="#e9a71a"/>
    </g>
    <g id="Group_5" data-name="Group 5" transform="translate(132.527 248.906)">
      <path id="Path_6" data-name="Path 6" d="M422.67,947.106s-2.52-9.7-1.843-18.71,1.855-32.53-10.952-45.343-62.581-43.5-125.54-23.876c0,0,19.911,13.733,24.007,22.185,4.946,10.209,19.457,47.914,31.516,56.884s35.9,11.9,54.762,10.135S422.67,947.106,422.67,947.106Z" transform="translate(-284.334 -852.793)" fill="#ffd32f"/>
      <g id="Group_4" data-name="Group 4" transform="translate(113.033 27.123)">
        <path id="Path_7" data-name="Path 7" d="M884.427,1039.176a.8.8,0,0,1-.666-.686l-5.441-42.267a.8.8,0,0,1,1.582-.2l5.441,42.267a.8.8,0,0,1-.689.893A.809.809,0,0,1,884.427,1039.176Z" transform="translate(-878.313 -995.323)" fill="#513983"/>
      </g>
      <path id="Path_8" data-name="Path 8" d="M438.84,970.073c-.062-.118-5.056-9.434-17.055-22.086a.8.8,0,0,0-.116-.122c-3.329-3.5-7.193-7.259-11.637-11.145a198.041,198.041,0,0,0-18.86-14.531l-19.09-34.927a.8.8,0,1,0-1.4.766l17.622,32.24c-5.484-3.609-11.565-7.259-18.282-10.838a.794.794,0,0,0-.464-.245,255.954,255.954,0,0,0-25.136-11.6l-20.091-15.8a.8.8,0,1,0-.987,1.255l16,12.578a297,297,0,0,0-34.921-10.668.8.8,0,1,0-.374,1.551,277.345,277.345,0,0,1,62.094,22.7l-26.636.208a.8.8,0,1,0,.012,1.6l29.631-.232a210.959,210.959,0,0,1,39.766,27.088c3.908,3.414,7.361,6.724,10.394,9.847-4.687-.137-18.965-1.724-45.75-14.043a.8.8,0,0,0-.667,1.449c19.757,9.087,32.706,12.414,40.192,13.594a38.008,38.008,0,0,0,7.753.594c11.678,12.356,16.536,21.4,16.6,21.518a.8.8,0,0,0,1.411-.745Z" transform="translate(-299.799 -876.133)" fill="#e9a71a"/>
    </g>
    <g id="Group_7" data-name="Group 7" transform="translate(443.809 184.435)">
      <path id="Path_9" data-name="Path 9" d="M1929.071,635.661s-.154-10.025-3.2-18.526-10.446-30.863-1.512-46.622,48.746-58.583,114.657-56.429c0,0-15.538,18.537-17.235,27.775-2.05,11.157-6,51.364-15.238,63.221s-31.44,21.029-50.089,24.345S1929.071,635.661,1929.071,635.661Z" transform="translate(-1920.09 -514.006)" fill="#ffd32f"/>
      <g id="Group_6" data-name="Group 6" transform="translate(14.133 50.338)">
        <path id="Path_10" data-name="Path 10" d="M2001.49,822.244a.8.8,0,0,0,.46-.839l-6.005-42.19a.8.8,0,1,0-1.579.225l6.005,42.191a.8.8,0,0,0,1.12.614Z" transform="translate(-1994.357 -778.53)" fill="#513983"/>
      </g>
      <path id="Path_11" data-name="Path 11" d="M1963.112,650.633c.028-.131,2.362-10.439,10.561-25.829a.8.8,0,0,1,.079-.148c2.277-4.263,5-8.912,8.251-13.841a198.04,198.04,0,0,1,14.313-19.026l9.1-38.748a.8.8,0,1,1,1.554.365l-8.4,35.768c4.325-4.938,9.216-10.075,14.737-15.313a.794.794,0,0,1,.382-.36,255.96,255.96,0,0,1,21.142-17.871l15.161-20.575a.8.8,0,1,1,1.285.947l-12.071,16.381a296.971,296.971,0,0,1,30.822-19.578.8.8,0,0,1,.774,1.4,277.333,277.333,0,0,0-53.813,38.4l25.731-6.889a.8.8,0,0,1,.537,1.5.809.809,0,0,1-.124.044l-28.624,7.663a210.935,210.935,0,0,0-31.121,36.7c-2.858,4.331-5.306,8.441-7.4,12.258,4.481-1.38,17.823-6.71,40.362-25.714a.8.8,0,1,1,1.029,1.219c-16.625,14.018-28.222,20.671-35.124,23.8a38.005,38.005,0,0,1-7.315,2.636c-7.968,15.019-10.243,25.031-10.271,25.159a.8.8,0,0,1-1.558-.342Z" transform="translate(-1954.91 -529.149)" fill="#e9a71a"/>
    </g>
    <g id="Group_8" data-name="Group 8" transform="translate(170.325 147.309)">
      <path id="Path_12" data-name="Path 12" d="M631.935,328.094c-53.411,0-90.639,50.831-133.554,110.032-26.67,36.791-14.519,70.35,4.588,94.88a108.873,108.873,0,0,0,82.888,41.864c28.835.775,71.1,1.663,113.313,1.663,24.933,0,49.9-.24,72-1.051,108.851-4,74-213.768,20.144-213.758a21.6,21.6,0,0,0-3.706.326c-21.817,3.8-31.535,6.632-39.69,6.632-13.131,0-22.209-7.341-71.205-29.786-16.245-7.442-31.046-10.8-44.779-10.8Z" transform="translate(-482.958 -326.347)" fill="#fceec8"/>
      <path id="Path_13" data-name="Path 13" d="M1793.411,318.913c-7.449,0-17.983,1.7-17.983,9.923s13.532,16.538,20.98,16.538,8.992-5.01,8.992-13.231-4.54-13.231-11.989-13.231Z" transform="translate(-1529.473 -318.913)" fill="#7d5ee0" opacity="0.15"/>
    </g>
    <g id="Group_13" data-name="Group 13" transform="translate(244.669 183.5)">
      <path id="Path_14" data-name="Path 14" d="M886.233,579.2s-13.85-3.544-12.512-13.44,11.063-9,12.052-14.516-1.3-12.054,4.263-16.135,12.368-3.226,13.869-4.805,3.547-6.256,5.838-7.787,5.27-7.468,11.562-9.179,9.647.289,13.875-4.244c0,0,2.6,5.728,2.63,8.3s-3.633,7.537-8.316,8.884-11.47,8.552-11.209,13.195,1.686,6.593,3.239,9.271,3.563,6.869-2.621,10.592-6.707,5.269-5.753,10.117-.238,9.492-12.291,10.527C888.067,581.078,886.233,579.2,886.233,579.2Z" transform="translate(-873.63 -509.094)" fill="#7d5ee0"/>
      <g id="Group_9" data-name="Group 9" transform="translate(8.06 9.389)">
        <path id="Path_15" data-name="Path 15" d="M916.336,643.16a.554.554,0,0,1-.347-.565,120.232,120.232,0,0,1,9.514-37.448,117.146,117.146,0,0,1,15.842-26.192c10.925-13.657,21.37-20.369,21.474-20.436a.554.554,0,0,1,.594.935c-.1.065-10.419,6.7-21.232,20.228A117.381,117.381,0,0,0,917.092,642.7a.554.554,0,0,1-.6.5A.56.56,0,0,1,916.336,643.16Z" transform="translate(-915.987 -558.434)" fill="#513983"/>
      </g>
      <g id="Group_10" data-name="Group 10" transform="translate(18.2 39.642)">
        <path id="Path_16" data-name="Path 16" d="M969.62,733.1a.554.554,0,0,1-.067-1l25.894-14.629a.554.554,0,1,1,.545.965L970.1,733.071A.553.553,0,0,1,969.62,733.1Z" transform="translate(-969.271 -717.407)" fill="#513983"/>
      </g>
      <g id="Group_11" data-name="Group 11" transform="translate(19.42 29.988)">
        <path id="Path_17" data-name="Path 17" d="M976.028,689.44a.552.552,0,0,1-.246-.193c-.189-.265-.293-.411,1.475-11.391.856-5.318,1.755-10.661,1.764-10.714a.554.554,0,0,1,1.093.184c-1.358,8.065-3.353,20.349-3.341,21.475a.554.554,0,0,1-.745.638Zm.656-.836h0Z" transform="translate(-975.683 -666.68)" fill="#513983"/>
      </g>
      <g id="Group_12" data-name="Group 12" transform="translate(44.62 8.825)">
        <path id="Path_18" data-name="Path 18" d="M1108.452,565.192a.555.555,0,0,1-.265-.81l5.445-8.653a.554.554,0,0,1,.938.59l-5.445,8.653A.554.554,0,0,1,1108.452,565.192Z" transform="translate(-1108.103 -555.47)" fill="#513983"/>
      </g>
    </g>
    <g id="Group_20" data-name="Group 20" transform="translate(407.874 184.527)">
      <path id="Path_19" data-name="Path 19" d="M1738.6,598.267a44.169,44.169,0,0,0-2.657-12.191c-2.266-5.549-7.815-20.163-2.345-30.869s30.635-40.247,74.4-40.716c0,0-9.769,12.738-10.628,18.912-1.038,7.457-2.5,34.23-8.284,42.357s-20.241,14.849-32.51,17.584A143.107,143.107,0,0,0,1738.6,598.267Z" transform="translate(-1731.258 -514.49)" fill="#afdf6d"/>
      <g id="Group_14" data-name="Group 14" transform="translate(6.917 2.512)">
        <path id="Path_20" data-name="Path 20" d="M1768.029,609.376a.453.453,0,0,1-.073-.006.421.421,0,0,1-.343-.487c.019-.112,2.058-11.363,11.366-26.908a141.517,141.517,0,0,1,20.39-26.161,185.106,185.106,0,0,1,35.693-28.061.421.421,0,0,1,.44.719c-30.644,18.755-47.245,39.66-55.775,53.894-9.242,15.421-11.265,26.552-11.284,26.662A.422.422,0,0,1,1768.029,609.376Z" transform="translate(-1767.608 -527.691)" fill="#afdf6d"/>
      </g>
      <g id="Group_15" data-name="Group 15" transform="translate(8.832 36.427)">
        <path id="Path_21" data-name="Path 21" d="M1783.364,734.545a.409.409,0,0,1-.078.007.421.421,0,0,1-.413-.344l-5.2-27.8a.421.421,0,0,1,.828-.155l5.2,27.8A.421.421,0,0,1,1783.364,734.545Z" transform="translate(-1777.669 -705.908)" fill="#afdf6d"/>
      </g>
      <g id="Group_16" data-name="Group 16" transform="translate(13.15 47.329)">
        <path id="Path_22" data-name="Path 22" d="M1800.866,782.718a.416.416,0,0,1-.083.008.421.421,0,0,1-.082-.834h0c.09-.018,9.193-2.019,27.192-18.583a.421.421,0,0,1,.57.62C1810.242,780.7,1801.24,782.643,1800.866,782.718Z" transform="translate(-1800.362 -763.198)" fill="#afdf6d"/>
      </g>
      <g id="Group_17" data-name="Group 17" transform="translate(27.222 17.436)">
        <path id="Path_23" data-name="Path 23" d="M1874.729,633a.431.431,0,0,1-.079-.007.421.421,0,0,1-.335-.492l4.938-26.039a.421.421,0,1,1,.827.157l-4.938,26.039A.421.421,0,0,1,1874.729,633Z" transform="translate(-1874.307 -606.116)" fill="#afdf6d"/>
      </g>
      <g id="Group_18" data-name="Group 18" transform="translate(37.947 25.173)">
        <path id="Path_24" data-name="Path 24" d="M1931.086,653.578a.421.421,0,0,1-.127-.823l18.948-5.965a.421.421,0,0,1,.253.8l-18.948,5.965A.424.424,0,0,1,1931.086,653.578Z" transform="translate(-1930.664 -646.771)" fill="#afdf6d"/>
      </g>
      <g id="Group_19" data-name="Group 19" transform="translate(51.652 4.424)">
        <path id="Path_25" data-name="Path 25" d="M2003.1,552.661a.421.421,0,0,1-.349-.656l9.462-14.082a.421.421,0,0,1,.7.47l-9.462,14.082A.421.421,0,0,1,2003.1,552.661Z" transform="translate(-2002.683 -537.737)" fill="#afdf6d"/>
      </g>
    </g>
    <g id="Group_27" data-name="Group 27" transform="translate(146.021 214.709)">
      <path id="Path_26" data-name="Path 26" d="M485.306,830.109s.732-12.45,4.98-22.849,14.647-37.789,4.394-57.855-57.416-75.431-139.438-76.31c0,0,18.309,23.874,19.92,35.446,1.946,13.976,4.687,64.153,15.526,79.386s37.935,27.829,60.931,32.955S485.306,830.109,485.306,830.109Z" transform="translate(-355.242 -673.094)" fill="rgba(175,223,109,0.75)"/>
      <g id="Group_21" data-name="Group 21" transform="translate(3.228 4.708)">
        <path id="Path_27" data-name="Path 27" d="M499.039,850.931a.814.814,0,0,0,.137-.012.789.789,0,0,0,.642-.913c-.036-.21-3.857-21.3-21.3-50.431A265.232,265.232,0,0,0,440.3,750.543c-18.9-19.294-41.4-36.989-66.9-52.592a.789.789,0,0,0-.824,1.347c57.432,35.151,88.545,74.331,104.533,101.008,17.321,28.9,21.112,49.764,21.149,49.971A.789.789,0,0,0,499.039,850.931Z" transform="translate(-372.204 -697.835)" fill="#3e5a17"/>
      </g>
      <g id="Group_22" data-name="Group 22" transform="translate(115.947 68.271)">
        <path id="Path_28" data-name="Path 28" d="M965.18,1085.521a.79.79,0,0,0,.921-.631l9.739-52.105a.789.789,0,1,0-1.552-.29l-9.739,52.105A.789.789,0,0,0,965.18,1085.521Z" transform="translate(-964.535 -1031.85)" fill="#513983"/>
      </g>
      <g id="Group_23" data-name="Group 23" transform="translate(66.251 88.704)">
        <path id="Path_29" data-name="Path 29" d="M755.363,1175.807a.745.745,0,0,0,.155.016.789.789,0,0,0,.155-1.563h0c-.168-.034-17.229-3.784-50.963-34.828a.789.789,0,1,0-1.069,1.161C737.789,1172.019,754.661,1175.667,755.363,1175.807Z" transform="translate(-703.386 -1139.223)" fill="#3e5a17"/>
      </g>
      <g id="Group_24" data-name="Group 24" transform="translate(81.966 32.679)">
        <path id="Path_30" data-name="Path 30" d="M796.007,895.2a.8.8,0,0,0,.148-.014.789.789,0,0,0,.628-.922l-9.254-48.8a.789.789,0,1,0-1.551.294l9.254,48.8A.789.789,0,0,0,796.007,895.2Z" transform="translate(-785.965 -844.82)" fill="#513983"/>
      </g>
      <g id="Group_25" data-name="Group 25" transform="translate(35.608 47.179)">
        <path id="Path_31" data-name="Path 31" d="M578.66,933.773a.789.789,0,0,0,.237-1.542l-35.512-11.179a.789.789,0,1,0-.474,1.505l35.512,11.18A.8.8,0,0,0,578.66,933.773Z" transform="translate(-542.359 -921.015)" fill="#3e5a17"/>
      </g>
      <g id="Group_26" data-name="Group 26" transform="translate(27.699 8.291)">
        <path id="Path_32" data-name="Path 32" d="M519.321,744.636a.789.789,0,0,0,.655-1.23L502.24,717.014a.789.789,0,0,0-1.31.881l17.735,26.392A.788.788,0,0,0,519.321,744.636Z" transform="translate(-500.796 -716.664)" fill="#3e5a17"/>
      </g>
    </g>
    <g id="Group_31" data-name="Group 31" transform="translate(144.293 368.238)">
      <g id="Group_28" data-name="Group 28" transform="translate(0 32.583)">
        <rect id="Rectangle_2" data-name="Rectangle 2" width="116.145" height="0.571" fill="#6e59c9"/>
      </g>
      <g id="Group_29" data-name="Group 29" transform="translate(151.731 32.583)">
        <rect id="Rectangle_3" data-name="Rectangle 3" width="132.257" height="0.571" fill="#6e59c9"/>
      </g>
      <g id="Group_30" data-name="Group 30" transform="translate(303.399 32.583)">
        <rect id="Rectangle_4" data-name="Rectangle 4" width="93.817" height="0.571" fill="#6e59c9"/>
      </g>
      <path id="Path_33" data-name="Path 33" d="M923.951,1513.027s-.8-14.569,10.433-16.628c10.687-1.959,16.719,9.5,16.719,9.5s9.35-26.835,25.522-26.008c15.061.77,2.42,33.137,2.42,33.137Z" transform="translate(-813.989 -1479.872)" fill="rgba(175,223,109,0.75)"/>
      <path id="Path_34" data-name="Path 34" d="M1947.458,1554.024s2.674-14.751,13.906-16.81c10.687-1.959,13.246,9.682,13.246,9.682s8.525-17.19,24.7-16.363c15.061.77,3.245,23.491,3.245,23.491Z" transform="translate(-1642.734 -1520.869)" fill="rgba(175,223,109,0.75)"/>
    </g>
    <g id="Group_32" data-name="Group 32" transform="translate(402.306 234.789)">
      <path id="Path_35" data-name="Path 35" d="M1702.283,786.872a.286.286,0,0,1-.1-.553,120.786,120.786,0,0,1,32.4-7.317,114.916,114.916,0,0,1,26.091.813c14.6,2.144,23.659,6.471,23.749,6.514a.285.285,0,1,1-.248.514c-.089-.043-9.088-4.337-23.607-6.467a117.605,117.605,0,0,0-58.187,6.477A.283.283,0,0,1,1702.283,786.872Z" transform="translate(-1701.997 -778.611)" fill="#6e59c9"/>
    </g>
    <path id="Path_36" data-name="Path 36" d="M1440.764,121.653c-6.379-.571-10.912,5.362-10.912,5.362,2.967-9.638,1.927-19.512-9.492-20.015-18.8-.827-26.339,21.936-26.339,21.936s3.209-11.408-9.212-9.449c-13.054,2.059-22.345,16.578-22.345,16.578h83.386S1449.979,122.478,1440.764,121.653Z" transform="translate(-1024.771)" fill="#7d5ee0" opacity="0.15"/>
    <path id="Path_37" data-name="Path 37" d="M2211.089,322.782c-5.632-.5-9.634,4.734-9.634,4.734,2.62-8.509,1.7-17.226-8.38-17.67-16.594-.73-23.254,19.366-23.254,19.366s2.833-10.072-8.133-8.342c-11.525,1.818-19.728,14.636-19.728,14.636h73.618S2219.225,323.51,2211.089,322.782Z" transform="translate(-1655.931 -164.246)" fill="#7d5ee0" opacity="0.15"/>
    <path id="Path_38" data-name="Path 38" d="M491.485,422.606c-4.125-.369-7.055,3.466-7.055,3.467,1.918-6.231,1.246-12.616-6.137-12.94-12.152-.535-17.03,14.183-17.03,14.183s2.075-7.376-5.956-6.11c-8.44,1.331-14.447,10.718-14.447,10.718h53.914S497.443,423.139,491.485,422.606Z" transform="translate(-278.546 -247.882)" fill="#7d5ee0" opacity="0.15"/>
    <g id="Group_33" data-name="Group 33" transform="translate(219.425 180.562)">
      <path id="Path_39" data-name="Path 39" d="M1413.73,1398.339h-59.754l3.806-33.683h52.142Z" transform="translate(-1237.324 -1198.906)" fill="#3b3b3b"/>
      <path id="Path_40" data-name="Path 40" d="M1384.845,1555.892a5.154,5.154,0,0,1-.682,4.528,4.856,4.856,0,0,1-3.968,2.085h-67.557a4.856,4.856,0,0,1-3.968-2.085,5.155,5.155,0,0,1-.683-4.528l8.552-14.236h59.754Z" transform="translate(-1199.886 -1342.224)" fill="#3b3b3b"/>
      <path id="Rectangle_5" data-name="Rectangle 5" d="M51.1,0H231.685a51.1,51.1,0,0,1,51.1,51.1V129.3a51.1,51.1,0,0,1-51.1,51.1H51.1A51.1,51.1,0,0,1,0,129.3V51.1A51.1,51.1,0,0,1,51.1,0Z" fill="#717171"/>
      <path id="Path_41" data-name="Path 41" d="M1027.369,672.053H771.505c-5.218,0-9.448-3.575-9.448-7.985V531.891c0-4.41,4.23-7.985,9.448-7.985h255.864c5.218,0,9.448,3.575,9.448,7.985V664.068C1036.817,668.478,1032.587,672.053,1027.369,672.053Z" transform="translate(-758.045 -518.15)" fill="#304064"/>
      <path id="Path_42" data-name="Path 42" d="M740.977,1327.656v11.97a9.724,9.724,0,0,0,9.724,9.724h263.335a9.724,9.724,0,0,0,9.724-9.724v-11.97Z" transform="translate(-740.977 -1168.947)" fill="#3b2d6a"/>
      <path id="Path_43" data-name="Path 43" d="M1347.7,1526.951h59.178l.26,2.8,1.6,2.667-62.905-.087,1.55-2.579Z" transform="translate(-1230.731 -1330.317)" fill="gray"/>
    </g>
    <g id="Group_37" data-name="Group 37" transform="translate(311.93 390.613)">
      <g id="Group_36" data-name="Group 36">
        <g id="Group_35" data-name="Group 35">
          <g id="Group_34" data-name="Group 34">
            <path id="Path_44" data-name="Path 44" d="M1834.98,1639.377a.074.074,0,0,1-.05.013.078.078,0,0,1-.05.013.079.079,0,0,1-.051.013.087.087,0,0,1-.051.013.088.088,0,0,1-.05.014.1.1,0,0,1-.051.013.1.1,0,0,1-.051.014.11.11,0,0,1-.05.013.113.113,0,0,1-.051.013.111.111,0,0,1-.051.013.12.12,0,0,1-.051.013,13.4,13.4,0,0,0-.1.027.13.13,0,0,1-.05.013.134.134,0,0,1-.051.013.148.148,0,0,1-.05.014.156.156,0,0,1-.023.007.15.15,0,0,1-.06.019.155.155,0,0,1-.049.013.165.165,0,0,1-.049.013.163.163,0,0,1-.049.013.672.672,0,0,1-.1.026.181.181,0,0,1-.049.013.192.192,0,0,1-.049.013c-.012.005-.131.037-.147.039,0,0-5.722,1.521-5.908,1.569-2.1.676-2.125-5.023.12-4.193l5.842,1.532c.019,0,.136.034.147.038a.194.194,0,0,1,.049.013.183.183,0,0,1,.049.013.161.161,0,0,1,.05.013,9.968,9.968,0,0,1,.1.026.137.137,0,0,1,.049.013.155.155,0,0,1,.059.017.164.164,0,0,1,.026.009.14.14,0,0,1,.05.013.132.132,0,0,1,.05.013.134.134,0,0,1,.051.013.127.127,0,0,1,.05.013.124.124,0,0,1,.05.013.123.123,0,0,1,.05.013.11.11,0,0,1,.051.013,6.034,6.034,0,0,0,.1.026.1.1,0,0,1,.051.013.092.092,0,0,1,.051.013.087.087,0,0,1,.05.013.085.085,0,0,1,.051.013.083.083,0,0,1,.05.013.078.078,0,0,1,.051.013.074.074,0,0,1,.05.013C1835.135,1638.989,1835.129,1639.393,1834.98,1639.377Z" transform="translate(-1712.122 -1629.506)" fill="#ef487d"/>
            <path id="Path_45" data-name="Path 45" d="M1725.851,1612.478c-.014.006-17.141,5.762-17.237,5.792-1.735.608-4.116,1.589-6.195-2.066-3.568-6.274-.457-17.377,5.147-15.393.034.01,18.4,5.933,18.427,5.945C1727.785,1607.22,1727.981,1611.909,1725.851,1612.478Z" transform="translate(-1610.732 -1599.983)" fill="#f9cd93"/>
            <path id="Path_46" data-name="Path 46" d="M1700.646,1606.933l1.368,9.246,4,2.642,5.266-6.869-1.369-9.246-3.614-2.251Z" transform="translate(-1610.527 -1599.884)" fill="#f4d03f"/>
            <path id="Path_47" data-name="Path 47" d="M1326.858,1600.275l-99.29-.333.015-2.489,95.661.572Z" transform="translate(-1227.475 -1597.452)" fill="#fbc02d"/>
            <path id="Path_48" data-name="Path 48" d="M1328,1620.113l-100.713-.338.054-9.242,99.29.333Z" transform="translate(-1227.246 -1608.044)" fill="#fdd835"/>
            <path id="Path_49" data-name="Path 49" d="M1322.565,1666.3l-95.486-.461.039-6.745,100.713.338Z" transform="translate(-1227.079 -1647.366)" fill="#ffee58"/>
          </g>
        </g>
      </g>
    </g>
    <g id="Group_39" data-name="Group 39" transform="translate(280.996 188.43)">
      <path id="Path_50" data-name="Path 50" d="M1064.527,681.349l173.506.412V535H1064.527Z" transform="translate(-1064.527 -535)" fill="#fff"/>
      <rect id="Rectangle_6" data-name="Rectangle 6" width="129.974" height="16.888" rx="8.444" transform="translate(21.784 55.479)" fill="#d9edf9"/>
      <path id="Path_51" data-name="Path 51" d="M1300.53,1003.515H1187.444a8.444,8.444,0,0,1-8.444-8.444h0a8.444,8.444,0,0,1,8.444-8.444H1300.53a8.444,8.444,0,0,1,8.444,8.444h0A8.444,8.444,0,0,1,1300.53,1003.515Z" transform="translate(-1157.216 -900.683)" fill="#d9edf9"/>
      <path id="Path_59572" data-name="Path 59572" d="M8.444,0H121.53a8.444,8.444,0,1,1,0,16.888H8.444A8.444,8.444,0,0,1,8.444,0Z" transform="translate(21.784 116.409)" fill="#d4801e"/>
      <g id="Group_38" data-name="Group 38" transform="translate(75.82 122.568)">
        <path id="Path_52" data-name="Path 52" d="M1462.955,1179.307h.527v4.531h2.793v.456h-3.32Z" transform="translate(-1462.955 -1179.264)" fill="#fff"/>
        <path id="Path_53" data-name="Path 53" d="M1483.441,1183.824a2.421,2.421,0,0,1-.94-.908,2.654,2.654,0,0,1,0-2.594,2.421,2.421,0,0,1,.94-.908,2.888,2.888,0,0,1,2.679,0,2.428,2.428,0,0,1,.937.908,2.642,2.642,0,0,1,0,2.6,2.426,2.426,0,0,1-.937.909,2.888,2.888,0,0,1-2.679,0Zm2.412-.406a1.933,1.933,0,0,0,.748-.741,2.2,2.2,0,0,0,0-2.116,1.932,1.932,0,0,0-.748-.741,2.277,2.277,0,0,0-2.141,0,1.951,1.951,0,0,0-.755.741,2.179,2.179,0,0,0,0,2.116,1.953,1.953,0,0,0,.755.741,2.278,2.278,0,0,0,2.141,0Z" transform="translate(-1478.507 -1179.082)" fill="#fff"/>
        <path id="Path_54" data-name="Path 54" d="M1517.528,1181.618h.506v1.9a2.439,2.439,0,0,1-.826.47,3.071,3.071,0,0,1-1,.164,2.759,2.759,0,0,1-1.347-.328,2.419,2.419,0,0,1-.941-.909,2.643,2.643,0,0,1,0-2.6,2.421,2.421,0,0,1,.941-.908,2.773,2.773,0,0,1,1.354-.328,2.921,2.921,0,0,1,1.047.182,2.08,2.08,0,0,1,.8.538l-.328.335a2.051,2.051,0,0,0-1.5-.584,2.237,2.237,0,0,0-1.094.267,1.959,1.959,0,0,0-.766.741,2.145,2.145,0,0,0,0,2.113,2,2,0,0,0,.762.741,2.2,2.2,0,0,0,1.09.271,2.173,2.173,0,0,0,1.3-.385Z" transform="translate(-1503.941 -1179.082)" fill="#fff"/>
        <path id="Path_55" data-name="Path 55" d="M1544.837,1179.307h.527v4.987h-.527Z" transform="translate(-1529.255 -1179.264)" fill="#fff"/>
        <path id="Path_56" data-name="Path 56" d="M1560.312,1179.307v4.987h-.435l-3.206-4.047v4.047h-.527v-4.987h.434l3.213,4.047v-4.047Z" transform="translate(-1538.41 -1179.264)" fill="#fff"/>
      </g>
      <rect id="Rectangle_8" data-name="Rectangle 8" width="88.384" height="3.714" transform="translate(27.772 61.685)" fill="#b8d4f5"/>
      <ellipse id="Ellipse_1" data-name="Ellipse 1" cx="3.342" cy="2.971" rx="3.342" ry="2.971" transform="translate(27.772 92.137)" fill="#b8d4f5"/>
      <circle id="Ellipse_2" data-name="Ellipse 2" cx="2.971" cy="2.971" r="2.971" transform="translate(38.17 92.137)" fill="#b8d4f5"/>
      <circle id="Ellipse_3" data-name="Ellipse 3" cx="2.971" cy="2.971" r="2.971" transform="translate(48.568 92.137)" fill="#b8d4f5"/>
      <circle id="Ellipse_4" data-name="Ellipse 4" cx="2.971" cy="2.971" r="2.971" transform="translate(58.966 92.137)" fill="#b8d4f5"/>
      <circle id="Ellipse_5" data-name="Ellipse 5" cx="2.971" cy="2.971" r="2.971" transform="translate(69.364 92.137)" fill="#b8d4f5"/>
      <ellipse id="Ellipse_6" data-name="Ellipse 6" cx="3.342" cy="2.971" rx="3.342" ry="2.971" transform="translate(79.019 92.137)" fill="#b8d4f5"/>
      <circle id="Ellipse_7" data-name="Ellipse 7" cx="2.971" cy="2.971" r="2.971" transform="translate(89.417 92.137)" fill="#b8d4f5"/>
      <circle id="Ellipse_8" data-name="Ellipse 8" cx="2.971" cy="2.971" r="2.971" transform="translate(99.815 92.137)" fill="#b8d4f5"/>
      <circle id="Ellipse_9" data-name="Ellipse 9" cx="2.971" cy="2.971" r="2.971" transform="translate(110.213 92.137)" fill="#b8d4f5"/>
      <circle id="Ellipse_10" data-name="Ellipse 10" cx="18.939" cy="18.939" r="18.939" transform="translate(67.878 8.21)" fill="#d9edf9"/>
      <path id="Path_57" data-name="Path 57" d="M1466.439,631.64a9.354,9.354,0,1,0-8.677,0,15.134,15.134,0,0,0-9.269,7.922,19.219,19.219,0,0,0,27.215,0A15.134,15.134,0,0,0,1466.439,631.64Z" transform="translate(-1375.425 -598.966)" fill="#b8d4f5"/>
    </g>
    <g id="Group_52" data-name="Group 52" transform="translate(227.837 256.557)">
      <g id="Group_41" data-name="Group 41" transform="translate(41.282 126.681)">
        <path id="Path_58" data-name="Path 58" d="M1034.67,1599.727a1.682,1.682,0,0,1-1.286,1.991,1.744,1.744,0,0,1-1.658-1.743,1.682,1.682,0,0,1,1.286-1.991A1.745,1.745,0,0,1,1034.67,1599.727Z" transform="translate(-1026.081 -1590.505)" fill="#cce3f5"/>
        <path id="Path_59" data-name="Path 59" d="M1017.313,1639.472c-.005.662-4.791,1.229-8.5,1.2s-6.711-.592-6.705-1.254,3.016-1.174,6.725-1.144S1017.318,1638.811,1017.313,1639.472Z" transform="translate(-1002.108 -1623.13)" fill="#000932"/>
        <g id="Group_40" data-name="Group 40" transform="translate(1.087)">
          <path id="Path_60" data-name="Path 60" d="M1011.181,1573.2c.058,0,.115,0,.174-.005A2.825,2.825,0,0,0,1014,1570.2l-.536-8.846a2.825,2.825,0,1,0-5.639.342l.536,8.846A2.825,2.825,0,0,0,1011.181,1573.2Z" transform="translate(-1007.822 -1558.699)" fill="#ffa08a"/>
        </g>
        <path id="Path_61" data-name="Path 61" d="M1003.534,1606.719l-1.41,6.645a40.709,40.709,0,0,0,14.4-.374,8.282,8.282,0,0,1-3.538-1.964,24.094,24.094,0,0,1-3.56-4.888A7.6,7.6,0,0,1,1003.534,1606.719Z" transform="translate(-1002.121 -1597.109)" fill="#cce3f5"/>
      </g>
      <circle id="Ellipse_11" data-name="Ellipse 11" cx="1.876" cy="1.876" r="1.876" transform="matrix(0.571, -0.821, 0.821, 0.571, 7.685, 128.1)" fill="#cce3f5"/>
      <g id="Group_42" data-name="Group 42" transform="translate(4.486 117.353)">
        <path id="Path_62" data-name="Path 62" d="M811.571,1522.518a2.821,2.821,0,0,0,2.294-1.173l5.183-7.189a2.825,2.825,0,0,0-4.583-3.3l-5.183,7.189a2.825,2.825,0,0,0,2.289,4.477Z" transform="translate(-808.748 -1509.678)" fill="#ffa08a"/>
      </g>
      <path id="Path_63" data-name="Path 63" d="M792.022,1545.736l-5.876,4.135,11.174,10.612s-.626-2.294-1.182-5.347c-.348-1.911.615-3.878,1.025-5.765C794.154,1548.315,791.794,1547.209,792.022,1545.736Z" transform="translate(-785.962 -1421.522)" fill="#cce3f5"/>
      <path id="Path_64" data-name="Path 64" d="M844.284,1163.059c-.093.783-.167,1.567-.243,2.351s-.14,1.569-.2,2.355q-.183,2.356-.314,4.716c-.174,3.147-.3,6.3-.37,9.453s-.041,6.319-.024,9.482c.012,1.582.008,3.162,0,4.742s-.049,3.157-.1,4.733l1.11-3.059c-.344.542-.682,1.088-1.046,1.615s-.744,1.044-1.142,1.548c-.792,1.01-1.642,1.979-2.414,3-.386.512-.756,1.036-1.1,1.575s-.676,1.092-1.012,1.639-.67,1.1-1,1.648-.665,1.1-.99,1.655q-1.971,3.317-3.853,6.7c-1.251,2.255-2.473,4.531-3.617,6.863a4.307,4.307,0,0,0,6.948,4.906c1.814-1.858,3.55-3.771,5.256-5.705s3.377-3.893,5.021-5.872c.414-.493.818-.992,1.228-1.487s.814-.995,1.219-1.494.814-.995,1.206-1.5.761-1.032,1.115-1.567c.707-1.07,1.336-2.2,2.022-3.28q.513-.815,1.077-1.594c.375-.52.777-1.021,1.172-1.527a5.039,5.039,0,0,0,1.03-2.443l.08-.616q.306-2.346.667-4.687c.247-1.56.5-3.12.767-4.679.528-3.118,1.068-6.235,1.512-9.36s.827-6.255,1.165-9.389q.249-2.351.454-4.7c.07-.784.123-1.57.186-2.356s.106-1.572.141-2.359a8,8,0,0,0-15.945-1.3Z" transform="translate(-819.465 -1105.95)" fill="#3b3b3b"/>
      <path id="Path_65" data-name="Path 65" d="M796.447,1578.423c-.662.655-3.693-1.334-6.769-4.443s-5.034-6.16-4.371-6.815,3.693,1.334,6.769,4.442S797.109,1577.767,796.447,1578.423Z" transform="translate(-785.177 -1438.772)" fill="#000932"/>
      <path id="Path_66" data-name="Path 66" d="M922.358,1249.644l-12.259-4.051.3-11,12.65,3.119Z" transform="translate(-886.326 -1169.59)" fill="#3b3b3b"/>
      <path id="Path_67" data-name="Path 67" d="M964.661,1177.777c.076,1.443.188,2.884.3,4.325l.181,2.16.2,2.159c.064.72.142,1.439.212,2.159s.14,1.439.222,2.158c.16,1.438.306,2.877.481,4.314.657,5.752,1.534,11.5,2.275,17.253.1.72.181,1.439.269,2.159l.066.54c.01.09.023.18.032.27l.016.271c.022.361.044.721.06,1.082.073,1.443.073,2.889.068,4.335s.024,2.891.135,4.333.243,2.885.375,4.327l.2,2.164q.1,1.082.213,2.165c.142,1.444.307,2.887.459,4.332.33,2.888.672,5.779,1.1,8.672v0a4.292,4.292,0,0,0,8.5-.1c.364-2.926.643-5.854.909-8.784.12-1.465.253-2.931.364-4.4q.087-1.1.165-2.2l.155-2.2q.151-2.2.28-4.4c.079-1.467.077-2.931.04-4.394s-.069-2.926-.027-4.393c.09-1.469-.012-2.927-.027-4.39-.115-5.849-.1-11.711-.3-17.565-.039-1.464-.107-2.927-.162-4.39-.026-.732-.066-1.463-.1-2.194s-.066-1.463-.109-2.194l-.123-2.193-.14-2.192c-.1-1.461-.2-2.922-.343-4.38a8,8,0,0,0-15.956,1.158Z" transform="translate(-930.496 -1116.763)" fill="#3b3b3b"/>
      <g id="Group_44" data-name="Group 44" transform="translate(26.281 3.468)">
        <path id="Path_68" data-name="Path 68" d="M931.726,953.372l17.184-9.3.218-.118a2.412,2.412,0,0,0,.26-.165l13.563-10A3.482,3.482,0,0,0,959,928.061L944.841,937.2l.478-.283-17.727,8.222a4.61,4.61,0,0,0,3.879,8.365C931.554,953.462,931.647,953.415,931.726,953.372Z" transform="translate(-924.608 -924.41)" fill="#ffa08a"/>
        <path id="Path_69" data-name="Path 69" d="M930.905,1006.778l8.957-5.242a4.792,4.792,0,0,0-4.62-8.393l-9.22,4.763a5.065,5.065,0,1,0,4.65,9C930.746,1006.869,930.834,1006.82,930.905,1006.778Z" transform="translate(-923.28 -977.125)" fill="#d15d3e"/>
        <g id="Group_43" data-name="Group 43" transform="translate(34.944)">
          <path id="Path_70" data-name="Path 70" d="M1106.914,920.155s-.279,5.1,3.785,5.735l4.927-2.6-3.736-5.176S1107.64,919.4,1106.914,920.155Z" transform="translate(-1106.91 -916.807)" fill="#ffa08a"/>
          <path id="Path_71" data-name="Path 71" d="M1139.549,926.1l2.814-.648,1.407-.315.7-.152.347-.072c.117-.025.225-.044.332-.064l.024,0a.693.693,0,0,0-.216-1.368c-.131.017-.262.034-.381.053l-.365.056-.72.118-1.431.245-2.854.506a.84.84,0,0,0,.293,1.654l.039-.008Z" transform="translate(-1132.501 -921.144)" fill="#ffa08a"/>
          <path id="Path_72" data-name="Path 72" d="M1134.448,919.556l2.814-.648,1.407-.315.7-.152.347-.072c.117-.025.225-.044.332-.064l.024,0a.693.693,0,0,0-.216-1.368c-.131.017-.262.034-.381.053l-.365.057-.72.118-1.431.245-2.854.506a.84.84,0,0,0,.294,1.655l.039-.008Z" transform="translate(-1128.37 -915.842)" fill="#ffa08a"/>
          <path id="Path_73" data-name="Path 73" d="M1131.434,914.107l2.262-.784,1.131-.382.563-.184c.187-.06.374-.118.544-.167l.019-.006a.693.693,0,0,0-.341-1.342c-.217.048-.416.1-.614.147l-.589.153-1.166.315-2.32.648a.84.84,0,0,0,.452,1.619l.047-.014Z" transform="translate(-1125.858 -911.226)" fill="#ffa08a"/>
          <path id="Path_74" data-name="Path 74" d="M1138.877,934.418l2.808-.678,1.4-.33.7-.159.346-.076c.117-.026.224-.047.331-.068l.026,0a.693.693,0,0,0-.217-1.368c-.131.016-.262.032-.382.049l-.365.053-.721.11-1.434.23-2.86.475a.9.9,0,0,0,.3,1.782l.062-.013Z" transform="translate(-1131.886 -927.827)" fill="#ffa08a"/>
          <path id="Path_75" data-name="Path 75" d="M1130.251,946.052l2.281-.229,1.139-.108c.376-.033.763-.068,1.118-.09h.016a.693.693,0,0,0-.023-1.385c-.41-.012-.788-.012-1.177-.013l-1.154,0-2.3.02a.9.9,0,0,0,.016,1.807c.027,0,.054,0,.081,0Z" transform="translate(-1125 -937.946)" fill="#ffa08a"/>
        </g>
      </g>
      <g id="Group_45" data-name="Group 45" transform="translate(40.994 69.269)">
        <path id="Path_76" data-name="Path 76" d="M1004.48,1266.61h.007l1.442,0a3.686,3.686,0,0,0,3.677-3.811l-.344-5.544a.267.267,0,0,0-.532.033l.343,5.536a3.153,3.153,0,0,1-3.146,3.252l-1.442,0h-.006a3.154,3.154,0,0,1-3.148-2.976l-.2-3.566a.266.266,0,1,0-.532.03l.2,3.566A3.687,3.687,0,0,0,1004.48,1266.61Z" transform="translate(-1000.599 -1257.003)" fill="#212121"/>
      </g>
      <path id="Path_77" data-name="Path 77" d="M1002.432,1028.617l11.347,15.909.133.187a3.873,3.873,0,0,0,4.668,1.313l18.369-7.83a3.481,3.481,0,0,0-2.561-6.471l-18.753,6.859,4.8,1.5L1010.1,1023.5a4.61,4.61,0,0,0-7.824,4.879C1002.322,1028.457,1002.38,1028.544,1002.432,1028.617Z" transform="translate(-960.394 -996.909)" fill="#ffa08a"/>
      <path id="Path_78" data-name="Path 78" d="M1001.626,1025.431l5.661,8.7a4.792,4.792,0,0,0,8.165-5.013l-5.2-8.984a5.065,5.065,0,0,0-8.77,5.072C1001.529,1025.276,1001.582,1025.362,1001.626,1025.431Z" transform="translate(-959.772 -993.89)" fill="#d15d3e"/>
      <g id="Group_46" data-name="Group 46" transform="translate(72.937 31.01)">
        <path id="Path_79" data-name="Path 79" d="M1170.742,1075.473s-3.879-3.317-1.536-6.7l5.279-1.773,1.165,6.276S1171.792,1075.471,1170.742,1075.473Z" transform="translate(-1168.453 -1064.9)" fill="#ffa08a"/>
        <path id="Path_80" data-name="Path 80" d="M1199.229,1066.078l2.336-1.715,1.165-.866.582-.439.293-.225c.1-.074.2-.156.3-.239a.693.693,0,0,0-.839-1.1l-.021.016c-.088.064-.177.128-.275.2l-.292.2-.594.4-1.2.8-2.412,1.589,0,0a.84.84,0,0,0,.924,1.4Z" transform="translate(-1192.29 -1060.334)" fill="#ffa08a"/>
        <path id="Path_81" data-name="Path 81" d="M1200.445,1074.29l2.336-1.715,1.165-.866.582-.439.292-.225c.1-.074.2-.156.3-.239a.693.693,0,0,0-.839-1.1l-.021.016c-.088.064-.177.128-.276.2l-.292.2-.594.4-1.2.8-2.412,1.589,0,0a.84.84,0,0,0,.924,1.4Z" transform="translate(-1193.275 -1066.983)" fill="#ffa08a"/>
        <path id="Path_82" data-name="Path 82" d="M1201.3,1083.653l2.07-1.231,1.033-.625.517-.32c.173-.108.346-.218.53-.342a.693.693,0,0,0-.734-1.175l-.019.011c-.154.09-.324.185-.5.278l-.522.28-1.057.555-2.129,1.1-.007,0a.84.84,0,1,0,.769,1.494Z" transform="translate(-1194.024 -1075.316)" fill="#ffa08a"/>
        <path id="Path_83" data-name="Path 83" d="M1192.734,1060.721l2.318-1.741,1.156-.879.578-.445.29-.228c.1-.075.2-.158.3-.242a.693.693,0,0,0-.838-1.1l-.023.016c-.089.063-.178.126-.278.193l-.294.2-.6.4-1.208.787-2.429,1.563,0,0a.9.9,0,1,0,.977,1.519Z" transform="translate(-1186.943 -1055.957)" fill="#ffa08a"/>
        <path id="Path_84" data-name="Path 84" d="M1181.294,1062.083l1.605-1.652.8-.833c.267-.282.528-.555.8-.86a.693.693,0,0,0-.983-.975l-.014.013c-.261.242-.553.5-.837.746l-.864.75-1.74,1.492,0,0a.9.9,0,0,0,1.176,1.372C1181.255,1062.122,1181.276,1062.1,1181.294,1062.083Z" transform="translate(-1177.595 -1057.272)" fill="#ffa08a"/>
      </g>
      <path id="Path_85" data-name="Path 85" d="M968.084,971.288l.662,10.012c-2.108,3.669-6.216,2.875-7.57.172l-.31-10.118C962.083,969.251,965.821,969.139,968.084,971.288Z" transform="translate(-927.433 -955.125)" fill="#ffa08a"/>
      <ellipse id="Ellipse_12" data-name="Ellipse 12" cx="2.88" cy="4.176" rx="2.88" ry="4.176" transform="translate(33.19 28.585) rotate(-89.691)" fill="#ffa08a"/>
      <path id="Path_86" data-name="Path 86" d="M980.416,996.68l3.928,2.943-.195-2.943Z" transform="translate(-943.263 -976.95)" fill="#3b3348"/>
      <path id="Path_87" data-name="Path 87" d="M962.668,908.712l0-.019h0c-.759-2.81-3.938-4.435-7.159-3.637-3.257.807-5.321,3.788-4.61,6.656a4.759,4.759,0,0,0,.574,1.359l.862,4.6a6.111,6.111,0,0,0,2.947,4.13,7.1,7.1,0,0,0,5.3.732,4.57,4.57,0,0,0,3.114-5.722l-.862-6.834a4.752,4.752,0,0,0-.138-1.188C962.683,908.763,962.675,908.738,962.668,908.712Z" transform="translate(-919.245 -902.598)" fill="#ffa08a"/>
      <g id="Group_47" data-name="Group 47" transform="translate(40.689 8.189)">
        <path id="Path_88" data-name="Path 88" d="M999.206,936.7l.031,0,1.667-.238a.213.213,0,1,0-.06-.422l-1.667.238a.213.213,0,0,0,.03.424Z" transform="translate(-998.993 -936.035)" fill="#461f16"/>
      </g>
      <g id="Group_48" data-name="Group 48" transform="translate(40.578 9.133)">
        <path id="Path_89" data-name="Path 89" d="M1000.951,941.882a1.542,1.542,0,1,0-1.19.825A1.963,1.963,0,0,0,1000.951,941.882Z" transform="translate(-998.413 -941.282)" fill="#fff"/>
        <path id="Path_90" data-name="Path 90" d="M1005.988,941.6a.68.68,0,1,0-.6.755A.68.68,0,0,0,1005.988,941.6Z" transform="translate(-1003.449 -940.996)" fill="#461f16"/>
      </g>
      <path id="Path_91" data-name="Path 91" d="M992.356,954.146a1.375,1.375,0,1,0,1.2-1.527A1.375,1.375,0,0,0,992.356,954.146Z" transform="translate(-952.922 -941.266)" fill="#ff7d90" opacity="0.5"/>
      <path id="Path_92" data-name="Path 92" d="M1011.263,947.2a2.324,2.324,0,0,1,1.168,1.475c-.044.447-.8.8-1.383.6s-.938-.7-.8-1.123S1010.681,947.005,1011.263,947.2Z" transform="translate(-967.395 -936.859)" fill="#ffa08a"/>
      <path id="Path_93" data-name="Path 93" d="M954.522,908.5a19.3,19.3,0,0,0-1.426,5.087c-.08,1.273.02,4.575.112,7a2.632,2.632,0,0,1-2.7,2.729l-1.872-.056a2.554,2.554,0,0,1-2.441-2.121l-1.6-9.329a3.656,3.656,0,0,1,2.425-4.081l6.084-2.071Z" transform="translate(-914.208 -903.252)" fill="#461f16"/>
      <g id="Group_50" data-name="Group 50" transform="translate(36.004 9.25)">
        <path id="Path_94" data-name="Path 94" d="M978.291,943.4c.095,1.079-.17,2.214-1.249,2.308a2.669,2.669,0,0,1-2.659-1.966,1.962,1.962,0,1,1,3.908-.343Z" transform="translate(-974.375 -941.607)" fill="#ffa08a"/>
        <g id="Group_49" data-name="Group 49" transform="translate(1.453 1.275)">
          <path id="Path_95" data-name="Path 95" d="M982.628,949.862a.213.213,0,0,0,.148-.366,1.3,1.3,0,0,1-.338-.956.213.213,0,1,0-.425-.038,1.735,1.735,0,0,0,.466,1.3A.213.213,0,0,0,982.628,949.862Z" transform="translate(-982.01 -948.308)" fill="#461f16"/>
        </g>
      </g>
      <circle id="Ellipse_13" data-name="Ellipse 13" cx="2.345" cy="2.345" r="2.345" transform="translate(28.986 6.758) rotate(-49.392)" fill="#461f16"/>
      <path id="Path_96" data-name="Path 96" d="M957.613,893.046c-4.6.4-7.13,2.915-5.726,5.5,3.478-1.462,8.759-.631,10.574.646a1.681,1.681,0,0,0,2.167-.2c.593-.6.529-1.289.435-2.354C964.859,894.315,961.523,892.7,957.613,893.046Z" transform="translate(-919.849 -893)" fill="#461f16"/>
      <path id="Path_97" data-name="Path 97" d="M951.885,899.952l-.005-.007.049-.04c.086-.091.192-.2.315-.316.193-.294,2.268-3.344,5.647-3.622l.108-.008a5.034,5.034,0,0,1,3.614.933,5.387,5.387,0,0,0,2.931,1.018c.121.008.237.01.35.009.023.036.044.073.065.11-.135,0-.276,0-.422-.01a5.482,5.482,0,0,1-2.984-1.035,4.942,4.942,0,0,0-3.548-.915,7.826,7.826,0,0,0-5.366,3.16,7.532,7.532,0,0,1,5.149-1.991,5.034,5.034,0,0,1,3.487,1.33,5.384,5.384,0,0,0,2.8,1.339,4.3,4.3,0,0,0,1.293.047q0,.057,0,.112c-.046.006-.093.012-.141.016a4.576,4.576,0,0,1-1.171-.065,5.477,5.477,0,0,1-2.85-1.362,4.941,4.941,0,0,0-3.423-1.306,7.543,7.543,0,0,0-5.27,2.14,7.831,7.831,0,0,1,5.972-1.283,5.033,5.033,0,0,1,3.164,1.98,5.381,5.381,0,0,0,2.109,1.7,1.694,1.694,0,0,1-.274-.009,5.514,5.514,0,0,1-1.92-1.616,4.943,4.943,0,0,0-3.105-1.944c-3.2-.794-6.051,1.352-6.457,1.676-.07.074-.126.137-.17.186-.011-.044-.02-.089-.029-.133Z" transform="translate(-920.094 -895.38)"/>
      <g id="Group_51" data-name="Group 51" transform="translate(42.908 14.387)">
        <path id="Path_98" data-name="Path 98" d="M1011.282,969.405a1.045,1.045,0,0,0,.89-.478.213.213,0,0,0-.366-.218.666.666,0,0,1-.86.2.213.213,0,1,0-.151.4A1.372,1.372,0,0,0,1011.282,969.405Z" transform="translate(-1010.656 -968.605)" fill="#461f16"/>
      </g>
      <path id="Path_99" data-name="Path 99" d="M936.586,1250.925s-7.078,7.506-27.149.712l.308-2.912Z" transform="translate(-885.791 -1181.031)" fill="#1093dd" style="mix-blend-mode: multiply;isolation: isolate"/>
      <path id="Path_100" data-name="Path 100" d="M934.523,1060.4c-.023-3.248-1.042-19.868-.866-23.864.525-11.881,3.329-20.946-8.205-21.993-1.885-.171-12.271.651-14.026.76a3.086,3.086,0,0,0-3.032,3.032c.024,2.38-.438,10.476.192,12.771.811,2.951-.315,9.161-.882,12.768-.954,6.072-2.274,13.5-2.274,13.5C907.955,1063.454,927.238,1066.733,934.523,1060.4Z" transform="translate(-882.546 -991.394)" fill="#d15d3e"/>
    </g>
    <g id="Group_84" data-name="Group 84" transform="translate(424.681 260.497)">
      <g id="Group_53" data-name="Group 53" transform="translate(37.154 7.963)">
        <path id="Path_101" data-name="Path 101" d="M2016.221,970.518a.1.1,0,0,0,.048-.012.107.107,0,0,0,.047-.144,12.327,12.327,0,0,1-.353-10.173,16.529,16.529,0,0,1,2.564-4.467.107.107,0,1,0-.161-.14,16.743,16.743,0,0,0-2.6,4.524,12.539,12.539,0,0,0,.359,10.353A.107.107,0,0,0,2016.221,970.518Z" transform="translate(-2014.817 -955.545)" fill="#000932"/>
      </g>
      <path id="Path_102" data-name="Path 102" d="M2018.71,935.378c1.355-7.622,4.791-11.384,12.426-10.727,7.95.684,12.852,9.048,11.5,16.67a12.458,12.458,0,0,1-1.217,3.6c4.739,2.156,7.168,6.433,5.359,14.654a6.379,6.379,0,0,1-1,2.313,5.222,5.222,0,0,1-9.7,3.489,37.719,37.719,0,0,1-6.269-.622c-9.189-1.634-10.257-3.931-8.971-11.162.22-1.237,1.031-2.108,1.349-3.192C2017.989,947.8,2017.61,941.562,2018.71,935.378Z" transform="translate(-1980.388 -922.508)" fill="#000932"/>
      <ellipse id="Ellipse_14" data-name="Ellipse 14" cx="7.618" cy="12.218" rx="7.618" ry="12.218" transform="translate(47.257 57.027)" fill="#0d94f2"/>
      <g id="Group_56" data-name="Group 56" transform="translate(0 11.655)">
        <path id="Path_103" data-name="Path 103" d="M1886.327,999.574l-19.294-3.5,1.063.4-15.342-8.124a3.233,3.233,0,0,0-3.183,5.625l14.865,8.968a3.03,3.03,0,0,0,.844.35l.219.052,19.062,4.6a4.281,4.281,0,0,0,2.007-8.323C1886.491,999.607,1886.4,999.589,1886.327,999.574Z" transform="translate(-1842.599 -985.5)" fill="#ffa08a"/>
        <path id="Path_104" data-name="Path 104" d="M1988.035,1038.089l-8.974-2.005a4.809,4.809,0,0,0-2.375,9.316l8.839,2.536a5.084,5.084,0,0,0,2.8-9.773C1988.236,1038.137,1988.128,1038.11,1988.035,1038.089Z" transform="translate(-1943.968 -1024.355)" fill="#e54880"/>
        <g id="Group_55" data-name="Group 55">
          <g id="Group_54" data-name="Group 54">
            <path id="Path_105" data-name="Path 105" d="M1844.76,984.7s.538,5.019-3.1,5.662l-4.019-2.646,2.88-4.48S1844.094,984.034,1844.76,984.7Z" transform="translate(-1834.2 -981.662)" fill="#ffa08a"/>
            <path id="Path_106" data-name="Path 106" d="M1833.521,992.1l-1.854-.059h-.012a.7.7,0,0,0-.154,1.381l1.843.355a.846.846,0,1,0,.32-1.661.859.859,0,0,0-.128-.015Z" transform="translate(-1828.774 -988.787)" fill="#ffa08a"/>
            <path id="Path_107" data-name="Path 107" d="M1834.791,985.98l-2.556-.09h-.038a.7.7,0,0,0-.128,1.382l2.586.389a.845.845,0,1,0,.251-1.67.9.9,0,0,0-.1-.009Z" transform="translate(-1829.213 -983.806)" fill="#ffa08a"/>
            <path id="Path_108" data-name="Path 108" d="M1825.849,976.419l-2.686-.743-1.348-.363-.68-.177-.346-.086-.178-.042-.192-.042a.695.695,0,0,0-.336,1.348l.038.01.145.04.158.047.323.1.656.208,1.316.43,2.631.88.006,0a.843.843,0,1,0,.535-1.6Z" transform="translate(-1819.577 -974.95)" fill="#ffa08a"/>
            <path id="Path_109" data-name="Path 109" d="M1834.39,998.8c-.171-.027-.325-.046-.487-.066s-.321-.037-.482-.053c-.323-.031-.648-.055-.989-.061a.7.7,0,0,0-.187,1.376l.021,0c.27.069.551.155.83.248q.21.071.419.146c.137.05.282.1.409.155a.912.912,0,1,0,.488-1.747Z" transform="translate(-1829.408 -994.118)" fill="#ffa08a"/>
          </g>
        </g>
      </g>
      <g id="Group_60" data-name="Group 60" transform="translate(14.725 123.087)">
        <path id="Path_110" data-name="Path 110" d="M1954.377,1560.61a2.914,2.914,0,0,1,2.086,3.554l-1.625,6.244a2.914,2.914,0,1,1-5.64-1.468l1.625-6.243A2.914,2.914,0,0,1,1954.377,1560.61Z" transform="translate(-1939.179 -1560.516)" fill="#ffa08a"/>
        <g id="Group_59" data-name="Group 59" transform="translate(0 6.799)">
          <path id="Path_111" data-name="Path 111" d="M1897.339,1629.259l-.214,1,15.158,3.263.2-.922Z" transform="translate(-1897.092 -1622.977)" fill="#000932"/>
          <path id="Path_112" data-name="Path 112" d="M1897.03,1633.309c-.136.634,3.146,1.878,7.332,2.779s7.69,1.118,7.826.484-3.146-1.878-7.332-2.779S1897.166,1632.676,1897.03,1633.309Z" transform="translate(-1897.012 -1625.962)" fill="#000932"/>
          <path id="Path_113" data-name="Path 113" d="M1915.659,1602.355l-.177,6.416-14.693-3.475a20.423,20.423,0,0,0,4.946-1.385c1.76-.72,2.876-2.551,4.217-3.883Z" transform="translate(-1900.059 -1599.307)" fill="#cce3f5"/>
          <ellipse id="Ellipse_15" data-name="Ellipse 15" cx="1.174" cy="7.753" rx="1.174" ry="7.753" transform="translate(0 7.43) rotate(-77.851)" fill="#cce3f5"/>
          <g id="Group_57" data-name="Group 57" transform="translate(7.161 3.305)">
            <path id="Path_114" data-name="Path 114" d="M1936.641,1615.508a.161.161,0,0,0,.033-.318,2.725,2.725,0,0,1-1.782-1.484.16.16,0,0,0-.3.125,3.017,3.017,0,0,0,2.01,1.673A.164.164,0,0,0,1936.641,1615.508Z" transform="translate(-1934.584 -1613.609)" fill="#fff"/>
          </g>
          <g id="Group_58" data-name="Group 58" transform="translate(6.046 4.043)">
            <path id="Path_115" data-name="Path 115" d="M1930.782,1619.387a.16.16,0,0,0,.033-.317,2.727,2.727,0,0,1-1.782-1.484.16.16,0,0,0-.3.125,3.015,3.015,0,0,0,2.01,1.673A.148.148,0,0,0,1930.782,1619.387Z" transform="translate(-1928.725 -1617.488)" fill="#fff"/>
          </g>
          <circle id="Ellipse_16" data-name="Ellipse 16" cx="1.837" cy="1.837" r="1.837" transform="translate(9.163 3.653) rotate(-83.937)" fill="#cce3f5"/>
        </g>
      </g>
      <g id="Group_64" data-name="Group 64" transform="translate(67.32 119.177)">
        <path id="Path_116" data-name="Path 116" d="M2174.527,1540.531a2.914,2.914,0,0,1,4.073.629l3.812,5.2a2.914,2.914,0,1,1-4.7,3.444l-3.812-5.2A2.914,2.914,0,0,1,2174.527,1540.531Z" transform="translate(-2173.335 -1539.968)" fill="#ffa08a"/>
        <g id="Group_63" data-name="Group 63" transform="translate(1.077 6.414)">
          <path id="Path_117" data-name="Path 117" d="M2182.848,1605.984l.637.8,12.108-9.686-.589-.736Z" transform="translate(-2182.115 -1592.041)" fill="#000932"/>
          <path id="Path_118" data-name="Path 118" d="M2186.233,1609.832c.405.506,3.444-1.252,6.787-3.927s5.725-5.253,5.321-5.76-3.444,1.252-6.787,3.926S2185.828,1609.325,2186.233,1609.832Z" transform="translate(-2184.819 -1595.037)" fill="#000932"/>
          <path id="Path_119" data-name="Path 119" d="M2190.371,1573.673l4.86,4.191-11.978,9.192a20.426,20.426,0,0,0,2.052-4.709c.554-1.819-.159-3.841-.344-5.722Z" transform="translate(-2182.443 -1573.673)" fill="#cce3f5"/>
          <ellipse id="Ellipse_17" data-name="Ellipse 17" cx="7.753" cy="1.174" rx="7.753" ry="1.174" transform="matrix(0.781, -0.625, 0.625, 0.781, 0, 13.027)" fill="#cce3f5"/>
          <g id="Group_61" data-name="Group 61" transform="translate(2.859 6.047)">
            <path id="Path_120" data-name="Path 120" d="M2194.922,1606.334a2.811,2.811,0,0,0,1.78-.6.16.16,0,1,0-.2-.25,2.727,2.727,0,0,1-2.276.443.161.161,0,0,0-.09.308A3.028,3.028,0,0,0,2194.922,1606.334Z" transform="translate(-2194.02 -1605.45)" fill="#fff"/>
          </g>
          <g id="Group_62" data-name="Group 62" transform="translate(2.727 7.378)">
            <path id="Path_121" data-name="Path 121" d="M2194.226,1613.326a2.812,2.812,0,0,0,1.78-.6.16.16,0,1,0-.2-.251,2.728,2.728,0,0,1-2.276.443.16.16,0,0,0-.09.308A3.008,3.008,0,0,0,2194.226,1613.326Z" transform="translate(-2193.324 -1612.442)" fill="#fff"/>
          </g>
          <circle id="Ellipse_18" data-name="Ellipse 18" cx="1.837" cy="1.837" r="1.837" transform="matrix(0.11, -0.994, 0.994, 0.11, 2.312, 4.397)" fill="#cce3f5"/>
        </g>
      </g>
      <path id="Path_122" data-name="Path 122" d="M2043.407,971.652c-.06,1.049-.473,2.1-1.521,2.04a2.589,2.589,0,0,1-2.276-2.258,1.9,1.9,0,1,1,3.8.219Z" transform="translate(-1997.736 -958.995)" fill="#ef9789"/>
      <path id="Path_123" data-name="Path 123" d="M2095,979.58c-.125.894.045,1.849.939,1.974a2.224,2.224,0,0,0,2.3-1.52,1.634,1.634,0,1,0-3.237-.454Z" transform="translate(-2042.559 -965.904)" fill="#ffa08a"/>
      <path id="Path_124" data-name="Path 124" d="M2062.2,1000.448l.918,8.92c-2.128,3.675-6.306,1.759-6.989.054l.174-8.323C2057.532,998.993,2059.937,998.284,2062.2,1000.448Z" transform="translate(-2011.113 -982.875)" fill="#ffa08a"/>
      <path id="Path_125" data-name="Path 125" d="M1959.722,1177.292c-.33,1.438-.61,2.886-.889,4.334l-.4,2.176q-.193,1.089-.377,2.18-.734,4.364-1.33,8.754c-.811,5.851-1.239,11.775-2,17.636-.193,1.464-.385,2.929-.623,4.385-.124.727-.279,1.448-.451,2.166s-.368,1.431-.553,2.146a34.255,34.255,0,0,0-.9,4.331c-.19,1.465-.378,2.931-.551,4.4q-.526,4.4-.933,8.83c-.265,2.953-.492,5.912-.612,8.892a4.315,4.315,0,0,0,8.383,1.605c.99-2.814,1.872-5.648,2.717-8.489s1.635-5.693,2.395-8.551c.381-1.428.748-2.86,1.113-4.291a34.282,34.282,0,0,0,.76-4.359c.092-.733.174-1.468.279-2.2s.227-1.458.381-2.179c.316-1.441.68-2.873,1.041-4.305,1.46-5.726,3.251-11.389,4.659-17.126q1.062-4.3,2-8.626.233-1.081.455-2.165l.432-2.17c.276-1.449.551-2.9.776-4.356a8.032,8.032,0,0,0-15.768-3.019Z" transform="translate(-1925.26 -1122.082)" fill="#1093dd"/>
      <path id="Path_126" data-name="Path 126" d="M2047.245,1180.461c.169,1.6.392,3.188.621,4.778s.487,3.174.753,4.758q.8,4.751,1.773,9.479c.653,3.151,1.4,6.288,2.131,9.429.185.785.36,1.571.536,2.357l.264,1.179.254,1.18q.5,2.362.944,4.732l.1.557a4.6,4.6,0,0,0,.565,1.486,32.472,32.472,0,0,1,1.751,3.394c.524,1.163,1.03,2.337,1.627,3.461s1.3,2.194,1.965,3.28c.335.542.681,1.079,1.021,1.619l.512.809.519.805q2.071,3.222,4.233,6.4c1.444,2.114,2.92,4.211,4.476,6.266a4.319,4.319,0,0,0,7.52-4.037c-.853-2.432-1.785-4.821-2.749-7.193s-1.964-4.725-2.992-7.063l-.385-.877-.391-.874c-.262-.582-.519-1.166-.785-1.746-.535-1.158-1.033-2.335-1.647-3.45s-1.305-2.189-1.985-3.269a32.426,32.426,0,0,1-1.861-3.335l.67,2.043q-.231-2.4-.409-4.807l-.085-1.2-.074-1.206c-.05-.8-.1-1.608-.14-2.413-.176-3.219-.328-6.441-.576-9.649s-.568-6.407-.934-9.6q-.276-2.393-.6-4.78c-.222-1.59-.45-3.18-.732-4.761a8.032,8.032,0,0,0-15.9,2.255Z" transform="translate(-2003.885 -1122.507)" fill="#0d94f2"/>
      <g id="Group_65" data-name="Group 65" transform="translate(48.226 60.442)">
        <path id="Path_127" data-name="Path 127" d="M2073,1231.44l.4,2.86a.106.106,0,0,0,.211-.03l-.4-2.86a.107.107,0,0,0-.212.03Z" transform="translate(-2072.998 -1231.318)" fill="#38b6fc"/>
        <path id="Path_128" data-name="Path 128" d="M2077.24,1261.5l.4,2.86a.105.105,0,1,0,.208-.029l-.4-2.86a.106.106,0,0,0-.21.029Z" transform="translate(-2076.432 -1255.662)" fill="#38b6fc"/>
        <path id="Path_129" data-name="Path 129" d="M2081.482,1291.569l.4,2.86a.1.1,0,0,0,.206-.029l-.4-2.86a.1.1,0,1,0-.207.029Z" transform="translate(-2079.867 -1280.007)" fill="#38b6fc"/>
        <path id="Path_130" data-name="Path 130" d="M2085.728,1321.636l.406,2.86a.1.1,0,1,0,.2-.028l-.4-2.86a.1.1,0,0,0-.2.028Z" transform="translate(-2083.304 -1304.354)" fill="#38b6fc"/>
        <path id="Path_131" data-name="Path 131" d="M2089.991,1351.718l.406,2.86a.094.094,0,0,0,.187-.026l-.4-2.86a.1.1,0,0,0-.192.027Z" transform="translate(-2086.757 -1328.716)" fill="#38b6fc"/>
        <path id="Path_132" data-name="Path 132" d="M2094.255,1381.8l.406,2.859a.089.089,0,1,0,.176-.025l-.4-2.86a.091.091,0,1,0-.181.025Z" transform="translate(-2090.209 -1353.079)" fill="#38b6fc"/>
        <path id="Path_133" data-name="Path 133" d="M2098.518,1411.881l.406,2.86a.083.083,0,1,0,.165-.023l-.4-2.86a.086.086,0,0,0-.17.024Z" transform="translate(-2093.661 -1377.441)" fill="#38b6fc"/>
        <path id="Path_134" data-name="Path 134" d="M2108.789,1439.612l1.665,2.36a.083.083,0,1,0,.136-.1h0l-1.667-2.359a.082.082,0,1,0-.134.1Z" transform="translate(-2101.965 -1399.869)" fill="#38b6fc"/>
        <path id="Path_135" data-name="Path 135" d="M2126.288,1464.4l1.667,2.359a.083.083,0,0,0,.136-.1l-1.665-2.36a.084.084,0,0,0-.138.1Z" transform="translate(-2116.134 -1419.94)" fill="#38b6fc"/>
        <path id="Path_136" data-name="Path 136" d="M2143.82,1489.218l1.669,2.357a.075.075,0,0,0,.123-.087l-1.663-2.362a.079.079,0,0,0-.13.092Z" transform="translate(-2130.331 -1440.039)" fill="#38b6fc"/>
        <path id="Path_137" data-name="Path 137" d="M2161.368,1514.044l1.669,2.357a.068.068,0,0,0,.111-.078l-1.663-2.362a.072.072,0,0,0-.117.083Z" transform="translate(-2144.541 -1460.15)" fill="#38b6fc"/>
        <path id="Path_138" data-name="Path 138" d="M2178.917,1538.871l1.669,2.357a.06.06,0,0,0,.1-.069l-1.663-2.362a.064.064,0,1,0-.1.073Z" transform="translate(-2158.751 -1480.263)" fill="#38b6fc"/>
      </g>
      <path id="Path_139" data-name="Path 139" d="M1989.372,1078.806c2.485-11.536,4.659-10.911,4.725-14.924.195-11.933-5.348-22.617,6.27-22.966,1.9-.057,10.336,1.079,12.088,1.292,2.371.289,2.614.7,2.853,3.221a9.357,9.357,0,0,1-.573,5.222c-.991,2.906-.893,8.41-.544,12.058.588,6.14,4.767,15.255,4.767,15.255C2016.06,1083.9,1996.284,1085.593,1989.372,1078.806Z" transform="translate(-1957.06 -1016.706)" fill="#ef487d"/>
      <path id="Path_140" data-name="Path 140" d="M2056.765,1011.734l-.054,2.607s3.606.387,4.864-1.96Z" transform="translate(-2011.585 -993.079)" fill="#3b3348"/>
      <ellipse id="Ellipse_19" data-name="Ellipse 19" cx="2.549" cy="3.696" rx="2.549" ry="3.696" transform="translate(44.721 27.908) rotate(-89.478)" fill="#ffa08a"/>
      <circle id="Ellipse_20" data-name="Ellipse 20" cx="4.748" cy="4.748" r="4.748" transform="matrix(0.807, -0.591, 0.591, 0.807, 32.146, 32.037)" fill="#ef487d"/>
      <path id="Path_141" data-name="Path 141" d="M2044.552,948.087c-.407,4.122,1.445,7.531,3.967,7.917,3.047.466,7.183-3.274,7.59-7.4a6.573,6.573,0,0,0-5.5-7.458C2047.545,940.846,2044.959,943.965,2044.552,948.087Z" transform="translate(-2001.694 -935.91)" fill="#ffa08a"/>
      <g id="Group_66" data-name="Group 66" transform="translate(48.894 10.733)">
        <path id="Path_142" data-name="Path 142" d="M2076.511,971a1.726,1.726,0,1,1,1.35.9A2.2,2.2,0,0,1,2076.511,971Z" transform="translate(-2076.511 -970.327)" fill="#fff"/>
        <path id="Path_143" data-name="Path 143" d="M2077.81,970.791a.762.762,0,1,1,.683.833A.762.762,0,0,1,2077.81,970.791Z" transform="translate(-2077.56 -970.104)" fill="#461f16"/>
      </g>
      <g id="Group_67" data-name="Group 67" transform="translate(43.351 10.086)">
        <path id="Path_144" data-name="Path 144" d="M2047.384,967.993a1.727,1.727,0,1,1,1.35.9A2.2,2.2,0,0,1,2047.384,967.993Z" transform="translate(-2047.384 -967.244)" fill="#fff"/>
        <path id="Path_145" data-name="Path 145" d="M2049.305,967.392a.761.761,0,1,1,.683.833A.761.761,0,0,1,2049.305,967.392Z" transform="translate(-2048.937 -966.705)" fill="#461f16"/>
      </g>
      <g id="Group_68" data-name="Group 68" transform="translate(46.285 11.187)">
        <path id="Path_146" data-name="Path 146" d="M2063.451,976.383a.107.107,0,0,0,.015-.213.526.526,0,0,1-.434-.66l.746-2.886a.107.107,0,1,0-.207-.054l-.746,2.884a.74.74,0,0,0,.611.927Z" transform="translate(-2062.798 -972.49)" fill="#461f16"/>
      </g>
      <path id="Path_147" data-name="Path 147" d="M2061.192,997.991a1.134,1.134,0,0,1-2.238-.375Z" transform="translate(-2013.388 -981.648)" fill="#fff"/>
      <path id="Path_148" data-name="Path 148" d="M2052.234,931.832c-5.182-.357-5.49,4.952-5.49,4.952a20.69,20.69,0,0,0,3.469.771,13.42,13.42,0,0,0,5.97-.395S2057.616,932.2,2052.234,931.832Z" transform="translate(-2003.515 -928.368)" fill="#000932"/>
      <circle id="Ellipse_21" data-name="Ellipse 21" cx="3.766" cy="3.766" r="3.766" transform="matrix(0.968, -0.252, 0.252, 0.968, 51.228, 6.031)" fill="#000932"/>
      <g id="Group_69" data-name="Group 69" transform="translate(53.549 13.274)">
        <path id="Path_149" data-name="Path 149" d="M2101.183,984.886a.213.213,0,0,0,.122-.038,1.689,1.689,0,0,0,.678-1.162.214.214,0,0,0-.427-.031,1.272,1.272,0,0,1-.5.843.214.214,0,0,0,.124.389Z" transform="translate(-2100.969 -983.456)" fill="#461f16"/>
      </g>
      <g id="Group_70" data-name="Group 70" transform="translate(49.39 9.797)">
        <path id="Path_150" data-name="Path 150" d="M2080.958,965.85a.214.214,0,0,0,.092-.407,2.081,2.081,0,0,0-1.787-.1.214.214,0,1,0,.129.408,1.664,1.664,0,0,1,1.474.083A.214.214,0,0,0,2080.958,965.85Z" transform="translate(-2079.114 -965.185)" fill="#461f16"/>
      </g>
      <g id="Group_71" data-name="Group 71" transform="translate(43.98 9.318)">
        <path id="Path_151" data-name="Path 151" d="M2052.52,963.361a.214.214,0,0,0,.086-.41,2.437,2.437,0,0,0-1.75-.214.214.214,0,0,0,.085.419,2.013,2.013,0,0,1,1.491.186A.217.217,0,0,0,2052.52,963.361Z" transform="translate(-2050.685 -962.665)" fill="#461f16"/>
      </g>
      <path id="Path_152" data-name="Path 152" d="M2077.249,985.01a1.461,1.461,0,1,1-1.31-1.6A1.46,1.46,0,0,1,2077.249,985.01Z" transform="translate(-2025.854 -970.141)" fill="#ff7d90" opacity="0.5"/>
      <path id="Path_153" data-name="Path 153" d="M2049.684,982.539a1.316,1.316,0,1,1-1.18-1.439A1.316,1.316,0,0,1,2049.684,982.539Z" transform="translate(-2003.769 -968.269)" fill="#ff7d90" opacity="0.5"/>
      <g id="Group_72" data-name="Group 72" transform="translate(50.416 64.21)">
        <path id="Path_154" data-name="Path 154" d="M2088.895,1259.7a3.717,3.717,0,0,0,.986-.134l1.4-.382a3.7,3.7,0,0,0,2.637-4.35l-.758-3.5a.268.268,0,0,0-.523.113l.758,3.5a3.165,3.165,0,0,1-2.256,3.721l-1.4.383a3.164,3.164,0,0,1-3.914-2.313l-.788-3.282a.267.267,0,1,0-.52.125l.788,3.282a3.7,3.7,0,0,0,3.589,2.838Z" transform="translate(-2084.51 -1251.122)" fill="#38b6fc"/>
      </g>
      <g id="Group_76" data-name="Group 76" transform="translate(30.222 78.772)">
        <g id="Group_73" data-name="Group 73" transform="translate(11.627)">
          <path id="Path_155" data-name="Path 155" d="M2039.6,1329.245a.107.107,0,0,0,.1-.078l.389-1.391a.107.107,0,1,0-.206-.058l-.389,1.391a.107.107,0,0,0,.1.136Z" transform="translate(-2039.492 -1327.64)" fill="#38b6fc"/>
        </g>
        <g id="Group_74" data-name="Group 74" transform="translate(0.958 4.011)">
          <path id="Path_156" data-name="Path 156" d="M1983.507,1388.514a.107.107,0,0,1-.079-.129l.626-2.649a.107.107,0,1,1,.208.049l-.626,2.648a.107.107,0,0,1-.1.083Zm1.252-5.3a.106.106,0,0,1-.08-.129l.625-2.648a.107.107,0,1,1,.208.049l-.626,2.648a.107.107,0,0,1-.1.082Zm1.251-5.3a.107.107,0,0,1-.08-.129l.626-2.648a.107.107,0,0,1,.208.049l-.626,2.648a.107.107,0,0,1-.1.083Zm1.251-5.3a.107.107,0,0,1-.08-.129l.626-2.648a.107.107,0,1,1,.208.049l-.626,2.648a.107.107,0,0,1-.1.082A.1.1,0,0,1,1987.262,1372.624Zm1.252-5.3a.107.107,0,0,1-.08-.129l.626-2.648a.107.107,0,1,1,.208.049l-.626,2.648a.107.107,0,0,1-.1.083Zm1.256-5.3a.107.107,0,0,1-.074-.132l.734-2.62a.107.107,0,0,1,.206.058l-.734,2.62a.107.107,0,0,1-.1.078A.109.109,0,0,1,1989.769,1362.031Zm1.468-5.241a.107.107,0,0,1-.074-.132l.734-2.62a.107.107,0,1,1,.206.058l-.734,2.62a.107.107,0,0,1-.1.078A.1.1,0,0,1,1991.237,1356.79Zm1.468-5.241a.107.107,0,0,1-.074-.132l.734-2.621a.107.107,0,0,1,.206.058l-.734,2.621a.107.107,0,0,1-.1.078A.117.117,0,0,1,1992.7,1351.549Z" transform="translate(-1983.425 -1348.719)" fill="#38b6fc"/>
        </g>
        <g id="Group_75" data-name="Group 75" transform="translate(0 46.244)">
          <path id="Path_157" data-name="Path 157" d="M1978.5,1572.268a.107.107,0,0,0,.1-.082l.332-1.405a.107.107,0,1,0-.208-.049l-.332,1.406a.107.107,0,0,0,.08.129Z" transform="translate(-1978.391 -1570.649)" fill="#38b6fc"/>
        </g>
      </g>
      <g id="Group_79" data-name="Group 79" transform="translate(51.542 25.848)">
        <path id="Path_158" data-name="Path 158" d="M2093.623,1061.6l10.3,16.683-.412-1.059,4.22,16.839a3.233,3.233,0,0,0,6.31-1.4l-3.273-17.049a3.04,3.04,0,0,0-.3-.861l-.108-.2-9.33-17.246a4.281,4.281,0,1,0-7.53,4.074C2093.536,1061.46,2093.583,1061.538,2093.623,1061.6Z" transform="translate(-2092.496 -1054.018)" fill="#ffa08a"/>
        <path id="Path_159" data-name="Path 159" d="M2091.079,1057.108l5.111,9.073a4.809,4.809,0,0,0,8.5-4.5l-4.626-9.33a5.083,5.083,0,0,0-9.108,4.516C2090.991,1056.947,2091.038,1057.036,2091.079,1057.108Z" transform="translate(-2090.423 -1049.529)" fill="#ef487d"/>
        <g id="Group_78" data-name="Group 78" transform="translate(15.105 37.412)">
          <g id="Group_77" data-name="Group 77">
            <path id="Path_160" data-name="Path 160" d="M2169.8,1248.337s3.372-3.756,6.286-1.478l1.157,4.891-5.694.722S2169.746,1249.28,2169.8,1248.337Z" transform="translate(-2169.797 -1246.125)" fill="#ffa08a"/>
            <path id="Path_161" data-name="Path 161" d="M2190.509,1273.664l1.426,2.182.721,1.089.366.545.188.274c.062.09.131.188.2.285a.7.7,0,0,0,1.152-.776l-.014-.023c-.052-.082-.1-.164-.16-.256l-.164-.272-.329-.554-.653-1.12-1.295-2.251,0,0a.843.843,0,1,0-1.462.841Z" transform="translate(-2186.456 -1267.367)" fill="#ffa08a"/>
            <path id="Path_162" data-name="Path 162" d="M2183.073,1274.331l1.426,2.182.721,1.089.366.545.188.274c.061.09.131.188.2.285a.7.7,0,0,0,1.153-.776l-.015-.023c-.052-.082-.1-.164-.16-.256l-.164-.272-.329-.554-.653-1.12-1.295-2.251,0,0a.843.843,0,0,0-1.462.841Z" transform="translate(-2180.436 -1267.907)" fill="#ffa08a"/>
            <path id="Path_163" data-name="Path 163" d="M2178.341,1274.819l1.005,1.92.512.958.263.481c.089.161.179.322.283.5a.7.7,0,0,0,1.22-.666l-.011-.021c-.071-.141-.147-.3-.221-.459l-.223-.483-.44-.979-.866-1.971,0-.007a.843.843,0,0,0-1.544.679C2178.323,1274.784,2178.332,1274.8,2178.341,1274.819Z" transform="translate(-2176.637 -1268.359)" fill="#ffa08a"/>
            <path id="Path_164" data-name="Path 164" d="M2195.351,1268.075l1.453,2.166.734,1.081.373.541.191.272c.063.089.134.186.2.283a.7.7,0,0,0,1.156-.77l-.018-.03-.156-.258-.161-.274-.322-.558-.639-1.128-1.268-2.267,0-.005a.906.906,0,1,0-1.582.885C2195.324,1268.033,2195.338,1268.055,2195.351,1268.075Z" transform="translate(-2190.364 -1262.755)" fill="#ffa08a"/>
          </g>
          <path id="Path_165" data-name="Path 165" d="M2198.136,1261.02l1.457,1.474.734.734c.249.246.489.485.76.74a.7.7,0,0,0,1-.96l-.013-.015c-.208-.24-.43-.51-.646-.771l-.649-.8-1.292-1.606,0,0a.907.907,0,1,0-1.352,1.206Z" transform="translate(-2192.531 -1256.935)" fill="#ffa08a"/>
        </g>
      </g>
      <ellipse id="Ellipse_22" data-name="Ellipse 22" cx="3.732" cy="5.456" rx="3.732" ry="5.456" transform="translate(39.514 39.78) rotate(-86)" fill="#fff"/>
      <g id="Group_82" data-name="Group 82" transform="translate(50.612)">
        <g id="Group_80" data-name="Group 80">
          <path id="Path_166" data-name="Path 166" d="M2085.646,916.4a.107.107,0,0,0,.1-.064c.011-.026,1.168-2.631,3.251-2.409a.107.107,0,0,0,.023-.213c-2.241-.238-3.458,2.509-3.47,2.537a.107.107,0,0,0,.056.141A.105.105,0,0,0,2085.646,916.4Z" transform="translate(-2085.539 -913.702)" fill="#000932"/>
        </g>
        <g id="Group_81" data-name="Group 81" transform="translate(0.262 1.411)">
          <path id="Path_167" data-name="Path 167" d="M2087.025,922.441a.107.107,0,0,0,.077-.032,3.619,3.619,0,0,1,2.816-1.044.107.107,0,1,0,.035-.211,3.769,3.769,0,0,0-3,1.106.107.107,0,0,0,.077.182Z" transform="translate(-2086.918 -921.116)" fill="#000932"/>
        </g>
      </g>
      <g id="Group_83" data-name="Group 83" transform="translate(58.832 6.368)">
        <path id="Path_168" data-name="Path 168" d="M2134.7,978.711a.107.107,0,0,0,.086-.043,15.9,15.9,0,0,0,1.922-3.689,10.559,10.559,0,0,0,.013-7.941c-1.358-3.016-5.167-3.879-5.934-4.024.344-.828,2.243-5.6,1.975-9.3a9.56,9.56,0,0,0-3.858-6.533.107.107,0,1,0-.12.177,9.335,9.335,0,0,1,3.765,6.371c.289,3.994-1.988,9.27-2.011,9.323l-.056.128.138.02c.044.007,4.448.688,5.9,3.923,2.467,5.478-1.868,11.355-1.912,11.414a.107.107,0,0,0,.021.15A.106.106,0,0,0,2134.7,978.711Z" transform="translate(-2128.735 -947.164)" fill="#000932"/>
      </g>
    </g>
  </g>
</svg>
