<svg xmlns="http://www.w3.org/2000/svg" width="107.781" height="107.803" viewBox="0 0 107.781 107.803">
  <g id="_049---Spices" data-name="049---Spices" transform="translate(0 -0.967)">
    <path id="Shape" d="M34,32.573,71.153,27l2.731,1.152-.409,2.006A26.007,26.007,0,0,1,47.969,51.149H45.146Z" transform="translate(29.159 22.326)" fill="#805333"/>
    <path id="Shape-2" data-name="Shape" d="M18,17v9.7l40.273,21.7c12.65-.632,23.48-5.183,29.332-11.666a16.57,16.57,0,0,0,4.7-11.146V17Z" transform="translate(15.437 13.75)" fill="#a56a43"/>
    <path id="Shape-3" data-name="Shape" d="M20.564,35.268A14.694,14.694,0,0,1,18,26.983C18,16.524,30.037,7.756,46.18,5.36L76.72,8.852c10.551,4.551,18.818,13.5,14.415,23.815-4.124,9.678-18.576,16.812-35.982,16.812-2.341,0-2.991-.093-3.2-.093Z" transform="translate(15.437 3.767)" fill="#cb8252"/>
    <path id="Shape-4" data-name="Shape" d="M80.335,34.465c-3.307,6.409-14.861,11.146-28.793,11.146a53.871,53.871,0,0,1-14.378-1.858l-13-7.245a9.79,9.79,0,0,1-1.951-3.381C27.374,29.9,35.381,23.84,36.7,17.9,38.539,9.61,53.14.118,60.83,1.028c8.991,1.17,13.709,14.6,18.409,24.261A31.489,31.489,0,0,0,81.1,28.744,7.765,7.765,0,0,1,80.335,34.465Z" transform="translate(19.048 0)" fill="#c03a2b"/>
    <path id="Shape-5" data-name="Shape" d="M36.866,10.08c-1.337,5.944-9.288,12.019-14.49,15.233-2.359-7.635,6.687-13,14.49-15.233Z" transform="translate(18.863 7.815)" fill="#805333"/>
    <g id="Group_68398" data-name="Group 68398" transform="translate(63.159 10.316)">
      <circle id="Oval" cx="1.858" cy="1.858" r="1.858" transform="translate(3.715 3.715)" fill="#e64c3c"/>
      <circle id="Oval-2" data-name="Oval" cx="1.858" cy="1.858" r="1.858" transform="translate(14.861 9.288)" fill="#e64c3c"/>
      <circle id="Oval-3" data-name="Oval" cx="1.858" cy="1.858" r="1.858" transform="translate(13.003 20.434)" fill="#e64c3c"/>
      <circle id="Oval-4" data-name="Oval" cx="1.858" cy="1.858" r="1.858" transform="translate(0 14.861)" fill="#e64c3c"/>
      <circle id="Oval-5" data-name="Oval" cx="1.858" cy="1.858" r="1.858" transform="translate(14.861)" fill="#e64c3c"/>
    </g>
    <path id="Shape-6" data-name="Shape" d="M67.436,46.62l-.409,2.006A26.007,26.007,0,0,1,41.522,69.617h-13A26.007,26.007,0,0,1,2.939,48.626L2.53,46.62Z" transform="translate(2.17 39.153)" fill="#805333"/>
    <path id="Shape-7" data-name="Shape" d="M0,36v8.582c0,12.65,16.719,23,37.153,23s37.153-10.254,37.153-22.9V36Z" transform="translate(0 30.045)" fill="#cb8252"/>
    <path id="Shape-8" data-name="Shape" d="M28.18,24.36C12.037,26.756,0,35.524,0,45.983c0,12.372,16.719,22.4,37.153,22.4,17.313,0,31.858-7.133,35.982-16.719C77.519,41.394,69.42,32.422,58.72,27.852Z" transform="translate(0 20.062)" fill="#cf976a"/>
    <path id="Shape-9" data-name="Shape" d="M62.344,53.406c-3.307,6.409-14.861,11.146-28.793,11.146S8.064,59.815,4.757,53.406A10.217,10.217,0,0,1,4.2,52.069c5.164-3.232,13.171-9.288,14.49-15.233,1.858-8.285,16.459-17.778,24.149-16.719,8.991,1.17,13.709,14.6,18.409,24.261a31.487,31.487,0,0,0,1.858,3.455A7.765,7.765,0,0,1,62.344,53.406Z" transform="translate(3.602 16.354)" fill="#f0c419"/>
    <path id="Shape-10" data-name="Shape" d="M18.866,29.08C17.528,35.024,9.577,41.1,4.376,44.313,2.017,36.678,11.064,31.309,18.866,29.08Z" transform="translate(3.426 24.11)" fill="#805333"/>
    <circle id="Oval-6" data-name="Oval" cx="1.858" cy="1.858" r="1.858" transform="translate(33.437 51.184)" fill="#f29c1f"/>
    <circle id="Oval-7" data-name="Oval" cx="1.858" cy="1.858" r="1.858" transform="translate(48.298 60.472)" fill="#f29c1f"/>
    <circle id="Oval-8" data-name="Oval" cx="1.858" cy="1.858" r="1.858" transform="translate(37.153 69.76)" fill="#f29c1f"/>
    <circle id="Oval-9" data-name="Oval" cx="1.858" cy="1.858" r="1.858" transform="translate(22.292 67.903)" fill="#f29c1f"/>
    <circle id="Oval-10" data-name="Oval" cx="1.858" cy="1.858" r="1.858" transform="translate(44.583 45.611)" fill="#f29c1f"/>
  </g>
</svg>
