<svg xmlns="http://www.w3.org/2000/svg" width="303.055" height="355.796" viewBox="0 0 303.055 355.796">
  <g id="Group_68277" data-name="Group 68277" transform="translate(-184 -120)">
    <rect id="Rectangle_2549" data-name="Rectangle 2549" width="301" height="300" transform="translate(186.055 147.898)" fill="none"/>
    <g id="paper-plane" transform="translate(184 120)">
      <path id="Path_7275" data-name="Path 7275" d="M210.559,230.337l-47.913,11.845,56.734,34.664Z" transform="translate(-77.545 -70.439)" fill="#d4801e"/>
      <path id="Path_7276" data-name="Path 7276" d="M90.56,0l-49.6,184.557a6.216,6.216,0,0,0,7.5,7.648l125.5-31.028Z" transform="translate(-40.736)" fill="#e5bb8a"/>
      <path id="Path_7277" data-name="Path 7277" d="M204.156,207.687l28.066-61.745L111.939,0Z" transform="translate(-62.277)" fill="#d89b53"/>
      <path id="Path_7278" data-name="Path 7278" d="M232.221,145.945l-5.893,12.968L131.684,44.466,111.939.005Z" transform="translate(-62.277 -0.002)" fill="#d4801e"/>
      <path id="Path_7279" data-name="Path 7279" d="M111.939,0,319.848,112.892a6.217,6.217,0,0,1-1.458,11.494l-86.169,21.557Z" transform="translate(-62.704)" fill="#e5bb8a"/>
      <path id="Path_7280" data-name="Path 7280" d="M318.391,124.388l-5.692,1.427a6.459,6.459,0,0,0-1.548-1.17L136.507,29.815,111.939.005,319.846,112.9A6.214,6.214,0,0,1,318.391,124.388Z" transform="translate(-62.704 -0.002)" fill="#d89b53"/>
      <g id="Group_12016" data-name="Group 12016" transform="translate(28.588 149.894)">
        <path id="Path_7281" data-name="Path 7281" d="M389.464,395.817c10.389-5.945,17.385-16.193,18.257-26.742,1.044-12.629-7.126-24.67-18.6-27.413-7.723-1.847-15.59.311-22.752,6.239a51.269,51.269,0,0,0-13.734,18.9,84.871,84.871,0,0,0-6.608,24.259,94.5,94.5,0,0,1-42.3-18.456c-16.468-12.607-28.306-29.85-33.334-48.552a5.324,5.324,0,1,0-10.283,2.765c10.463,38.92,45.892,69.21,85.509,74.958a62.193,62.193,0,0,0,3.907,19.684c7.266,19.182,25.365,32.723,44.014,32.93h.06a5.324,5.324,0,0,0,.058-10.647c-14.37-.16-28.422-10.874-34.174-26.054a50.757,50.757,0,0,1-3.1-14.968c.973.029,1.962.037,2.929.042C371.472,402.739,381.334,400.469,389.464,395.817Zm-32.774-3.747a74.007,74.007,0,0,1,5.716-21.038c6.7-15.445,17.259-20.685,24.24-19.015,6.272,1.5,11.064,8.909,10.462,16.18-.588,7.107-5.543,14.149-12.934,18.378-6.481,3.709-14.617,5.519-24.874,5.533C358.428,392.109,357.563,392.1,356.691,392.069Z" transform="translate(-135.726 -248.481)" fill="#d4801e"/>
        <path id="Path_7282" data-name="Path 7282" d="M363.935,267.7a5.324,5.324,0,1,0,4.371-9.709A30.8,30.8,0,0,1,351.7,239.1a5.324,5.324,0,0,0-10.189,3.092A41.589,41.589,0,0,0,363.935,267.7Z" transform="translate(-160.003 -223.025)" fill="#d4801e"/>
        <path id="Path_7283" data-name="Path 7283" d="M411.734,252.858a5.324,5.324,0,0,0,2.344-10.387,44.451,44.451,0,0,1-28.928-21.929,5.324,5.324,0,0,0-9.367,5.063A55.242,55.242,0,0,0,411.734,252.858Z" transform="translate(-170.318 -217.749)" fill="#d4801e"/>
        <path id="Path_7284" data-name="Path 7284" d="M138.518,295.718a5.324,5.324,0,0,0-3.28,6.777,30.8,30.8,0,0,1-2.311,25.045,5.324,5.324,0,1,0,9.248,5.278A41.59,41.59,0,0,0,145.3,299,5.324,5.324,0,0,0,138.518,295.718Z" transform="translate(-96.794 -241.07)" fill="#d4801e"/>
        <path id="Path_7285" data-name="Path 7285" d="M97.961,301.193a5.324,5.324,0,0,0-4.567,5.986,44.448,44.448,0,0,1-10.483,34.754,5.324,5.324,0,0,0,8.009,7.018,55.243,55.243,0,0,0,13.027-43.191A5.322,5.322,0,0,0,97.961,301.193Z" transform="translate(-81.591 -242.788)" fill="#d4801e"/>
      </g>
    </g>
  </g>
</svg>
